<svg id="svg" xmlns="http://www.w3.org/2000/svg" xmlns:xlink="http://www.w3.org/1999/xlink" width="400" height="293.44262295081967" viewBox="0, 0, 400,293.44262295081967"><g id="svgg"><path id="path0" d="M65.574 9.718 C 33.509 11.648,29.811 18.186,29.336 73.770 C 28.949 119.124,25.965 128.148,9.750 133.006 C 0.708 135.715,-0.461 151.377,8.236 153.287 C 25.388 157.054,29.127 167.474,29.410 212.295 C 29.767 269.006,34.405 276.817,68.162 277.561 L 82.110 277.869 81.629 268.852 L 81.148 259.836 71.311 259.414 C 49.725 258.488,50.344 259.939,49.123 207.377 C 48.321 172.846,47.725 165.573,45.334 161.180 C 42.009 155.071,32.044 145.902,28.728 145.902 C 24.603 145.902,24.292 142.655,28.272 141.142 C 45.744 134.499,47.991 127.755,49.076 78.689 C 50.217 27.050,50.595 26.230,73.195 26.230 L 81.967 26.230 81.967 17.213 C 81.967 12.254,81.783 8.328,81.557 8.489 C 81.332 8.650,74.139 9.203,65.574 9.718 M309.836 20.388 L 309.836 29.508 320.127 29.508 C 339.680 29.508,340.722 32.027,341.495 81.148 C 341.822 101.885,342.434 119.959,342.855 121.311 C 345.912 131.119,354.693 141.628,362.295 144.575 L 366.393 146.164 361.475 148.691 C 352.592 153.256,345.424 161.680,342.924 170.492 C 342.540 171.844,341.696 191.393,341.048 213.934 C 340.400 236.475,339.752 255.074,339.607 255.264 C 335.422 260.773,331.396 262.295,321.002 262.295 L 309.836 262.295 309.836 271.311 L 309.836 280.328 321.721 280.319 C 355.618 280.293,360.656 272.116,360.656 217.127 C 360.656 175.294,361.312 172.198,372.354 161.900 C 375.998 158.503,379.467 156.009,380.063 156.358 C 384.405 158.897,388.525 153.862,388.525 146.018 C 388.525 137.932,388.449 137.811,382.319 136.160 C 364.545 131.374,360.664 120.317,360.620 74.342 C 360.568 20.288,355.931 12.483,323.361 11.624 L 309.836 11.267 309.836 20.388 M141.729 40.089 C 132.874 48.945,137.495 58.012,153.914 63.999 C 164.258 67.770,167.563 71.857,163.869 76.308 C 159.336 81.770,144.262 77.515,144.262 70.773 C 144.262 69.717,142.418 68.852,140.164 68.852 C 134.428 68.852,134.757 74.354,140.858 80.454 C 147.505 87.101,163.444 87.525,169.747 81.222 C 178.332 72.637,172.777 60.877,158.429 57.264 C 149.349 54.978,144.434 50.244,146.956 46.216 C 150.794 40.084,165.574 43.290,165.574 50.254 C 165.574 51.538,167.361 52.459,169.850 52.459 C 173.679 52.459,174.015 51.987,173.067 47.951 C 170.296 36.156,150.602 31.216,141.729 40.089 M180.328 60.656 L 180.328 85.246 196.721 85.246 C 212.022 85.246,213.115 85.027,213.115 81.967 C 213.115 78.980,212.022 78.689,200.820 78.689 L 188.525 78.689 188.525 71.311 L 188.525 63.934 199.180 63.934 C 208.743 63.934,209.836 63.598,209.836 60.656 C 209.836 57.713,208.743 57.377,199.180 57.377 L 188.525 57.377 188.525 50.000 L 188.525 42.623 200.820 42.623 C 212.022 42.623,213.115 42.332,213.115 39.344 C 213.115 36.284,212.022 36.066,196.721 36.066 L 180.328 36.066 180.328 60.656 M218.033 53.331 C 218.033 79.674,221.471 85.246,237.723 85.246 C 252.764 85.246,255.738 80.395,255.738 55.864 L 255.738 36.066 251.639 36.066 L 247.541 36.066 247.541 54.664 C 247.541 75.515,246.074 78.689,236.439 78.689 C 228.058 78.689,226.230 74.220,226.230 53.734 L 226.230 36.066 222.131 36.066 L 218.033 36.066 218.033 53.331 M144.262 113.215 C 125.520 121.527,122.956 151.689,140.041 162.883 C 159.030 175.325,185.084 165.030,187.702 144.050 C 190.850 118.815,168.080 102.652,144.262 113.215 M209.836 113.215 C 189.188 122.372,188.837 154.885,209.280 164.851 C 217.090 168.659,232.755 168.774,241.393 165.086 L 247.541 162.462 247.541 148.444 L 247.541 134.426 236.885 134.426 L 226.230 134.426 226.230 140.164 C 226.230 145.446,226.620 145.902,231.148 145.902 C 238.070 145.902,238.217 152.809,231.355 155.652 C 215.997 162.013,201.388 145.926,208.449 130.428 C 212.141 122.326,225.830 118.525,233.416 123.495 C 237.430 126.125,238.476 125.766,243.265 120.106 L 246.367 116.441 239.167 113.175 C 230.019 109.024,219.252 109.039,209.836 113.215 M273.635 112.011 C 257.170 117.403,249.788 135.430,257.284 151.941 C 266.831 172.969,300.844 173.725,310.618 153.126 C 322.761 127.536,300.796 103.117,273.635 112.011 M88.525 140.164 L 88.525 167.213 105.738 167.213 L 122.951 167.213 122.951 161.550 L 122.951 155.888 111.885 155.403 L 100.820 154.918 100.361 134.016 L 99.902 113.115 94.213 113.115 L 88.525 113.115 88.525 140.164 M171.050 126.922 C 178.012 134.434,176.173 149.742,167.767 154.240 C 148.129 164.751,130.625 138.191,148.060 124.337 C 153.715 119.843,165.742 121.195,171.050 126.922 M291.608 123.129 C 306.665 128.377,303.768 153.652,287.765 156.654 C 270.900 159.818,259.802 138.306,272.005 126.103 C 277.219 120.890,282.770 120.047,291.608 123.129 M135.313 206.880 C 132.852 213.465,128.713 224.570,126.116 231.557 L 121.394 244.262 125.535 244.262 C 128.717 244.262,130.230 242.935,132.073 238.525 C 134.429 232.885,134.636 232.787,144.157 232.787 C 153.774 232.787,153.858 232.828,155.738 238.525 C 157.209 242.982,158.518 244.262,161.603 244.262 C 166.709 244.262,166.956 245.554,156.744 218.852 C 145.539 189.556,142.437 187.823,135.313 206.880 M177.405 197.640 C 160.782 209.283,168.075 244.262,187.124 244.262 C 191.204 244.262,194.787 245.605,198.062 248.361 C 203.702 253.106,205.390 253.381,208.189 250.009 C 209.855 248.002,209.577 247.037,206.653 244.669 L 203.083 241.779 206.424 234.414 C 217.528 209.933,196.998 183.917,177.405 197.640 M216.393 212.348 C 216.393 238.690,219.831 244.262,236.084 244.262 C 251.124 244.262,254.098 239.411,254.098 214.880 L 254.098 195.082 250.000 195.082 L 245.902 195.082 245.902 213.680 C 245.902 234.531,244.435 237.705,234.800 237.705 C 226.418 237.705,224.590 233.236,224.590 212.750 L 224.590 195.082 220.492 195.082 L 216.393 195.082 216.393 212.348 M262.295 219.672 L 262.295 244.262 266.393 244.262 L 270.492 244.262 270.492 219.672 L 270.492 195.082 266.393 195.082 L 262.295 195.082 262.295 219.672 M196.630 204.827 C 206.490 214.687,200.899 237.705,188.644 237.705 C 181.143 237.705,177.049 231.234,177.049 219.377 C 177.049 204.374,188.023 196.219,196.630 204.827 M149.872 222.548 C 150.963 225.985,150.559 226.230,143.795 226.230 L 136.550 226.230 139.996 216.370 L 143.443 206.510 146.073 212.688 C 147.520 216.086,149.229 220.523,149.872 222.548 " stroke="none" fill="#8D8F92" fill-rule="evenodd"></path></g></svg>