<?xml version="1.0" encoding="utf-8"?>
<!DOCTYPE svg PUBLIC "-//W3C//DTD SVG 20010904//EN" "http://www.w3.org/TR/2001/REC-SVG-20010904/DTD/svg10.dtd">
<svg version="1.0" xmlns="http://www.w3.org/2000/svg" width="244px" height="179px" viewBox="0 0 244 179" preserveAspectRatio="xMidYMid meet">
 <g fill="#8D8F92">
  <path d="M189 165.5 l0 -5.5 6.4 0 c5.4 0 7 -0.4 9.3 -2.4 l2.8 -2.4 0.5 -25.4 c0.4 -22 0.7 -25.8 2.4 -29 2 -4.2 8.8 -10.8 11.1 -10.8 2.4 0 1.7 -1.7 -0.9 -2.4 -3 -0.7 -8 -5.8 -10.3 -10.5 -1.5 -3.1 -1.8 -7.3 -2.3 -28.9 l-0.5 -25.4 -2.8 -2.4 c-2.4 -2 -3.9 -2.4 -9.5 -2.4 l-6.7 0 0.3 -5.6 0.4 -5.6 9.2 0.4 c10.6 0.4 14.9 2.4 18.7 8.6 2.2 3.5 2.4 4.9 2.9 28.7 0.6 27.5 1.1 29.9 6.8 34.7 1.7 1.5 4.7 3.2 6.7 3.8 3.4 1.1 3.5 1.3 3.5 6.6 0 5 -0.2 5.4 -2.4 5.4 -3.6 0 -8.8 4.1 -11.6 9 -2.4 4.4 -2.5 5.2 -3 29.6 l-0.5 25.1 -2.8 4.2 c-4 6 -9 8.1 -19.4 8.1 l-8.3 0 0 -5.5z"/>
  <path d="M32.6 168.9 c-5.2 -1.2 -9.9 -4.9 -12.2 -9.6 -1.7 -3.3 -2 -6.9 -2.4 -28.9 l-0.5 -25.1 -2.8 -4.1 c-2.6 -4 -8.9 -8.2 -12.2 -8.2 -1.2 0 -1.5 -1.2 -1.5 -5.4 0 -5 0.2 -5.4 2.8 -5.9 4.3 -0.9 9.3 -4.9 11.6 -9.2 1.9 -3.6 2.1 -6.2 2.6 -28.5 0.4 -21.4 0.7 -25 2.4 -28.3 3.7 -7.4 11.7 -11.1 23.1 -10.5 l6 0.3 0 5.5 0 5.5 -4.1 -0.3 c-5.8 -0.5 -11.6 1.3 -13.4 4 -1.2 1.8 -1.6 7.5 -2.1 27.3 -0.3 15.1 -0.9 26 -1.6 27.6 -1.8 4.1 -6.9 9.5 -10.4 10.9 l-3.1 1.3 3.5 1.8 c3.8 2 8.3 6.8 10 10.8 0.6 1.5 1.3 13 1.6 27.8 0.6 24.9 0.6 25.2 3 27.7 2.2 2.3 3.2 2.6 9.8 2.6 l7.4 0 -0.3 5.8 -0.3 5.7 -6.5 0.2 c-3.6 0.1 -8.3 -0.3 -10.4 -0.8z"/>
  <path d="M56 132.4 c0 -19 0.1 -20.5 1.8 -20.2 1.4 0.3 1.7 1.7 2 9.1 l0.3 8.7 10.9 0 10.9 0 0.3 -8.7 c0.3 -7.4 0.6 -8.8 2.1 -9.1 1.6 -0.3 1.7 1.2 1.7 20.2 0 19.9 -0.1 20.6 -2 20.6 -1.9 0 -2 -0.7 -2 -9.5 l0 -9.5 -11 0 -11 0 0 9.5 c0 8.8 -0.1 9.5 -2 9.5 -1.9 0 -2 -0.7 -2 -20.6z"/>
  <path d="M97.2 132.8 l0.3 -20.3 12.5 0 c11 0 12.5 0.2 12.8 1.7 0.3 1.5 -0.9 1.8 -10.5 2 l-10.8 0.3 -0.3 6.8 -0.3 6.7 10.1 0 c9.3 0 10 0.1 10 2 0 1.9 -0.7 2 -10 2 l-10 0 0 7.5 0 7.5 11 0 c10.3 0 11 0.1 11 2 0 1.9 -0.7 2 -13 2 l-13 0 0.2 -20.2z"/>
  <path d="M132 132.5 l0 -20.5 6.8 0 c13.1 0 18.5 3.4 18.5 11.6 0 4 -0.4 5.1 -3.1 7.6 -1.8 1.5 -3.9 2.8 -4.7 2.8 -2.4 0 -1.8 1.5 4 10.6 5.5 8.4 5.5 8.5 2.9 8.2 -2.2 -0.2 -3.8 -2 -8.1 -9 -5.1 -8.3 -5.6 -8.8 -8.9 -8.8 l-3.4 0 0 9 c0 8.3 -0.1 9 -2 9 -1.9 0 -2 -0.7 -2 -20.5z m18.9 -3.9 c2.7 -2.5 2.8 -7.7 0.1 -10.1 -1.2 -1.1 -4.2 -1.9 -8.5 -2.2 l-6.5 -0.6 0 7.8 0 7.7 6.4 -0.4 c4.5 -0.3 7.1 -1 8.5 -2.2z"/>
  <path d="M165.2 132.8 l0.3 -20.3 12.5 0 c11 0 12.5 0.2 12.8 1.7 0.3 1.5 -0.9 1.8 -10.5 2 l-10.8 0.3 -0.3 6.8 -0.3 6.7 10.1 0 c9.3 0 10 0.1 10 2 0 1.9 -0.7 2 -10 2 l-10 0 0 7.5 0 7.5 11 0 c10.3 0 11 0.1 11 2 0 1.9 -0.7 2 -13 2 l-13 0 0.2 -20.2z"/>
  <path d="M89.5 101.5 c-13.3 -4.7 -15.1 -23.1 -3.2 -31.9 4.4 -3.2 16 -3 21 0.4 12.1 8.2 8.9 28.1 -5.1 32 -4.9 1.3 -7.9 1.2 -12.7 -0.5z m14.8 -9.5 c4.5 -5 3.2 -13.6 -2.4 -16.6 -8.2 -4.2 -16.8 1.8 -15.6 10.8 1.3 9.5 11.6 12.9 18 5.8z"/>
  <path d="M129.5 101.6 c-13.3 -4.9 -15.1 -23.2 -3.2 -32 3.9 -2.9 16.9 -3 21.1 -0.3 l2.8 1.9 -2.7 2.8 c-2.6 2.7 -3 2.8 -4.9 1.5 -4.5 -3.2 -13.2 -1 -15.4 4 -4.3 9.3 3.4 18.5 13.3 15.7 2.2 -0.6 3.1 -1.5 3.3 -3.5 0.3 -2.4 0 -2.7 -2.7 -2.7 -2.9 0 -3.1 -0.3 -3.1 -3.5 l0 -3.5 6.5 0 6.5 0 0 8.9 0 8.9 -3.2 1.1 c-5.6 2 -13.9 2.3 -18.3 0.7z"/>
  <path d="M166.7 101.6 c-5 -1.9 -7.6 -4.2 -9.8 -9.1 -5.7 -12.4 2.7 -25.5 16.3 -25.5 9.1 0 15.6 4.8 17.9 13.2 3.8 14.2 -10.3 26.6 -24.4 21.4z m12.1 -7.6 c5.1 -3.1 6.5 -8.5 3.7 -14.5 -2.6 -5.3 -8.7 -7 -14.6 -4 -5.2 2.7 -6.6 11.1 -2.8 15.9 3.8 4.9 8.5 5.7 13.7 2.6z"/>
  <path d="M54.2 85.3 l0.3 -16.8 3.3 -0.3 3.2 -0.3 0 13.5 0 13.6 7 0 7 0 0 3.5 0 3.5 -10.5 0 -10.5 0 0.2 -16.7z"/>
  <path d="M96.5 56.3 c-7.3 -3.8 -10.8 -9.2 -10.8 -16.8 0 -9.4 5.6 -16.7 14.5 -18.7 13.1 -2.9 25.3 10.1 21.8 23.1 -2.9 10.9 -16.2 17.3 -25.5 12.4z m15.4 -4 c6.6 -5 8.6 -13.8 4.7 -21.1 -3.6 -6.9 -13.5 -9.4 -20.4 -5.2 -7.3 4.5 -9.1 16.4 -3.4 23.1 5 6 13.4 7.4 19.1 3.2z"/>
  <path d="M136.4 56.4 c-5.5 -2.7 -6.4 -5.6 -6.4 -21.3 0 -11.9 0.2 -14.1 1.5 -14.1 1.3 0 1.5 2 1.5 12.4 0 6.7 0.5 13.7 1.1 15.5 2.1 6.1 11.1 7.8 15.5 3 1.6 -1.8 1.9 -4.1 2.2 -16.5 0.3 -13.7 0.4 -14.4 2.4 -14.4 1.9 0 2 0.5 1.6 13.8 -0.3 10.6 -0.7 14.4 -2.1 16.9 -3.1 5.9 -10.8 7.9 -17.3 4.7z"/>
  <path d="M67 49.4 l0 -7.7 -6.5 -9.8 c-3.6 -5.5 -6.5 -10.1 -6.5 -10.4 0 -0.3 0.9 -0.5 1.9 -0.5 1.3 0 3.6 2.7 7.4 8.6 l5.4 8.6 5.4 -8.6 c3.6 -5.8 6 -8.6 7.3 -8.6 2.4 0 2 0.7 -5.4 12 l-6.1 9.4 0.3 7.3 c0.3 6.4 0.1 7.3 -1.4 7.3 -1.6 0 -1.8 -1 -1.8 -7.6z"/>
  <path d="M165 38.9 l0 -18.1 7.9 0.3 c9.9 0.5 13.4 2.6 13.9 8.4 0.4 4.8 -1.2 8 -4.9 9.6 -3.4 1.4 -3.4 1.5 -1.1 5.4 7.4 12.1 7.5 12.5 5.3 12.5 -1.5 0 -3.3 -2.2 -6.9 -8.2 -4.3 -7.4 -5.2 -8.3 -7.8 -8.3 l-2.9 0 -0.3 8.3 c-0.2 6.4 -0.6 8.2 -1.7 8.2 -1.3 0 -1.5 -2.9 -1.5 -18.1z m15.8 -3.5 c1.6 -1.1 2.2 -2.5 2.2 -5 0 -3.1 -0.4 -3.7 -3.6 -5 -2 -0.8 -5.2 -1.4 -7.2 -1.2 l-3.7 0.3 -0.3 6.3 -0.3 6.2 5.3 0 c3.2 0 6.2 -0.6 7.6 -1.6z"/>
 </g>
</svg>