<svg id="svg" xmlns="http://www.w3.org/2000/svg" xmlns:xlink="http://www.w3.org/1999/xlink" width="400" height="189.69957081545064" viewBox="0, 0, 400,189.69957081545064"><g id="svgg"><path id="path0" d="M179.185 2.829 C 155.869 4.147,135.581 6.837,115.021 11.338 C 14.400 33.362,-27.730 91.958,24.117 137.772 C 99.538 204.418,301.615 204.320,376.121 137.601 C 436.351 83.667,367.752 16.330,240.343 4.322 C 237.629 4.066,233.283 3.651,230.687 3.400 C 226.253 2.972,184.793 2.512,179.185 2.829 M221.638 7.122 C 225.212 7.315,231.403 7.786,238.275 8.387 C 247.690 9.211,266.099 11.894,273.391 13.506 C 273.981 13.636,274.998 13.841,275.650 13.960 C 286.402 15.930,311.830 23.200,319.099 26.382 C 319.807 26.692,321.738 27.467,323.391 28.105 C 334.868 32.533,350.393 40.951,359.013 47.419 C 363.612 50.870,363.537 50.809,367.874 54.652 C 386.586 71.236,393.127 93.282,384.958 112.232 C 384.754 112.704,384.296 113.766,383.939 114.592 C 381.072 121.230,373.387 130.936,366.093 137.134 C 363.746 139.129,360.392 141.818,359.391 142.507 C 349.745 149.149,345.473 151.720,337.339 155.780 C 252.609 198.075,105.661 191.156,39.730 141.768 C 18.952 126.202,8.050 104.738,12.195 87.554 C 12.337 86.964,12.537 86.038,12.639 85.496 C 13.753 79.603,18.625 69.706,23.038 64.373 C 27.856 58.550,34.159 52.385,37.912 49.825 C 38.423 49.477,38.938 49.061,39.056 48.901 C 39.366 48.482,46.254 43.695,48.723 42.185 C 57.140 37.032,63.142 33.947,73.176 29.613 C 78.695 27.230,83.807 25.323,92.060 22.568 C 99.026 20.242,99.764 20.012,103.219 19.086 C 114.265 16.127,121.487 14.402,124.893 13.910 C 125.719 13.790,126.685 13.592,127.039 13.470 C 127.795 13.209,133.363 12.164,135.854 11.816 C 136.808 11.682,138.063 11.479,138.644 11.364 C 140.657 10.963,144.862 10.346,147.210 10.106 C 148.509 9.974,149.972 9.787,150.463 9.692 C 150.954 9.597,152.499 9.402,153.896 9.257 C 155.294 9.113,157.017 8.907,157.725 8.799 C 158.433 8.692,160.365 8.496,162.017 8.365 C 165.570 8.081,168.854 7.806,172.103 7.518 C 173.401 7.403,178.423 7.185,183.262 7.033 C 188.101 6.881,192.157 6.661,192.275 6.543 C 192.500 6.317,214.960 6.760,221.638 7.122 M181.116 8.882 C 176.447 9.094,160.933 10.299,157.511 10.716 C 155.740 10.931,153.230 11.221,151.931 11.360 C 140.254 12.612,118.762 16.784,106.438 20.192 C 103.723 20.942,100.923 21.707,100.215 21.892 C 83.669 26.208,60.409 36.636,46.475 45.984 C -22.954 92.566,21.942 157.242,137.124 176.572 C 252.310 195.902,376.840 158.383,386.054 101.572 C 394.740 48.015,296.614 3.634,181.116 8.882 M217.382 12.007 C 240.019 13.052,261.809 15.937,275.966 19.762 C 277.736 20.240,279.554 20.716,280.006 20.820 C 285.188 22.006,299.030 27.534,299.755 28.706 C 299.971 29.056,292.988 29.185,273.799 29.185 C 248.960 29.185,247.565 29.225,247.873 29.936 C 248.052 30.349,248.233 31.135,248.275 31.684 C 248.362 32.821,249.393 33.518,260.995 40.292 L 268.557 44.707 268.433 55.009 C 268.365 60.674,268.203 65.416,268.073 65.546 C 267.943 65.676,267.833 61.090,267.828 55.356 C 267.823 49.621,267.769 44.895,267.708 44.853 C 267.342 44.604,254.531 37.264,251.440 35.532 C 248.128 33.677,247.611 33.508,246.629 33.955 C 244.184 35.069,242.189 32.234,243.781 29.909 L 244.719 28.541 272.038 28.654 C 290.316 28.729,299.143 28.625,298.712 28.338 C 298.298 28.063,285.965 27.908,264.092 27.904 C 237.331 27.898,230.063 27.783,229.872 27.361 C 229.738 27.065,229.676 27.210,229.734 27.682 C 229.833 28.493,230.248 28.554,237.130 28.771 L 244.421 29.002 236.922 29.093 C 228.576 29.195,228.738 29.047,233.906 31.850 C 242.406 36.461,248.512 39.734,250.266 40.619 C 252.685 41.840,252.720 41.999,252.781 51.917 C 252.816 57.462,252.960 59.133,253.451 59.676 C 254.853 61.226,253.720 63.417,251.770 62.927 C 249.972 62.476,249.796 59.983,251.524 59.435 C 252.491 59.128,252.536 58.201,252.078 48.184 L 251.799 42.077 242.316 37.144 C 229.113 30.275,228.984 30.202,228.853 29.551 C 228.768 29.129,228.002 28.986,226.063 29.027 L 223.391 29.084 225.932 28.812 C 229.375 28.445,229.470 27.682,226.073 27.682 L 223.391 27.682 223.273 29.292 C 223.134 31.195,221.946 30.348,236.159 38.482 L 246.352 44.315 246.352 48.610 C 246.352 52.641,246.418 52.967,247.425 53.900 C 249.262 55.603,248.129 58.079,245.723 57.619 C 243.840 57.259,243.499 53.648,245.348 53.648 C 245.791 53.648,245.923 52.628,245.923 49.182 L 245.923 44.716 237.661 40.086 C 221.517 31.040,222.183 31.463,222.027 30.159 C 221.949 29.505,221.844 28.680,221.795 28.326 C 221.729 27.856,221.150 27.682,219.651 27.682 C 217.100 27.682,217.182 28.437,219.776 28.824 L 221.674 29.107 219.635 29.035 L 217.597 28.964 217.600 30.469 L 217.603 31.974 228.973 38.799 L 240.343 45.623 240.380 49.099 C 240.401 51.011,240.458 53.155,240.508 53.863 C 240.558 54.571,240.638 56.550,240.686 58.260 L 240.773 61.370 251.365 66.527 C 258.258 69.882,262.237 71.594,262.759 71.428 C 263.200 71.288,263.824 71.392,264.145 71.659 C 264.548 71.993,264.817 72.004,265.009 71.695 C 265.713 70.555,267.843 71.891,268.470 73.866 C 268.610 74.307,271.617 79.529,275.153 85.470 C 279.249 92.353,281.433 96.421,281.171 96.683 C 280.694 97.160,280.622 97.052,273.414 84.979 C 267.402 74.910,267.908 75.643,267.572 76.519 C 267.409 76.943,269.645 81.096,273.570 87.659 C 279.250 97.157,280.457 99.578,279.506 99.567 C 279.329 99.565,276.135 94.447,272.408 88.194 C 268.680 81.940,265.434 76.824,265.193 76.824 C 264.953 76.824,264.871 76.639,265.011 76.412 C 265.304 75.938,264.356 74.249,263.796 74.249 C 263.589 74.249,263.728 74.717,264.103 75.290 C 264.478 75.862,264.614 76.393,264.406 76.470 C 264.198 76.547,267.293 82.074,271.284 88.753 C 278.602 100.998,278.851 101.474,278.159 101.902 C 277.798 102.125,259.657 72.193,259.657 71.375 C 259.657 71.164,258.836 70.643,257.833 70.216 C 248.820 66.385,240.172 61.540,240.127 60.295 C 240.102 59.590,240.044 56.093,239.998 52.524 L 239.914 46.036 230.150 40.249 C 224.780 37.067,219.567 33.999,218.566 33.433 C 216.948 32.518,216.744 32.229,216.742 30.843 C 216.739 29.438,216.610 29.263,215.451 29.093 L 214.163 28.904 214.163 31.568 L 214.163 34.232 225.215 40.829 L 236.266 47.425 236.294 55.351 L 236.322 63.276 245.522 68.110 C 255.429 73.317,255.468 73.333,255.076 72.210 C 254.504 70.571,256.122 72.810,258.875 77.468 C 260.410 80.064,264.786 87.431,268.601 93.837 C 272.416 100.244,275.536 105.635,275.536 105.817 C 275.536 105.999,275.040 106.995,274.434 108.030 L 273.331 109.912 266.386 98.264 L 259.442 86.616 259.328 98.458 C 259.262 105.267,259.047 110.300,258.820 110.300 C 258.604 110.300,258.307 110.677,258.161 111.137 C 258.015 111.597,257.520 112.093,257.060 112.239 C 256.305 112.478,256.223 112.918,256.223 116.736 C 256.223 121.441,256.123 121.652,253.282 122.933 C 251.591 123.695,251.502 123.829,251.502 125.602 C 251.502 127.824,251.317 127.790,254.558 126.154 L 257.161 124.840 257.014 122.408 C 256.855 119.775,257.968 118.584,258.712 120.594 L 259.050 121.508 259.849 120.625 C 260.910 119.453,262.661 119.438,262.661 120.601 C 262.661 121.143,262.375 121.459,261.884 121.459 C 261.071 121.459,259.227 122.935,259.227 123.585 C 259.227 123.791,260.193 123.553,261.373 123.054 C 263.321 122.231,263.519 122.019,263.519 120.755 C 263.519 118.313,265.912 117.298,267.928 118.884 C 268.528 119.356,269.602 119.742,270.314 119.742 C 273.209 119.742,275.607 123.603,274.820 127.000 C 274.624 127.847,274.560 133.164,274.678 138.815 L 274.893 149.089 277.157 150.449 C 278.653 151.346,279.783 151.739,280.486 151.605 C 282.493 151.221,283.594 153.254,282.158 154.690 C 280.897 155.951,278.978 154.984,278.962 153.081 C 278.957 152.410,278.322 151.778,276.709 150.840 L 274.464 149.534 274.348 139.574 C 274.285 134.096,274.149 129.614,274.045 129.614 C 273.942 129.614,273.146 130.097,272.277 130.687 C 271.407 131.277,270.240 131.760,269.683 131.760 L 268.670 131.760 268.657 140.236 L 268.644 148.712 258.571 154.261 C 250.648 158.624,248.498 159.991,248.498 160.664 C 248.498 161.926,247.245 163.090,245.887 163.090 C 243.634 163.090,242.569 160.799,244.058 159.154 C 244.846 158.283,246.779 158.109,247.512 158.843 C 247.858 159.189,250.725 157.824,258.110 153.800 L 268.233 148.283 268.237 140.057 L 268.240 131.830 266.636 131.044 C 264.387 129.941,263.136 126.954,263.831 124.346 C 264.452 122.020,264.490 122.032,261.417 123.583 L 258.798 124.905 258.798 128.118 C 258.798 131.183,258.753 131.330,257.812 131.330 C 256.867 131.330,256.834 131.216,257.004 128.541 C 257.102 127.006,257.087 125.751,256.970 125.751 C 256.720 125.751,251.780 127.915,251.575 128.115 C 251.110 128.566,252.542 130.043,253.444 130.043 C 254.265 130.043,254.485 130.255,254.444 131.009 C 254.414 131.540,254.528 132.297,254.696 132.692 C 254.892 133.152,254.692 133.720,254.141 134.271 C 253.364 135.048,253.249 135.928,252.975 143.244 L 252.670 151.355 241.357 157.007 L 230.043 162.659 230.043 164.055 L 230.042 165.451 240.450 165.344 C 246.175 165.286,257.853 165.189,266.402 165.130 L 281.946 165.021 279.922 166.053 C 257.969 177.240,189.418 180.853,145.064 173.161 C 134.769 171.375,124.249 168.336,119.441 165.758 C 117.972 164.971,120.197 164.948,159.764 165.344 L 170.387 165.451 170.387 164.098 C 170.386 162.759,170.270 162.686,159.056 157.023 L 147.726 151.300 147.416 143.042 C 147.184 136.846,146.959 134.660,146.515 134.292 C 145.657 133.580,145.789 132.280,146.781 131.660 C 148.146 130.808,147.989 127.765,146.546 127.108 C 145.013 126.409,144.635 126.482,144.635 127.474 C 144.635 127.950,144.007 129.024,143.240 129.861 C 139.425 134.024,132.736 130.554,133.643 124.883 C 133.865 123.490,133.755 123.176,132.830 122.570 C 131.431 121.653,131.370 119.635,132.714 118.694 C 134.021 117.778,135.023 117.856,136.126 118.959 C 136.880 119.712,137.487 119.872,139.279 119.789 C 142.084 119.659,143.949 121.030,144.658 123.744 C 145.479 126.889,147.639 127.728,147.639 124.901 C 147.639 123.341,147.491 123.118,145.923 122.318 L 144.206 121.442 144.206 117.047 C 144.206 113.074,144.121 112.600,143.321 112.100 C 141.952 111.245,142.339 109.269,143.910 109.089 C 146.138 108.834,147.094 110.532,145.494 111.902 C 143.810 113.343,144.350 120.996,146.194 121.836 C 147.633 122.492,147.639 122.489,147.639 121.030 C 147.639 120.029,147.830 119.742,148.498 119.742 C 149.080 119.742,149.356 120.029,149.356 120.632 L 149.356 121.522 150.487 120.632 C 153.813 118.016,157.511 120.585,157.511 125.512 C 157.511 127.270,158.724 128.749,160.172 128.756 C 160.243 128.756,160.234 127.682,160.152 126.369 C 159.890 122.165,161.745 119.742,165.223 119.742 C 168.295 119.742,169.957 121.468,169.957 124.657 L 169.957 126.180 165.851 126.180 C 161.796 126.180,161.748 126.192,162.023 127.146 C 162.745 129.653,167.130 131.178,168.191 129.292 C 168.571 128.616,168.655 128.648,169.026 129.614 C 169.269 130.246,169.281 130.854,169.054 131.094 C 168.842 131.319,168.670 134.446,168.670 138.044 L 168.670 144.587 179.820 150.298 L 190.971 156.009 190.979 159.281 C 190.992 164.517,191.211 165.126,193.145 165.311 C 195.106 165.498,195.282 165.018,195.273 159.496 L 195.268 156.009 185.724 151.124 C 180.475 148.437,175.166 145.670,173.927 144.976 L 171.674 143.714 171.771 136.127 L 171.867 128.541 172.004 136.052 L 172.140 143.562 184.032 149.624 L 195.923 155.686 196.137 160.568 C 196.336 165.093,196.415 165.451,197.210 165.451 C 198.278 165.451,198.637 163.660,198.676 158.155 L 198.703 154.292 187.335 148.283 L 175.967 142.275 176.022 138.627 C 176.053 136.620,176.229 133.530,176.413 131.760 C 176.660 129.391,176.708 130.304,176.595 135.219 L 176.441 141.896 187.783 147.880 L 199.126 153.863 199.177 158.798 C 199.282 169.053,201.166 168.278,201.261 157.940 L 201.299 153.863 212.709 147.854 L 224.118 141.845 223.862 139.315 C 223.721 137.923,223.605 135.557,223.605 134.057 L 223.605 131.330 221.674 131.330 L 219.742 131.330 219.742 123.391 L 219.742 115.451 224.280 115.451 C 228.371 115.451,228.804 115.525,228.675 116.202 C 228.555 116.827,227.972 116.974,225.189 117.079 L 221.847 117.204 221.975 119.654 L 222.103 122.103 225.215 122.229 C 227.974 122.341,228.326 122.450,228.326 123.195 C 228.326 123.953,228.016 124.034,225.107 124.034 L 221.888 124.034 221.888 126.824 C 221.888 129.328,221.976 129.614,222.747 129.614 C 223.219 129.614,223.620 129.372,223.639 129.077 C 223.666 128.648,223.716 128.648,223.889 129.077 C 224.021 129.404,224.929 129.614,226.216 129.614 C 227.604 129.614,228.335 129.430,228.353 129.077 C 228.368 128.782,228.517 128.927,228.685 129.399 C 228.852 129.871,228.888 133.335,228.765 137.096 L 228.541 143.934 216.847 149.971 L 205.152 156.009 205.194 159.871 C 205.249 164.992,205.422 165.451,207.296 165.451 C 209.076 165.451,209.373 164.582,209.422 159.227 L 209.452 156.009 220.606 150.273 L 231.760 144.538 231.760 129.565 L 231.760 114.592 232.833 114.592 L 233.906 114.592 233.906 122.961 C 233.906 131.044,233.876 131.330,233.047 131.330 C 232.225 131.330,232.189 131.617,232.189 138.114 L 232.189 144.898 221.145 150.668 L 210.102 156.438 210.153 159.335 C 210.273 166.012,210.121 165.451,211.803 165.451 L 213.305 165.451 213.329 163.305 C 213.392 157.901,212.590 158.686,225.107 151.768 L 236.266 145.600 236.109 138.447 C 235.976 132.390,236.056 131.179,236.628 130.547 C 237.228 129.883,237.234 129.602,236.685 128.006 C 235.240 123.813,237.632 119.742,241.540 119.742 C 244.531 119.742,246.352 121.439,246.352 124.228 C 246.352 125.449,246.672 125.549,248.263 124.824 C 249.702 124.168,249.891 121.459,248.498 121.459 C 247.926 121.459,247.639 121.173,247.639 120.601 C 247.639 120.029,247.926 119.742,248.498 119.742 C 249.127 119.742,249.356 119.456,249.356 118.670 C 249.356 118.079,249.534 117.597,249.750 117.597 C 249.967 117.597,250.450 117.479,250.823 117.336 C 251.353 117.133,251.502 117.369,251.502 118.409 C 251.502 119.647,251.610 119.742,253.004 119.742 C 254.220 119.742,254.506 119.906,254.506 120.601 C 254.506 121.296,254.220 121.459,253.004 121.459 C 251.792 121.459,251.502 121.624,251.502 122.312 C 251.502 124.018,255.214 121.689,255.529 119.787 C 256.039 116.702,255.835 112.125,255.177 111.872 C 254.679 111.681,254.604 110.901,254.790 107.856 L 255.021 104.077 253.706 103.355 C 251.905 102.366,251.529 100.698,252.801 99.344 C 253.629 98.463,253.675 98.267,253.108 98.049 C 252.353 97.759,251.298 95.527,251.648 94.960 C 251.774 94.757,249.785 93.289,247.228 91.700 C 242.003 88.452,242.339 89.037,241.819 82.292 L 241.529 78.532 236.218 75.640 C 233.298 74.049,230.907 72.584,230.905 72.384 C 230.903 72.185,231.722 72.492,232.725 73.068 C 233.729 73.644,236.226 75.058,238.274 76.211 L 241.999 78.308 242.289 81.965 C 242.819 88.663,242.603 88.281,247.570 91.319 C 251.717 93.856,252.026 93.974,252.905 93.358 C 253.419 92.998,254.134 92.704,254.495 92.704 C 255.288 92.704,255.337 87.354,254.551 86.568 C 253.948 85.965,253.937 84.003,254.532 83.408 C 254.791 83.149,255.000 80.968,255.018 78.328 L 255.050 73.703 245.443 68.659 L 235.837 63.614 235.985 55.734 L 236.133 47.854 224.770 41.270 L 213.408 34.686 213.055 31.614 C 212.861 29.924,212.715 28.331,212.730 28.075 C 212.745 27.808,212.305 27.696,211.697 27.812 C 211.103 27.926,210.491 27.776,210.303 27.472 C 210.119 27.174,209.939 29.053,209.903 31.650 L 209.839 36.370 220.692 42.396 L 231.545 48.422 231.563 57.365 L 231.581 66.309 231.348 57.560 L 231.116 48.810 220.066 42.770 C 213.989 39.448,209.039 36.529,209.066 36.283 C 209.093 36.038,209.092 34.340,209.064 32.511 L 209.013 29.185 207.189 29.110 L 205.365 29.035 207.189 28.870 C 208.267 28.773,209.013 28.488,209.013 28.173 C 209.013 27.814,208.508 27.699,207.461 27.821 C 206.492 27.934,205.783 27.797,205.571 27.455 C 205.348 27.094,205.233 27.259,205.234 27.939 C 205.234 28.506,205.094 30.710,204.921 32.837 L 204.607 36.704 205.844 37.341 C 206.525 37.691,209.013 39.054,211.373 40.370 C 213.734 41.685,218.466 44.278,221.888 46.132 C 225.311 47.986,228.200 49.574,228.308 49.661 C 228.575 49.878,228.388 65.747,228.114 66.020 C 227.995 66.140,227.894 62.584,227.891 58.119 L 227.885 50.000 215.981 43.557 L 204.077 37.114 203.955 32.979 C 203.836 28.969,203.804 28.849,202.882 29.026 L 201.931 29.209 202.897 28.781 C 204.145 28.229,204.134 27.682,202.874 27.682 C 201.932 27.682,201.880 27.845,201.789 31.116 C 201.736 33.004,201.594 35.047,201.473 35.655 C 200.992 38.066,201.741 38.763,209.520 43.151 C 213.608 45.457,218.498 48.238,220.386 49.331 L 223.820 51.320 223.940 56.542 C 224.006 59.415,223.874 62.691,223.647 63.823 C 223.345 65.325,223.293 63.969,223.454 58.798 L 223.673 51.717 212.266 45.350 L 200.858 38.984 200.791 34.406 C 200.754 31.888,200.730 29.602,200.737 29.326 C 200.745 29.046,200.442 28.931,200.054 29.067 C 199.487 29.265,199.456 29.203,199.893 28.733 C 200.514 28.063,200.616 27.302,200.037 27.660 C 199.821 27.793,199.555 27.660,199.447 27.363 C 199.339 27.067,199.246 27.307,199.241 27.897 C 199.236 28.487,199.196 31.203,199.153 33.932 L 199.075 38.893 187.735 45.245 L 176.395 51.597 176.330 58.738 L 176.264 65.880 175.927 58.798 C 175.741 54.903,175.722 51.590,175.885 51.435 C 176.047 51.281,176.856 50.772,177.682 50.305 C 186.420 45.364,192.195 42.078,194.979 40.462 L 198.327 38.519 198.236 33.852 L 198.145 29.185 197.034 29.157 C 195.942 29.131,195.939 29.123,196.888 28.742 C 198.144 28.237,198.125 27.682,196.852 27.682 C 195.868 27.682,195.848 27.771,195.751 32.403 C 195.697 35.000,195.521 37.184,195.359 37.257 C 195.197 37.330,189.850 40.240,183.476 43.723 L 171.888 50.056 171.659 58.183 L 171.431 66.309 171.338 58.082 L 171.245 49.855 172.639 49.016 C 173.407 48.555,175.676 47.300,177.682 46.227 C 179.689 45.155,184.412 42.571,188.179 40.486 L 195.028 36.695 194.954 33.353 C 194.866 29.335,194.797 29.200,192.786 29.128 L 191.202 29.072 192.704 28.797 C 193.564 28.640,194.341 28.709,194.521 28.961 C 194.893 29.478,194.946 29.077,194.619 28.223 C 194.465 27.823,193.946 27.686,193.069 27.815 C 192.344 27.921,191.619 27.796,191.459 27.538 C 191.299 27.279,191.124 27.785,191.070 28.662 C 191.015 29.540,190.830 31.765,190.657 33.606 L 190.343 36.955 186.481 39.032 C 184.356 40.174,181.556 41.705,180.258 42.433 C 178.959 43.161,175.823 44.872,173.288 46.234 L 168.680 48.712 168.596 57.296 L 168.513 65.880 168.248 57.511 C 167.932 47.481,167.600 48.639,171.364 46.622 C 178.060 43.035,187.827 37.587,188.921 36.830 C 190.026 36.065,190.070 35.888,189.999 32.492 L 189.924 28.952 188.417 29.047 C 187.002 29.136,186.986 29.124,188.162 28.842 C 189.772 28.455,190.172 27.496,188.598 27.797 C 187.973 27.917,187.326 27.795,187.160 27.526 C 186.994 27.257,186.812 28.631,186.756 30.579 C 186.641 34.563,186.646 34.554,183.047 36.599 C 181.631 37.403,177.672 39.713,174.249 41.731 C 170.826 43.750,167.157 45.886,166.094 46.478 L 164.163 47.554 163.948 55.644 L 163.734 63.734 156.792 67.377 C 152.974 69.380,150.036 71.134,150.264 71.275 C 150.615 71.492,160.086 108.729,160.086 109.893 C 160.086 110.117,159.841 110.300,159.543 110.300 C 159.183 110.300,157.424 103.886,154.334 91.309 C 149.439 71.381,149.186 70.507,148.685 71.809 C 148.505 72.274,150.293 80.204,153.115 91.465 L 157.846 110.342 155.673 110.214 L 153.500 110.086 152.818 107.082 L 152.135 104.077 146.708 103.957 L 141.281 103.838 140.519 107.069 L 139.757 110.300 137.690 110.300 C 135.137 110.300,134.870 112.484,139.939 91.949 C 145.567 69.150,144.884 71.245,146.690 71.245 C 147.725 71.245,150.526 70.036,155.890 67.275 L 163.602 63.305 163.405 55.464 L 163.208 47.623 174.532 40.871 L 185.857 34.120 185.740 31.789 C 185.590 28.824,183.262 27.420,183.262 30.295 C 183.262 32.254,183.252 32.261,171.834 38.995 C 166.375 42.215,161.450 45.163,160.890 45.545 C 159.891 46.227,159.868 46.393,159.730 53.938 L 159.590 61.635 148.035 67.264 C 136.978 72.651,136.480 72.946,136.474 74.108 C 136.458 77.075,133.199 78.009,131.631 75.496 C 130.423 73.559,132.847 71.054,134.986 72.028 C 135.960 72.472,137.209 71.964,147.647 66.878 L 159.227 61.236 159.277 54.116 C 159.304 50.200,159.307 46.706,159.283 46.352 C 159.257 45.954,162.311 43.871,167.281 40.896 C 183.130 31.410,182.363 31.956,182.084 30.366 C 181.949 29.598,181.828 28.679,181.815 28.324 C 181.796 27.834,181.384 27.716,180.114 27.837 C 179.140 27.930,178.310 27.789,178.131 27.499 C 177.962 27.225,177.788 27.923,177.745 29.050 C 177.648 31.618,178.237 31.152,167.811 36.909 C 162.972 39.580,157.854 42.465,156.438 43.318 L 153.863 44.870 153.715 48.889 C 153.570 52.860,153.583 52.920,154.781 53.875 C 156.368 55.141,155.877 57.210,153.936 57.434 C 151.634 57.700,150.632 55.427,152.361 53.863 C 153.111 53.183,153.219 52.541,153.219 48.748 L 153.219 44.410 159.549 40.811 C 163.031 38.831,168.343 35.772,171.354 34.013 L 176.828 30.815 176.756 28.908 C 176.716 27.859,176.547 27.222,176.380 27.492 C 176.193 27.795,175.191 27.925,173.765 27.833 C 171.596 27.692,171.450 27.745,171.392 28.691 C 171.309 30.042,171.640 29.823,162.876 34.337 C 153.188 39.328,148.863 41.633,148.176 42.173 C 147.319 42.846,147.418 58.939,148.283 59.657 C 149.921 61.016,148.466 63.604,146.554 62.733 C 145.302 62.163,145.154 60.743,146.225 59.560 C 147.071 58.625,147.028 59.105,147.131 49.336 L 147.210 41.805 156.760 36.711 C 168.928 30.219,169.682 29.794,169.833 29.343 C 169.902 29.138,166.626 28.982,162.554 28.996 L 155.150 29.022 162.411 28.781 C 166.651 28.641,169.732 28.362,169.815 28.112 C 169.983 27.604,101.546 27.924,101.037 28.433 C 100.860 28.611,112.320 28.755,126.503 28.755 C 140.686 28.755,152.627 28.885,153.040 29.043 C 153.550 29.239,153.690 29.171,153.479 28.828 C 152.863 27.832,154.559 28.338,155.600 29.462 C 157.964 32.013,154.920 36.294,152.478 33.852 C 151.987 33.361,151.000 33.884,137.124 41.977 L 131.974 44.980 131.748 55.430 L 131.522 65.880 131.426 55.287 L 131.330 44.694 135.944 41.960 C 138.482 40.456,143.016 37.787,146.020 36.029 C 150.614 33.340,151.484 32.668,151.492 31.793 C 151.498 31.222,151.822 30.401,152.212 29.969 C 152.900 29.210,152.069 29.185,126.436 29.185 C 106.791 29.185,100.027 29.059,100.250 28.698 C 100.662 28.032,107.695 24.817,111.373 23.614 C 113.026 23.074,115.112 22.365,116.009 22.040 C 127.052 18.037,151.674 13.972,174.034 12.460 C 187.128 11.574,204.169 11.396,217.382 12.007 M127.821 23.927 C 135.687 23.992,148.434 23.992,156.147 23.927 C 163.861 23.861,157.425 23.808,141.845 23.808 C 126.266 23.808,119.955 23.861,127.821 23.927 M173.069 23.913 C 173.718 24.011,174.780 24.011,175.429 23.913 C 176.078 23.814,175.547 23.734,174.249 23.734 C 172.951 23.734,172.420 23.814,173.069 23.913 M178.863 23.908 C 179.394 24.010,180.263 24.010,180.794 23.908 C 181.325 23.806,180.891 23.722,179.828 23.722 C 178.766 23.722,178.332 23.806,178.863 23.908 M191.953 23.901 C 192.366 24.009,193.042 24.009,193.455 23.901 C 193.868 23.793,193.530 23.705,192.704 23.705 C 191.878 23.705,191.540 23.793,191.953 23.901 M206.116 23.901 C 206.529 24.009,207.205 24.009,207.618 23.901 C 208.031 23.793,207.693 23.705,206.867 23.705 C 206.041 23.705,205.703 23.793,206.116 23.901 M218.777 23.908 C 219.308 24.010,220.177 24.010,220.708 23.908 C 221.239 23.806,220.805 23.722,219.742 23.722 C 218.680 23.722,218.246 23.806,218.777 23.908 M224.571 23.913 C 225.220 24.011,226.282 24.011,226.931 23.913 C 227.580 23.814,227.049 23.734,225.751 23.734 C 224.453 23.734,223.922 23.814,224.571 23.913 M244.130 23.927 C 251.996 23.992,264.743 23.992,272.456 23.927 C 280.170 23.861,273.734 23.808,258.155 23.808 C 242.575 23.808,236.264 23.861,244.130 23.927 M185.408 27.518 C 185.408 27.800,184.959 27.911,184.318 27.789 C 183.629 27.657,183.287 27.757,183.387 28.061 C 183.675 28.926,185.837 28.725,185.837 27.833 C 185.837 27.396,185.740 27.039,185.622 27.039 C 185.504 27.039,185.408 27.254,185.408 27.518 M214.306 28.112 C 214.385 28.348,214.900 28.541,215.451 28.541 C 216.001 28.541,216.516 28.348,216.595 28.112 C 216.674 27.876,216.159 27.682,215.451 27.682 C 214.742 27.682,214.227 27.876,214.306 28.112 M175.437 29.062 C 174.792 29.160,173.633 29.162,172.862 29.066 C 172.090 28.971,172.618 28.891,174.034 28.888 C 175.451 28.886,176.082 28.964,175.437 29.062 M180.794 29.058 C 180.263 29.161,179.394 29.161,178.863 29.058 C 178.332 28.956,178.766 28.872,179.828 28.872 C 180.891 28.872,181.325 28.956,180.794 29.058 M244.602 30.413 C 242.993 31.716,244.502 33.995,246.473 33.238 C 247.389 32.887,247.722 31.857,247.221 30.921 C 246.596 29.753,245.644 29.569,244.602 30.413 M152.794 30.681 C 152.043 31.586,152.602 33.476,153.621 33.476 C 155.057 33.476,155.794 32.980,155.794 32.014 C 155.794 30.224,153.880 29.373,152.794 30.681 M121.013 38.596 C 121.257 39.051,121.346 39.711,121.210 40.063 C 121.042 40.503,121.715 41.185,123.358 42.235 L 125.751 43.766 125.751 50.573 C 125.751 54.316,125.863 59.195,126.001 61.415 C 126.181 64.331,126.123 65.272,125.793 64.807 C 125.501 64.396,125.333 60.550,125.328 54.179 L 125.322 44.195 123.049 42.741 C 121.502 41.752,120.436 41.352,119.711 41.491 C 118.120 41.795,116.865 40.276,117.519 38.839 C 118.137 37.484,120.336 37.330,121.013 38.596 M282.481 38.839 C 283.140 40.286,281.880 41.795,280.271 41.487 C 278.622 41.172,274.695 43.654,274.623 45.057 C 274.592 45.651,274.435 50.483,274.272 55.794 L 273.977 65.451 273.898 54.640 L 273.820 43.829 276.413 42.229 C 278.118 41.176,278.927 40.422,278.775 40.025 C 277.976 37.944,281.551 36.799,282.481 38.839 M260.639 56.116 C 260.400 67.557,260.196 67.818,260.136 56.760 C 260.108 51.744,260.250 47.639,260.451 47.639 C 260.652 47.639,260.737 51.454,260.639 56.116 M193.820 50.543 C 195.285 51.522,195.279 54.085,193.809 54.649 C 191.583 55.503,189.581 52.473,191.399 51.001 C 192.439 50.159,193.067 50.040,193.820 50.543 M208.338 50.889 C 208.709 51.260,209.013 51.925,209.013 52.367 C 209.013 52.884,209.855 53.675,211.373 54.583 L 213.734 55.995 213.739 65.014 C 213.741 69.975,213.863 74.759,214.009 75.644 C 214.186 76.712,214.112 77.253,213.790 77.253 C 213.442 77.253,213.305 74.282,213.305 66.774 L 213.305 56.294 211.083 55.011 C 209.016 53.818,208.791 53.774,207.864 54.381 C 205.777 55.748,203.721 52.889,205.431 50.999 C 206.303 50.036,207.442 49.993,208.338 50.889 M152.609 54.214 C 151.080 55.332,152.797 57.829,154.399 56.818 C 155.411 56.180,155.348 54.957,154.265 54.238 C 153.532 53.751,153.248 53.747,152.609 54.214 M244.811 54.667 C 244.297 56.008,244.817 56.867,246.143 56.867 C 247.281 56.867,247.425 56.723,247.425 55.579 C 247.425 54.116,245.306 53.376,244.811 54.667 M81.423 71.071 C 83.533 71.774,87.554 74.109,87.554 74.632 C 87.554 74.793,87.017 75.568,86.360 76.355 L 85.167 77.784 83.553 76.689 C 76.477 71.887,67.544 74.527,63.196 82.705 C 55.612 96.972,70.765 113.534,83.497 104.894 L 85.167 103.761 86.360 105.190 C 87.918 107.057,87.943 106.987,85.124 108.750 C 72.900 116.396,57.082 106.254,57.082 90.773 C 57.082 77.170,69.518 67.104,81.423 71.071 M153.561 72.639 C 155.716 80.499,162.739 109.937,162.513 110.163 C 161.852 110.823,161.283 108.899,156.903 91.202 C 154.390 81.052,152.231 72.409,152.104 71.996 C 151.955 71.509,152.103 71.245,152.526 71.245 C 152.898 71.245,153.343 71.845,153.561 72.639 M156.049 72.425 C 156.199 73.074,158.402 81.862,160.947 91.953 C 164.896 107.617,165.467 110.300,164.849 110.300 C 164.253 110.300,163.306 107.002,159.460 91.524 C 156.894 81.196,154.707 72.409,154.600 71.996 C 154.476 71.513,154.651 71.245,155.092 71.245 C 155.488 71.245,155.892 71.743,156.049 72.425 M158.761 72.854 C 163.505 90.813,168.058 110.328,167.478 110.216 C 166.944 110.112,157.296 74.162,157.105 71.567 C 157.022 70.440,158.408 71.517,158.761 72.854 M161.336 72.854 C 166.121 90.968,170.634 110.328,170.045 110.215 C 169.530 110.116,168.270 105.702,164.803 91.845 C 162.293 81.813,160.104 73.074,159.940 72.425 C 159.714 71.534,159.796 71.245,160.276 71.245 C 160.648 71.245,161.087 71.910,161.336 72.854 M163.911 72.854 C 168.717 91.047,173.209 110.328,172.616 110.214 C 172.098 110.115,162.943 75.797,162.249 71.352 C 162.087 70.318,163.603 71.687,163.911 72.854 M258.525 72.210 C 264.729 82.108,277.150 103.709,276.824 104.034 C 276.596 104.262,276.324 104.364,276.220 104.260 C 275.923 103.963,256.652 71.625,256.652 71.424 C 256.652 70.829,258.019 71.403,258.525 72.210 M276.262 82.406 C 279.865 88.424,282.817 93.578,282.823 93.859 C 282.848 95.150,282.018 94.613,280.836 92.574 C 279.384 90.068,270.341 74.817,268.991 72.596 C 268.162 71.232,268.158 71.166,268.914 71.311 C 269.433 71.411,272.006 75.297,276.262 82.406 M277.364 79.331 L 282.064 87.203 286.801 79.199 C 289.482 74.669,291.700 71.357,291.911 71.568 C 292.116 71.773,292.233 80.523,292.172 91.013 L 292.060 110.086 290.028 110.216 L 287.996 110.347 287.882 97.985 L 287.768 85.622 285.859 88.948 C 284.809 90.778,283.843 92.267,283.713 92.258 C 283.583 92.249,281.352 88.639,278.755 84.237 C 271.123 71.298,271.041 71.142,271.907 71.311 C 272.363 71.400,274.537 74.596,277.364 79.331 M294.421 90.773 C 294.421 107.845,294.340 110.300,293.777 110.300 C 293.214 110.300,293.133 107.845,293.133 90.773 C 293.133 73.701,293.214 71.245,293.777 71.245 C 294.340 71.245,294.421 73.701,294.421 90.773 M296.996 90.773 C 296.996 107.845,296.915 110.300,296.352 110.300 C 295.789 110.300,295.708 107.845,295.708 90.773 C 295.708 73.701,295.789 71.245,296.352 71.245 C 296.915 71.245,296.996 73.701,296.996 90.773 M299.571 90.773 C 299.571 107.845,299.490 110.300,298.927 110.300 C 298.364 110.300,298.283 107.845,298.283 90.773 C 298.283 73.701,298.364 71.245,298.927 71.245 C 299.490 71.245,299.571 73.701,299.571 90.773 M301.931 90.773 C 301.931 105.784,301.813 110.054,301.395 110.193 C 300.971 110.334,300.858 106.261,300.858 90.773 C 300.858 75.284,300.971 71.211,301.395 71.352 C 301.813 71.491,301.931 75.761,301.931 90.773 M304.359 90.736 C 304.475 105.881,304.391 110.051,303.970 110.192 C 303.546 110.334,303.433 106.262,303.433 90.773 C 303.433 79.251,303.594 71.232,303.822 71.316 C 304.043 71.398,304.274 79.768,304.359 90.736 M306.867 90.773 C 306.867 103.505,306.718 110.300,306.438 110.300 C 306.158 110.300,306.009 103.505,306.009 90.773 C 306.009 78.040,306.158 71.245,306.438 71.245 C 306.718 71.245,306.867 78.040,306.867 90.773 M132.567 72.916 C 131.180 74.039,131.820 76.111,133.618 76.319 C 135.953 76.588,136.992 74.098,135.098 72.771 C 133.891 71.926,133.782 71.932,132.567 72.916 M262.084 73.389 C 262.739 74.497,262.899 74.576,263.242 73.963 C 263.530 73.448,263.423 73.094,262.854 72.678 C 261.573 71.741,261.274 72.017,262.084 73.389 M264.807 72.508 C 264.807 73.170,266.576 75.966,266.995 75.966 C 267.623 75.966,267.438 74.990,266.528 73.498 C 265.717 72.168,264.807 71.644,264.807 72.508 M73.820 90.808 C 73.820 102.835,73.706 106.042,73.283 105.901 C 72.871 105.764,72.721 102.311,72.634 90.980 C 72.525 76.730,72.603 75.611,73.712 75.543 C 73.771 75.539,73.820 82.409,73.820 90.808 M76.395 90.773 C 76.395 104.030,76.311 106.009,75.751 106.009 C 75.191 106.009,75.107 104.030,75.107 90.773 C 75.107 77.515,75.191 75.536,75.751 75.536 C 76.311 75.536,76.395 77.515,76.395 90.773 M71.245 90.759 C 71.245 103.351,71.165 105.093,70.601 104.876 C 70.047 104.664,69.957 102.693,69.957 90.762 C 69.957 77.271,69.997 76.789,71.137 76.429 C 71.196 76.410,71.245 82.859,71.245 90.759 M68.670 90.798 C 68.670 99.432,68.523 103.823,68.240 103.648 C 67.970 103.481,67.811 98.732,67.811 90.819 C 67.811 79.743,67.923 77.682,68.526 77.682 C 68.605 77.682,68.670 83.584,68.670 90.798 M99.963 80.150 C 101.353 85.417,107.296 109.496,107.296 109.861 C 107.296 110.103,106.557 110.300,105.654 110.300 L 104.012 110.300 103.392 107.618 L 102.773 104.936 98.492 104.936 L 94.211 104.936 93.531 107.511 L 92.851 110.086 91.004 110.221 C 89.447 110.334,89.199 110.246,89.425 109.659 C 89.572 109.276,91.358 102.263,93.395 94.074 C 97.589 77.206,97.150 78.541,98.507 78.541 C 99.336 78.541,99.621 78.855,99.963 80.150 M105.574 94.662 C 109.156 109.096,109.548 111.065,108.636 110.057 C 108.233 109.611,100.858 80.262,100.858 79.103 C 100.858 76.630,102.187 81.014,105.574 94.662 M104.299 80.661 C 104.304 81.029,105.934 87.795,107.923 95.697 C 109.911 103.599,111.450 110.152,111.342 110.261 C 110.727 110.876,109.172 105.382,104.917 87.554 C 104.608 86.255,104.057 84.034,103.694 82.618 C 102.798 79.119,102.788 78.004,103.662 79.159 C 104.008 79.617,104.295 80.293,104.299 80.661 M109.631 93.991 C 111.657 102.135,113.422 109.136,113.553 109.549 C 113.699 110.007,113.569 110.300,113.222 110.300 C 112.628 110.300,104.601 79.233,105.072 78.762 C 105.619 78.215,106.125 79.903,109.631 93.991 M111.831 94.554 C 114.584 105.531,115.614 110.300,115.233 110.300 C 114.872 110.300,113.415 105.190,110.937 95.225 C 108.875 86.933,107.086 79.761,106.962 79.287 C 106.807 78.696,106.916 78.486,107.310 78.617 C 107.668 78.736,109.362 84.708,111.831 94.554 M113.771 93.796 C 117.625 109.061,117.884 110.300,117.221 110.300 C 116.931 110.300,109.013 79.840,109.013 78.724 C 109.013 76.298,110.716 81.692,113.771 93.796 M112.410 80.150 C 117.352 98.843,120.085 111.215,119.042 110.172 C 118.792 109.922,111.159 79.613,111.159 78.870 C 111.159 77.867,112.046 78.776,112.410 80.150 M179.954 81.009 C 180.754 82.366,184.824 89.219,188.999 96.239 C 197.071 109.811,197.336 110.300,196.637 110.300 C 196.389 110.300,192.766 104.555,188.587 97.532 C 184.407 90.510,180.244 83.521,179.335 82.001 C 177.616 79.127,177.405 78.541,178.091 78.541 C 178.316 78.541,179.154 79.651,179.954 81.009 M184.376 84.578 C 189.828 93.626,199.341 109.594,199.499 109.965 C 199.578 110.149,199.385 110.296,199.070 110.291 C 198.632 110.283,180.637 80.797,179.882 78.849 C 179.059 76.726,181.582 79.942,184.376 84.578 M188.878 88.090 C 191.994 93.342,195.915 99.947,197.592 102.767 C 199.494 105.965,200.696 107.610,200.786 107.139 C 200.866 106.723,197.243 100.185,192.735 92.611 C 188.226 85.036,184.654 78.723,184.795 78.582 C 185.238 78.142,186.324 79.804,193.584 92.029 C 197.838 99.191,200.694 103.598,200.770 103.115 C 200.839 102.675,198.417 98.172,195.387 93.110 C 188.903 82.275,187.124 79.190,187.124 78.775 C 187.124 77.640,188.760 80.039,194.423 89.486 C 198.164 95.725,200.856 99.814,200.857 99.258 C 200.858 98.732,198.247 93.924,195.056 88.573 C 189.840 79.827,188.526 77.165,190.329 78.996 C 190.664 79.336,193.166 83.375,195.889 87.971 L 200.840 96.329 200.956 87.542 L 201.073 78.755 202.682 78.622 L 204.292 78.489 204.292 94.395 L 204.292 110.300 202.631 110.300 L 200.971 110.300 191.911 95.123 C 182.392 79.177,182.041 78.541,182.763 78.541 C 183.011 78.541,185.763 82.838,188.878 88.090 M212.344 94.528 L 212.457 110.300 210.735 110.300 L 209.013 110.300 209.013 94.395 L 209.013 78.489 210.622 78.622 L 212.232 78.755 212.344 94.528 M214.163 94.421 C 214.163 104.721,214.012 110.300,213.734 110.300 C 213.456 110.300,213.305 104.816,213.305 94.707 C 213.305 80.949,213.411 78.541,214.020 78.541 C 214.099 78.541,214.163 85.687,214.163 94.421 M216.309 94.421 C 216.309 104.721,216.158 110.300,215.880 110.300 C 215.601 110.300,215.451 104.721,215.451 94.421 C 215.451 84.120,215.601 78.541,215.880 78.541 C 216.158 78.541,216.309 84.120,216.309 94.421 M218.455 94.421 C 218.455 103.155,218.293 110.300,218.094 110.300 C 217.453 110.300,216.821 80.802,217.428 79.220 C 218.257 77.059,218.455 79.992,218.455 94.421 M220.264 94.382 C 220.360 106.589,220.269 110.049,219.850 110.190 C 219.427 110.334,219.313 106.992,219.313 94.421 C 219.313 84.355,219.466 78.522,219.728 78.612 C 219.981 78.700,220.190 84.837,220.264 94.382 M222.318 94.421 C 222.318 104.721,222.167 110.300,221.888 110.300 C 221.610 110.300,221.459 104.721,221.459 94.421 C 221.459 84.120,221.610 78.541,221.888 78.541 C 222.167 78.541,222.318 84.120,222.318 94.421 M230.337 80.308 C 243.794 86.712,240.518 108.417,225.832 110.156 L 223.605 110.420 223.605 94.489 L 223.605 78.557 225.644 78.801 C 226.765 78.935,228.877 79.613,230.337 80.308 M326.556 94.202 C 328.710 102.815,330.472 109.961,330.472 110.082 C 330.472 111.071,327.102 110.177,326.847 109.120 C 326.690 108.471,326.372 107.216,326.140 106.330 L 325.718 104.721 321.648 104.721 C 317.095 104.721,317.289 104.585,316.307 108.476 C 315.861 110.244,315.794 110.300,314.118 110.300 C 312.671 110.300,312.425 110.178,312.615 109.549 C 312.739 109.136,314.500 102.150,316.527 94.023 C 320.657 77.472,320.304 78.541,321.646 78.541 C 322.595 78.541,322.815 79.241,326.556 94.202 M328.532 93.991 C 330.562 102.135,332.325 109.136,332.450 109.549 C 332.586 110.001,332.449 110.300,332.106 110.300 C 331.512 110.300,323.485 79.233,323.957 78.762 C 324.509 78.209,325.025 79.929,328.532 93.991 M329.298 88.656 C 333.937 107.111,334.653 110.300,334.157 110.300 C 333.886 110.300,332.027 103.657,329.863 94.957 C 327.765 86.518,325.950 79.346,325.831 79.019 C 325.696 78.648,325.842 78.497,326.219 78.619 C 326.611 78.745,327.697 82.286,329.298 88.656 M332.693 93.806 C 336.518 109.046,336.777 110.300,336.096 110.300 C 335.885 110.300,334.046 103.589,332.010 95.386 C 329.974 87.183,328.186 80.012,328.037 79.449 C 327.839 78.700,327.923 78.478,328.349 78.620 C 328.718 78.743,330.306 84.293,332.693 93.806 M334.894 94.350 C 338.222 107.791,338.876 111.122,338.018 110.264 C 337.832 110.078,334.318 96.579,333.279 92.060 C 332.953 90.644,332.093 87.167,331.368 84.335 C 329.873 78.494,329.860 78.408,330.543 78.636 C 330.819 78.728,332.776 85.799,334.894 94.350 M333.440 80.150 C 338.355 98.741,341.114 111.214,340.084 110.184 C 339.806 109.906,332.221 79.974,332.201 79.077 C 332.174 77.892,333.041 78.642,333.440 80.150 M335.193 78.695 C 335.193 78.779,336.939 85.853,339.072 94.415 C 342.545 108.352,343.085 111.039,342.245 110.199 C 341.904 109.858,334.335 79.987,334.335 78.980 C 334.335 78.739,334.528 78.541,334.764 78.541 C 335.000 78.541,335.193 78.610,335.193 78.695 M185.993 94.938 C 196.141 112.006,195.362 110.300,193.014 110.300 L 191.178 110.300 185.503 100.760 L 179.828 91.219 179.828 100.760 L 179.828 110.300 178.112 110.300 L 176.395 110.300 176.395 94.764 C 176.395 86.028,176.557 79.406,176.765 79.635 C 176.969 79.859,181.121 86.746,185.993 94.938 M66.524 90.773 C 66.524 100.298,66.278 102.646,65.497 100.609 C 65.157 99.723,65.157 81.822,65.497 80.936 C 66.278 78.899,66.524 81.247,66.524 90.773 M224.464 94.434 L 224.464 106.962 226.053 106.664 C 238.700 104.292,238.545 84.795,225.858 82.192 L 224.464 81.906 224.464 94.434 M145.348 87.425 C 143.993 93.101,143.993 93.108,144.973 92.852 C 147.013 92.319,148.779 95.434,147.458 97.236 C 146.643 98.346,147.674 99.571,149.423 99.571 C 150.971 99.571,150.984 99.787,148.922 91.365 C 146.540 81.643,146.688 81.806,145.348 87.425 M63.948 90.858 C 63.948 96.248,63.841 97.489,63.412 97.061 C 62.282 95.934,62.566 84.120,63.723 84.120 C 63.847 84.120,63.948 87.152,63.948 90.858 M98.100 88.887 C 97.416 90.896,95.022 101.317,95.203 101.498 C 95.640 101.935,101.717 101.718,101.717 101.266 C 101.717 100.638,98.689 88.675,98.477 88.462 C 98.381 88.367,98.212 88.558,98.100 88.887 M321.315 88.841 C 321.175 89.195,320.465 91.899,319.738 94.850 C 319.011 97.800,318.315 100.553,318.192 100.966 C 317.992 101.637,318.334 101.717,321.430 101.717 C 323.335 101.717,324.887 101.572,324.881 101.395 C 324.832 100.021,321.513 88.340,321.315 88.841 M253.634 93.701 C 251.695 94.663,252.178 98.073,254.210 97.767 C 254.924 97.660,255.062 97.306,255.060 95.591 C 255.058 93.127,254.985 93.031,253.634 93.701 M143.617 94.218 C 142.509 97.104,145.035 99.163,147.007 96.983 C 148.272 95.585,147.437 93.815,145.433 93.647 C 144.314 93.553,143.812 93.711,143.617 94.218 M142.783 97.704 C 142.621 97.865,142.489 98.393,142.489 98.876 C 142.489 99.704,142.531 99.713,143.222 99.022 C 143.722 98.522,143.815 98.150,143.515 97.850 C 143.274 97.608,142.944 97.543,142.783 97.704 M144.395 98.913 C 143.620 99.500,143.689 99.544,145.386 99.557 C 147.209 99.571,147.813 99.036,146.531 98.544 C 145.557 98.170,145.326 98.210,144.395 98.913 M254.077 99.034 C 252.482 99.545,251.946 101.241,253.035 102.330 C 254.235 103.530,254.839 103.134,255.006 101.036 C 255.174 98.926,255.076 98.715,254.077 99.034 M84.728 115.437 C 86.764 116.211,85.662 117.205,83.102 116.904 C 77.897 116.292,74.525 120.390,75.974 125.565 C 76.916 128.930,80.067 130.631,83.665 129.718 C 85.138 129.344,85.361 129.389,85.546 130.097 C 86.264 132.840,77.795 132.045,75.351 129.140 C 69.896 122.658,76.879 112.453,84.728 115.437 M292.918 116.309 C 292.918 117.096,292.660 117.419,291.951 117.519 C 290.896 117.669,290.297 116.749,290.725 115.635 C 291.160 114.502,292.918 115.042,292.918 116.309 M188.412 118.455 C 188.412 119.640,188.531 119.742,189.914 119.742 C 191.130 119.742,191.416 119.906,191.416 120.601 C 191.416 121.296,191.130 121.459,189.914 121.459 L 188.412 121.459 188.412 125.236 C 188.412 129.101,188.756 130.043,190.169 130.043 C 190.916 130.043,191.557 131.047,191.101 131.503 C 190.960 131.644,190.214 131.760,189.445 131.760 C 187.024 131.760,186.266 130.261,186.266 125.479 C 186.266 121.745,186.205 121.459,185.408 121.459 C 184.835 121.459,184.549 121.173,184.549 120.601 C 184.549 120.029,184.835 119.742,185.408 119.742 C 186.029 119.742,186.266 119.456,186.266 118.705 C 186.266 118.135,186.508 117.571,186.803 117.452 C 188.016 116.962,188.412 117.209,188.412 118.455 M133.143 119.123 C 131.943 119.963,131.919 121.222,133.088 122.040 C 133.918 122.621,134.081 122.566,135.222 121.313 L 136.458 119.957 135.563 119.206 C 134.471 118.289,134.340 118.284,133.143 119.123 M264.902 119.123 C 264.010 119.748,263.642 121.009,264.191 121.559 C 264.324 121.692,265.206 121.296,266.149 120.678 C 267.713 119.654,267.798 119.507,267.112 119.005 C 266.160 118.309,266.057 118.314,264.902 119.123 M95.672 120.367 C 99.414 122.303,99.012 129.494,95.069 131.142 C 90.611 133.004,86.933 130.188,87.246 125.152 C 87.522 120.696,91.709 118.318,95.672 120.367 M102.575 120.632 L 102.575 121.522 103.706 120.632 C 105.203 119.455,107.588 119.464,108.853 120.652 L 109.821 121.561 110.977 120.652 C 114.700 117.723,117.307 120.104,117.531 126.638 L 117.692 131.330 116.571 131.330 L 115.451 131.330 115.451 127.349 C 115.451 122.746,114.888 121.459,112.876 121.459 C 110.863 121.459,110.300 122.746,110.300 127.349 C 110.300 131.310,110.295 131.330,109.227 131.330 C 108.157 131.330,108.155 131.321,108.155 127.180 C 108.155 122.640,107.654 121.459,105.727 121.459 C 103.626 121.459,103.004 122.781,103.004 127.253 C 103.004 131.316,103.001 131.330,101.931 131.330 L 100.858 131.330 100.858 125.536 C 100.858 120.029,100.901 119.742,101.717 119.742 C 102.299 119.742,102.575 120.029,102.575 120.632 M122.747 120.632 L 122.747 121.522 123.878 120.632 C 124.608 120.057,125.638 119.742,126.786 119.742 C 132.991 119.742,133.741 129.688,127.682 131.632 L 126.395 132.045 126.180 140.787 L 125.966 149.530 123.498 150.993 C 121.978 151.895,121.030 152.748,121.030 153.214 C 121.030 154.950,118.390 155.504,117.428 153.970 C 116.652 152.733,117.620 151.720,119.596 151.699 C 120.703 151.688,122.017 151.232,123.410 150.376 L 125.536 149.070 125.653 140.451 L 125.769 131.831 124.406 131.152 C 123.657 130.778,122.977 130.472,122.895 130.472 C 122.814 130.472,122.747 131.727,122.747 133.262 C 122.747 135.726,122.651 136.052,121.923 136.052 C 121.169 136.052,120.273 121.546,120.937 120.064 C 121.275 119.309,122.747 119.770,122.747 120.632 M174.547 120.577 C 174.764 121.403,174.774 121.403,175.661 120.577 C 176.251 120.027,177.152 119.747,178.300 119.756 C 181.600 119.782,182.403 121.202,182.403 127.010 L 182.403 131.330 181.330 131.330 C 180.258 131.330,180.258 131.328,180.258 127.069 C 180.258 122.331,179.858 121.459,177.683 121.459 C 175.490 121.459,174.678 123.098,174.678 127.526 C 174.678 131.298,174.669 131.330,173.605 131.330 L 172.532 131.330 172.532 125.536 C 172.532 119.942,172.563 119.742,173.431 119.742 C 173.960 119.742,174.419 120.086,174.547 120.577 M201.005 120.624 C 202.209 121.571,203.285 124.400,202.861 125.504 C 202.652 126.050,201.858 126.180,198.726 126.180 C 194.335 126.180,193.725 126.812,195.960 129.046 C 196.971 130.057,197.293 130.135,199.608 129.925 C 202.381 129.674,203.230 130.510,201.045 131.341 C 196.914 132.912,192.709 130.137,192.705 125.837 C 192.701 121.006,197.588 117.936,201.005 120.624 M211.386 120.192 C 211.971 121.138,211.235 121.959,210.267 121.441 C 209.171 120.855,207.483 121.210,207.142 122.099 C 206.752 123.116,207.249 123.911,208.632 124.484 C 211.994 125.876,213.203 128.837,211.163 130.683 C 210.034 131.705,206.495 132.032,205.407 131.215 C 204.087 130.225,204.932 129.628,207.264 129.904 C 210.476 130.285,211.433 127.790,208.535 126.589 C 205.130 125.179,204.043 122.524,206.090 120.618 C 207.116 119.662,210.872 119.360,211.386 120.192 M279.399 120.632 L 279.399 121.522 280.530 120.632 C 281.764 119.661,284.081 119.462,285.472 120.206 C 287.762 121.432,288.659 131.330,286.481 131.330 C 285.418 131.330,285.408 131.293,285.401 127.575 C 285.394 122.889,284.881 121.721,282.756 121.543 C 280.383 121.344,279.828 122.444,279.828 127.349 C 279.828 131.310,279.823 131.330,278.755 131.330 L 277.682 131.330 277.682 125.536 C 277.682 120.029,277.725 119.742,278.541 119.742 C 279.123 119.742,279.399 120.029,279.399 120.632 M293.038 125.644 L 293.158 131.330 292.073 131.330 L 290.987 131.330 290.987 125.507 C 290.987 119.713,290.992 119.683,291.953 119.820 C 292.892 119.953,292.922 120.115,293.038 125.644 M303.995 119.985 C 305.471 120.551,304.293 121.680,302.384 121.528 C 300.023 121.340,298.803 121.995,298.020 123.870 C 296.608 127.249,299.005 130.405,302.616 129.920 C 304.608 129.653,305.333 130.690,303.612 131.344 C 298.893 133.138,294.565 129.297,295.692 124.315 C 296.482 120.825,300.595 118.680,303.995 119.985 M314.606 120.394 C 318.371 122.340,317.937 129.477,313.953 131.142 C 309.874 132.846,306.014 130.268,306.010 125.837 C 306.006 121.045,310.439 118.238,314.606 120.394 M325.658 120.105 C 326.713 120.774,325.808 121.896,324.642 121.365 C 321.666 120.009,320.357 123.034,323.283 124.505 C 326.471 126.108,327.247 127.453,326.343 129.809 C 325.509 131.982,319.313 132.505,319.313 130.403 C 319.313 129.689,319.521 129.614,320.813 129.856 C 324.383 130.526,326.018 128.254,323.087 126.697 C 319.390 124.734,318.463 122.358,320.667 120.494 C 321.595 119.708,324.657 119.470,325.658 120.105 M90.525 122.285 C 87.917 124.892,89.326 130.043,92.646 130.043 C 95.963 130.043,97.393 124.366,94.666 122.021 C 93.133 120.702,92.038 120.772,90.525 122.285 M138.090 121.326 C 137.677 121.434,137.339 121.687,137.339 121.888 C 137.339 122.309,142.094 124.573,142.379 124.287 C 142.850 123.816,141.882 122.248,140.763 121.669 C 139.490 121.011,139.360 120.994,138.090 121.326 M163.415 121.878 C 161.053 123.736,161.525 124.464,165.091 124.464 C 168.214 124.464,168.291 124.438,168.017 123.498 C 167.351 121.207,165.222 120.457,163.415 121.878 M195.903 122.083 C 194.038 123.949,194.460 124.464,197.854 124.464 C 201.192 124.464,201.509 124.118,199.969 122.161 C 198.843 120.730,197.287 120.700,195.903 122.083 M239.624 121.996 C 237.684 124.151,237.916 124.464,241.459 124.464 C 244.610 124.464,244.686 124.439,244.412 123.498 C 243.727 121.140,241.128 120.325,239.624 121.996 M267.996 122.087 C 267.508 122.618,266.832 123.145,266.494 123.257 C 265.377 123.630,265.690 127.625,266.940 128.956 C 267.904 129.982,268.027 130.015,268.305 129.313 C 268.588 128.595,268.611 128.594,268.639 129.292 C 268.721 131.316,271.664 129.713,272.554 127.159 C 273.845 123.457,270.331 119.547,267.996 122.087 M309.638 122.010 C 307.360 123.970,307.951 129.223,310.523 129.869 C 312.201 130.290,313.662 129.710,314.370 128.341 C 316.576 124.075,312.922 119.186,309.638 122.010 M124.388 121.905 C 123.375 122.496,122.611 125.106,122.939 126.854 C 123.591 130.332,127.456 131.253,128.986 128.295 C 131.064 124.277,127.888 119.863,124.388 121.905 M150.763 121.996 C 149.683 123.393,149.794 123.597,152.332 124.878 C 155.574 126.515,155.524 126.522,155.245 124.447 C 154.880 121.724,152.134 120.223,150.763 121.996 M136.006 123.927 C 134.400 128.109,139.220 132.230,141.653 128.755 C 143.423 126.228,143.188 125.529,140.079 124.074 C 136.626 122.458,136.571 122.456,136.006 123.927 M149.785 126.172 C 149.785 127.944,150.592 128.636,154.306 130.048 C 157.040 131.088,155.680 127.210,152.802 125.757 C 149.620 124.151,149.785 124.128,149.785 126.172 M244.711 127.035 C 239.555 129.515,239.368 130.196,243.927 129.900 C 248.422 129.608,249.356 129.067,249.356 126.755 C 249.356 125.731,249.308 124.895,249.249 124.899 C 249.190 124.902,247.148 125.864,244.711 127.035 M238.429 127.146 C 239.027 129.141,239.526 129.205,242.489 127.668 L 245.279 126.222 241.709 126.201 C 238.204 126.181,238.145 126.198,238.429 127.146 M157.511 129.775 C 157.511 131.498,157.630 131.717,158.788 132.121 L 160.065 132.566 160.183 139.981 L 160.300 147.395 171.781 153.796 L 183.262 160.196 183.262 162.743 L 183.262 165.290 184.657 165.156 L 186.052 165.021 186.172 161.803 L 186.292 158.584 175.013 152.283 L 163.734 145.982 163.821 138.656 C 163.882 133.526,163.766 131.330,163.433 131.330 C 163.171 131.330,162.359 130.876,161.628 130.321 C 160.898 129.766,159.673 128.988,158.906 128.593 L 157.511 127.875 157.511 129.775 M142.257 153.785 C 150.731 158.421,152.444 159.213,153.165 158.827 C 155.623 157.511,158.174 160.710,156.223 162.661 C 154.568 164.316,151.222 162.778,151.777 160.617 C 151.929 160.025,149.883 158.719,141.871 154.292 L 131.773 148.712 131.866 138.627 L 131.958 128.541 132.081 138.413 L 132.204 148.285 142.257 153.785 M149.721 130.150 C 149.685 130.917,149.696 132.065,149.745 132.700 C 149.807 133.508,149.523 134.058,148.796 134.534 C 147.882 135.133,147.775 135.479,147.897 137.457 C 147.972 138.690,148.042 142.224,148.052 145.309 L 148.069 150.918 159.605 156.595 L 171.141 162.273 171.395 163.862 L 171.649 165.451 174.129 165.298 C 176.833 165.133,177.240 164.816,177.241 162.876 C 177.242 161.630,176.858 161.382,165.552 155.297 L 153.863 149.006 153.740 144.893 C 153.630 141.213,153.509 140.672,152.587 139.751 C 151.338 138.502,151.563 137.029,153.091 136.448 C 155.486 135.537,157.114 138.119,155.189 139.775 C 154.084 140.725,154.049 140.895,154.168 144.686 L 154.292 148.612 165.880 154.758 C 178.049 161.211,177.969 161.149,178.069 164.163 C 178.110 165.416,178.169 165.451,180.258 165.451 L 182.403 165.451 182.403 163.006 L 182.403 160.562 171.137 154.156 L 159.871 147.749 159.639 140.417 C 159.512 136.384,159.318 133.007,159.210 132.913 C 158.917 132.659,150.286 128.755,150.016 128.755 C 149.889 128.755,149.756 129.383,149.721 130.150 M247.068 130.199 C 245.965 130.758,244.194 131.546,243.133 131.952 C 242.071 132.357,241.170 132.721,241.130 132.761 C 241.091 132.800,240.946 136.188,240.808 140.288 L 240.558 147.744 229.399 154.068 L 218.240 160.393 218.115 162.922 L 217.990 165.451 220.154 165.451 L 222.318 165.451 222.318 163.437 C 222.318 162.330,222.552 161.268,222.838 161.077 C 223.124 160.886,228.483 157.997,234.748 154.657 L 246.137 148.584 246.261 144.671 C 246.380 140.896,246.344 140.725,245.240 139.775 C 243.940 138.657,244.073 137.241,245.551 136.450 C 247.613 135.347,249.575 138.682,247.656 140.026 C 246.934 140.532,246.796 141.213,246.690 144.802 L 246.567 148.988 234.853 155.288 L 223.140 161.588 223.265 163.305 L 223.391 165.021 226.054 165.236 L 228.716 165.451 228.985 163.858 L 229.254 162.266 240.789 156.605 L 252.325 150.943 252.450 143.037 C 252.564 135.827,252.506 135.068,251.790 134.420 C 251.265 133.946,251.078 133.345,251.225 132.606 C 251.383 131.818,251.209 131.354,250.616 130.983 C 250.159 130.698,249.785 130.177,249.785 129.825 C 249.785 128.961,249.412 129.012,247.068 130.199 M236.997 130.763 C 236.554 130.941,236.501 132.504,236.736 138.373 L 237.032 145.760 225.598 152.164 L 214.163 158.569 214.163 161.930 L 214.163 165.290 215.558 165.156 C 216.927 165.024,216.957 164.975,217.167 162.538 L 217.382 160.054 228.755 153.702 L 240.129 147.350 240.242 140.091 C 240.335 134.128,240.474 132.744,241.020 132.336 C 241.584 131.916,241.486 131.796,240.375 131.552 C 239.655 131.394,238.955 131.086,238.821 130.868 C 238.558 130.443,237.891 130.404,236.997 130.763 M165.987 131.643 L 164.378 131.811 164.290 136.936 C 164.242 139.754,164.193 142.855,164.183 143.827 L 164.163 145.594 175.322 151.775 L 186.481 157.956 186.910 161.703 L 187.339 165.451 188.734 165.455 L 190.129 165.459 190.129 160.871 L 190.129 156.284 179.185 150.627 L 168.240 144.970 168.240 138.150 C 168.240 134.399,168.095 131.363,167.918 131.403 C 167.741 131.442,166.872 131.551,165.987 131.643 M224.271 136.803 L 224.540 142.275 213.134 148.283 L 201.728 154.292 201.760 157.940 C 201.809 163.521,202.184 165.451,203.219 165.451 C 204.014 165.451,204.093 165.093,204.292 160.566 L 204.506 155.681 216.309 149.616 L 228.112 143.552 228.231 137.441 L 228.350 131.330 226.176 131.330 L 224.003 131.330 224.271 136.803 M152.666 137.176 C 151.609 138.233,153.026 140.170,154.511 139.698 C 155.879 139.264,155.531 137.169,154.061 136.997 C 153.462 136.928,152.835 137.008,152.666 137.176 M245.080 137.738 C 244.562 138.706,245.586 140.044,246.680 139.828 C 247.583 139.650,248.260 138.456,247.936 137.612 C 247.561 136.634,245.626 136.720,245.080 137.738 M194.449 139.500 C 194.980 139.784,195.279 140.398,195.279 141.202 C 195.279 143.134,193.035 144.047,191.662 142.673 C 189.786 140.798,192.053 138.218,194.449 139.500 M208.768 139.730 C 210.008 140.971,209.144 143.348,207.452 143.348 C 206.103 143.348,205.150 142.462,205.150 141.208 C 205.150 139.267,207.390 138.352,208.768 139.730 M244.645 159.647 C 243.218 161.074,244.703 162.939,246.674 162.195 C 247.901 161.731,247.986 159.873,246.809 159.243 C 245.703 158.650,245.627 158.665,244.645 159.647 M153.058 159.879 C 152.674 160.263,152.361 160.742,152.361 160.944 C 152.361 162.502,155.099 163.073,155.963 161.695 C 156.996 160.046,154.470 158.467,153.058 159.879 " stroke="none" fill="#8D8F92" fill-rule="evenodd"></path></g></svg>