<svg id="svg" version="1.1" xmlns="http://www.w3.org/2000/svg" xmlns:xlink="http://www.w3.org/1999/xlink" width="400" height="240" viewBox="0, 0, 400,240"><g id="svgg"><path id="path0" d="M112.127 33.927 C 100.923 52.392,71.191 100.770,46.058 141.433 L 0.361 215.366 16.430 225.163 C 25.269 230.552,34.750 234.235,37.500 233.347 C 41.738 231.980,125.593 102.231,131.760 87.500 C 134.617 80.673,143.559 92.993,184.382 160.000 C 235.874 244.521,230.395 239.054,251.968 227.437 C 261.886 222.096,270.000 216.897,270.000 215.883 C 270.000 211.794,137.598 0.013,135.145 0.177 C 133.690 0.275,123.332 15.462,112.127 33.927 M226.395 35.506 L 205.290 70.657 218.149 91.028 L 231.009 111.399 241.930 97.703 L 252.851 84.006 299.692 159.503 C 325.454 201.026,348.255 235.000,350.361 235.000 C 360.470 235.000,384.748 216.790,382.522 210.878 C 377.869 198.521,253.441 -0.001,250.461 0.177 C 248.833 0.275,238.003 16.173,226.395 35.506 M332.784 11.113 C 321.625 27.044,323.130 37.803,338.174 49.637 C 359.578 66.473,385.000 54.875,385.000 28.275 C 385.000 2.188,347.636 -10.093,332.784 11.113 M369.014 28.114 C 370.939 41.603,355.933 48.076,345.929 38.071 C 335.741 27.884,342.231 13.912,356.228 15.899 C 363.243 16.896,368.072 21.508,369.014 28.114 " stroke="none" fill="#8D8F92" fill-rule="evenodd"></path></g></svg>