<?xml version="1.0" standalone="no"?>
<!DOCTYPE svg PUBLIC "-//W3C//DTD SVG 20010904//EN"
 "http://www.w3.org/TR/2001/REC-SVG-20010904/DTD/svg10.dtd">
<svg version="1.0" xmlns="http://www.w3.org/2000/svg"
 width="925.000000pt" height="925.000000pt" viewBox="0 0 925.000000 925.000000"
 preserveAspectRatio="xMidYMid meet">

<g transform="translate(0.000000,925.000000) scale(0.100000,-0.100000)"
fill="#8D8F92" stroke="none">
<path d="M3785 9213 c-49 -18 -108 -42 -130 -53 -22 -10 -96 -44 -165 -75
-131 -60 -228 -110 -430 -223 -227 -127 -529 -343 -755 -542 -652 -573 -1035
-1251 -1117 -1975 -15 -131 -14 -423 1 -554 94 -800 541 -1599 1320 -2359 191
-185 500 -462 517 -462 3 0 -8 24 -24 53 -16 28 -68 120 -114 202 -285 506
-445 836 -574 1185 -14 36 -28 74 -33 85 -10 22 -56 163 -94 290 -179 588
-193 1200 -37 1668 38 115 43 126 111 267 173 356 461 672 859 942 127 86 210
134 376 221 138 71 139 72 146 112 10 56 55 297 83 440 13 66 35 179 49 250
13 72 34 180 46 240 26 129 59 319 57 321 -1 1 -42 -14 -92 -33z"/>
<path d="M3535 7712 c-895 -460 -1395 -1398 -1280 -2402 20 -182 91 -465 145
-582 17 -35 25 -35 113 2 104 45 158 67 195 80 18 7 35 16 38 21 3 5 -11 53
-30 106 -85 239 -128 556 -107 790 16 176 18 177 206 167 l133 -7 16 79 c35
169 113 375 193 508 39 66 46 75 128 181 l54 69 -84 87 c-111 116 -117 143
-48 220 107 119 301 256 492 351 71 34 130 69 130 76 1 7 -3 20 -9 30 -5 9
-22 49 -38 87 -16 39 -42 100 -57 138 -19 44 -33 67 -44 66 -9 0 -74 -31 -146
-67z"/>
<path d="M4810 7354 c-14 -2 -59 -9 -100 -15 -41 -6 -101 -18 -133 -26 l-57
-16 23 -31 c13 -17 33 -48 45 -68 l21 -38 -25 0 c-40 0 -259 -48 -348 -76
-352 -110 -625 -286 -830 -534 -136 -164 -242 -384 -276 -568 -6 -35 -16 -76
-21 -90 -18 -47 -49 -401 -49 -559 0 -251 36 -444 114 -613 16 -36 32 -67 36
-70 3 -3 20 -27 37 -55 41 -64 138 -160 233 -229 41 -30 112 -82 156 -115 137
-99 320 -258 344 -296 25 -40 55 -176 66 -295 10 -114 15 -120 46 -63 32 58
64 90 160 157 58 41 86 70 135 141 53 77 145 219 178 273 98 162 140 237 211
382 31 63 65 131 75 150 15 31 80 186 129 310 21 52 -1 49 238 35 210 -13 501
14 833 77 52 9 58 13 63 40 9 44 61 114 111 148 152 105 349 30 412 -157 l16
-46 101 6 c60 3 127 14 166 26 36 12 81 26 100 32 216 70 501 259 703 467 70
73 77 83 77 120 0 46 -25 72 -88 93 -20 7 -66 35 -102 64 -106 84 -418 317
-561 417 -274 193 -506 328 -565 328 -45 0 -177 -96 -366 -266 -161 -146 -437
-448 -477 -522 -6 -11 -27 -26 -48 -32 -50 -17 -191 -7 -276 20 l-68 21 63 71
c35 39 96 110 137 157 40 47 76 88 80 91 14 11 200 259 262 350 35 53 80 128
99 167 28 57 41 74 65 82 260 86 604 49 924 -100 l103 -49 44 32 c24 17 44 32
44 34 0 1 -44 21 -97 44 -97 43 -190 85 -268 120 -63 29 -349 147 -495 204
-112 43 -301 103 -400 126 -224 52 -261 60 -375 84 -226 49 -514 76 -625 60z"/>
<path d="M6985 4995 c-44 -13 -98 -27 -120 -30 -22 -4 -83 -17 -135 -30 -52
-13 -113 -26 -135 -30 -22 -3 -78 -17 -125 -29 l-85 -23 69 -22 c49 -15 128
-26 265 -37 290 -22 330 -29 367 -65 17 -17 37 -42 45 -57 7 -15 34 -56 60
-92 95 -132 101 -152 111 -339 15 -285 46 -450 119 -628 11 -28 11 -37 -4 -68
-40 -84 -239 -162 -485 -191 -175 -21 -653 -15 -805 10 -171 27 -416 100 -535
159 l-72 35 164 -172 165 -171 200 -30 c111 -16 201 -32 201 -35 0 -6 -54 -68
-210 -240 -42 -47 -137 -152 -210 -235 -73 -82 -205 -230 -294 -329 -221 -245
-239 -266 -234 -272 6 -5 201 108 290 168 31 21 60 38 63 38 4 0 46 28 93 62
245 175 340 267 519 503 105 138 205 218 348 278 81 34 274 76 398 87 191 17
351 48 402 80 51 31 113 107 127 154 7 23 12 86 11 141 -1 88 -6 116 -43 230
-48 147 -58 235 -40 327 15 78 30 104 86 147 66 50 62 74 -29 170 -40 42 -135
146 -212 231 -76 85 -146 162 -156 170 -26 22 -69 90 -69 109 0 10 -6 24 -12
33 -12 15 -20 14 -93 -7z"/>
<path d="M6035 4963 c-16 -2 -93 -15 -170 -28 -229 -38 -517 -57 -699 -46
l-68 4 -13 -34 c-38 -102 -65 -161 -150 -334 -52 -104 -112 -221 -134 -260
-22 -38 -49 -86 -60 -105 -48 -87 -207 -327 -285 -430 -222 -295 -409 -457
-693 -601 -94 -48 -191 -100 -215 -117 -142 -98 -248 -274 -248 -411 1 -107
73 -239 178 -326 63 -52 214 -128 297 -149 200 -51 457 -8 619 103 59 41 131
109 123 117 -3 4 -41 -2 -84 -11 -183 -41 -300 -10 -353 96 -61 119 18 245
165 263 244 30 575 127 722 211 27 15 60 34 75 42 47 24 170 146 209 206 21
32 50 90 66 130 27 68 28 80 28 232 0 148 -2 167 -28 250 -32 101 -75 204
-118 281 l-29 51 86 7 c225 17 385 80 518 205 59 55 150 182 190 264 37 78 90
236 100 302 4 22 9 52 12 68 3 15 2 26 -3 26 -4 -1 -21 -4 -38 -6z"/>
<path d="M547 1373 c-8 -10 -19 -31 -22 -48 -4 -16 -26 -102 -50 -190 -24 -88
-85 -315 -136 -505 -75 -279 -93 -358 -93 -415 0 -84 18 -124 73 -161 73 -48
120 -54 453 -54 l308 0 14 23 c19 30 69 225 62 243 -4 12 -54 14 -286 14 -238
0 -281 2 -286 15 -6 15 40 205 57 238 9 15 30 17 228 17 175 0 221 3 230 14
13 15 70 219 71 249 0 16 -17 17 -219 17 -121 0 -222 4 -225 9 -3 4 5 46 18
92 14 46 29 103 36 127 l11 42 284 0 c156 0 290 3 299 6 23 9 90 241 79 271
-4 11 -87 13 -448 13 -408 0 -443 -1 -458 -17z"/>
<path d="M1562 1378 c-5 -7 -24 -62 -40 -123 -34 -119 -116 -429 -137 -510 -7
-27 -27 -102 -45 -165 -106 -381 -108 -437 -16 -518 20 -17 52 -36 73 -43 46
-15 691 -25 705 -11 13 13 68 210 68 243 l0 29 -284 0 c-234 0 -285 2 -289 14
-3 8 9 67 27 133 l33 118 224 3 c211 2 225 4 237 22 14 23 62 205 62 238 l0
22 -220 0 -220 0 1 23 c0 12 15 72 32 132 l33 110 291 5 c185 3 296 9 303 16
5 5 16 32 24 60 7 27 22 79 32 115 29 108 70 99 -439 99 -344 0 -447 -3 -455
-12z"/>
<path d="M2805 1372 c-148 -31 -249 -117 -303 -259 -18 -45 -32 -90 -32 -100
0 -10 -11 -54 -25 -98 -27 -85 -33 -187 -14 -227 19 -43 70 -65 219 -98 294
-64 294 -65 254 -197 -14 -48 -31 -94 -36 -100 -8 -10 -80 -13 -299 -13 l-289
0 -9 -22 c-17 -42 -61 -214 -61 -236 l0 -22 308 0 c262 0 318 3 383 18 92 22
151 55 206 115 54 58 76 103 108 218 15 52 33 118 42 147 36 130 23 203 -43
247 -29 20 -55 27 -279 76 -119 26 -153 41 -161 73 -6 26 30 172 48 193 8 10
74 13 288 13 250 0 280 2 298 18 20 17 73 187 76 242 l1 25 -300 2 c-248 1
-314 -1 -380 -15z"/>
<path d="M3885 1384 c-108 -21 -137 -30 -185 -54 -31 -16 -74 -48 -97 -73 -72
-78 -83 -108 -189 -507 -35 -135 -69 -260 -100 -368 -21 -76 -25 -110 -22
-177 3 -82 4 -85 42 -124 71 -72 94 -76 471 -76 l330 0 12 40 c36 115 62 219
57 226 -3 5 -133 9 -289 9 -168 0 -286 4 -290 9 -3 6 9 63 26 128 17 65 40
152 50 193 11 41 26 98 34 125 8 28 26 97 41 155 14 58 34 128 43 155 l16 50
292 5 c178 3 296 9 302 15 14 14 73 245 67 261 -4 11 -60 14 -298 13 -161 -1
-302 -3 -313 -5z"/>
<path d="M6127 1368 c-8 -13 -26 -68 -41 -123 -15 -55 -35 -131 -46 -170 -10
-38 -33 -124 -50 -190 -18 -66 -41 -151 -52 -190 -12 -38 -24 -86 -28 -105 -4
-19 -26 -105 -49 -191 -22 -86 -41 -172 -41 -190 0 -19 11 -57 24 -86 28 -59
79 -94 164 -112 79 -16 364 -14 440 4 176 42 273 147 328 355 12 47 48 180 79
295 31 116 65 242 75 280 10 39 38 140 61 225 23 85 43 169 43 185 l1 30 -147
3 c-176 3 -163 13 -208 -159 -16 -63 -41 -157 -55 -209 -26 -93 -37 -135 -88
-330 -78 -293 -99 -367 -113 -387 -14 -22 -21 -23 -135 -23 -93 0 -121 3 -125
14 -3 7 7 58 21 112 15 55 53 198 86 319 33 121 70 261 83 310 13 50 36 134
51 189 15 54 28 112 29 130 l1 31 -147 3 c-144 2 -148 2 -161 -20z"/>
<path d="M7410 1380 c-120 -21 -220 -73 -273 -144 -34 -44 -82 -147 -91 -196
-4 -19 -19 -75 -33 -123 -43 -153 -30 -246 41 -281 31 -15 56 -21 276 -72 134
-31 160 -44 160 -81 0 -33 -39 -174 -52 -190 -8 -10 -80 -13 -299 -13 -188 0
-290 -4 -294 -10 -13 -21 -65 -216 -65 -242 l0 -28 308 0 c274 0 317 2 385 20
182 46 253 126 322 366 60 206 63 288 15 339 -30 32 -50 39 -254 85 -182 41
-216 56 -216 94 0 30 39 168 52 183 8 10 76 13 288 13 250 0 280 2 298 18 20
18 83 235 75 260 -4 9 -72 12 -301 11 -163 -1 -317 -5 -342 -9z"/>
<path d="M8157 1368 c-8 -13 -33 -90 -55 -173 -59 -222 -190 -707 -216 -805
-74 -268 -97 -363 -92 -376 4 -11 33 -14 148 -14 79 0 148 4 154 8 11 7 35 84
89 287 15 55 31 115 37 133 l10 32 146 0 c172 0 257 16 342 61 106 56 165 145
210 314 52 193 80 312 80 335 0 86 -52 157 -138 192 -54 21 -72 23 -379 26
l-322 3 -14 -23z m507 -277 c6 -8 -54 -253 -74 -305 -16 -42 -31 -47 -156 -44
l-119 3 3 30 c2 17 16 77 32 135 16 58 34 124 40 148 l11 42 129 0 c71 0 131
-4 134 -9z"/>
<path d="M5072 955 c-63 -19 -126 -76 -159 -143 -108 -220 107 -457 344 -378
57 19 119 78 155 146 34 65 32 166 -4 236 -65 124 -201 181 -336 139z"/>
</g>
</svg>
