<?xml version="1.0" standalone="no"?>
<!DOCTYPE svg PUBLIC "-//W3C//DTD SVG 20010904//EN"
 "http://www.w3.org/TR/2001/REC-SVG-20010904/DTD/svg10.dtd">
<svg version="1.0" xmlns="http://www.w3.org/2000/svg"
 width="925.000000pt" height="925.000000pt" viewBox="0 0 925.000000 925.000000"
 preserveAspectRatio="xMidYMid meet">

<g transform="translate(0.000000,925.000000) scale(0.100000,-0.100000)"
fill="#8D8F92" stroke="none">
<path d="M2820 6984 c-14 -2 -59 -9 -100 -15 -248 -36 -520 -138 -714 -267
-133 -88 -322 -258 -397 -357 -13 -16 -26 -32 -29 -35 -15 -14 -71 -93 -107
-151 -109 -174 -188 -378 -230 -594 -25 -130 -25 -503 0 -630 85 -429 296
-769 657 -1056 527 -419 1351 -499 1970 -190 79 40 250 143 272 164 7 7 29 24
48 37 114 79 302 281 397 425 66 99 156 283 193 392 16 50 42 147 57 215 24
111 27 143 27 328 0 217 -11 299 -59 465 -27 94 -89 253 -117 301 l-20 34
-304 0 c-167 0 -304 3 -304 8 0 4 24 42 53 84 196 285 227 332 227 339 0 14
-157 145 -249 207 -212 145 -483 247 -762 287 -94 13 -437 19 -509 9z m416
-974 c173 -48 313 -162 392 -320 64 -130 84 -218 90 -399 9 -300 -55 -491
-214 -648 -121 -117 -269 -173 -463 -173 -334 0 -564 174 -653 495 -19 70 -22
106 -22 280 -1 179 1 209 22 285 28 102 52 155 108 235 82 118 186 196 319
238 71 22 85 24 225 26 97 1 141 -3 196 -19z"/>
<path d="M4588 6828 c-24 -35 -55 -81 -71 -103 -73 -105 -157 -233 -157 -242
0 -5 18 -27 41 -48 92 -89 241 -296 265 -367 6 -17 48 -18 700 -18 384 0 694
-4 694 -9 0 -4 -8 -19 -18 -32 -17 -21 -274 -393 -501 -724 -42 -61 -89 -128
-104 -150 -52 -73 -202 -289 -288 -415 -139 -202 -242 -351 -284 -410 -21 -30
-57 -82 -79 -115 -22 -33 -42 -62 -46 -65 -4 -3 -13 -16 -20 -29 -7 -14 -17
-30 -22 -35 -35 -42 -285 -407 -294 -430 -6 -15 137 -16 1487 -16 822 0 1503
3 1514 6 11 3 42 38 68 78 46 67 215 304 240 336 7 8 23 31 37 50 14 19 30 42
37 50 7 8 68 94 136 190 l125 175 -964 3 c-530 1 -964 4 -964 7 0 3 26 40 57
83 31 42 88 120 127 172 38 52 87 119 108 148 21 28 55 76 76 105 21 28 58 80
83 113 24 34 93 128 153 210 60 82 159 217 219 299 61 83 122 166 137 185 14
19 41 58 60 85 19 28 36 52 40 55 3 3 17 21 30 40 14 19 30 42 37 50 6 8 33
44 59 80 26 36 64 88 84 115 20 28 129 176 240 330 112 154 208 282 212 283
45 19 -177 22 -1607 22 l-1604 0 -43 -62z"/>
<path d="M3545 3380 c-744 -8 -1363 -20 -1990 -40 -401 -13 -869 -32 -873 -35
-6 -5 219 -16 643 -30 2163 -72 4383 -72 6595 0 250 8 498 18 550 22 l95 7
-115 7 c-124 8 -571 23 -1110 39 -982 28 -2623 41 -3795 30z"/>
<path d="M3940 2902 c0 -60 -3 -111 -6 -115 -4 -3 -18 3 -33 14 -55 41 -160
37 -230 -9 -97 -63 -113 -232 -28 -308 45 -41 80 -54 143 -54 59 0 111 17 133
43 19 24 29 21 33 -10 3 -25 7 -28 38 -28 l35 0 0 48 c-1 26 -2 155 -3 287
l-2 240 -40 0 -40 0 0 -108z m-62 -146 c81 -45 84 -209 3 -250 -43 -23 -122
-21 -153 4 -30 23 -58 78 -58 114 0 45 31 107 64 127 36 22 109 25 144 5z"/>
<path d="M5413 2903 c-17 -3 -23 -12 -25 -41 -3 -34 -6 -37 -38 -42 -27 -4
-36 -10 -38 -27 -3 -20 1 -23 31 -23 23 0 37 -6 41 -16 3 -9 6 -67 6 -130 0
-169 17 -194 135 -194 l66 0 -4 28 c-3 24 -8 27 -45 30 -64 5 -72 24 -72 164
l0 118 60 0 c57 0 60 1 60 25 0 22 -4 24 -57 27 l-58 3 -3 43 c-3 44 -6 45
-59 35z"/>
<path d="M1383 2817 c-18 -6 -42 -20 -53 -30 -24 -20 -40 -15 -40 14 0 17 -6
20 -36 17 l-36 -3 1 -265 c1 -145 3 -265 4 -266 1 -1 18 -4 37 -6 l35 -3 3 90
c3 117 6 124 36 96 18 -17 41 -24 85 -28 110 -10 178 24 222 109 45 87 7 223
-73 264 -41 21 -143 27 -185 11z m147 -82 c31 -29 51 -81 45 -112 -2 -10 -6
-30 -9 -45 -14 -65 -104 -110 -174 -87 -77 25 -105 90 -81 182 19 71 62 101
137 95 41 -4 59 -11 82 -33z"/>
<path d="M2245 2813 c-16 -8 -37 -25 -47 -37 -17 -21 -17 -21 -18 12 0 31 -2
32 -40 32 l-40 0 0 -189 c0 -207 -2 -202 60 -198 l25 2 3 127 3 128 35 35 c28
28 42 35 74 35 39 0 40 1 37 33 -2 28 -6 32 -32 34 -17 2 -43 -5 -60 -14z"/>
<path d="M2880 2823 c-66 -22 -98 -45 -133 -98 -55 -82 -28 -197 61 -260 39
-26 53 -30 126 -33 71 -3 90 -1 127 18 60 31 96 76 109 134 16 75 -2 137 -57
194 -28 29 -99 52 -158 51 -33 0 -67 -3 -75 -6z m167 -87 c70 -82 39 -219 -57
-247 -48 -15 -97 -6 -131 24 -38 33 -49 59 -49 121 0 50 4 61 33 92 53 59 158
64 204 10z"/>
<path d="M6115 2812 c-92 -39 -130 -94 -129 -187 1 -97 48 -159 139 -184 127
-35 253 9 296 103 53 116 -6 242 -130 276 -53 15 -130 11 -176 -8z m167 -54
c9 -4 29 -24 44 -43 23 -31 26 -42 22 -93 -5 -69 -28 -105 -81 -127 -52 -21
-88 -19 -128 8 -63 42 -84 118 -54 190 30 73 123 103 197 65z"/>
<path d="M7025 2812 c-16 -11 -37 -27 -45 -37 -14 -17 -15 -16 -20 11 -4 25
-10 29 -43 32 l-37 3 2 -193 3 -193 40 0 40 0 3 127 3 128 35 35 c26 27 43 35
69 35 33 0 35 2 35 35 0 32 -3 35 -27 35 -16 0 -41 -8 -58 -18z"/>
<path d="M7575 2816 c-39 -11 -52 -30 -37 -53 5 -8 21 -8 62 3 93 24 170 -4
170 -61 0 -20 -7 -23 -68 -28 -85 -7 -145 -30 -178 -70 -22 -26 -25 -38 -22
-78 3 -26 11 -53 19 -61 44 -42 144 -51 211 -18 40 19 42 19 54 1 9 -12 24
-18 45 -17 l31 1 -1 130 c-2 124 -11 184 -34 213 -38 48 -160 66 -252 38z
m201 -201 c12 -31 -11 -89 -45 -112 -90 -61 -199 20 -126 93 31 32 161 47 171
19z"/>
<path d="M4500 2677 c0 -137 1 -145 26 -183 30 -46 68 -64 137 -64 54 0 94 13
124 42 24 22 22 24 37 -26 4 -13 30 -15 66 -7 3 0 4 86 2 191 l-3 190 -39 0
-40 0 0 -115 c0 -133 -13 -175 -59 -199 -16 -9 -49 -16 -73 -16 -35 0 -47 5
-63 26 -28 37 -32 63 -34 192 l-1 112 -40 0 -40 0 0 -143z"/>
</g>
</svg>
