<?xml version="1.0" standalone="no"?>
<!DOCTYPE svg PUBLIC "-//W3C//DTD SVG 20010904//EN"
 "http://www.w3.org/TR/2001/REC-SVG-20010904/DTD/svg10.dtd">
<svg version="1.0" xmlns="http://www.w3.org/2000/svg"
 width="925.000000pt" height="925.000000pt" viewBox="0 0 925.000000 925.000000"
 preserveAspectRatio="xMidYMid meet">

<g transform="translate(0.000000,925.000000) scale(0.100000,-0.100000)"
fill="#8D8F92" stroke="none">
<path d="M622 4943 c4 -1474 -4 -1345 84 -1521 99 -198 300 -353 516 -396 116
-24 1504 -24 1611 0 117 25 260 102 353 188 43 40 90 92 104 115 14 22 27 41
30 41 3 0 27 -30 54 -66 89 -120 229 -216 386 -266 l75 -23 785 0 785 0 88 29
c255 83 441 282 507 540 18 71 20 111 20 370 l0 291 -663 663 -662 662 -75
-75 -75 -75 633 -633 632 -632 0 -215 c0 -151 -5 -236 -15 -285 -40 -191 -184
-349 -370 -408 -70 -22 -74 -22 -805 -22 -731 0 -735 0 -805 22 -195 61 -345
235 -377 436 l-13 77 -107 0 -108 0 0 -38 c0 -155 -124 -348 -276 -429 -133
-71 -98 -68 -909 -68 -680 0 -734 1 -790 18 -189 58 -333 203 -380 382 -13 52
-15 211 -15 1232 l0 1173 540 0 540 0 0 -1130 0 -1130 105 0 105 0 0 1130 0
1130 540 0 540 0 0 110 0 110 -1295 0 -1295 0 2 -1307z"/>
<path d="M3885 6244 c-11 -2 -45 -9 -75 -15 -210 -42 -416 -208 -520 -418 -64
-129 -72 -178 -77 -496 l-5 -290 669 -668 668 -667 75 75 75 75 -633 633 -632
632 0 225 c0 252 9 313 62 414 43 80 147 185 223 224 128 64 96 62 900 62 802
0 789 1 905 -61 157 -83 264 -241 285 -421 l7 -58 104 0 103 0 6 38 c15 99 29
148 62 214 44 88 134 180 219 225 121 64 104 63 911 63 l732 0 74 -23 c176
-56 315 -204 362 -384 13 -48 15 -162 15 -690 l0 -633 -540 0 -540 0 0 595 0
595 -105 0 -105 0 -2 -1132 -3 -1133 -542 -3 -543 -2 0 -105 0 -105 650 0 650
0 0 540 0 540 650 0 650 0 0 714 c0 457 -4 743 -11 792 -35 256 -207 484 -444
589 -139 61 -103 59 -908 62 -800 4 -837 2 -965 -50 -35 -14 -88 -40 -120 -58
-57 -34 -187 -155 -233 -218 l-26 -35 -31 46 c-58 84 -177 184 -276 233 -170
84 -117 79 -956 81 -410 1 -754 0 -765 -2z"/>
</g>
</svg>
