<?xml version="1.0" standalone="no"?>
<!DOCTYPE svg PUBLIC "-//W3C//DTD SVG 20010904//EN"
 "http://www.w3.org/TR/2001/REC-SVG-20010904/DTD/svg10.dtd">
<svg version="1.0" xmlns="http://www.w3.org/2000/svg"
 width="341.000000pt" height="127.000000pt" viewBox="0 0 341.000000 127.000000"
 preserveAspectRatio="xMidYMid meet">

<g transform="translate(0.000000,127.000000) scale(0.100000,-0.100000)"
fill="#8D8F92" stroke="none">
<path d="M1283 1191 c-42 -26 -66 -75 -65 -130 1 -66 36 -105 177 -191 90 -55
110 -117 55 -172 -28 -27 -36 -30 -75 -25 -57 6 -110 45 -138 103 -22 47 -53
62 -44 22 3 -13 9 -53 12 -91 8 -71 20 -91 41 -63 11 16 16 16 65 2 98 -29
170 -15 224 46 31 33 35 45 35 91 0 71 -28 110 -120 167 -113 70 -150 106
-150 145 0 75 85 98 161 44 15 -10 37 -39 49 -64 21 -43 57 -65 46 -27 -2 9
-8 50 -11 90 -5 52 -11 72 -21 72 -8 0 -14 -5 -14 -11 0 -7 -13 -9 -37 -5
-108 18 -157 17 -190 -3z"/>
<path d="M2159 1187 c-19 -12 -42 -38 -51 -57 -43 -84 -9 -152 110 -226 114
-70 137 -94 137 -145 0 -74 -69 -109 -149 -75 -36 15 -93 79 -102 114 -6 23
-34 31 -34 10 0 -44 25 -178 33 -178 5 0 15 7 22 16 11 16 15 16 60 0 67 -22
122 -20 175 7 56 28 90 77 90 129 0 73 -42 122 -174 203 -82 50 -107 84 -98
131 12 64 108 71 168 13 19 -18 40 -48 46 -66 7 -18 19 -33 26 -33 12 0 14 12
9 68 -4 37 -7 77 -7 90 0 25 -21 29 -39 8 -11 -13 -18 -13 -53 0 -62 21 -129
18 -169 -9z"/>
<path d="M2450 1190 c-37 -37 -18 -82 36 -82 47 0 66 61 27 90 -24 17 -40 15
-63 -8z m11 -32 c-3 -21 -6 -26 -9 -15 -3 17 3 47 11 47 2 0 1 -15 -2 -32z
m55 -15 c-10 -10 -19 5 -10 18 6 11 8 11 12 0 2 -7 1 -15 -2 -18z m-22 -8 c3
-9 0 -15 -9 -15 -9 0 -12 6 -9 15 4 8 7 15 9 15 2 0 5 -7 9 -15z"/>
<path d="M167 942 c-54 -142 -100 -268 -104 -280 -5 -21 -3 -22 70 -22 l75 0
62 193 c33 105 65 203 69 217 11 31 7 41 84 -205 l63 -200 147 -3 147 -3 0
208 1 208 87 -207 87 -208 102 0 103 0 0 280 0 280 -70 0 -70 0 0 -192 -1
-193 -82 192 -82 193 -107 0 -108 0 -2 -245 -3 -245 -91 243 -91 242 -95 3
-94 3 -97 -259z"/>
<path d="M1550 1190 c0 -6 11 -15 24 -20 28 -10 71 -62 155 -186 l61 -92 0
-99 c0 -108 -6 -123 -52 -123 -18 0 -28 -5 -28 -15 0 -13 21 -15 130 -15 109
0 130 2 130 15 0 10 -10 15 -28 15 -46 0 -52 15 -52 127 l0 104 74 112 c76
117 108 153 140 159 11 1 21 9 24 16 3 9 -21 12 -97 12 -62 0 -101 -4 -101
-10 0 -6 14 -13 30 -16 17 -4 30 -13 30 -20 0 -12 -99 -175 -120 -198 -9 -9
-122 153 -134 192 -5 16 -3 22 8 23 36 3 40 5 44 17 3 9 -25 12 -117 12 -76 0
-121 -4 -121 -10z"/>
<path d="M1770 310 c0 -163 1 -170 20 -170 17 0 20 7 20 53 l1 52 48 -53 c38
-43 53 -53 74 -50 26 3 26 3 -25 61 l-51 58 52 46 c28 24 51 48 51 53 0 18
-68 -10 -105 -43 l-40 -37 -3 100 c-2 92 -4 100 -22 100 -19 0 -20 -8 -20
-170z"/>
<path d="M2000 310 l0 -170 28 0 c15 0 43 -2 63 -6 31 -5 42 -1 69 23 26 24
33 39 37 79 6 56 -13 106 -46 124 -27 14 -84 13 -99 -2 -9 -9 -12 3 -12 55 0
60 -2 67 -20 67 -19 0 -20 -7 -20 -170z m132 3 c37 -33 14 -143 -30 -143 -10
0 -28 7 -40 16 -18 12 -22 25 -22 69 0 41 4 56 18 64 25 15 53 13 74 -6z"/>
<path d="M2940 310 l0 -170 25 0 c25 0 25 1 25 78 0 84 14 112 56 112 36 0 44
-20 44 -107 0 -76 2 -83 20 -83 19 0 20 7 20 95 0 82 -3 98 -20 115 -22 22
-70 26 -101 10 -18 -10 -19 -7 -19 55 0 63 -1 65 -25 65 l-25 0 0 -170z"/>
<path d="M930 443 c0 -5 9 -35 19 -68 10 -33 31 -99 46 -147 23 -79 29 -88 50
-88 26 0 34 20 66 155 15 65 25 74 33 33 3 -18 16 -68 27 -111 20 -73 23 -78
46 -75 23 3 29 16 73 156 l47 152 -26 0 c-25 0 -28 -5 -55 -104 -16 -57 -31
-109 -35 -115 -4 -6 -20 41 -35 105 -27 112 -29 115 -54 112 -24 -3 -28 -11
-56 -120 l-31 -117 -34 119 c-31 110 -35 120 -57 120 -13 0 -24 -3 -24 -7z"/>
<path d="M1378 341 c-31 -27 -33 -34 -33 -91 0 -57 2 -64 33 -91 83 -74 200 7
178 124 -15 83 -115 115 -178 58z m112 -31 c31 -31 23 -108 -14 -132 -38 -26
-86 13 -86 70 0 73 55 107 100 62z"/>
<path d="M1680 360 c-8 -5 -27 -7 -42 -4 l-28 6 0 -111 c0 -104 1 -111 20
-111 17 0 19 8 22 83 l3 82 43 15 c28 10 42 20 40 30 -4 18 -37 24 -58 10z"/>
<path d="M2274 347 c-54 -46 -49 -162 9 -197 51 -32 137 -25 137 10 0 15 -7
17 -44 13 -38 -5 -48 -2 -70 20 -40 40 -33 47 49 47 l75 0 0 30 c0 37 -23 85
-45 94 -35 13 -84 6 -111 -17z m104 -44 c14 -23 14 -23 -37 -23 -54 0 -69 18
-33 39 25 16 53 9 70 -16z"/>
<path d="M2542 354 c-12 -8 -22 -10 -22 -5 0 6 -9 11 -20 11 -19 0 -20 -7 -20
-110 l0 -110 25 0 c25 0 25 1 25 78 0 85 14 112 58 112 31 0 42 -29 42 -114 0
-69 2 -76 20 -76 19 0 20 7 20 95 0 82 -3 98 -20 115 -24 24 -77 26 -108 4z"/>
<path d="M2758 341 c-30 -27 -33 -34 -33 -90 0 -52 4 -64 26 -87 30 -29 95
-42 128 -25 38 21 25 38 -30 37 -60 -1 -79 17 -79 76 0 55 30 82 82 75 36 -5
39 -3 36 16 -3 18 -11 22 -50 25 -40 3 -51 -1 -80 -27z"/>
</g>
</svg>
