<?xml version="1.0" standalone="no"?>
<!DOCTYPE svg PUBLIC "-//W3C//DTD SVG 20010904//EN"
 "http://www.w3.org/TR/2001/REC-SVG-20010904/DTD/svg10.dtd">
<svg version="1.0" xmlns="http://www.w3.org/2000/svg"
 width="1200.000000pt" height="610.000000pt" viewBox="0 0 1200.000000 610.000000"
 preserveAspectRatio="xMidYMid meet" fill="#8D8F92">
    <g transform="translate(0.000000,610.000000) scale(0.100000,-0.100000)"
    fill="#8D8F92" stroke="none">
        <path d="M2287 5498 l-344 -603 533 -3 534 -2 0 -1985 0 -1985 448 2 447 3 3
        1983 2 1982 4040 0 4040 0 0 605 0 605 -4679 0 -4680 0 -344 -602z"/>
        <path d="M1451 3768 c-219 -442 -623 -1258 -899 -1814 -276 -556 -502 -1016
        -502 -1023 0 -8 181 -10 698 -9 l697 3 3 272 2 272 -129 3 -130 3 262 431 262
        432 3 -709 2 -709 500 0 500 0 0 1825 0 1825 -436 0 -435 0 -398 -802z"/>
        <path d="M4222 2748 l3 -1823 450 0 450 0 3 1603 2 1602 155 0 155 0 2 -1602
        3 -1603 448 -3 447 -2 0 1590 0 1590 95 0 c52 0 105 -5 119 -12 14 -6 36 -32
        48 -57 l23 -46 3 -1532 2 -1533 460 0 460 0 -2 1488 -3 1487 -28 90 c-78 248
        -210 415 -402 506 -167 80 -40 73 -1548 77 l-1347 2 2 -1822z"/>
        <path d="M7820 2745 l0 -1825 998 2 997 3 0 560 0 560 -672 3 -673 2 0 120 0
        120 678 2 677 3 0 490 0 490 -682 3 -683 2 0 135 0 135 680 0 680 0 0 510 0
        510 -1000 0 -1000 0 0 -1825z"/>
        <path d="M10092 2748 l3 -1823 720 0 720 0 227 545 c125 300 227 551 227 558
        1 9 -100 12 -474 12 l-475 0 0 1265 0 1265 -475 0 -475 0 2 -1822z"/>
        <path d="M0 340 l0 -340 5548 0 5548 0 149 331 c83 182 152 335 153 340 2 5
        -2292 9 -5697 9 l-5701 0 0 -340z"/>
    </g>
</svg>
