<?xml version="1.0" standalone="no"?>
<!DOCTYPE svg PUBLIC "-//W3C//DTD SVG 20010904//EN"
 "http://www.w3.org/TR/2001/REC-SVG-20010904/DTD/svg10.dtd">
<svg version="1.0" xmlns="http://www.w3.org/2000/svg"
 width="500.000000pt" height="500.000000pt" viewBox="0 0 500.000000 500.000000"
 preserveAspectRatio="xMidYMid meet">

<g transform="translate(0.000000,500.000000) scale(0.100000,-0.100000)"
fill="#8D8F92" stroke="none">
<path d="M1855 4292 c-40 -25 -46 -34 -85 -127 -18 -44 -170 -406 -337 -805
-279 -665 -304 -729 -300 -770 4 -34 47 -123 181 -370 97 -179 187 -335 201
-347 36 -32 95 -45 147 -34 126 29 163 49 665 358 227 139 418 256 426 259 10
3 36 -48 97 -193 45 -109 105 -251 132 -315 l50 -118 349 0 c192 0 349 2 349
4 0 4 -998 2370 -1020 2418 -26 56 -43 58 -452 58 -344 0 -375 -1 -403 -18z
m655 -1219 c133 -318 245 -584 247 -590 4 -10 -99 -13 -496 -13 -276 0 -501 3
-501 8 0 13 495 1172 501 1172 3 0 115 -260 249 -577z"/>
<path d="M440 1538 c-10 -24 -64 -146 -119 -272 -56 -126 -101 -233 -101 -238
0 -4 24 -8 53 -8 l54 0 28 65 27 65 127 0 127 0 26 -62 26 -63 56 -3 c31 -2
56 -1 56 2 0 4 -199 460 -230 529 -12 24 -19 27 -62 27 -48 0 -49 -1 -68 -42z
m109 -187 c23 -52 41 -98 41 -103 0 -4 -39 -8 -86 -8 -47 0 -84 3 -82 8 2 4
21 51 42 105 22 53 40 96 42 94 1 -1 21 -44 43 -96z"/>
<path d="M840 1388 c0 -219 7 -244 76 -310 100 -97 275 -84 360 27 44 59 54
112 54 302 l0 173 -55 0 -55 0 0 -177 c0 -150 -3 -183 -18 -212 -35 -70 -110
-97 -177 -65 -69 32 -75 54 -75 267 l0 187 -55 0 -55 0 0 -192z"/>
<path d="M1430 1535 l0 -45 90 0 90 0 0 -235 0 -235 45 0 45 0 0 235 0 234 77
3 76 3 18 43 18 42 -229 0 -230 0 0 -45z"/>
<path d="M2110 1571 c-88 -28 -171 -113 -196 -199 -41 -141 18 -274 156 -348
53 -28 190 -27 246 3 103 55 154 134 162 249 4 61 1 80 -20 126 -49 106 -144
171 -258 175 -36 1 -76 -1 -90 -6z m161 -107 c14 -7 40 -29 57 -48 138 -158
-46 -397 -227 -296 -105 60 -129 204 -49 296 61 70 141 87 219 48z"/>
<path d="M3796 1565 c-146 -52 -148 -226 -3 -279 23 -9 68 -25 99 -36 77 -28
101 -49 101 -89 0 -51 -23 -66 -101 -66 -54 1 -77 6 -122 30 -30 17 -58 31
-62 33 -7 4 -38 -51 -38 -67 0 -12 62 -45 124 -68 23 -8 72 -14 109 -14 79 0
136 26 167 77 26 42 26 118 0 161 -21 35 -88 74 -160 93 -62 17 -97 36 -116
65 -42 65 80 110 191 70 54 -20 53 -20 72 21 17 34 17 37 -1 49 -45 34 -191
45 -260 20z"/>
<path d="M4180 1300 l0 -280 50 0 50 0 1 138 0 137 132 -138 132 -137 68 0 68
0 -133 140 c-73 77 -134 143 -135 147 -2 5 51 67 117 138 l119 130 -66 3 -66
3 -118 -123 -118 -123 0 123 -1 122 -50 0 -50 0 0 -280z"/>
<path d="M2590 1296 l0 -275 37 -7 c20 -4 89 -4 154 -1 105 4 124 8 170 33 56
31 111 95 130 151 16 49 7 170 -16 217 -25 52 -73 98 -131 127 -44 21 -65 24
-196 27 l-148 4 0 -276z m294 160 c78 -34 121 -127 97 -213 -13 -51 -48 -96
-93 -119 -33 -17 -127 -29 -162 -20 l-26 6 0 187 0 186 77 -7 c42 -4 90 -13
107 -20z"/>
<path d="M3190 1290 l0 -280 200 0 200 0 0 50 0 50 -145 0 -145 0 0 70 0 70
90 0 90 0 0 45 0 45 -90 0 -90 0 0 70 0 70 145 0 145 0 0 45 0 45 -200 0 -200
0 0 -280z"/>
<path d="M4725 1070 c-14 -43 44 -67 68 -29 16 26 1 49 -32 49 -21 0 -32 -6
-36 -20z"/>
</g>
</svg>
