<?xml version="1.0" standalone="no"?>
<!DOCTYPE svg PUBLIC "-//W3C//DTD SVG 20010904//EN"
 "http://www.w3.org/TR/2001/REC-SVG-20010904/DTD/svg10.dtd">
<svg version="1.0" xmlns="http://www.w3.org/2000/svg"
 width="500.000000pt" height="500.000000pt" viewBox="0 0 500.000000 500.000000"
 preserveAspectRatio="xMidYMid meet">

<g transform="translate(0.000000,500.000000) scale(0.100000,-0.100000)"
fill="#000000" stroke="none">
<path d="M1845 4282 c-23 -14 -39 -41 -67 -108 -20 -49 -78 -188 -128 -309
-51 -121 -96 -230 -101 -243 l-9 -22 346 2 346 3 13 31 c12 30 9 42 -70 231
-148 359 -164 391 -200 413 -40 25 -91 26 -130 2z"/>
<path d="M2755 3339 c-154 -66 -284 -124 -288 -128 -4 -4 2 -30 14 -57 19 -44
382 -912 500 -1194 l47 -115 347 -3 c344 -2 346 -2 340 18 -6 20 -207 496
-470 1115 -70 165 -143 338 -163 385 -19 47 -38 88 -41 92 -3 4 -132 -47 -286
-113z"/>
<path d="M1170 2503 c0 -4 75 -145 166 -315 109 -201 176 -314 193 -325 30
-20 162 -26 180 -8 8 8 -29 103 -121 313 l-132 302 -110 0 c-93 0 -116 3 -143
20 -18 11 -33 17 -33 13z"/>
<path d="M446 1548 c-7 -18 -61 -142 -120 -275 -58 -133 -106 -244 -106 -247
0 -3 24 -6 53 -6 l53 0 26 63 26 62 129 3 130 3 28 -66 27 -65 55 0 c30 0 53
4 51 8 -2 5 -57 131 -122 280 l-119 272 -48 0 c-45 0 -50 -2 -63 -32z m104
-197 c22 -51 40 -96 40 -102 0 -5 -38 -9 -86 -9 -65 0 -85 3 -81 13 52 132 80
197 83 194 2 -2 22 -45 44 -96z"/>
<path d="M840 1399 c0 -204 7 -240 58 -299 65 -77 168 -107 257 -76 67 22 106
55 140 117 30 54 30 55 33 247 l4 192 -56 0 -56 0 0 -182 c0 -165 -2 -186 -20
-216 -41 -68 -124 -91 -187 -52 -57 35 -63 58 -63 265 l0 185 -55 0 -55 0 0
-181z"/>
<path d="M1430 1535 l0 -45 90 0 90 0 0 -235 0 -235 45 0 45 0 0 235 0 234 76
3 75 3 19 43 19 42 -229 0 -230 0 0 -45z"/>
<path d="M2093 1564 c-100 -37 -182 -148 -190 -259 -13 -170 142 -320 313
-302 236 24 348 304 191 475 -81 87 -213 123 -314 86z m189 -105 c84 -43 119
-173 70 -266 -51 -97 -176 -129 -263 -68 -56 40 -84 95 -83 165 1 154 140 239
276 169z"/>
<path d="M3808 1566 c-96 -34 -125 -75 -120 -170 3 -46 65 -100 144 -124 156
-49 202 -99 143 -157 -38 -39 -113 -35 -201 9 -38 19 -69 34 -70 33 -6 -8 -34
-67 -34 -72 0 -3 30 -20 68 -37 48 -22 87 -32 138 -36 87 -6 130 7 174 53 27
28 34 44 38 88 8 96 -34 139 -181 187 -73 24 -127 61 -127 89 0 60 129 79 243
35 20 -7 57 60 41 76 -15 15 -125 40 -174 40 -25 -1 -62 -7 -82 -14z"/>
<path d="M4180 1300 l0 -280 50 0 50 0 0 138 1 137 133 -137 134 -138 61 0
c34 0 61 3 61 6 0 4 -58 67 -130 141 -71 73 -130 137 -130 141 0 5 53 66 119
138 l118 129 -61 3 -62 3 -122 -123 -122 -123 0 123 0 122 -50 0 -50 0 0 -280z"/>
<path d="M2590 1297 l0 -276 46 -7 c73 -11 243 2 291 21 54 22 135 109 151
162 43 143 -20 284 -153 345 -43 19 -70 23 -192 26 l-143 4 0 -275z m309 150
c121 -61 121 -250 0 -317 -35 -19 -58 -24 -119 -25 l-75 0 -3 189 -2 189 77
-7 c50 -4 94 -15 122 -29z"/>
<path d="M3192 1293 l3 -278 198 -3 197 -2 0 50 0 50 -145 0 -145 0 0 70 0 70
90 0 90 0 0 45 0 45 -90 0 -90 0 0 70 0 70 145 0 145 0 0 45 0 45 -200 0 -200
0 2 -277z"/>
<path d="M4731 1076 c-9 -11 -10 -20 -1 -35 21 -40 79 -15 65 29 -7 24 -46 27
-64 6z m45 -31 c-8 -8 -18 -15 -22 -15 -3 0 -1 7 6 15 7 8 17 15 22 15 5 0 3
-7 -6 -15z"/>
</g>
</svg>
