<?xml version="1.0" standalone="no"?>
<!DOCTYPE svg PUBLIC "-//W3C//DTD SVG 20010904//EN"
 "http://www.w3.org/TR/2001/REC-SVG-20010904/DTD/svg10.dtd">
<svg version="1.0" xmlns="http://www.w3.org/2000/svg"
 width="569.000000pt" height="640.000000pt" viewBox="0 0 569.000000 640.000000"
 preserveAspectRatio="xMidYMid meet">

<g transform="translate(0.000000,640.000000) scale(0.100000,-0.100000)"
fill="#8D8F92" stroke="none">
<path d="M2745 6370 c-65 -14 -145 -47 -225 -93 -41 -24 -372 -214 -735 -424
-363 -209 -862 -496 -1110 -639 -409 -235 -456 -265 -521 -329 -77 -76 -123
-158 -143 -253 -8 -37 -11 -470 -11 -1455 0 -1509 -1 -1466 51 -1570 37 -72
89 -136 147 -180 59 -45 83 -59 742 -437 739 -425 872 -502 1253 -723 209
-120 404 -230 435 -244 53 -23 63 -24 227 -21 l171 3 70 35 c38 20 175 97 304
172 129 74 291 168 360 208 69 40 247 142 395 227 149 86 326 188 395 228 215
124 452 261 616 355 275 158 313 182 366 234 65 64 101 121 130 205 l23 66 0
1440 c0 1386 -1 1442 -19 1495 -51 149 -131 241 -286 332 -52 30 -347 200
-655 378 -308 177 -802 462 -1098 633 -297 170 -569 321 -605 334 -74 27 -209
38 -277 23z m430 -1555 c103 -19 252 -65 343 -106 327 -148 605 -456 730 -811
35 -99 62 -219 62 -278 l0 -40 -436 2 -437 3 -17 62 c-58 211 -193 346 -400
399 -88 22 -261 15 -344 -15 -199 -71 -336 -250 -401 -524 -62 -260 -53 -514
26 -751 114 -343 327 -505 632 -482 280 21 456 174 497 433 6 37 13 69 15 72
4 4 800 -38 820 -43 15 -4 7 -126 -16 -238 -101 -508 -474 -860 -1009 -952
-553 -96 -1087 35 -1463 358 -220 190 -389 495 -456 826 -64 314 -50 715 33
1000 113 389 336 682 665 877 209 124 425 194 701 227 74 9 369 -4 455 -19z"/>
</g>
</svg>
