<?xml version="1.0" standalone="no"?>
<!DOCTYPE svg PUBLIC "-//W3C//DTD SVG 20010904//EN"
 "http://www.w3.org/TR/2001/REC-SVG-20010904/DTD/svg10.dtd">
<svg version="1.0" xmlns="http://www.w3.org/2000/svg"
 width="564.000000pt" height="575.000000pt" viewBox="0 0 564.000000 575.000000"
 preserveAspectRatio="xMidYMid meet">

<g transform="translate(0.000000,575.000000) scale(0.100000,-0.100000)"
fill="#8D8F92" stroke="none">
<path d="M1985 3941 c-50 -22 -91 -69 -105 -119 -5 -20 -10 -83 -10 -139 l0
-103 956 0 956 0 -4 128 c-3 116 -5 132 -27 164 -13 19 -40 46 -59 59 l-36 24
-815 2 c-775 3 -818 2 -856 -16z m249 -127 c9 -8 16 -28 16 -44 0 -36 -23 -60
-57 -60 -55 0 -83 62 -46 102 20 22 66 24 87 2z m1268 -1 c25 -22 24 -79 -1
-93 -46 -24 -101 3 -101 50 0 50 64 78 102 43z"/>
<path d="M1840 3422 c-19 -11 -48 -36 -64 -56 -54 -66 -49 -111 64 -633 l12
-53 174 0 c174 0 175 0 200 -25 29 -29 26 -58 -8 -87 -18 -16 -43 -18 -193
-18 l-173 0 -12 -52 c-60 -274 -100 -481 -100 -521 0 -60 27 -115 77 -153 l38
-29 940 -3 c636 -2 952 0 976 7 50 15 86 45 110 94 17 32 20 53 16 106 -3 54
-84 467 -103 534 -5 15 -22 17 -180 17 -172 0 -175 0 -199 25 -30 29 -31 45
-4 79 l20 26 180 0 c98 0 179 1 179 3 0 1 14 67 30 147 76 363 82 395 78 446
-3 37 -13 63 -32 88 -58 77 31 71 -1036 74 -917 2 -956 2 -990 -16z m818 -380
c82 -34 146 -117 158 -205 8 -56 -17 -145 -53 -187 -22 -26 -24 -35 -15 -49
60 -81 77 -133 69 -203 -14 -116 -101 -205 -219 -223 -101 -15 -219 49 -260
143 -16 36 -17 46 -6 70 10 21 21 28 50 30 34 3 39 0 69 -47 37 -55 63 -71
117 -71 70 1 122 53 122 123 0 86 -49 127 -153 127 -47 0 -70 5 -85 18 -31 26
-35 56 -13 83 16 20 31 24 101 30 80 5 84 7 117 42 26 29 33 45 33 77 0 79
-47 130 -120 130 -56 0 -96 -23 -120 -70 -21 -42 -52 -57 -89 -45 -93 29 5
195 139 236 43 13 113 9 158 -9z m584 1 c17 -15 18 -42 18 -429 l0 -413 -22
-15 c-30 -21 -54 -20 -78 4 -19 19 -20 33 -20 350 0 182 -3 330 -7 330 -5 0
-28 -14 -53 -30 -25 -16 -57 -30 -72 -30 -49 0 -77 70 -40 102 45 40 217 148
235 148 11 0 29 -7 39 -17z"/>
</g>
</svg>
