<?xml version="1.0" standalone="no"?>
<!DOCTYPE svg PUBLIC "-//W3C//DTD SVG 20010904//EN"
 "http://www.w3.org/TR/2001/REC-SVG-20010904/DTD/svg10.dtd">
<svg version="1.0" xmlns="http://www.w3.org/2000/svg"
 width="256.000000pt" height="256.000000pt" viewBox="0 0 256.000000 256.000000"
 preserveAspectRatio="xMidYMid meet">

<g transform="translate(0.000000,256.000000) scale(0.100000,-0.100000)"
fill="#8D8F92" stroke="none">
<path d="M832 2179 c-172 -36 -343 -112 -411 -181 -70 -71 -171 -319 -235
-580 -46 -185 -64 -289 -78 -464 -11 -139 -11 -142 11 -177 12 -20 53 -65 90
-99 109 -101 291 -180 479 -209 95 -14 94 -15 162 82 29 41 37 60 28 63 -7 3
-38 12 -68 22 -84 26 -173 69 -250 119 -59 38 -70 49 -70 73 0 61 47 68 119
17 96 -69 271 -134 434 -160 118 -19 356 -19 474 0 161 26 327 87 434 159 77
51 119 46 119 -16 0 -24 -11 -35 -70 -73 -77 -50 -166 -93 -250 -119 -30 -10
-61 -19 -68 -22 -9 -3 -1 -22 28 -63 68 -97 67 -96 162 -82 188 29 370 108
479 209 37 34 78 79 90 99 22 35 22 38 11 177 -14 175 -32 279 -78 464 -64
259 -157 491 -229 571 -72 80 -244 156 -442 196 -108 21 -143 18 -162 -17 -9
-15 -13 -30 -9 -33 3 -3 41 -14 84 -25 146 -35 321 -107 364 -150 27 -27 25
-56 -5 -76 -24 -16 -28 -15 -115 29 -172 88 -360 131 -580 131 -220 0 -408
-43 -580 -131 -87 -44 -91 -45 -115 -29 -30 20 -32 49 -5 76 43 43 218 115
364 150 43 11 81 22 84 25 4 3 0 18 -9 33 -19 35 -62 38 -187 11z m194 -768
c125 -76 133 -254 17 -354 -79 -68 -217 -20 -259 88 -52 137 35 285 166 285
27 0 58 -8 76 -19z m687 -14 c99 -75 103 -250 8 -330 -102 -85 -235 -37 -277
101 -27 92 10 193 90 243 45 29 132 22 179 -14z"/>
</g>
</svg>
