<?xml version="1.0" standalone="no"?>
<!DOCTYPE svg PUBLIC "-//W3C//DTD SVG 20010904//EN"
 "http://www.w3.org/TR/2001/REC-SVG-20010904/DTD/svg10.dtd">
<svg version="1.0" xmlns="http://www.w3.org/2000/svg"
 width="2202.000000pt" height="2386.000000pt" viewBox="0 0 2202.000000 2386.000000"
 preserveAspectRatio="xMidYMid meet" fill="#8D8F92">
    <g transform="translate(0.000000,2386.000000) scale(0.100000,-0.100000)"
    fill="#8D8F92" stroke="none">
        <path d="M10875 23854 c-690 -75 -1235 -579 -1361 -1259 -25 -134 -25 -400 -1
        -535 102 -552 501 -1011 1030 -1185 181 -59 258 -70 482 -69 222 0 322 15 492
        75 315 111 598 329 771 594 40 61 78 119 86 130 13 19 15 19 77 -19 860 -524
        1643 -1495 2264 -2807 817 -1724 1320 -3892 1455 -6264 40 -711 40 -1656 0
        -2380 -88 -1577 -333 -3027 -742 -4390 -54 -181 -59 -207 -55 -270 5 -89 38
        -156 107 -218 62 -55 122 -77 214 -77 83 0 150 27 214 85 53 48 71 87 131 285
        335 1114 572 2334 695 3585 83 836 112 1521 103 2430 -6 552 -11 733 -37 1145
        -221 3518 -1260 6613 -2817 8391 -411 470 -870 852 -1334 1109 l-96 53 -6 136
        c-32 707 -538 1294 -1234 1431 -105 21 -344 34 -438 24z m272 -645 c173 -23
        345 -106 475 -228 129 -121 204 -241 255 -408 23 -78 26 -106 27 -238 1 -179
        -12 -241 -84 -391 -91 -189 -228 -326 -415 -415 -126 -59 -202 -79 -337 -86
        -273 -15 -508 81 -699 285 -122 130 -194 275 -225 454 -93 530 317 1023 863
        1037 34 0 97 -4 140 -10z"/>
        <path d="M5230 18933 c-1394 -60 -2502 -417 -3280 -1057 -111 -91 -301 -277
        -404 -396 -421 -484 -682 -1098 -758 -1785 -17 -153 -17 -640 0 -795 85 -780
        337 -1554 771 -2370 146 -275 180 -328 234 -371 199 -159 494 -29 514 225 7
        86 -7 127 -107 306 -560 1001 -843 2031 -781 2837 53 681 295 1226 746 1678
        983 986 2894 1326 5261 935 133 -22 266 -40 296 -40 88 0 145 25 213 94 76 77
        99 135 93 239 -6 118 -68 216 -170 268 -101 51 -897 165 -1468 209 -328 25
        -867 36 -1160 23z"/>
        <path d="M16431 18899 c-66 -26 -144 -101 -174 -167 -31 -67 -30 -187 1 -258
        29 -64 102 -136 167 -165 44 -20 75 -23 275 -30 551 -20 1004 -80 1448 -190
        1070 -266 1826 -804 2197 -1563 93 -190 137 -310 186 -503 112 -445 118 -922
        18 -1468 -141 -768 -531 -1655 -1114 -2535 -253 -382 -456 -654 -811 -1086
        -108 -131 -129 -178 -129 -284 0 -94 34 -169 102 -229 99 -88 250 -106 363
        -45 59 32 99 76 319 349 1013 1259 1659 2510 1890 3660 73 366 96 621 88 994
        -6 267 -18 396 -58 601 -191 992 -784 1776 -1734 2292 -719 391 -1697 621
        -2740 643 -229 5 -242 5 -294 -16z"/>
        <path d="M13690 18600 c-69 -16 -195 -46 -280 -66 -360 -85 -914 -243 -1360
        -389 -1524 -500 -3118 -1253 -4580 -2163 -3055 -1902 -5381 -4374 -6287 -6682
        -280 -713 -415 -1394 -401 -2032 l5 -217 -81 -53 c-292 -190 -512 -473 -620
        -800 -106 -317 -106 -656 -2 -974 42 -127 139 -310 226 -426 231 -307 562
        -514 943 -590 159 -31 405 -31 564 0 313 62 572 201 799 427 267 267 411 578
        444 962 24 271 -34 560 -163 811 -105 206 -263 393 -452 535 -113 85 -336 197
        -472 236 -138 40 -285 61 -433 61 l-123 0 6 212 c10 366 53 644 162 1043 284
        1038 955 2195 1940 3345 471 550 1120 1197 1730 1726 1516 1312 3359 2468
        5290 3317 1055 463 2177 839 3201 1072 127 29 252 63 278 76 101 50 166 158
        166 275 0 92 -22 152 -77 214 -100 111 -206 131 -423 80z m-12004 -12011 c396
        -70 687 -383 734 -788 17 -152 -18 -348 -88 -486 -117 -233 -339 -408 -599
        -472 -104 -26 -304 -23 -412 6 -335 88 -587 349 -657 681 -21 99 -18 288 6
        390 80 333 354 597 690 665 80 16 246 19 326 4z"/>
        <path d="M10832 12416 c-156 -30 -298 -87 -431 -173 -94 -61 -268 -245 -328
        -347 -109 -184 -155 -354 -156 -566 -1 -308 109 -577 325 -791 165 -163 381
        -273 610 -309 112 -18 331 -8 438 20 608 160 965 777 796 1375 -14 50 -51 140
        -81 200 -145 289 -398 490 -723 577 -100 26 -343 34 -450 14z"/>
        <path d="M3497 10590 c-92 -24 -178 -96 -219 -185 -32 -71 -31 -190 2 -259 34
        -70 183 -231 599 -646 444 -443 724 -701 1171 -1076 1545 -1296 3415 -2445
        5325 -3269 2505 -1081 4962 -1566 6935 -1369 828 83 1546 287 2155 613 l129
        69 56 -38 c141 -96 359 -183 553 -222 159 -31 405 -31 564 0 381 76 713 283
        942 589 526 700 353 1701 -378 2189 -154 104 -343 183 -539 227 -83 18 -128
        21 -307 21 -179 0 -224 -3 -307 -21 -479 -107 -857 -402 -1069 -833 -149 -303
        -191 -660 -119 -993 27 -126 54 -204 111 -326 27 -57 49 -105 49 -106 0 -7
        -319 -154 -420 -194 -1034 -407 -2436 -488 -4040 -235 -2155 340 -4550 1268
        -6750 2614 -1479 905 -2841 1988 -3875 3081 -132 140 -256 269 -275 288 -71
        69 -199 104 -293 81z m17155 -4004 c422 -83 720 -443 719 -870 0 -61 -6 -143
        -14 -181 -71 -340 -332 -607 -674 -692 -102 -25 -313 -22 -418 6 -90 24 -202
        74 -272 122 -60 41 -209 190 -250 249 -140 204 -183 487 -113 738 87 312 358
        562 680 627 88 18 252 18 342 1z"/>
        <path d="M6437 5226 c-127 -46 -209 -163 -209 -300 0 -65 8 -92 92 -316 703
        -1864 1663 -3243 2778 -3988 688 -461 1428 -670 2163 -611 1194 94 2306 855
        3256 2229 117 169 297 454 320 508 27 61 23 175 -9 243 -89 192 -337 250 -495
        114 -23 -20 -80 -98 -134 -182 -449 -716 -925 -1261 -1436 -1645 -694 -521
        -1448 -729 -2173 -598 -843 152 -1664 738 -2376 1695 -497 668 -939 1511
        -1305 2490 -44 116 -92 228 -108 250 -34 47 -108 100 -159 115 -52 14 -160 12
        -205 -4z"/>
    </g>
</svg>
