<?xml version="1.0" standalone="no"?>
<!DOCTYPE svg PUBLIC "-//W3C//DTD SVG 20010904//EN"
 "http://www.w3.org/TR/2001/REC-SVG-20010904/DTD/svg10.dtd">
<svg version="1.0" xmlns="http://www.w3.org/2000/svg"
 width="600.000000pt" height="600.000000pt" viewBox="0 0 600.000000 600.000000"
 preserveAspectRatio="xMidYMid meet">

<g transform="translate(0.000000,600.000000) scale(0.100000,-0.100000)"
fill="#8D8F92" stroke="none">
<path d="M3220 5949 c-107 -21 -231 -45 -275 -53 -44 -8 -258 -49 -475 -91
-217 -42 -429 -82 -470 -90 -41 -8 -253 -48 -470 -90 -217 -42 -559 -107 -760
-146 -201 -38 -453 -86 -560 -107 l-195 -37 -3 -2332 c-2 -2214 -1 -2332 15
-2337 16 -4 260 -52 473 -91 41 -8 251 -48 465 -89 791 -152 1349 -259 1700
-326 198 -38 454 -87 570 -110 115 -22 213 -40 217 -40 5 0 8 1346 8 2990 l0
2990 -22 -1 c-13 -1 -111 -18 -218 -40z m-1798 -1896 c231 -489 303 -644 323
-698 10 -27 22 -54 26 -58 4 -5 17 21 29 58 24 72 77 176 290 573 l135 252
293 0 c197 0 292 -3 292 -10 0 -6 -51 -95 -114 -198 -62 -103 -140 -232 -173
-287 -33 -55 -138 -228 -232 -384 -146 -241 -171 -288 -163 -305 6 -12 166
-275 356 -586 226 -370 341 -567 333 -571 -7 -4 -148 -9 -315 -11 l-303 -5
-33 61 c-190 347 -390 735 -403 780 -9 31 -19 56 -22 56 -3 0 -16 -33 -28 -73
-19 -63 -156 -325 -379 -727 l-52 -95 -311 -3 c-208 -1 -311 1 -311 8 0 6 70
122 156 258 86 136 221 348 299 472 78 124 172 273 210 333 l67 107 -44 78
c-24 42 -176 305 -336 584 -161 279 -292 510 -292 513 0 3 144 5 321 5 l320 0
61 -127z"/>
<path d="M3700 4970 l0 -340 348 -2 347 -3 0 -240 0 -240 -347 -3 -348 -2 0
-225 0 -225 345 0 345 0 0 -230 0 -230 -345 0 -345 0 0 -230 0 -230 345 0 345
0 0 -230 0 -230 -345 0 -345 0 0 -225 0 -225 343 -2 342 -3 3 -232 2 -233
-345 0 -345 0 0 -340 0 -340 1074 0 c735 0 1084 3 1103 11 34 13 80 55 99 91
22 41 21 4355 -1 4397 -20 39 -69 78 -113 91 -24 6 -399 10 -1099 10 l-1063 0
0 -340z m1848 -592 l-3 -233 -460 0 -460 0 -3 233 -2 232 465 0 465 0 -2 -232z
m2 -918 l0 -230 -465 0 -465 0 0 230 0 230 465 0 465 0 0 -230z m0 -920 l0
-230 -465 0 -465 0 0 230 0 230 465 0 465 0 0 -230z m-5 -925 l0 -240 -440 -3
c-242 -1 -450 0 -462 3 l-23 5 0 234 c0 128 3 236 7 239 3 4 212 6 462 5 l456
-3 0 -240z"/>
</g>
</svg>
