<?xml version="1.0" standalone="no"?>
<!DOCTYPE svg PUBLIC "-//W3C//DTD SVG 20010904//EN"
 "http://www.w3.org/TR/2001/REC-SVG-20010904/DTD/svg10.dtd">
<svg version="1.0" xmlns="http://www.w3.org/2000/svg"
 width="512.000000pt" height="512.000000pt" viewBox="0 0 512.000000 512.000000"
 preserveAspectRatio="xMidYMid meet">

<g transform="translate(0.000000,512.000000) scale(0.100000,-0.100000)"
fill="#8D8F92" stroke="none">
<path d="M2331 5099 c-316 -28 -644 -123 -929 -268 -259 -133 -429 -258 -647
-476 -230 -229 -352 -399 -490 -680 -88 -180 -136 -305 -181 -481 -182 -702
-57 -1458 339 -2049 199 -297 463 -558 757 -746 273 -176 612 -311 913 -363
l37 -7 0 996 0 995 -305 0 -305 0 0 355 0 355 305 0 305 0 0 268 c0 147 5 317
10 377 41 431 268 707 660 802 62 15 118 18 320 18 135 0 298 -4 363 -8 l117
-9 0 -319 0 -319 -172 0 c-353 -1 -460 -31 -517 -145 -34 -69 -41 -135 -41
-406 l0 -259 356 0 356 0 -6 -32 c-6 -39 -86 -654 -86 -668 0 -6 -115 -11
-307 -12 l-308 -3 -3 -1003 -2 -1002 42 6 c460 66 899 258 1263 551 125 101
328 309 421 434 587 779 688 1801 264 2664 -142 291 -263 458 -495 690 -218
218 -388 343 -647 476 -424 216 -911 310 -1387 268z"/>
</g>
</svg>
