<?xml version="1.0" standalone="no"?>
<!DOCTYPE svg PUBLIC "-//W3C//DTD SVG 20010904//EN"
 "http://www.w3.org/TR/2001/REC-SVG-20010904/DTD/svg10.dtd">
<svg version="1.0" xmlns="http://www.w3.org/2000/svg"
 width="478.000000pt" height="136.000000pt" viewBox="0 0 478.000000 136.000000"
 preserveAspectRatio="xMidYMid meet">
    <g transform="translate(0.000000,136.000000) scale(0.100000,-0.100000)"
    fill="#8D8F92" stroke="none">
        <path d="M175 1328 c-9 -39 -133 -843 -130 -846 4 -4 317 557 322 578 3 10
        -27 78 -68 154 -61 115 -76 136 -95 136 -16 0 -25 -7 -29 -22z"/>
        <path d="M457 1123 c-30 -46 -427 -759 -427 -766 0 -3 134 130 299 296 l298
        301 -53 100 c-62 118 -80 128 -117 69z"/>
        <path d="M410 674 c-353 -357 -400 -408 -384 -417 11 -6 113 -64 229 -129 139
        -79 219 -118 240 -118 45 0 485 247 485 272 0 46 -122 774 -132 785 -6 7 -16
        13 -23 13 -7 0 -194 -183 -415 -406z"/>
        <path d="M1840 1000 c-41 -41 -14 -110 42 -110 55 0 81 83 36 114 -30 21 -54
        20 -78 -4z"/>
        <path d="M1352 658 l3 -353 45 0 45 0 3 153 3 152 139 0 140 0 0 40 0 40 -140
        0 -140 0 0 115 0 115 155 0 155 0 0 45 0 45 -205 0 -205 0 2 -352z"/>
        <path d="M2860 654 l0 -355 42 3 c39 3 43 6 48 32 5 27 6 28 20 11 23 -28 91
        -55 140 -55 85 0 168 60 206 148 24 54 22 166 -3 222 -21 48 -87 115 -129 130
        -34 13 -116 13 -151 -1 -15 -5 -40 -22 -55 -37 l-28 -26 0 142 0 142 -45 0
        -45 0 0 -356z m297 47 c55 -25 83 -79 83 -156 0 -64 -16 -102 -60 -139 -45
        -38 -125 -37 -171 1 -91 77 -77 248 24 294 23 10 51 19 62 19 11 0 39 -9 62
        -19z"/>
        <path d="M2192 783 c-18 -9 -42 -27 -52 -41 l-20 -25 0 37 0 36 -45 0 -45 0 0
        -245 0 -245 45 0 45 0 0 148 c0 121 4 154 19 188 21 46 73 77 122 72 28 -3 33
        1 46 36 14 32 14 39 2 47 -22 14 -81 10 -117 -8z"/>
        <path d="M2465 785 c-47 -25 -92 -74 -116 -124 -42 -89 -22 -228 44 -300 54
        -59 162 -85 251 -60 40 11 126 88 126 113 0 8 -16 20 -36 26 -34 11 -38 11
        -58 -13 -11 -14 -31 -30 -43 -36 -32 -16 -111 -13 -143 6 -32 18 -70 80 -70
        112 0 21 3 21 185 21 l185 0 0 38 c-1 40 -26 117 -50 148 -8 11 -32 33 -53 49
        -33 24 -49 29 -115 32 -58 3 -85 0 -107 -12z m149 -79 c34 -14 76 -59 76 -82
        0 -11 -27 -14 -130 -14 -143 0 -149 3 -108 55 39 50 102 66 162 41z"/>
        <path d="M3485 777 c-22 -12 -50 -38 -63 -57 l-23 -35 39 -18 40 -17 30 29
        c69 70 189 37 208 -57 l7 -32 -36 15 c-20 8 -60 15 -88 15 -160 0 -255 -110
        -201 -232 46 -105 203 -131 292 -48 l30 28 0 -35 c0 -34 0 -34 43 -31 l42 3 0
        170 c0 189 -3 210 -42 256 -59 70 -196 93 -278 46z m221 -259 c15 -14 15 -21
        4 -47 -7 -17 -28 -45 -47 -61 -43 -38 -115 -42 -157 -9 -42 33 -32 94 22 124
        37 21 155 16 178 -7z"/>
        <path d="M3965 783 c-48 -25 -75 -54 -85 -94 -22 -80 36 -143 158 -174 86 -22
        112 -35 118 -61 14 -55 -52 -94 -125 -74 -36 9 -73 42 -83 72 -5 13 -80 -13
        -85 -29 -6 -17 71 -96 111 -114 82 -37 186 -19 241 43 30 32 35 45 35 86 0 89
        -40 125 -175 158 -82 20 -110 41 -101 77 13 55 130 63 174 12 21 -25 25 -26
        55 -14 18 7 36 15 40 19 13 11 -53 81 -90 96 -44 19 -151 17 -188 -3z"/>
        <path d="M4452 790 c-76 -31 -140 -122 -149 -213 -23 -223 211 -369 385 -240
        28 21 69 80 60 88 -2 2 -19 9 -38 17 -34 14 -35 14 -71 -24 -33 -35 -40 -38
        -90 -38 -85 0 -131 36 -150 117 l-7 33 189 0 189 0 0 28 c0 90 -60 189 -135
        223 -43 20 -143 24 -183 9z m163 -94 c24 -16 61 -74 52 -82 -2 -3 -64 -3 -136
        -2 l-132 3 23 35 c45 67 130 87 193 46z"/>
        <path d="M1834 777 c-2 -7 -3 -116 -2 -242 l3 -230 45 0 45 0 3 243 2 242 -45
        0 c-28 0 -48 -5 -51 -13z"/>
    </g>
</svg>
