<?xml version="1.0" standalone="no"?>
<!DOCTYPE svg PUBLIC "-//W3C//DTD SVG 20010904//EN"
 "http://www.w3.org/TR/2001/REC-SVG-20010904/DTD/svg10.dtd">
<svg version="1.0" xmlns="http://www.w3.org/2000/svg"
 width="512.000000pt" height="512.000000pt" viewBox="0 0 512.000000 512.000000"
 preserveAspectRatio="xMidYMid meet">

<g transform="translate(0.000000,512.000000) scale(0.100000,-0.100000)"
fill="#8D8F92" stroke="none">
<path d="M1753 4810 c-15 -6 -23 -18 -23 -32 1 -13 364 -655 809 -1428 l808
-1405 821 -3 822 -2 6 24 c8 33 -1599 2833 -1634 2847 -31 12 -1580 11 -1609
-1z"/>
<path d="M1533 4453 c-20 -18 -1521 -2669 -1529 -2701 -5 -20 777 -1408 808
-1434 14 -13 25 -15 38 -8 22 12 1560 2690 1560 2716 0 27 -810 1413 -836
1431 -18 12 -24 11 -41 -4z"/>
<path d="M2001 1773 c-27 -24 -811 -1406 -811 -1432 0 -11 9 -25 19 -31 13 -7
514 -10 1549 -10 1442 0 1531 1 1550 18 23 19 812 1406 812 1427 0 8 -7 21
-16 29 -14 14 -168 16 -1549 16 -1445 0 -1534 -1 -1554 -17z"/>
</g>
</svg>
