<?xml version="1.0" standalone="no"?>
<!DOCTYPE svg PUBLIC "-//W3C//DTD SVG 20010904//EN"
 "http://www.w3.org/TR/2001/REC-SVG-20010904/DTD/svg10.dtd">
<svg version="1.0" xmlns="http://www.w3.org/2000/svg"
 width="600.000000pt" height="600.000000pt" viewBox="0 0 600.000000 600.000000"
    preserveAspectRatio="xMidYMid meet">
    <g transform="translate(0.000000,600.000000) scale(0.100000,-0.100000)"
    fill="#8D8F92" stroke="none">
        <path d="M750 3000 l0 -2250 2250 0 2250 0 0 2250 0 2250 -2250 0 -2250 0 0
        -2250z m3605 185 c100 -21 219 -82 287 -149 56 -55 118 -136 118 -154 0 -10
        -308 -218 -313 -211 -2 2 -15 23 -31 46 -56 84 -130 123 -235 123 -80 0 -115
        -11 -155 -48 -82 -77 -72 -227 20 -297 35 -27 118 -68 336 -165 293 -131 442
        -271 493 -466 20 -77 20 -251 0 -327 -59 -224 -248 -374 -526 -418 -101 -16
        -314 -6 -404 19 -210 58 -359 163 -470 329 -19 28 -35 55 -35 60 0 10 311 193
        327 193 5 0 27 -25 47 -55 112 -162 333 -235 518 -169 122 43 179 160 133 271
        -32 77 -85 112 -325 217 -236 104 -319 154 -411 245 -86 87 -131 166 -154 276
        -70 331 109 607 440 680 81 18 254 18 340 0z m-1157 -787 c-4 -771 -5 -784
        -26 -863 -32 -114 -66 -177 -134 -251 -109 -116 -268 -174 -476 -174 -126 0
        -217 20 -321 70 -68 33 -100 57 -165 123 -45 45 -94 105 -109 134 l-28 52 168
        100 167 100 36 -57 c46 -72 107 -127 158 -143 60 -18 185 -8 219 17 41 31 70
        78 82 135 7 33 11 301 11 794 l0 745 211 0 210 0 -3 -782z"/>
    </g>
</svg>
