<svg id="svg" xmlns="http://www.w3.org/2000/svg" xmlns:xlink="http://www.w3.org/1999/xlink" width="400" height="400" viewBox="0, 0, 400,400"><g id="svgg" fill="#8D8F92"><path id="path0" d="M185.455 4.400 C 180.855 4.680,174.964 5.289,172.364 5.753 C 169.764 6.217,165.836 6.876,163.636 7.218 C 152.653 8.924,134.586 14.508,122.909 19.806 C 117.864 22.095,106.728 27.610,106.270 28.047 C 105.880 28.417,108.212 29.335,118.182 32.733 C 122.982 34.369,127.564 35.998,128.364 36.352 C 129.164 36.706,131.945 37.698,134.545 38.558 C 137.145 39.417,140.255 40.548,141.455 41.071 C 142.655 41.594,147.727 43.730,152.727 45.818 C 161.930 49.661,164.352 50.686,169.273 52.818 C 175.860 55.674,205.148 70.345,209.286 72.863 C 211.793 74.388,213.996 75.636,214.182 75.636 C 214.368 75.636,216.659 76.945,219.273 78.545 C 221.887 80.145,224.178 81.455,224.364 81.455 C 224.550 81.455,226.840 82.764,229.455 84.364 C 232.069 85.964,234.358 87.273,234.541 87.273 C 235.427 87.273,267.835 109.149,276.236 115.418 C 294.371 128.951,294.153 128.807,294.459 127.430 C 294.757 126.088,293.478 109.014,292.322 98.909 C 290.080 79.307,289.922 78.113,287.955 65.818 C 285.986 53.512,280.575 26.870,278.853 21.002 C 278.165 18.660,250.183 9.370,237.455 7.259 C 235.455 6.927,231.527 6.279,228.727 5.819 C 217.702 4.008,200.934 3.458,185.455 4.400 M300.660 33.539 C 301.271 36.448,302.458 42.688,303.273 47.273 C 303.592 49.073,304.197 52.345,304.616 54.545 C 306.008 61.854,307.518 71.553,308.354 78.545 C 308.809 82.345,309.463 87.418,309.809 89.818 C 310.623 95.472,311.742 108.411,312.797 124.364 C 314.214 145.807,312.949 201.037,310.611 219.818 C 310.175 223.318,309.508 228.882,309.128 232.182 C 308.749 235.482,308.213 239.736,307.939 241.636 C 307.312 245.964,307.477 245.949,314.545 241.043 C 317.745 238.821,322.491 235.527,325.091 233.723 C 331.793 229.071,339.486 223.450,344.369 219.636 C 346.674 217.836,349.626 215.545,350.930 214.545 C 354.064 212.142,358.939 208.110,366.757 201.455 C 370.282 198.455,374.867 194.571,376.946 192.824 C 379.026 191.078,383.701 186.779,387.335 183.272 L 393.943 176.896 393.424 173.357 C 391.643 161.219,390.643 156.588,386.221 140.000 C 385.521 137.374,381.367 126.692,380.356 124.919 C 379.960 124.224,379.636 123.267,379.636 122.792 C 379.636 118.538,362.834 90.186,353.199 78.182 C 345.546 68.646,334.465 56.775,329.455 52.744 C 327.255 50.974,323.655 48.022,321.455 46.184 C 319.255 44.346,313.559 40.195,308.799 36.960 L 300.143 31.078 300.660 33.539 M80.294 45.654 C 77.532 47.964,74.291 50.555,73.091 51.413 C 70.250 53.444,55.196 68.667,52.575 72.159 C 51.459 73.646,48.649 77.246,46.330 80.159 C 34.317 95.252,20.025 122.403,15.022 139.636 C 9.583 158.377,6.914 172.989,6.274 187.538 L 5.910 195.803 7.858 194.083 C 8.929 193.138,9.972 192.198,10.176 191.995 C 10.379 191.793,12.673 189.831,15.273 187.636 C 17.873 185.441,20.164 183.478,20.364 183.273 C 20.564 183.068,22.855 181.102,25.455 178.905 C 28.055 176.707,30.619 174.495,31.154 173.989 C 31.688 173.483,33.325 172.176,34.790 171.084 C 36.256 169.992,37.618 168.918,37.818 168.696 C 38.018 168.475,39.327 167.507,40.727 166.545 C 42.127 165.584,43.436 164.602,43.636 164.364 C 43.836 164.125,45.145 163.143,46.545 162.182 C 47.945 161.220,49.255 160.239,49.455 160.000 C 49.655 159.761,50.964 158.780,52.364 157.818 C 53.764 156.857,55.073 155.891,55.273 155.671 C 56.302 154.543,62.388 150.216,70.182 145.071 C 74.982 141.903,79.320 138.915,79.822 138.430 C 80.325 137.946,81.388 137.343,82.186 137.090 C 82.984 136.836,83.636 136.364,83.636 136.039 C 83.636 135.715,84.618 135.043,85.818 134.545 C 87.018 134.048,88.000 133.394,88.000 133.091 C 88.000 132.788,88.982 132.133,90.182 131.636 C 91.382 131.139,92.364 130.445,92.364 130.094 C 92.364 129.742,92.683 129.455,93.074 129.455 C 93.464 129.455,97.072 127.491,101.091 125.091 C 105.110 122.691,108.542 120.727,108.719 120.727 C 108.895 120.727,111.986 118.941,115.587 116.757 C 121.494 113.175,157.737 94.545,158.798 94.545 C 159.039 94.545,161.380 93.564,164.000 92.364 C 166.620 91.164,168.909 90.182,169.088 90.182 C 169.266 90.182,171.139 89.397,173.251 88.438 C 175.363 87.478,178.400 86.156,180.000 85.499 C 185.492 83.245,186.909 82.553,186.909 82.128 C 186.909 81.714,167.331 72.063,160.727 69.222 C 158.927 68.447,155.655 66.997,153.455 65.998 C 138.984 59.429,107.098 47.775,92.364 43.669 C 90.564 43.168,88.339 42.464,87.420 42.106 C 86.502 41.748,85.652 41.455,85.532 41.455 C 85.413 41.455,83.056 43.344,80.294 45.654 M206.545 94.520 C 205.945 94.860,200.709 97.023,194.909 99.327 C 189.109 101.632,182.310 104.444,179.800 105.577 C 177.290 106.710,175.096 107.636,174.924 107.636 C 173.949 107.636,135.264 126.399,134.545 127.221 C 134.345 127.449,132.709 128.399,130.909 129.331 C 125.541 132.110,121.841 134.158,121.455 134.563 C 121.255 134.773,119.592 135.725,117.761 136.678 L 114.431 138.411 113.519 143.933 C 113.018 146.970,112.324 151.091,111.977 153.091 C 108.850 171.110,105.455 213.466,105.455 234.456 L 105.455 243.464 108.182 245.524 C 109.682 246.657,111.347 248.010,111.881 248.530 C 112.416 249.051,114.052 250.370,115.517 251.461 C 116.983 252.553,118.345 253.620,118.545 253.833 C 118.745 254.045,120.382 255.348,122.182 256.727 C 123.982 258.107,125.618 259.423,125.818 259.653 C 126.018 259.882,127.327 260.857,128.727 261.818 C 130.127 262.780,131.436 263.763,131.636 264.003 C 131.836 264.244,134.127 265.896,136.727 267.675 C 139.327 269.454,141.618 271.100,141.818 271.334 C 142.018 271.568,145.291 273.838,149.091 276.379 C 152.891 278.921,156.432 281.429,156.961 281.955 C 157.490 282.480,158.203 282.909,158.545 282.909 C 158.888 282.909,159.601 283.334,160.130 283.854 C 160.658 284.373,163.008 285.928,165.351 287.308 C 167.694 288.689,170.371 290.309,171.300 290.909 C 172.228 291.509,177.261 294.571,182.483 297.713 L 191.978 303.427 201.625 299.623 C 206.931 297.531,213.001 295.042,215.112 294.092 C 217.224 293.141,219.105 292.364,219.291 292.364 C 219.478 292.364,222.110 291.218,225.141 289.818 C 228.172 288.418,230.794 287.273,230.968 287.273 C 232.654 287.273,271.331 267.709,275.749 264.622 C 276.810 263.880,277.856 263.273,278.073 263.273 C 281.201 263.273,287.120 257.922,287.503 254.748 C 287.734 252.837,288.280 248.982,288.717 246.182 C 292.295 223.241,294.370 199.261,294.988 173.715 L 295.469 153.818 293.371 152.000 C 292.217 151.000,289.800 149.041,288.000 147.647 C 286.200 146.253,284.290 144.693,283.755 144.181 C 283.221 143.669,281.584 142.358,280.119 141.266 C 278.653 140.174,277.291 139.100,277.091 138.878 C 276.891 138.657,275.582 137.689,274.182 136.727 C 272.782 135.766,271.473 134.784,271.273 134.545 C 271.073 134.307,269.764 133.325,268.364 132.364 C 266.964 131.402,265.655 130.412,265.455 130.162 C 265.255 129.913,262.964 128.285,260.364 126.545 C 257.764 124.805,255.473 123.156,255.273 122.880 C 254.605 121.959,229.753 105.903,220.364 100.326 C 219.764 99.969,217.058 98.359,214.351 96.748 C 209.267 93.722,208.397 93.474,206.545 94.520 M84.727 157.152 C 74.180 164.444,65.049 170.953,61.861 173.455 C 60.332 174.655,57.379 176.945,55.300 178.545 C 51.466 181.496,44.849 186.773,38.110 192.256 C 32.574 196.759,20.849 207.119,13.511 213.991 L 7.022 220.068 8.341 228.761 C 9.066 233.543,10.126 239.255,10.696 241.455 C 15.178 258.754,15.623 260.279,17.385 264.364 C 17.730 265.164,18.924 268.109,20.039 270.909 C 23.249 278.972,31.775 295.694,35.691 301.607 C 37.661 304.582,39.273 307.169,39.273 307.356 C 39.273 307.858,42.232 311.990,44.727 314.970 C 45.927 316.404,48.928 320.167,51.395 323.334 C 59.659 333.939,76.669 349.533,89.195 357.988 C 92.738 360.379,96.678 363.119,97.951 364.077 C 100.407 365.923,101.479 366.307,100.711 365.065 C 100.455 364.651,99.952 362.442,99.594 360.156 C 99.018 356.491,98.306 352.576,95.199 336.000 C 94.441 331.957,93.727 326.906,92.320 315.636 C 91.895 312.236,91.236 307.000,90.855 304.000 C 86.621 270.652,86.340 214.859,90.229 179.636 C 91.694 166.369,92.493 159.608,93.043 155.818 C 93.749 150.956,93.674 150.968,84.727 157.152 M393.455 202.773 C 392.855 203.470,390.564 205.498,388.364 207.279 C 386.164 209.061,383.873 211.022,383.273 211.636 C 382.673 212.251,380.383 214.220,378.184 216.013 C 375.986 217.806,373.457 219.987,372.565 220.859 C 371.672 221.732,369.708 223.367,368.198 224.492 C 366.689 225.617,365.291 226.718,365.091 226.940 C 364.891 227.162,363.582 228.129,362.182 229.091 C 360.782 230.052,359.473 231.043,359.273 231.293 C 359.073 231.542,357.606 232.622,356.013 233.692 C 354.420 234.761,353.438 235.644,353.831 235.653 C 354.224 235.662,353.564 236.155,352.364 236.747 C 351.164 237.340,349.036 238.823,347.636 240.042 C 346.236 241.261,339.691 245.901,333.091 250.354 C 326.491 254.807,318.054 260.518,314.343 263.044 C 310.631 265.570,307.455 267.636,307.285 267.636 C 307.114 267.636,303.182 269.927,298.545 272.727 C 293.909 275.527,289.973 277.818,289.798 277.818 C 289.623 277.818,287.429 279.069,284.922 280.599 C 277.641 285.040,236.864 305.455,235.273 305.455 C 235.093 305.455,232.802 306.436,230.182 307.636 C 227.562 308.836,225.264 309.818,225.076 309.818 C 224.887 309.818,222.196 311.002,219.094 312.449 L 213.455 315.081 221.097 318.813 C 232.677 324.468,241.737 328.620,250.182 332.141 C 254.382 333.892,258.849 335.804,260.110 336.390 C 261.370 336.975,262.630 337.455,262.909 337.455 C 263.188 337.455,264.448 337.908,265.708 338.463 C 266.969 339.017,269.964 340.194,272.364 341.079 C 274.764 341.964,277.382 342.970,278.182 343.315 C 278.982 343.660,286.673 346.246,295.273 349.060 C 303.873 351.875,311.957 354.522,313.238 354.942 C 316.469 356.001,329.360 345.500,343.354 330.407 C 352.503 320.540,356.347 315.525,365.262 301.818 C 369.128 295.875,378.909 277.470,378.909 276.138 C 378.909 275.783,379.381 274.461,379.957 273.201 C 383.985 264.397,389.484 246.760,391.216 237.091 C 391.682 234.491,392.360 230.727,392.723 228.727 C 395.051 215.890,395.487 200.412,393.455 202.773 M106.665 272.545 C 107.231 282.421,108.573 297.701,109.556 305.455 C 110.140 310.055,110.923 316.273,111.297 319.273 C 112.233 326.788,113.432 334.338,114.935 342.182 C 117.574 355.962,118.766 361.806,119.977 366.909 C 120.736 370.109,121.548 373.621,121.780 374.714 C 122.239 376.873,123.600 377.633,134.266 381.695 C 143.237 385.111,158.693 389.186,168.000 390.589 C 171.000 391.041,175.255 391.755,177.455 392.177 C 182.941 393.228,217.293 393.186,223.455 392.121 C 226.155 391.655,230.573 390.920,233.273 390.490 C 242.309 389.049,258.801 384.684,267.078 381.542 C 277.837 377.458,294.703 369.322,293.957 368.575 C 293.363 367.981,291.151 367.154,276.727 362.136 C 264.213 357.782,260.183 356.320,257.636 355.211 C 256.336 354.645,254.127 353.691,252.727 353.091 C 251.327 352.491,249.118 351.543,247.818 350.984 C 246.518 350.425,242.509 348.769,238.909 347.304 C 230.744 343.982,195.404 326.525,189.260 322.779 C 186.753 321.251,184.550 320.000,184.364 320.000 C 184.178 320.000,181.887 318.691,179.273 317.091 C 176.659 315.491,174.368 314.182,174.182 314.182 C 173.813 314.182,165.536 309.232,161.455 306.571 C 160.055 305.658,153.509 301.389,146.909 297.085 C 140.309 292.781,128.635 284.558,120.967 278.812 C 104.682 266.608,106.368 267.346,106.665 272.545 " stroke="none" fill-rule="evenodd"></path></g></svg>