<svg id="svg" xmlns="http://www.w3.org/2000/svg" xmlns:xlink="http://www.w3.org/1999/xlink" width="400" height="178.55072463768116" viewBox="0, 0, 400,178.55072463768116" fill="#8D8F92"><g id="svgg" fill="#8D8F92"><path id="path0" d="M131.029 13.103 C 123.163 15.217,114.783 24.169,114.783 30.457 C 114.783 31.193,109.146 31.304,71.925 31.304 C 33.737 31.304,28.969 31.404,28.157 32.215 C 27.078 33.295,27.133 29.938,27.127 95.362 C 27.122 159.516,27.068 156.260,28.165 157.357 C 29.746 158.938,156.854 158.437,158.018 156.846 C 159.340 155.038,159.237 32.271,157.910 27.803 C 154.560 16.519,142.617 9.989,131.029 13.103 M142.537 24.236 C 150.213 28.200,150.106 40.289,142.361 44.038 C 134.437 47.874,125.217 42.649,125.217 34.322 C 125.217 25.263,134.293 19.978,142.537 24.236 M350.725 42.629 C 350.725 42.800,351.181 43.636,351.739 44.486 C 352.628 45.842,352.778 47.958,352.948 61.567 C 353.137 76.763,352.977 78.247,351.357 76.295 C 348.162 72.445,332.789 71.243,326.205 74.328 C 304.846 84.336,303.277 130.953,323.922 142.189 C 332.363 146.783,343.748 146.268,351.489 140.942 C 354.333 138.985,354.783 139.219,354.783 142.656 L 354.783 144.348 366.678 144.348 L 378.574 144.348 377.258 141.884 L 375.942 139.420 375.764 90.870 L 375.586 42.319 363.155 42.319 C 356.318 42.319,350.725 42.458,350.725 42.629 M202.609 47.195 C 177.202 51.290,161.470 77.643,166.661 107.409 C 172.258 139.508,201.816 154.435,231.159 139.982 C 234.746 138.215,237.681 136.491,237.681 136.150 C 237.681 135.553,231.094 124.257,228.875 121.049 L 227.796 119.489 224.098 122.289 C 211.120 132.112,197.167 127.158,191.529 110.725 C 188.714 102.521,190.218 82.594,194.248 74.695 C 199.474 64.450,212.410 61.660,221.988 68.711 C 223.925 70.137,225.636 71.304,225.788 71.304 C 226.173 71.304,236.524 55.790,236.511 55.233 C 236.494 54.507,224.396 49.441,219.686 48.187 C 213.828 46.628,208.166 46.299,202.609 47.195 M63.457 51.159 C 62.000 54.289,61.133 84.100,62.524 83.241 C 65.948 81.125,85.797 52.803,85.797 50.034 L 85.797 48.116 101.594 48.127 L 117.391 48.139 114.956 50.180 C 110.967 53.525,80.000 91.593,80.000 93.152 C 80.000 95.117,108.264 134.198,114.406 140.725 L 117.270 143.768 101.244 143.768 L 85.217 143.768 85.217 141.716 C 85.217 138.145,82.801 134.204,70.193 117.215 L 62.319 106.604 62.167 121.273 C 62.019 135.538,62.291 138.663,64.038 142.754 C 64.445 143.704,63.571 143.768,50.207 143.768 C 42.361 143.768,35.942 143.653,35.942 143.511 C 35.942 143.370,36.529 142.262,37.246 141.048 L 38.551 138.841 38.551 96.232 L 38.551 53.623 37.246 51.142 C 36.529 49.777,35.942 48.538,35.942 48.388 C 35.942 48.238,42.452 48.116,50.408 48.116 L 64.874 48.116 63.457 51.159 M266.957 72.540 C 259.973 73.409,246.066 76.876,246.261 77.699 C 246.663 79.400,251.757 91.047,252.226 91.336 C 252.507 91.510,255.154 90.800,258.108 89.759 C 264.862 87.378,272.279 87.036,274.880 88.986 C 277.438 90.903,280.047 97.971,278.197 97.971 C 250.522 97.971,238.551 105.235,238.551 122.029 C 238.551 141.969,261.376 152.835,277.473 140.557 C 279.939 138.676,280.000 138.704,280.000 141.739 L 280.000 144.348 291.594 144.348 C 297.971 144.348,303.188 144.127,303.188 143.857 C 303.188 143.587,302.769 142.527,302.257 141.500 C 301.472 139.926,301.254 135.848,300.862 115.469 C 300.368 89.733,300.294 89.078,297.217 83.263 C 293.842 76.886,287.627 73.572,277.000 72.481 C 273.800 72.153,271.144 71.918,271.098 71.959 C 271.052 72.001,269.188 72.262,266.957 72.540 M148.392 106.735 C 148.422 134.762,148.559 140.064,149.286 141.471 C 149.759 142.384,150.145 143.274,150.145 143.449 C 150.145 143.625,144.145 143.768,136.812 143.768 C 129.478 143.768,123.487 143.572,123.497 143.333 C 123.507 143.094,123.898 142.392,124.366 141.773 C 125.643 140.086,125.643 77.306,124.366 75.618 C 123.898 74.999,123.507 74.302,123.497 74.070 C 123.480 73.680,147.022 73.128,147.946 73.497 C 148.171 73.587,148.372 88.544,148.392 106.735 M350.298 90.369 L 353.043 91.698 353.043 108.158 L 353.043 124.618 350.065 126.127 C 338.949 131.760,332.764 126.091,332.757 110.259 C 332.749 92.056,339.042 84.920,350.298 90.369 M278.317 113.768 C 279.261 125.947,276.707 129.679,267.771 129.174 C 256.941 128.562,256.543 116.840,267.243 113.585 C 269.787 112.811,278.254 112.951,278.317 113.768 " stroke="none" fill-rule="evenodd"></path></g></svg>