<?xml version="1.0" standalone="no"?>
<!DOCTYPE svg PUBLIC "-//W3C//DTD SVG 20010904//EN"
 "http://www.w3.org/TR/2001/REC-SVG-20010904/DTD/svg10.dtd">
<svg version="1.0" xmlns="http://www.w3.org/2000/svg"
 width="1280.000000pt" height="533.000000pt" viewBox="0 0 1280.000000 533.000000"
 preserveAspectRatio="xMidYMid meet">
    <g transform="translate(0.000000,533.000000) scale(0.100000,-0.100000)"
    fill="#8D8F92" stroke="none">
        <path d="M2813 4894 c-15 -13 -147 -334 -419 -1024 -218 -553 -407 -1026 -420
        -1051 -47 -94 -172 -169 -283 -169 -76 0 -81 -5 -81 -76 l0 -64 380 0 380 0 0
        64 c0 69 -6 75 -70 76 -14 0 -49 11 -77 25 -60 27 -93 71 -93 125 0 21 35 125
        87 258 l87 222 471 0 470 0 103 -265 c63 -162 102 -276 100 -292 -5 -41 -52
        -63 -160 -73 -51 -5 -96 -10 -100 -10 -5 0 -8 -29 -8 -65 l0 -65 480 0 480 0
        0 64 0 64 -107 7 c-132 8 -173 18 -202 49 -13 14 -197 466 -452 1107 -236 596
        -434 1088 -439 1093 -5 5 -31 11 -57 13 -37 4 -53 1 -70 -13z m172 -959 c108
        -275 199 -506 202 -512 4 -10 -82 -13 -412 -13 -393 0 -417 1 -411 18 4 9 98
        248 209 530 134 343 203 507 208 495 4 -10 95 -243 204 -518z"/>
        <path d="M420 4751 l0 -79 178 -4 c164 -3 181 -5 227 -28 93 -47 85 92 83
        -1460 -3 -1520 3 -1393 -74 -1431 -45 -21 -188 -38 -331 -39 l-83 0 0 -75 0
        -75 1250 0 1250 0 4 23 c6 25 126 1173 126 1200 0 14 -10 17 -64 17 l-63 0 -7
        -72 c-47 -506 -184 -778 -461 -914 -165 -81 -318 -104 -690 -104 -276 1 -349
        9 -384 44 l-26 26 -3 1383 c-2 1356 -2 1383 18 1414 10 18 30 39 44 48 43 29
        171 44 364 45 l182 0 0 80 0 81 -52 -8 c-70 -10 -1368 -10 -1435 0 l-53 8 0
        -80z"/>
        <path d="M9080 4752 l0 -80 153 -5 c171 -5 228 -19 296 -69 43 -31 211 -278
        817 -1200 l143 -217 -381 -563 c-445 -659 -468 -690 -539 -744 -103 -79 -247
        -136 -379 -148 -30 -3 -81 -8 -112 -11 l-58 -6 0 -75 0 -74 105 0 106 0 -6
        -38 c-18 -101 -80 -336 -111 -411 -90 -225 -238 -359 -466 -425 -157 -45 -240
        -51 -733 -51 -440 0 -462 1 -500 20 -22 11 -45 31 -52 45 -10 19 -13 184 -13
        708 l0 684 313 -5 c238 -3 324 -8 362 -19 182 -54 242 -151 252 -405 l6 -133
        63 0 64 0 0 640 0 640 -64 0 -63 0 -6 -132 c-8 -206 -48 -302 -150 -363 -84
        -48 -148 -57 -474 -62 l-303 -5 0 614 c0 424 3 625 11 647 23 65 28 66 489 69
        577 5 719 -11 896 -98 201 -98 307 -304 360 -698 l18 -132 63 0 c57 0 63 2 63
        21 0 20 -114 948 -126 1021 l-6 38 -1106 2 -1107 3 -44 533 -45 532 -1468 0
        c-1460 0 -1468 0 -1468 -20 0 -11 -18 -242 -40 -512 -22 -271 -40 -508 -40
        -525 l0 -33 60 0 c33 0 60 2 60 5 0 27 34 309 46 380 51 310 157 453 378 510
        105 26 215 35 454 35 255 0 285 -5 319 -56 17 -27 18 -88 18 -1384 0 -1332 0
        -1356 -20 -1388 -42 -70 -129 -89 -452 -99 l-223 -6 0 -71 0 -71 910 0 910 0
        0 73 0 72 -127 0 c-177 1 -376 16 -440 35 -29 9 -68 29 -86 45 l-32 28 0 1381
        0 1381 28 27 27 28 293 0 c210 0 312 -4 362 -14 323 -65 416 -207 473 -726
        l18 -160 -178 -3 -178 -2 0 -74 0 -73 168 -5 c191 -6 261 -23 296 -71 l21 -28
        0 -1368 c0 -1160 -2 -1372 -14 -1394 -24 -45 -86 -67 -218 -77 -65 -5 -148
        -10 -185 -10 l-68 0 0 -75 0 -75 1384 0 1383 0 81 498 c45 273 85 516 88 540
        l7 42 403 0 404 0 0 75 0 74 -37 6 c-163 28 -250 96 -261 203 l-4 49 215 319
        c448 666 498 739 505 741 4 1 179 -259 390 -577 311 -469 383 -584 380 -606
        -6 -58 -114 -111 -260 -129 l-48 -6 0 -72 0 -72 665 0 665 0 0 73 0 72 -72 0
        c-106 0 -242 16 -299 35 -30 10 -69 35 -99 63 -35 33 -204 281 -560 820 -280
        425 -510 775 -510 778 0 3 154 232 343 508 231 339 362 521 404 563 110 109
        286 178 491 190 l102 6 0 79 0 78 -575 0 -575 0 0 -79 0 -78 56 -6 c143 -15
        262 -132 239 -237 -6 -27 -567 -863 -583 -867 -10 -3 -619 914 -634 956 -13
        32 -12 34 28 70 51 45 119 71 207 78 l67 6 0 79 0 79 -47 -8 c-61 -10 -1149
        -9 -1225 1 l-58 7 0 -79z"/>
    </g>
</svg>
