<?xml version="1.0" standalone="no"?>
<!DOCTYPE svg PUBLIC "-//W3C//DTD SVG 20010904//EN"
 "http://www.w3.org/TR/2001/REC-SVG-20010904/DTD/svg10.dtd">
<svg version="1.0" xmlns="http://www.w3.org/2000/svg"
 width="512.000000pt" height="512.000000pt" viewBox="0 0 512.000000 512.000000"
 preserveAspectRatio="xMidYMid meet">

<g transform="translate(0.000000,512.000000) scale(0.100000,-0.100000)"
fill="#8D8F92" stroke="none">
<path d="M390 5104 c-30 -8 -79 -27 -110 -42 -71 -35 -187 -151 -222 -222 -62
-126 -58 27 -58 -2280 0 -2307 -4 -2154 58 -2280 35 -71 151 -187 222 -222
126 -62 -27 -58 2280 -58 2307 0 2154 -4 2280 58 71 35 187 151 222 222 62
126 58 -27 58 2280 0 2307 4 2154 -58 2280 -35 71 -151 187 -222 222 -126 62
28 58 -2285 57 -1824 0 -2117 -2 -2165 -15z m903 -700 c232 -76 364 -316 302
-554 -64 -248 -331 -396 -576 -320 -275 84 -403 386 -275 646 60 121 191 220
323 244 62 11 165 4 226 -16z m2397 -1314 c249 -72 455 -247 570 -484 90 -185
84 -116 87 -1028 l4 -808 -386 0 -385 0 0 708 c0 634 -2 714 -17 758 -47 139
-161 238 -305 264 -140 26 -301 -49 -381 -177 -58 -93 -57 -74 -57 -845 l0
-708 -385 0 -385 0 0 1150 0 1150 385 0 385 0 0 -144 0 -144 93 92 c116 117
246 192 402 232 76 20 281 11 375 -16z m-2150 -1170 l0 -1150 -385 0 -385 0 0
1150 0 1150 385 0 385 0 0 -1150z"/>
</g>
</svg>
