<?xml version="1.0" standalone="no"?>
<!DOCTYPE svg PUBLIC "-//W3C//DTD SVG 20010904//EN"
 "http://www.w3.org/TR/2001/REC-SVG-20010904/DTD/svg10.dtd">
<svg version="1.0" xmlns="http://www.w3.org/2000/svg"
 width="512.000000pt" height="512.000000pt" viewBox="0 0 512.000000 512.000000"
 preserveAspectRatio="xMidYMid meet">
    <g transform="translate(0.000000,512.000000) scale(0.100000,-0.100000)"
    fill="#8D8F92" stroke="none">
        <path d="M2409 4660 c-86 -8 -138 -23 -189 -53 -132 -79 -212 -172 -256 -302
        -23 -69 -28 -101 -32 -233 -4 -141 11 -553 27 -717 6 -60 4 -78 -16 -123 -37
        -87 -160 -267 -302 -442 -57 -70 -123 -210 -199 -420 -33 -91 -88 -220 -123
        -288 l-64 -122 0 -100 c0 -117 9 -135 56 -107 79 45 164 0 293 -156 59 -70
        320 -460 374 -557 17 -30 42 -90 56 -132 61 -182 11 -292 -152 -329 -66 -16
        -124 -6 -347 61 -92 27 -258 68 -369 90 -236 48 -264 56 -294 83 -30 28 -28
        45 14 135 49 105 49 151 1 263 -64 149 -49 179 88 179 138 0 224 41 254 123
        14 36 14 154 1 162 -6 4 -10 -6 -10 -22 -1 -43 -34 -108 -72 -136 -52 -40 -95
        -54 -188 -62 -170 -14 -185 -37 -145 -227 14 -67 25 -132 25 -144 0 -12 -16
        -63 -35 -113 -77 -200 -38 -245 265 -301 225 -41 295 -60 515 -135 160 -55
        200 -65 257 -65 81 0 97 7 213 84 49 33 121 71 160 85 69 25 75 25 425 29 409
        4 415 3 467 -68 84 -114 118 -132 257 -138 154 -7 183 4 300 103 140 120 249
        192 420 275 186 91 255 150 263 221 5 41 2 50 -27 83 -18 20 -63 55 -101 77
        -126 75 -181 157 -202 301 -8 60 -14 75 -23 67 -23 -19 -36 -111 -25 -176 21
        -130 57 -177 181 -235 217 -100 187 -168 -120 -278 -145 -51 -219 -89 -308
        -158 -186 -143 -222 -162 -313 -162 -66 0 -127 35 -164 95 -27 44 -30 56 -30
        134 0 47 6 138 14 201 15 129 10 222 -20 344 -31 133 -21 255 28 308 35 39 79
        7 131 -97 51 -102 89 -125 205 -125 115 0 176 37 277 168 18 24 50 54 71 68
        52 32 72 101 71 239 -1 126 -28 261 -87 434 -85 248 -179 417 -319 571 -244
        270 -340 523 -356 940 -7 192 -9 211 -39 300 -82 251 -225 402 -443 468 -59
        19 -94 24 -228 36 -19 1 -69 0 -111 -4z m366 -619 c90 -41 135 -133 135 -277
        0 -90 -12 -114 -54 -114 -38 0 -47 20 -31 65 25 72 -1 161 -58 195 -41 25 -83
        25 -124 0 -40 -24 -55 -72 -51 -160 l3 -64 75 -38 c41 -20 105 -46 143 -58 93
        -29 105 -48 83 -135 -20 -79 -21 -165 -2 -210 8 -19 33 -62 57 -96 57 -84 104
        -190 133 -298 18 -66 34 -103 59 -133 47 -58 80 -126 111 -228 41 -136 47
        -174 60 -374 13 -187 13 -190 40 -213 31 -26 71 -29 119 -9 63 26 85 75 94
        206 11 177 -66 428 -193 628 -19 28 -32 52 -29 52 2 0 29 -32 60 -72 85 -109
        139 -229 169 -379 29 -142 32 -236 11 -324 -20 -83 -19 -91 13 -104 15 -6 41
        -22 57 -35 l30 -24 -55 18 c-139 48 -293 5 -321 -89 -10 -35 -15 -39 -51 -44
        -111 -15 -149 -153 -114 -407 23 -162 20 -223 -16 -415 -17 -93 -33 -171 -33
        -173 -1 -1 -10 0 -19 4 -30 12 -29 52 4 157 37 116 48 216 30 271 -18 56 -46
        46 -104 -38 -93 -136 -274 -208 -521 -209 -132 -1 -183 12 -245 62 -53 42 -57
        43 -90 26 -36 -19 -37 -25 -5 -63 61 -73 83 -178 47 -223 -19 -22 -19 -22 -26
        52 -7 83 -35 151 -95 236 -23 31 -41 60 -41 64 0 4 16 13 35 19 75 25 112 116
        80 197 -14 34 -49 67 -208 196 -210 169 -374 314 -394 349 -50 89 -73 275 -42
        346 13 31 14 26 14 -85 0 -109 2 -123 29 -181 39 -85 98 -128 123 -89 4 6 11
        86 14 177 6 135 12 181 33 253 45 152 139 341 201 403 30 31 31 33 17 70 -26
        75 -13 137 62 287 49 97 70 150 74 186 2 28 8 51 12 51 4 0 16 -12 25 -27 46
        -73 123 -166 151 -184 41 -25 104 -24 156 2 22 11 82 51 132 87 51 37 133 89
        184 116 77 41 92 53 92 73 0 51 -44 42 -189 -38 -120 -67 -192 -92 -266 -92
        -67 0 -105 15 -148 60 l-27 29 70 -9 c97 -12 184 7 351 78 74 32 150 62 169
        67 63 18 85 51 54 82 -21 22 -24 21 -72 -24 -33 -30 -64 -46 -135 -69 -284
        -91 -398 -92 -475 -7 -20 23 -52 52 -69 65 -18 12 -33 30 -33 40 0 25 36 68
        72 87 17 9 58 44 92 77 58 59 61 64 60 109 -4 98 -37 148 -101 148 -79 0 -117
        -97 -75 -194 12 -26 28 -46 36 -46 20 0 20 -14 1 -30 -12 -10 -18 -10 -30 0
        -19 15 -55 131 -55 174 0 54 29 134 61 171 25 28 38 35 69 35 22 0 48 -8 62
        -20 37 -28 68 -110 76 -198 l7 -77 70 -1 c39 0 80 -6 92 -12 12 -7 24 -12 26
        -12 3 0 2 38 -1 85 -6 100 11 156 61 205 30 29 99 58 142 59 11 0 38 -8 60
        -18z"/>
    </g>
</svg>
