<?xml version="1.0" standalone="no"?>
<!DOCTYPE svg PUBLIC "-//W3C//DTD SVG 20010904//EN"
 "http://www.w3.org/TR/2001/REC-SVG-20010904/DTD/svg10.dtd">
<svg version="1.0" xmlns="http://www.w3.org/2000/svg"
 width="833.000000pt" height="833.000000pt" viewBox="0 0 833.000000 833.000000"
 preserveAspectRatio="xMidYMid meet">
    <g transform="translate(0.000000,833.000000) scale(0.100000,-0.100000)"
    fill="#8D8F92" stroke="none">
        <path d="M2645 6344 c-16 -2 -73 -9 -125 -15 -246 -28 -560 -115 -797 -222
        -115 -52 -303 -153 -303 -163 0 -8 171 -229 179 -232 5 -1 42 17 83 41 226
        134 540 240 843 283 166 24 505 24 670 0 332 -48 638 -152 893 -302 41 -25 80
        -43 87 -41 12 5 163 199 171 221 5 13 -22 30 -196 129 -86 48 -332 148 -463
        187 -276 83 -462 111 -772 115 -132 2 -253 1 -270 -1z"/>
        <path d="M2558 5795 c-223 -31 -458 -103 -663 -205 -179 -88 -170 -70 -90
        -181 38 -52 69 -95 70 -97 1 -1 40 18 86 42 385 204 855 267 1299 175 142 -29
        320 -93 465 -167 72 -37 133 -67 137 -67 8 0 138 175 138 185 0 11 -176 106
        -275 148 -196 85 -390 139 -605 168 -130 17 -431 17 -562 -1z"/>
        <path d="M170 4170 l0 -1140 780 0 780 0 0 240 0 240 -475 0 -475 0 0 900 0
        900 -305 0 -305 0 0 -1140z"/>
        <path d="M4190 4171 l0 -1141 305 0 305 0 0 410 0 410 188 0 187 -1 240 -409
        240 -410 344 0 c321 0 343 1 337 17 -4 10 -126 214 -272 454 -145 241 -264
        440 -264 443 0 3 5 6 11 6 26 0 150 57 211 97 37 24 90 70 118 101 61 68 124
        189 140 269 16 76 7 308 -14 388 -58 216 -212 372 -436 444 -159 51 -178 53
        -932 58 l-708 5 0 -1141z m1255 698 c78 -14 125 -39 167 -89 56 -65 78 -170
        58 -276 -18 -92 -59 -150 -134 -189 l-60 -30 -333 -3 -333 -3 0 300 0 301 288
        0 c166 0 313 -5 347 -11z"/>
        <path d="M2660 5280 c-91 -13 -201 -38 -295 -67 -90 -28 -295 -122 -295 -134
        0 -8 100 -149 105 -149 2 0 38 18 82 40 295 147 660 178 989 84 49 -14 145
        -52 213 -85 69 -33 127 -56 131 -52 4 5 28 37 55 72 57 76 61 69 -81 136 -119
        57 -273 110 -392 136 -111 23 -402 34 -512 19z"/>
        <path d="M2743 4769 c-140 -13 -257 -44 -370 -99 -174 -85 -332 -256 -396
        -428 -48 -130 -60 -216 -55 -406 5 -149 9 -183 32 -261 70 -232 216 -396 450
        -506 274 -127 677 -127 954 2 231 107 389 292 454 534 19 69 22 106 22 270 0
        223 -14 289 -91 445 -108 219 -354 389 -632 435 -118 19 -258 25 -368 14z
        m321 -418 c41 -20 82 -51 114 -86 90 -99 122 -196 122 -375 -1 -311 -111 -476
        -345 -512 -149 -23 -284 19 -374 117 -105 116 -148 289 -122 489 15 111 41
        180 95 254 81 109 183 154 343 149 91 -3 109 -7 167 -36z"/>
        <path d="M7215 4769 c-274 -20 -471 -121 -552 -285 -29 -57 -46 -115 -57 -201
        l-6 -43 263 0 263 0 12 44 c15 57 67 124 117 150 33 17 58 21 145 21 92 0 111
        -3 154 -25 77 -39 90 -64 94 -180 l4 -99 -34 -5 c-18 -3 -91 -13 -163 -22
        -262 -32 -504 -96 -648 -171 -86 -45 -183 -139 -220 -213 -53 -107 -68 -239
        -43 -361 31 -146 116 -250 259 -318 119 -56 169 -66 342 -65 133 0 160 3 240
        28 124 37 206 77 258 125 l44 41 17 -80 17 -80 251 0 c234 0 250 1 243 18 -35
        88 -38 146 -45 752 -4 385 -10 616 -17 635 -64 183 -216 280 -500 319 -141 19
        -301 25 -438 15z m435 -1007 c0 -156 -45 -267 -138 -338 -58 -44 -127 -64
        -221 -64 -92 0 -141 13 -181 47 -43 36 -60 74 -60 136 0 77 38 124 138 172 44
        22 410 131 450 134 9 1 12 -23 12 -87z"/>
        <path d="M2120 2782 c-25 -37 -46 -72 -48 -78 -4 -15 203 -117 315 -154 192
        -64 266 -74 508 -75 246 0 318 10 501 70 84 28 274 112 292 130 6 5 -89 136
        -103 141 -6 3 -45 -11 -86 -29 -400 -183 -859 -174 -1239 23 -41 22 -80 40
        -85 40 -6 0 -30 -31 -55 -68z"/>
        <path d="M1816 2372 c-43 -58 -65 -97 -59 -103 25 -25 218 -122 335 -169 266
        -106 515 -153 813 -153 281 0 498 38 740 128 105 39 304 134 343 163 l23 18
        -67 92 c-37 51 -71 92 -75 92 -4 0 -57 -24 -116 -54 -279 -138 -539 -199 -853
        -199 -326 -1 -588 62 -876 208 l-140 71 -68 -94z"/>
        <path d="M1552 2033 c-81 -103 -142 -188 -142 -197 0 -15 228 -141 360 -198
        394 -173 826 -250 1273 -227 440 23 862 147 1229 361 l68 39 -90 120 -91 119
        -72 -41 c-253 -143 -535 -240 -837 -286 -162 -25 -558 -25 -718 0 -307 49
        -603 150 -847 291 -54 31 -99 56 -101 56 -1 0 -16 -17 -32 -37z"/>
    </g>
</svg>
