<?xml version="1.0" standalone="no"?>
<!DOCTYPE svg PUBLIC "-//W3C//DTD SVG 20010904//EN"
 "http://www.w3.org/TR/2001/REC-SVG-20010904/DTD/svg10.dtd">
<svg version="1.0" xmlns="http://www.w3.org/2000/svg"
 width="300.000000pt" height="181.000000pt" viewBox="0 0 300.000000 181.000000"
 preserveAspectRatio="xMidYMid meet">

<g transform="translate(0.000000,181.000000) scale(0.100000,-0.100000)"
fill="#8D8F92" stroke="none">
<path d="M2076 1531 c-86 -110 -215 -280 -287 -378 -72 -98 -134 -179 -137
-180 -4 -1 -66 80 -137 180 -109 152 -135 183 -158 185 -15 2 -27 0 -27 -3 0
-4 63 -94 140 -201 77 -107 141 -198 143 -203 1 -4 -67 -103 -150 -219 -84
-115 -153 -212 -153 -216 0 -3 12 -6 28 -6 24 0 44 24 167 195 77 107 143 194
147 193 4 -2 69 -88 145 -193 118 -163 142 -190 167 -193 21 -3 27 0 23 10 -2
8 -71 105 -152 217 -80 111 -144 208 -142 214 4 11 345 507 494 720 30 42 52
77 50 77 -3 0 -75 -90 -161 -199z"/>
<path d="M0 915 l0 -425 25 0 25 0 0 385 c0 212 3 385 8 385 4 -1 115 -159
247 -352 216 -316 542 -769 582 -808 14 -14 -752 1137 -804 1208 -18 23 -32
32 -54 32 l-29 0 0 -425z"/>
<path d="M710 915 l0 -425 285 0 285 0 0 25 0 25 -260 0 -260 0 0 185 0 185
240 0 c233 0 240 1 240 20 0 19 -7 20 -240 20 l-240 0 0 170 0 170 255 0 255
0 0 25 0 25 -280 0 -280 0 0 -425z"/>
<path d="M2020 1315 l0 -25 150 0 150 0 0 -400 0 -400 25 0 25 0 0 400 0 399
148 3 c139 3 147 4 147 23 0 20 -8 20 -322 23 l-323 2 0 -25z"/>
<path d="M2795 728 c-3 -7 -4 -38 -4 -68 1 -30 1 -61 0 -67 -1 -16 -26 -17
-51 -1 -27 17 -37 2 -15 -22 20 -22 64 -27 83 -8 15 15 17 178 2 178 -6 0 -13
-6 -15 -12z"/>
<path d="M2888 729 c-21 -12 -24 -62 -5 -76 6 -6 29 -16 50 -22 41 -14 48 -34
17 -51 -16 -8 -27 -7 -50 7 -37 21 -53 8 -21 -18 44 -36 121 -13 121 36 0 27
-8 33 -65 55 -22 9 -40 22 -40 30 0 20 42 25 71 9 32 -17 40 -5 15 20 -22 22
-65 27 -93 10z"/>
<path d="M2644 579 c-10 -17 13 -36 27 -22 12 12 4 33 -11 33 -5 0 -12 -5 -16
-11z"/>
</g>
</svg>
