<?xml version="1.0" standalone="no"?>
<!DOCTYPE svg PUBLIC "-//W3C//DTD SVG 20010904//EN"
 "http://www.w3.org/TR/2001/REC-SVG-20010904/DTD/svg10.dtd">
<svg version="1.0" xmlns="http://www.w3.org/2000/svg"
 width="800.000000pt" height="600.000000pt" viewBox="0 0 800.000000 600.000000"
 preserveAspectRatio="xMidYMid meet">
    <g transform="translate(0.000000,600.000000) scale(0.100000,-0.100000)"
    fill="#8D8F92" stroke="none">
        <path d="M4997 4833 c-4 -3 -7 -210 -7 -459 0 -253 -4 -455 -9 -458 -5 -3 -46
        15 -91 41 -45 25 -94 46 -109 45 -32 -1 -595 -322 -628 -358 -23 -25 -23 -26
        -23 -380 l0 -356 28 -26 c15 -15 158 -103 319 -196 249 -143 297 -167 320
        -161 15 4 161 84 323 178 202 118 298 180 307 197 20 39 19 1680 -1 1718 -10
        20 -63 55 -189 125 -162 91 -219 112 -240 90z m-112 -1391 l100 -58 0 -119 0
        -119 -101 -58 -101 -59 -101 58 -102 58 0 120 1 120 97 57 c53 31 99 57 102
        57 3 0 50 -25 105 -57z"/>
        <path d="M1316 3845 c-164 -95 -302 -179 -307 -186 -5 -8 -9 -226 -9 -484 0
        -481 1 -495 37 -495 23 0 383 211 393 230 6 11 10 116 10 248 0 206 2 230 18
        244 26 23 175 108 189 108 15 0 186 -99 195 -113 4 -7 8 -112 8 -234 0 -141 4
        -231 11 -246 12 -26 366 -237 398 -237 40 0 41 6 41 491 0 430 -1 468 -17 487
        -31 36 -609 362 -640 361 -17 0 -146 -69 -327 -174z"/>
        <path d="M2898 3842 c-157 -92 -295 -176 -307 -186 -21 -19 -21 -26 -21 -383
        0 -333 1 -364 18 -380 37 -37 599 -353 627 -353 29 0 591 316 627 353 17 16
        18 47 18 380 l0 364 -22 20 c-46 42 -599 353 -626 352 -16 0 -148 -71 -314
        -167z"/>
        <path d="M6025 3836 c-194 -113 -304 -182 -312 -197 -9 -18 -13 -115 -13 -371
        0 -346 0 -347 23 -372 31 -36 596 -356 627 -356 32 0 380 192 398 219 9 14 11
        25 4 37 -5 9 -141 92 -302 185 -162 93 -297 174 -302 181 -10 16 -10 209 0
        224 4 6 51 36 106 67 l98 55 104 -60 104 -60 0 -97 c0 -97 7 -121 38 -121 18
        0 360 198 384 223 15 14 18 35 18 130 -1 72 -5 118 -13 128 -7 9 -145 93 -308
        188 -203 118 -304 171 -324 171 -20 0 -129 -58 -330 -174z"/>
        <path d="M6285 3392 l-60 -37 -3 -77 -3 -77 48 -31 c70 -44 89 -47 140 -19 75
        41 83 52 83 122 0 36 -5 70 -12 79 -12 14 -120 79 -129 77 -2 0 -31 -17 -64
        -37z"/>
        <path d="M3769 2561 c-332 -191 -423 -247 -443 -274 -20 -27 -21 -42 -24 -360
        -2 -220 0 -345 8 -369 13 -44 42 -68 162 -133 108 -58 172 -68 241 -37 34 15
        51 31 66 61 20 38 21 56 21 391 l0 350 -54 0 c-40 0 -55 -4 -60 -16 -3 -9 -6
        -159 -6 -333 0 -295 -1 -319 -18 -334 -30 -27 -61 -20 -152 32 l-85 48 -3 319
        -2 320 266 153 c147 85 272 154 279 154 6 0 131 -69 278 -154 l267 -154 -2
        -318 -3 -319 -265 -154 c-146 -84 -269 -154 -274 -154 -6 0 -40 18 -77 40 -37
        22 -73 40 -81 39 -22 -1 -102 -43 -102 -54 1 -5 52 -41 115 -78 101 -61 119
        -68 154 -64 60 6 601 321 633 367 l23 34 -3 353 -3 353 -30 29 c-16 16 -155
        102 -307 190 -242 140 -283 161 -321 161 -36 0 -69 -15 -198 -89z"/>
        <path d="M3994 2197 c-90 -30 -134 -87 -134 -174 0 -105 54 -142 254 -172 161
        -24 196 -45 166 -101 -14 -27 -64 -40 -154 -40 -100 0 -146 19 -162 68 -15 46
        -26 54 -75 50 -41 -3 -44 -5 -47 -33 -9 -79 54 -160 146 -186 27 -8 92 -14
        152 -14 95 0 111 3 163 28 79 39 111 93 105 177 -8 105 -56 136 -264 169 -132
        21 -164 32 -164 59 1 45 45 66 142 66 88 0 122 -17 144 -70 14 -33 16 -34 69
        -34 54 0 55 1 54 28 -2 69 -51 140 -118 169 -49 21 -222 27 -277 10z"/>
    </g>
</svg>
