<?xml version="1.0" standalone="no"?>
<!DOCTYPE svg PUBLIC "-//W3C//DTD SVG 20010904//EN"
 "http://www.w3.org/TR/2001/REC-SVG-20010904/DTD/svg10.dtd">
<svg version="1.0" xmlns="http://www.w3.org/2000/svg"
 width="900.000000pt" height="540.000000pt" viewBox="0 0 900.000000 540.000000"
 preserveAspectRatio="xMidYMid meet">
    <g transform="translate(0.000000,540.000000) scale(0.100000,-0.100000)"
    fill="#8D8F92" stroke="none">
        <path d="M630 2725 l0 -1365 415 0 415 0 2 820 3 820 441 -518 c243 -284 553
        -647 689 -807 136 -159 252 -296 259 -303 10 -10 64 71 276 420 145 238 331
        543 413 678 83 135 150 250 150 255 0 6 -76 134 -168 285 -184 301 -521 854
        -605 993 -29 48 -55 87 -56 87 -2 0 -3 -369 -1 -820 1 -451 0 -820 -3 -819 -3
        0 -144 165 -315 366 -293 344 -527 619 -917 1076 l-169 197 -414 0 -415 0 0
        -1365z"/>
        <path d="M3073 4083 c3 -5 73 -120 157 -258 84 -137 197 -322 250 -410 53 -88
        168 -277 255 -420 87 -143 158 -265 158 -271 0 -8 -732 -1220 -811 -1341 l-14
        -23 494 0 495 0 277 450 c153 248 279 450 281 450 2 0 128 -202 281 -450 l278
        -450 494 0 494 0 -14 22 c-76 119 -811 1335 -811 1343 0 5 63 114 140 240 115
        189 664 1091 680 1118 2 4 -218 7 -489 7 l-494 0 -267 -433 c-147 -238 -273
        -441 -280 -451 -14 -20 -10 -27 -412 627 l-159 257 -493 0 c-272 0 -492 -3
        -490 -7z"/>
        <path d="M5967 3438 c-219 -359 -406 -666 -416 -683 l-19 -30 250 -410 c363
        -597 475 -780 532 -875 l51 -85 3 302 2 302 773 3 c755 3 774 4 848 25 133 37
        214 85 309 182 100 101 155 201 198 359 26 97 26 98 27 472 0 399 -4 444 -51
        584 -98 289 -335 453 -717 495 -59 7 -350 11 -745 11 l-648 0 -397 -652z
        m1575 -39 c99 -21 169 -77 197 -159 19 -52 25 -234 12 -319 -22 -140 -98 -245
        -196 -270 -30 -7 -227 -11 -614 -11 l-571 0 0 385 0 385 560 0 c367 0 577 -4
        612 -11z"/>
    </g>
</svg>
