<?xml version="1.0" standalone="no"?>
<!DOCTYPE svg PUBLIC "-//W3C//DTD SVG 20010904//EN"
 "http://www.w3.org/TR/2001/REC-SVG-20010904/DTD/svg10.dtd">
<svg version="1.0" xmlns="http://www.w3.org/2000/svg"
 width="487.000000pt" height="600.000000pt" viewBox="0 0 487.000000 600.000000"
 preserveAspectRatio="xMidYMid meet">

<g transform="translate(0.000000,600.000000) scale(0.100000,-0.100000)"
fill="#8D8F92" stroke="none">
<path d="M2140 5971 c-319 -91 -554 -274 -711 -551 -166 -294 -189 -661 -62
-979 57 -144 122 -240 243 -362 109 -110 231 -204 254 -196 9 3 345 574 346
588 0 4 -19 19 -42 34 -164 108 -234 349 -154 529 59 133 153 216 289 258 107
32 205 22 313 -31 160 -80 244 -216 244 -397 0 -146 -61 -266 -187 -364 l-32
-25 169 -290 c93 -159 171 -294 173 -299 6 -18 151 88 238 174 343 341 435
857 230 1285 -84 178 -177 295 -328 416 -127 101 -258 164 -443 214 -86 22
-112 25 -270 24 -158 -1 -184 -4 -270 -28z"/>
<path d="M1020 3764 c-279 -50 -472 -142 -646 -306 -260 -246 -387 -582 -354
-933 25 -275 131 -504 323 -700 155 -158 323 -252 553 -310 82 -21 119 -25
253 -25 171 0 231 10 381 60 169 57 359 183 468 309 31 36 59 68 62 71 14 13
99 150 117 190 72 153 113 311 116 448 l2 77 -349 0 -350 0 -12 -80 c-14 -96
-45 -162 -108 -232 -202 -224 -567 -176 -709 92 -70 132 -64 302 14 434 36 60
118 132 188 165 63 29 72 31 186 31 104 -1 127 -4 173 -24 29 -13 54 -22 56
-20 2 2 33 56 70 119 37 63 71 122 76 130 5 8 48 84 96 168 48 84 91 155 95
158 24 14 1 34 -78 72 -163 76 -283 104 -463 108 -74 1 -146 0 -160 -2z"/>
<path d="M3084 3590 c-32 -21 -86 -62 -119 -89 -32 -28 -63 -51 -67 -51 -4 0
-8 -6 -8 -14 0 -7 -8 -20 -17 -27 -45 -38 -139 -174 -188 -273 -83 -169 -106
-266 -112 -464 -4 -105 -1 -185 6 -225 35 -180 113 -364 207 -483 29 -38 66
-85 81 -105 29 -38 189 -169 238 -196 159 -86 216 -109 355 -144 79 -19 121
-23 250 -23 200 0 317 26 495 114 171 84 272 164 392 312 103 126 175 271 220
443 23 89 26 120 26 270 0 185 -13 262 -70 410 -92 234 -278 456 -474 564
l-37 20 -25 -37 c-25 -38 -191 -325 -255 -442 -19 -36 -44 -76 -54 -89 -10
-13 -18 -27 -18 -31 0 -3 23 -21 50 -39 28 -18 62 -49 78 -69 15 -20 30 -39
33 -42 34 -28 84 -215 74 -278 -20 -125 -57 -205 -130 -277 -84 -85 -183 -125
-308 -125 -126 0 -230 44 -315 133 -110 117 -146 264 -104 418 30 106 87 186
181 251 13 9 22 20 20 25 -4 7 -66 119 -126 223 -14 25 -49 86 -78 135 -29 50
-73 125 -97 167 l-45 77 -59 -39z"/>
<path d="M339 1230 c-252 -26 -294 -95 -294 -490 0 -194 2 -222 22 -285 37
-118 101 -158 276 -176 130 -13 299 1 380 31 95 36 124 89 148 275 15 121 7
344 -16 442 -27 116 -67 160 -175 188 -66 17 -245 25 -341 15z m287 -170 c17
-6 37 -23 44 -38 21 -46 33 -250 22 -379 -12 -145 -21 -169 -68 -189 -86 -36
-317 -25 -362 17 -30 27 -37 89 -36 299 1 260 9 282 113 301 59 10 246 4 287
-11z"/>
<path d="M3484 1231 c-178 -17 -255 -65 -290 -182 -16 -55 -19 -92 -17 -264 1
-209 16 -331 48 -399 37 -77 141 -109 355 -110 302 -1 374 46 387 253 l6 91
-92 0 -91 0 0 -37 c0 -21 -5 -55 -11 -75 -16 -59 -50 -72 -189 -72 -128 -1
-182 12 -206 49 -23 35 -38 286 -25 415 11 109 26 145 68 161 44 17 194 22
256 10 68 -15 85 -34 94 -110 l6 -51 90 0 90 0 -5 78 c-13 180 -78 235 -289
245 -57 3 -140 2 -185 -2z"/>
<path d="M4000 1222 c0 -10 81 -267 219 -697 l77 -240 139 0 140 0 147 455
c81 250 148 463 148 473 0 16 -9 17 -92 15 l-93 -3 -87 -265 c-48 -146 -105
-323 -125 -394 l-38 -130 -13 50 c-13 50 -160 511 -210 659 l-27 80 -92 3
c-53 1 -93 -1 -93 -6z"/>
<path d="M1280 941 c-48 -15 -88 -41 -109 -68 l-22 -28 7 48 6 47 -81 0 -81 0
0 -470 0 -470 80 0 80 0 0 188 0 187 25 -32 c71 -90 304 -91 380 -2 50 60 74
223 55 375 -22 172 -75 226 -230 231 -47 1 -96 -1 -110 -6z m130 -140 c37 -27
52 -96 47 -217 -5 -117 -21 -156 -68 -173 -79 -28 -182 -2 -207 51 -34 72 -23
292 17 331 39 40 161 44 211 8z"/>
<path d="M1891 940 c-133 -28 -178 -126 -168 -365 6 -141 17 -183 59 -230 43
-50 114 -69 253 -68 191 1 276 53 287 178 l3 40 -78 3 c-82 3 -79 4 -91 -50
-4 -18 -16 -29 -37 -37 -68 -24 -192 -6 -214 29 -4 7 -11 41 -14 76 l-7 64
217 0 c120 0 220 3 222 8 2 4 0 54 -4 110 -9 134 -33 185 -103 221 -42 22 -63
25 -165 27 -64 2 -136 -1 -160 -6z m240 -131 c20 -10 27 -28 31 -84 l3 -40
-138 -3 c-155 -3 -154 -3 -138 68 10 45 26 61 76 72 37 8 143 0 166 -13z"/>
<path d="M2715 936 c-22 -9 -55 -31 -72 -50 l-33 -36 0 45 0 45 -75 0 -75 0 0
-330 0 -331 78 3 77 3 5 230 c3 160 9 237 18 252 32 56 164 78 219 37 38 -28
42 -58 42 -311 l1 -213 75 0 76 0 -3 273 -3 274 -27 40 c-14 22 -43 48 -65 58
-51 25 -184 31 -238 11z"/>
</g>
</svg>
