<?xml version="1.0" standalone="no"?>
<!DOCTYPE svg PUBLIC "-//W3C//DTD SVG 20010904//EN"
 "http://www.w3.org/TR/2001/REC-SVG-20010904/DTD/svg10.dtd">
<svg version="1.0" xmlns="http://www.w3.org/2000/svg"
 width="1200.000000pt" height="485.000000pt" viewBox="0 0 1200.000000 485.000000"
 preserveAspectRatio="xMidYMid meet">
    <g transform="translate(0.000000,485.000000) scale(0.100000,-0.100000)"
    fill="#8D8F92" stroke="none">
        <path d="M3585 4679 c-329 -22 -606 -140 -815 -349 -265 -264 -399 -654 -370
        -1071 46 -642 422 -1060 1050 -1166 131 -22 404 -21 529 1 404 73 714 297 871
        629 44 92 84 224 95 310 l7 57 -134 0 -133 0 -24 -91 c-102 -400 -354 -618
        -771 -669 -238 -29 -480 4 -668 91 -273 126 -445 358 -514 694 -27 132 -29
        388 -4 520 89 476 377 740 866 796 306 35 621 -39 824 -192 119 -91 213 -234
        253 -390 l17 -69 133 0 133 0 -6 43 c-24 153 -93 320 -182 438 -224 295 -658
        452 -1157 418z"/>
        <path d="M6260 4633 c1 -5 250 -200 554 -435 l554 -427 313 -31 c173 -16 329
        -33 348 -36 20 -3 32 -1 30 5 -2 5 -276 217 -609 470 l-604 461 -293 0 c-161
        0 -293 -3 -293 -7z"/>
        <path d="M7280 4626 c0 -3 326 -226 725 -496 l725 -491 1259 -122 c693 -67
        1258 -123 1256 -125 -1 -2 -560 -57 -1241 -122 -682 -66 -1250 -121 -1264
        -123 -25 -4 -1452 -969 -1458 -986 -2 -5 23 -1 55 9 32 10 940 287 2018 615
        1078 329 1962 600 1964 602 2 1 2 5 -1 8 -6 7 -4014 1235 -4029 1235 -5 0 -9
        -2 -9 -4z"/>
        <path d="M80 3380 l0 -1240 135 0 135 0 0 520 0 520 543 0 c426 0 563 3 640
        15 340 51 549 225 618 511 18 77 21 109 16 234 -4 120 -9 159 -31 225 -71 220
        -223 360 -462 427 -78 22 -90 23 -836 26 l-758 3 0 -1241z m1451 986 c241 -43
        349 -186 349 -461 0 -293 -123 -434 -414 -474 -47 -7 -281 -11 -597 -11 l-519
        0 0 480 0 480 553 0 c420 -1 570 -4 628 -14z"/>
        <path d="M5340 3380 l0 -1240 135 0 135 0 0 1240 0 1240 -135 0 -135 0 0
        -1240z"/>
        <path d="M7677 3046 l-318 -31 -549 -425 c-302 -234 -550 -428 -550 -432 0 -5
        132 -8 293 -8 l292 0 610 461 c336 253 612 463 614 465 8 8 -75 1 -392 -30z"/>
        <path d="M9005 1690 c-188 -13 -295 -39 -418 -102 -142 -74 -227 -186 -263
        -345 -46 -210 46 -335 289 -393 45 -11 181 -35 302 -54 266 -43 315 -56 349
        -97 31 -37 33 -76 6 -129 -44 -87 -151 -131 -320 -132 -175 -1 -257 26 -307
        101 -16 24 -23 49 -23 82 l0 49 -224 0 -225 0 -7 -56 c-21 -172 46 -300 194
        -370 210 -99 699 -111 972 -23 262 85 423 284 423 524 0 117 -49 194 -158 248
        -77 39 -138 53 -453 107 -161 27 -309 57 -328 66 -19 9 -42 30 -50 47 -33 63
        32 156 138 195 109 41 286 36 378 -11 49 -25 90 -88 90 -139 l0 -28 219 0
        c246 0 231 -5 231 79 0 96 -48 205 -114 254 -97 74 -224 112 -429 127 -78 5
        -146 9 -152 8 -5 0 -59 -4 -120 -8z"/>
        <path d="M10655 1690 c-188 -13 -295 -39 -418 -102 -143 -74 -229 -189 -263
        -348 -44 -210 47 -333 289 -390 45 -11 183 -35 307 -55 124 -19 246 -42 272
        -51 63 -20 98 -57 98 -101 0 -82 -64 -151 -170 -184 -76 -24 -241 -29 -332
        -10 -105 22 -168 86 -168 172 l0 49 -224 0 -225 0 -7 -56 c-20 -167 47 -297
        190 -367 208 -102 699 -115 976 -26 261 85 420 275 423 509 2 91 -14 140 -61
        192 -78 87 -152 111 -547 177 -316 54 -363 68 -384 120 -11 25 -10 36 7 74 47
        106 198 161 382 138 113 -15 168 -43 198 -101 12 -24 22 -57 22 -72 l0 -28
        223 2 222 3 3 58 c5 104 -41 217 -112 270 -97 74 -224 112 -429 127 -78 5
        -146 9 -152 8 -5 0 -59 -4 -120 -8z"/>
        <path d="M11720 1684 c-42 -18 -86 -59 -106 -97 -21 -39 -20 -137 1 -182 31
        -65 112 -115 185 -115 75 0 160 54 186 117 18 42 18 147 0 181 -49 93 -171
        137 -266 96z m157 -41 c37 -17 77 -70 88 -116 16 -64 -28 -147 -96 -183 -36
        -18 -102 -18 -137 0 -66 34 -110 116 -97 179 24 110 140 169 242 120z"/>
        <path d="M11710 1495 l0 -115 25 0 c23 0 25 4 25 45 0 43 1 45 28 45 35 0 62
        -27 62 -63 0 -22 5 -27 24 -27 23 0 24 3 19 38 -3 20 -10 45 -15 56 -7 12 -7
        21 0 25 6 3 13 18 17 33 5 21 1 33 -19 52 -22 23 -33 26 -96 26 l-70 0 0 -115z"/>
        <path d="M300 1655 c0 -3 -67 -323 -150 -711 -82 -388 -150 -714 -150 -725 0
        -19 13 -19 683 -19 l683 0 27 133 c15 72 27 138 27 145 0 9 -103 12 -481 12
        -453 0 -481 1 -477 18 3 9 18 81 34 160 l29 142 455 0 456 0 27 123 c15 67 27
        128 27 135 0 9 -100 12 -450 12 -422 0 -450 1 -449 18 0 9 12 73 28 142 l27
        125 480 3 480 2 27 133 c15 72 27 138 27 145 0 9 -143 12 -680 12 -374 0 -680
        -2 -680 -5z"/>
        <path d="M1760 1651 c0 -5 92 -165 204 -354 l203 -345 -383 -368 c-211 -203
        -383 -372 -384 -376 0 -5 112 -8 249 -8 l249 0 222 240 c122 132 224 240 226
        240 1 0 58 -108 125 -240 l122 -240 248 0 c137 0 249 2 249 5 0 2 -102 171
        -226 374 l-226 371 359 354 358 355 -245 0 -245 0 -200 -220 c-110 -120 -202
        -219 -205 -219 -3 0 -55 99 -115 220 l-110 220 -237 0 c-138 0 -238 -4 -238
        -9z"/>
        <path d="M3481 1613 c-6 -27 -74 -345 -151 -708 -77 -363 -142 -670 -145 -682
        l-5 -23 203 0 203 0 55 260 54 260 338 0 c375 0 441 7 555 62 80 38 177 131
        225 218 77 140 107 321 71 440 -21 72 -97 149 -178 179 -96 36 -176 40 -708
        41 l-506 0 -11 -47z m930 -249 c48 -28 71 -77 63 -134 -10 -68 -41 -143 -72
        -173 -60 -58 -83 -62 -380 -65 -261 -3 -274 -3 -268 15 3 10 21 95 41 188 20
        94 38 176 41 184 4 11 51 13 272 9 245 -4 271 -6 303 -24z"/>
        <path d="M5175 1648 c-2 -7 -70 -326 -150 -708 -80 -382 -148 -705 -152 -717
        l-5 -23 201 0 200 0 10 38 c5 20 31 139 57 265 l48 227 270 0 c305 0 326 -4
        358 -70 23 -45 23 -96 -2 -215 -20 -96 -26 -198 -14 -229 5 -14 35 -16 225
        -16 120 0 219 2 219 4 0 2 -7 17 -15 32 -21 41 -19 153 6 292 35 193 16 311
        -58 357 -18 11 -32 22 -33 25 0 3 29 20 65 38 147 77 232 237 223 421 -7 141
        -66 219 -198 263 -63 22 -80 22 -658 26 -482 3 -593 1 -597 -10z m941 -297
        c94 -43 93 -182 -3 -273 -58 -55 -78 -58 -383 -58 -154 0 -280 4 -280 8 0 4
        14 71 30 148 17 76 33 151 36 167 l6 27 276 0 c248 0 281 -2 318 -19z"/>
        <path d="M6752 943 c-84 -395 -152 -724 -152 -731 0 -10 140 -12 682 -10 l682
        3 28 120 c15 66 27 130 28 143 l0 22 -480 0 -479 0 6 32 c4 18 18 89 33 158
        l26 125 457 3 c251 1 457 4 457 6 0 2 11 58 25 126 14 68 25 127 25 131 0 5
        -204 9 -453 9 l-453 0 30 145 31 145 480 2 480 3 13 60 c7 33 21 97 31 143
        l19 82 -682 0 -682 0 -152 -717z"/>
    </g>
</svg>
