<?xml version="1.0" standalone="no"?>
<!DOCTYPE svg PUBLIC "-//W3C//DTD SVG 20010904//EN"
 "http://www.w3.org/TR/2001/REC-SVG-20010904/DTD/svg10.dtd">
<svg version="1.0" xmlns="http://www.w3.org/2000/svg"
 width="1200.000000pt" height="1200.000000pt" viewBox="0 0 1200.000000 1200.000000"
 preserveAspectRatio="xMidYMid meet">
    <g transform="translate(0.000000,1200.000000) scale(0.100000,-0.100000)"
    fill="#8D8F92" stroke="none">
        <path d="M5270 11989 c49 -4 55 -6 23 -7 -142 -6 -481 -52 -688 -94 -548 -109
        -927 -281 -1210 -547 -75 -71 -76 -71 -20 -12 33 34 98 92 145 129 127 98 138
        115 15 24 -66 -49 -245 -221 -245 -236 0 -4 8 -2 18 5 14 11 13 10 -2 -9 -20
        -23 -32 -30 -21 -12 3 6 4 10 1 10 -6 0 -66 -86 -66 -95 0 -3 6 -3 13 1 7 4 9
        3 4 -2 -5 -5 -14 -9 -19 -9 -12 0 -72 -113 -82 -155 -3 -14 3 -6 14 18 27 60
        32 52 7 -12 -12 -30 -25 -50 -28 -44 -7 12 -14 -6 -23 -62 -4 -26 -4 -30 3
        -15 6 13 7 1 3 -35 -4 -30 -7 -75 -7 -100 0 -25 2 -359 3 -742 l2 -698 1463
        -2 1462 -3 -1460 -5 -1460 -5 1448 -3 1447 -2 0 -175 0 -175 -2112 -1 c-1162
        -1 -2138 -4 -2168 -7 -30 -4 918 -6 2108 -4 1446 2 2169 -1 2180 -8 12 -7
        -683 -10 -2148 -10 -2303 1 -2204 3 -2390 -45 -187 -47 -392 -144 -550 -259
        -30 -22 -49 -32 -42 -23 8 9 49 40 93 68 81 54 108 78 42 38 -96 -57 -209
        -152 -330 -276 -73 -74 -133 -139 -133 -145 0 -6 7 -5 18 3 14 11 13 10 -2 -9
        -20 -23 -32 -30 -21 -12 3 6 4 10 1 10 -11 0 -67 -91 -61 -99 3 -5 0 -13 -6
        -17 -8 -5 -9 -3 -4 7 8 12 6 12 -8 0 -19 -15 -23 -36 -5 -25 7 4 8 3 4 -5 -4
        -6 -11 -9 -16 -6 -5 3 -14 -3 -19 -14 -14 -26 -14 -34 1 -25 7 4 8 3 4 -5 -4
        -6 -11 -9 -16 -6 -5 3 -14 -3 -19 -14 -14 -26 -14 -34 1 -25 7 4 8 3 4 -5 -4
        -6 -12 -9 -17 -6 -13 9 -179 -336 -179 -373 0 -3 7 3 15 14 14 17 14 17 3 -11
        -14 -34 -33 -61 -22 -30 4 11 4 17 0 14 -10 -9 -72 -195 -80 -239 l-6 -35 15
        35 15 35 -6 -35 c-4 -19 -10 -44 -15 -55 l-8 -20 -1 20 -1 20 -8 -20 c-12 -30
        -23 -105 -11 -80 14 31 11 3 -6 -72 -9 -37 -26 -126 -39 -198 -14 -77 -24
        -116 -25 -95 l-2 35 -8 -40 c-4 -22 -10 -74 -13 -115 l-5 -75 13 80 c16 105
        17 49 1 -85 -12 -99 -13 -102 -17 -50 -2 30 -5 -237 -6 -595 -2 -525 1 -677
        13 -790 17 -154 29 -196 21 -70 l-6 80 10 -65 c5 -36 18 -121 29 -189 12 -68
        19 -126 16 -128 -2 -2 -9 29 -16 69 -20 117 -28 154 -29 132 -3 -58 79 -448
        88 -421 4 11 16 -20 32 -77 14 -53 22 -93 18 -91 -4 3 -15 36 -24 75 -9 38
        -19 70 -22 70 -6 0 1 -32 29 -128 14 -48 24 -68 29 -60 6 9 9 9 9 1 0 -6 3
        -20 6 -30 5 -15 4 -16 -6 -3 -9 12 -10 10 -5 -10 32 -121 175 -447 194 -442 7
        1 10 -2 6 -7 -9 -15 24 -73 37 -65 7 4 8 3 4 -4 -10 -16 12 -54 26 -46 7 4 8
        3 4 -4 -9 -14 12 -55 24 -47 5 3 12 0 16 -6 5 -8 3 -9 -6 -4 -8 5 -11 3 -8 -6
        3 -8 10 -14 16 -14 5 0 14 -4 19 -9 5 -5 2 -6 -6 -1 -9 5 -12 3 -9 -6 3 -8 10
        -14 16 -14 5 0 14 -4 19 -9 5 -5 3 -6 -4 -2 -19 11 -16 -9 4 -25 15 -12 16
        -12 8 1 -8 13 -7 13 8 1 18 -15 23 -26 7 -16 -5 3 -10 2 -10 -3 0 -12 25 -33
        32 -27 3 3 11 -2 19 -12 9 -11 10 -14 2 -9 -64 38 173 -213 275 -292 56 -43
        214 -144 245 -155 36 -13 14 2 -65 47 -46 25 -96 58 -113 71 -16 14 2 6 40
        -18 172 -109 353 -180 534 -211 79 -13 186 -16 647 -16 l553 0 4 812 c3 466 9
        834 15 863 8 42 9 33 6 -60 l-3 -110 10 95 c5 52 18 144 29 204 11 60 18 112
        15 114 -2 3 -7 -15 -11 -39 -4 -24 -9 -38 -12 -31 -2 7 2 36 9 65 9 40 14 47
        19 32 5 -15 10 -8 18 32 10 43 65 201 97 277 6 14 5 17 -3 12 -8 -5 -10 -2 -6
        8 3 9 10 13 15 10 5 -3 14 7 19 21 13 34 13 38 -2 29 -7 -4 -8 -3 -4 5 4 6 11
        9 16 6 5 -3 18 12 30 34 23 47 25 55 8 45 -8 -4 -10 -3 -5 2 5 5 14 9 19 9 6
        0 13 6 16 14 3 9 0 11 -9 6 -8 -5 -11 -4 -6 1 5 5 14 9 19 9 6 0 13 6 16 14 3
        9 0 11 -9 6 -8 -5 -11 -4 -6 1 5 5 14 9 19 9 6 0 13 6 16 14 3 9 0 11 -9 6 -8
        -5 -11 -4 -6 1 5 5 14 9 19 9 6 0 13 6 16 14 3 9 0 11 -9 5 -12 -7 -12 -5 0 9
        16 20 26 23 15 5 -5 -9 -2 -9 9 1 20 16 23 36 5 25 -7 -4 -4 2 6 14 23 26 34
        29 15 5 -7 -10 -1 -7 14 6 28 25 37 47 15 36 -25 -13 159 161 205 193 72 51
        56 32 -25 -31 -40 -31 -95 -80 -123 -109 l-50 -53 50 46 c28 25 64 58 80 73
        50 44 169 124 257 171 46 25 79 45 75 45 -9 0 -103 -48 -167 -85 -30 -18 -36
        -20 -20 -6 72 59 284 149 445 190 218 56 133 54 1940 61 1636 6 1672 7 1775
        27 397 79 659 202 911 429 60 53 59 52 -8 -13 -145 -140 -344 -259 -563 -338
        -52 -19 -89 -34 -82 -35 26 -1 210 74 310 125 133 69 245 149 354 254 78 75
        111 116 76 95 -7 -4 -4 2 6 14 23 26 34 29 15 5 -11 -15 -10 -14 9 1 23 20 31
        42 10 30 -9 -5 -9 -2 1 9 16 20 26 23 15 5 -5 -9 -2 -9 9 1 20 16 23 36 5 25
        -9 -5 -9 -2 1 9 16 20 25 22 16 5 -4 -7 3 -2 15 11 11 13 18 31 16 38 -3 8 -2
        11 4 8 12 -7 33 32 24 47 -4 7 -3 8 4 4 7 -4 24 19 45 61 40 80 54 118 39 109
        -6 -4 1 28 15 69 14 42 27 74 29 72 2 -2 -5 -30 -16 -62 -11 -32 -18 -60 -16
        -63 3 -2 17 35 32 82 14 48 24 90 20 93 -3 4 -6 -1 -6 -10 0 -9 -4 -18 -9 -21
        -8 -5 -1 31 23 119 3 11 3 -2 1 -30 -8 -86 11 -19 28 100 14 97 16 296 17
        1645 1 1041 -3 1545 -10 1565 -10 30 -10 30 -4 -5 3 -19 5 -723 4 -1565 -1
        -1424 -5 -1664 -27 -1685 -3 -3 -2 11 2 30 9 42 23 3092 14 3170 -4 30 -9 71
        -13 90 -4 27 -4 30 4 15 22 -45 -4 63 -32 133 -42 109 -67 154 -80 146 -7 -4
        -8 -3 -4 4 9 14 -22 75 -34 67 -5 -3 -12 0 -16 6 -5 8 -3 9 6 4 8 -5 11 -3 8
        6 -3 8 -10 14 -15 14 -6 0 -15 4 -20 9 -5 5 -3 6 5 2 18 -11 15 9 -5 25 -15
        12 -16 12 -8 -1 8 -13 7 -13 -8 -1 -18 15 -23 26 -7 16 17 -10 11 12 -7 26
        -15 12 -16 12 -8 -1 8 -13 7 -13 -8 -1 -18 15 -23 26 -7 16 23 -14 7 10 -47
        71 -31 35 -61 64 -67 64 -6 0 14 -26 44 -57 30 -32 16 -20 -33 27 -48 46 -87
        87 -87 89 0 3 16 -10 35 -29 19 -19 35 -30 34 -24 0 12 -95 91 -204 169 -80
        57 -329 195 -351 195 -5 0 46 -29 113 -64 134 -70 267 -155 328 -211 27 -24
        19 -20 -25 13 -372 284 -945 472 -1645 540 -154 14 -171 18 -120 22 33 3 -280
        5 -695 5 -415 0 -726 -2 -690 -6z m-789 -933 c92 -20 177 -65 246 -132 32 -30
        52 -52 44 -48 -9 4 -12 2 -9 -7 3 -8 10 -14 15 -14 6 0 15 -4 20 -9 5 -5 2 -6
        -6 -1 -9 5 -12 3 -9 -6 3 -8 10 -14 15 -14 6 0 15 -4 20 -9 5 -5 3 -6 -4 -2
        -18 10 -16 2 8 -46 11 -22 27 -68 34 -102 10 -45 14 -53 15 -31 2 25 4 22 12
        -18 6 -28 7 -75 2 -115 -6 -55 -9 -61 -14 -37 -6 28 -7 26 -14 -20 -7 -41 -24
        -85 -74 -189 -3 -5 1 -5 9 0 12 6 12 5 0 -9 -8 -10 -16 -15 -19 -12 -7 7 -52
        -35 -52 -48 0 -6 12 0 28 14 26 23 26 23 -2 -9 -29 -31 -43 -42 -31 -22 11 18
        -4 11 -50 -24 -112 -86 -326 -117 -460 -66 -15 6 -30 8 -32 6 -14 -14 120 -39
        202 -39 109 1 199 27 277 79 29 20 45 27 35 16 -25 -28 -103 -68 -172 -88
        -117 -35 -322 -13 -390 41 -20 16 -20 16 2 6 33 -17 42 -12 10 5 -15 8 -32 12
        -37 9 -5 -3 -12 0 -16 6 -5 8 -3 9 7 4 12 -8 12 -6 0 8 -16 20 -36 23 -25 5 5
        -9 2 -8 -9 1 -10 8 -15 16 -12 19 7 8 -56 72 -65 67 -4 -3 -14 3 -21 12 -10
        12 -10 14 -1 9 18 -11 15 9 -5 25 -15 12 -16 12 -8 -1 4 -8 4 -12 0 -7 -5 4
        -10 15 -11 25 -1 9 -14 49 -29 87 -22 56 -27 88 -28 160 -1 50 2 108 6 130 6
        35 5 37 -5 15 -6 -14 -11 -74 -11 -135 -1 -90 -3 -102 -9 -65 -11 54 -2 167
        17 218 7 20 14 30 15 22 1 -8 12 9 26 39 28 62 28 65 12 55 -8 -4 -10 -3 -5 2
        5 5 14 9 20 9 5 0 12 6 15 14 3 9 0 11 -9 6 -8 -5 -11 -4 -6 1 5 5 14 9 19 9
        6 0 13 6 16 14 3 9 0 11 -9 7 -8 -4 11 16 41 46 128 122 297 171 471 134z"/>
        <path d="M3087 10793 c-2 -27 -2 -374 3 -773 l7 -725 0 773 c0 424 -1 772 -2
        772 -1 0 -5 -21 -8 -47z"/>
        <path d="M9310 8188 c0 -742 -1 -802 -20 -928 -11 -74 -27 -157 -35 -185 l-15
        -50 5 45 c2 25 1 36 -2 25 -21 -75 -73 -254 -79 -270 l-7 -20 17 20 c15 19 15
        17 0 -20 -18 -46 -30 -62 -19 -26 5 16 4 21 -4 17 -6 -4 -11 -13 -11 -20 0
        -18 -71 -161 -119 -240 -43 -71 -47 -81 -31 -71 16 10 11 -1 -7 -16 -15 -12
        -16 -12 -8 1 8 13 7 13 -8 1 -20 -16 -23 -36 -4 -25 8 5 8 2 -2 -9 -16 -20
        -26 -23 -15 -4 5 8 2 8 -9 -2 -20 -16 -23 -36 -4 -25 6 4 3 -2 -7 -14 -23 -26
        -34 -29 -15 -4 7 9 -1 4 -19 -12 -34 -31 -44 -57 -14 -36 9 7 -21 -25 -68 -70
        -170 -164 -374 -277 -625 -345 -225 -61 -111 -58 -1930 -65 -1495 -6 -1680 -8
        -1766 -23 -411 -71 -699 -202 -949 -432 l-95 -87 92 89 c106 103 205 175 347
        249 56 30 98 54 93 54 -18 0 -170 -83 -254 -139 -87 -58 -293 -243 -293 -263
        0 -5 6 -6 13 -2 6 4 3 -2 -7 -14 -23 -26 -34 -29 -15 -4 11 14 10 13 -9 -2
        -22 -19 -31 -43 -12 -31 16 10 11 -1 -7 -16 -11 -10 -14 -10 -9 -1 17 29 -6 8
        -34 -30 -31 -42 -39 -65 -18 -52 7 4 8 3 4 -5 -4 -6 -11 -9 -16 -6 -11 7 -62
        -86 -55 -102 3 -9 0 -11 -7 -7 -8 5 -9 2 -5 -9 3 -9 2 -16 -4 -14 -11 2 -74
        -145 -83 -195 -5 -27 -4 -29 4 -10 19 44 17 20 -6 -70 -54 -213 -55 -236 -52
        -1861 2 -824 0 -1488 -4 -1475 -4 13 -4 1 -1 -27 3 -27 9 -59 14 -70 5 -13 7
        -4 4 25 l-5 45 15 -55 c17 -66 17 -69 5 -50 -16 25 -12 -9 6 -45 8 -16 12 -21
        9 -10 -9 28 9 7 23 -30 12 -28 11 -29 -4 -10 -16 20 -16 19 -9 -5 14 -48 76
        -161 85 -155 5 3 12 0 16 -6 4 -8 3 -9 -4 -5 -15 9 -15 1 -1 -25 5 -11 14 -17
        19 -14 5 3 12 0 16 -6 5 -8 3 -9 -6 -4 -8 5 -11 3 -8 -6 3 -8 10 -14 15 -14 6
        0 15 -4 20 -9 5 -5 2 -6 -6 -1 -9 5 -12 4 -10 -4 3 -7 7 -11 10 -9 12 6 38
        -24 33 -37 -8 -19 191 -217 291 -291 109 -81 205 -142 205 -130 0 2 -30 22
        -67 45 -38 22 -81 52 -98 66 -16 14 8 1 55 -30 396 -259 957 -419 1690 -480
        174 -15 1169 -40 1179 -30 2 3 -45 6 -105 7 -60 1 -82 3 -49 5 1072 49 1780
        258 2200 652 59 55 62 57 20 12 -101 -107 -239 -204 -429 -303 -72 -37 -127
        -68 -123 -68 12 0 182 86 252 128 101 60 206 141 293 225 74 73 103 111 70 91
        -7 -4 -4 2 6 14 23 26 34 29 15 4 -11 -14 -10 -13 9 2 23 20 31 43 10 30 -7
        -5 -8 -3 -4 5 5 7 11 10 14 7 7 -7 32 13 32 26 0 5 -5 6 -12 2 -7 -4 -8 -3 -4
        5 4 6 11 9 16 6 5 -3 14 3 19 14 14 26 14 34 -1 25 -8 -4 -10 -3 -5 2 5 5 14
        9 20 9 18 0 84 161 101 247 14 67 16 178 14 825 l-3 748 -5 -760 -5 -760 -3
        758 -2 757 -1462 2 -1463 3 1460 5 1460 5 -1447 3 -1448 2 0 180 0 180 2163 2
        c1766 3 2174 6 2225 17 35 7 61 15 59 18 -3 2 -29 -1 -58 -8 -42 -10 -527 -13
        -2234 -14 l-2180 0 2175 5 2175 5 105 24 c150 33 269 74 398 136 61 30 112 52
        112 49 0 -11 -248 -123 -318 -144 -40 -12 -71 -24 -69 -26 17 -17 334 119 434
        186 85 58 213 155 213 163 0 4 -25 -13 -55 -37 -70 -58 -195 -143 -195 -133 0
        2 31 25 68 50 38 25 93 65 123 89 30 25 59 43 65 41 12 -4 224 213 224 229 0
        5 -6 6 -12 2 -7 -4 -4 2 6 14 23 26 34 29 15 5 -11 -15 -10 -14 9 1 23 20 31
        42 10 30 -8 -4 -10 -3 -5 2 5 5 12 9 15 9 13 0 32 16 32 27 0 6 -7 5 -17 -3
        -16 -11 -16 -11 -5 1 7 8 18 15 24 15 6 0 13 6 16 14 3 9 0 11 -9 6 -8 -5 -11
        -4 -6 1 5 5 14 9 20 9 5 0 12 6 15 14 3 9 0 11 -9 6 -8 -5 -11 -4 -6 1 5 5 14
        9 20 9 5 0 12 6 15 14 3 9 0 11 -8 6 -9 -5 -11 -4 -6 4 4 6 11 9 16 6 5 -3 14
        3 19 14 14 26 14 34 -1 25 -7 -4 -8 -3 -4 5 4 6 11 9 16 6 12 -8 63 93 54 107
        -4 7 -3 8 5 4 19 -12 136 260 196 459 58 192 92 338 64 280 -9 -18 -9 -18 -5
        3 3 13 13 72 23 130 15 89 19 101 24 72 3 -19 6 420 6 975 0 556 -3 994 -6
        975 -5 -30 -8 -21 -20 54 -7 49 -26 146 -42 215 -31 134 -36 170 -14 106 14
        -40 14 -40 9 -5 -10 64 -47 181 -54 170 -4 -6 -11 5 -17 25 -6 19 -7 33 -2 29
        5 -3 9 -12 9 -21 0 -9 3 -14 6 -10 7 6 -44 167 -53 167 -3 0 -2 -8 2 -17 11
        -30 -10 0 -23 32 -11 28 -11 28 3 11 20 -26 19 -19 -7 51 -21 58 -47 100 -33
        56 10 -34 -1 -28 -14 7 -6 18 -6 28 -1 25 14 -9 13 -4 -16 59 -14 31 -30 54
        -35 51 -5 -4 -6 2 -2 11 4 10 2 15 -4 11 -5 -3 -9 4 -9 16 1 12 -4 22 -11 22
        -6 0 -15 4 -20 9 -5 5 -3 6 5 2 16 -9 15 -1 -3 35 -9 16 -20 27 -25 24 -6 -3
        -7 1 -4 9 6 17 -24 68 -36 61 -5 -3 -12 0 -16 6 -5 8 -3 9 6 4 8 -5 11 -3 8 6
        -3 8 -10 14 -16 14 -5 0 -14 4 -19 9 -5 5 -2 6 6 1 9 -5 12 -3 9 6 -3 8 -10
        14 -16 14 -5 0 -14 4 -19 9 -5 5 -2 6 6 1 9 -5 12 -3 9 6 -3 8 -10 14 -16 14
        -5 0 -14 4 -19 9 -5 5 -2 6 6 1 9 -5 12 -3 9 6 -3 8 -10 13 -16 12 -5 -1 -16
        5 -24 15 -12 15 -11 16 5 3 28 -22 20 3 -10 30 -20 18 -24 19 -13 4 14 -18 14
        -19 -2 -7 -9 8 -14 20 -11 28 9 23 -256 279 -362 351 -49 33 -106 68 -125 77
        -19 9 -26 11 -16 4 11 -7 67 -44 125 -83 69 -45 144 -107 216 -178 l110 -110
        -110 104 c-107 100 -244 203 -332 248 -24 12 -42 26 -40 32 1 6 -8 15 -21 20
        -15 6 -21 5 -17 -1 3 -6 14 -10 23 -11 9 0 12 -3 5 -5 -6 -3 -33 6 -60 19 -55
        28 -175 67 -283 93 -66 15 -147 18 -662 21 l-588 4 0 -793z m-1510 -6219 c76
        -17 163 -65 225 -124 33 -31 54 -54 48 -50 -19 9 -16 -10 4 -26 11 -10 14 -10
        9 -1 -11 18 -1 15 15 -5 12 -14 12 -16 0 -9 -9 6 -12 5 -9 -5 3 -8 11 -13 17
        -11 7 1 10 -2 7 -7 -3 -5 3 -30 13 -55 11 -25 23 -62 27 -83 7 -35 8 -36 14
        -13 6 21 8 17 15 -24 9 -59 1 -201 -14 -236 -9 -22 -10 -20 -6 15 l5 40 -13
        -45 c-8 -25 -19 -56 -26 -68 -7 -13 -10 -30 -7 -38 3 -8 2 -13 -3 -10 -5 3
        -16 -5 -25 -19 -21 -32 -20 -41 2 -24 15 13 16 12 3 -4 -8 -9 -16 -15 -19 -12
        -7 7 -32 -15 -32 -27 0 -6 7 -5 15 2 29 24 15 3 -22 -31 -20 -18 -33 -28 -29
        -21 11 19 0 15 -46 -18 -24 -17 -70 -41 -103 -55 -33 -13 -53 -25 -45 -25 18
        0 111 42 153 71 l32 21 -25 -22 c-67 -60 -191 -100 -305 -100 -133 0 -255 48
        -351 137 -27 25 -41 40 -31 33 25 -18 21 3 -5 26 -12 10 -18 13 -14 7 10 -19
        1 -16 -15 4 -12 14 -12 16 0 9 9 -6 12 -4 9 5 -3 8 -10 14 -16 14 -5 0 -14 4
        -19 9 -5 6 -2 6 6 1 10 -6 13 -4 8 6 -57 131 -61 146 -65 241 -3 79 0 110 17
        168 12 39 19 76 15 82 -4 7 -3 8 4 4 7 -4 19 9 31 32 11 21 27 44 35 51 22 18
        20 37 -1 21 -10 -7 8 12 39 42 61 58 137 102 215 123 58 16 201 18 263 4z"/>
        <path d="M9292 8190 c-1 -432 -4 -810 -7 -840 l-4 -55 9 53 c6 33 9 362 7 840
        l-2 787 -3 -785z"/>
        <path d="M7595 6197 c-98 -20 -135 -21 -1720 -27 l-1620 -6 1620 1 1620 1 115
        23 c109 22 146 32 104 30 -10 -1 -64 -11 -119 -22z"/>
        <path d="M6218 5860 c-900 -3 -1639 -7 -1641 -10 -9 -9 3240 0 3300 9 42 6 47
        8 18 7 -22 0 -777 -3 -1677 -6z"/>
        <path d="M3095 2905 c0 -825 1 -1161 2 -747 2 415 2 1090 0 1500 -1 411 -2 72
        -2 -753z"/>
    </g>
</svg>
