<?xml version="1.0" standalone="no"?>
<!DOCTYPE svg PUBLIC "-//W3C//DTD SVG 20010904//EN"
 "http://www.w3.org/TR/2001/REC-SVG-20010904/DTD/svg10.dtd">
<svg version="1.0" xmlns="http://www.w3.org/2000/svg"
 width="1222.000000pt" height="900.000000pt" viewBox="0 0 1222.000000 900.000000"
 preserveAspectRatio="xMidYMid meet">
    <g transform="translate(0.000000,900.000000) scale(0.100000,-0.100000)"
    fill="#8D8F92" stroke="none">
        <path d="M842 8157 l-842 -842 0 -3658 0 -3657 5273 0 5272 0 838 838 837 837
        0 3663 0 3662 -5268 0 -5267 0 -843 -843z m4193 -767 c346 -52 601 -144 830
        -298 427 -287 688 -834 790 -1657 63 -513 55 -1207 -20 -1705 -100 -665 -331
        -1118 -712 -1398 -35 -25 -62 -51 -59 -57 2 -6 146 -239 320 -519 174 -280
        316 -512 316 -515 0 -6 -769 -366 -782 -366 -4 0 -161 252 -349 560 -187 308
        -342 561 -342 562 -1 1 -26 -5 -56 -13 -87 -22 -350 -37 -536 -30 -612 24
        -1036 156 -1357 422 -310 259 -528 738 -622 1369 -85 566 -81 1324 10 1875 93
        572 291 1027 563 1299 264 263 655 432 1116 480 55 6 116 13 135 15 19 2 166
        3 325 1 233 -3 317 -7 430 -25z m3575 -830 l0 -560 535 0 535 0 0 -355 0 -355
        -532 -2 -533 -3 -3 -840 c-4 -1266 12 -1469 130 -1569 91 -78 175 -88 591 -71
        183 7 334 12 336 9 8 -8 41 -658 34 -665 -8 -6 -294 -55 -478 -81 -121 -17
        -527 -17 -625 0 -525 93 -709 305 -796 918 -15 105 -18 251 -21 1207 l-4 1087
        -294 0 -295 0 0 360 0 360 295 0 295 0 0 560 0 560 415 0 415 0 0 -560z"/>
        <path d="M4286 6654 c-382 -59 -629 -234 -777 -549 -105 -224 -172 -523 -211
        -940 -17 -186 -17 -834 0 -1020 61 -662 190 -1015 443 -1217 121 -96 259 -156
        459 -199 93 -21 134 -23 350 -24 258 0 330 8 495 57 237 69 420 211 528 408
        112 204 192 538 227 945 18 212 24 647 11 880 -68 1243 -397 1679 -1266 1674
        -93 -1 -210 -7 -259 -15z"/>
    </g>
</svg>
