<?xml version="1.0" standalone="no"?>
<!DOCTYPE svg PUBLIC "-//W3C//DTD SVG 20010904//EN"
 "http://www.w3.org/TR/2001/REC-SVG-20010904/DTD/svg10.dtd">
<svg version="1.0" xmlns="http://www.w3.org/2000/svg"
 width="512.000000pt" height="512.000000pt" viewBox="0 0 512.000000 512.000000"
 preserveAspectRatio="xMidYMid meet">

<g transform="translate(0.000000,512.000000) scale(0.100000,-0.100000)"
fill="#8D8F92" stroke="none">
<path d="M1772 4624 c-18 -13 -29 -14 -54 -5 -44 16 -84 14 -121 -6 -18 -9
-51 -17 -75 -19 -23 -1 -51 -9 -61 -18 -11 -10 -36 -16 -67 -16 -48 0 -125
-27 -138 -49 -4 -6 -21 -11 -37 -11 -43 0 -95 -24 -114 -53 -11 -17 -16 -45
-15 -84 0 -32 -2 -76 -5 -99 -5 -31 -2 -51 13 -80 14 -28 17 -45 11 -62 -10
-28 8 -78 39 -106 15 -13 20 -26 16 -46 -7 -32 20 -96 48 -113 10 -7 18 -23
18 -40 0 -19 14 -43 44 -75 24 -26 53 -65 64 -87 24 -48 46 -69 94 -89 21 -9
44 -30 56 -51 19 -31 50 -52 106 -69 14 -5 2 -17 -55 -54 -179 -117 -270 -279
-286 -508 -7 -93 -18 -116 -78 -164 -135 -107 -235 -322 -235 -505 0 -127 39
-247 122 -369 27 -40 46 -84 59 -135 10 -42 29 -109 43 -150 15 -41 26 -83 26
-93 0 -40 53 -176 96 -245 58 -94 184 -212 272 -255 37 -18 99 -57 137 -86 39
-29 126 -80 195 -113 153 -75 135 -64 206 -122 79 -65 164 -111 254 -139 62
-19 96 -23 200 -22 110 0 135 3 205 28 91 31 170 76 252 145 32 26 83 58 113
70 99 41 193 95 279 158 47 35 91 63 97 63 27 0 165 103 226 169 77 84 135
190 162 296 10 39 40 139 68 224 42 129 58 163 94 208 95 116 138 239 137 388
0 126 -32 230 -101 336 -44 67 -142 169 -162 169 -23 0 -48 69 -53 147 -17
226 -114 394 -296 512 -51 32 -60 42 -45 47 55 17 86 37 104 66 11 18 41 44
67 58 28 14 56 39 68 59 11 18 40 52 64 75 45 43 71 83 71 112 0 9 16 34 35
55 26 29 35 48 35 73 0 19 11 56 25 82 14 27 25 64 25 86 0 21 7 50 16 64 13
19 15 37 10 77 -8 61 -8 69 0 125 4 31 2 49 -11 68 -17 27 -70 54 -105 54 -12
0 -37 12 -55 26 -25 19 -51 27 -97 32 -40 3 -73 13 -90 25 -19 14 -37 18 -65
15 -24 -3 -53 2 -78 13 -44 21 -100 24 -139 9 -20 -7 -35 -5 -61 7 -31 15 -41
15 -78 4 -23 -7 -69 -14 -102 -15 -39 -1 -69 -7 -85 -19 -13 -9 -42 -17 -63
-17 -46 0 -96 -22 -128 -56 -13 -14 -34 -24 -50 -24 -59 0 -204 -170 -254
-297 -16 -41 -35 -57 -35 -31 0 6 -18 48 -39 93 -60 124 -171 235 -234 235
-13 0 -34 11 -46 24 -32 34 -82 56 -125 56 -19 0 -54 9 -76 21 -29 15 -50 19
-73 15 -20 -4 -51 0 -77 9 -54 19 -80 19 -108 -1z m29 -150 c21 -13 41 -24 44
-24 10 0 5 46 -7 58 -29 29 39 -2 109 -50 42 -28 42 -28 53 -8 6 12 8 31 4 43
-4 15 12 5 53 -36 33 -32 62 -54 66 -51 4 4 7 21 7 38 1 31 1 31 64 -36 35
-38 67 -68 70 -68 3 0 6 12 6 26 0 36 13 28 65 -41 119 -159 153 -307 92 -407
-22 -37 -81 -88 -102 -88 -6 0 -46 27 -90 60 -167 128 -384 243 -630 331 -93
33 -89 30 70 -58 268 -147 575 -375 575 -426 0 -33 -54 -120 -92 -149 -75 -57
-171 -90 -299 -103 -75 -7 -132 2 -105 17 34 19 17 36 -41 43 -32 3 -71 9 -86
12 -28 5 -28 5 -8 20 27 18 21 28 -27 44 -59 18 -142 60 -142 70 0 5 11 9 24
9 47 0 34 16 -51 64 -61 35 -81 51 -72 57 8 5 22 9 32 9 28 0 18 14 -51 69
l-63 50 38 3 38 3 -52 57 c-28 31 -56 65 -62 75 -9 17 -7 19 19 15 15 -2 36 0
45 6 15 8 11 14 -28 41 -44 30 -77 66 -77 83 0 5 16 8 35 8 43 0 44 10 7 83
l-29 56 95 3 94 3 -21 27 c-12 14 -21 29 -21 33 0 9 169 0 193 -10 13 -5 17
-2 17 12 0 10 -5 24 -12 31 -16 16 -15 16 71 -8 54 -15 77 -18 85 -10 8 8 4
18 -16 35 -16 13 -28 26 -28 29 0 10 105 -27 141 -50z m1499 41 c0 -3 -6 -14
-12 -25 -23 -37 3 -41 68 -9 34 16 77 32 95 35 l34 7 -22 -25 c-19 -20 -31
-48 -20 -48 1 0 34 9 72 20 87 25 92 25 71 1 -29 -32 -12 -41 47 -25 55 15
115 18 142 8 14 -6 13 -9 -6 -30 l-22 -24 91 0 c51 0 92 -2 92 -5 0 -2 -13
-24 -29 -47 -16 -24 -32 -53 -36 -65 -6 -21 -3 -23 29 -23 22 0 36 -5 36 -12
0 -22 -38 -76 -69 -99 -47 -35 -41 -53 15 -45 l45 6 -20 -28 c-10 -15 -38 -45
-60 -67 -23 -21 -41 -42 -41 -46 0 -4 14 -9 31 -11 l31 -3 -66 -54 c-36 -30
-66 -58 -66 -62 0 -4 17 -10 37 -14 l37 -7 -24 -18 c-13 -10 -55 -33 -92 -51
-37 -18 -68 -37 -68 -41 0 -5 10 -12 21 -16 18 -7 13 -12 -37 -34 -33 -15 -71
-30 -87 -33 -22 -6 -25 -10 -16 -21 6 -8 19 -14 28 -14 14 -1 14 -2 -2 -14
-10 -8 -57 -17 -103 -21 -46 -4 -87 -12 -91 -18 -3 -5 5 -18 18 -29 l24 -20
-105 6 c-175 9 -292 53 -364 137 -19 23 -41 58 -47 77 l-12 36 74 71 c111 106
278 220 538 367 58 33 99 58 91 55 -8 -3 -62 -24 -120 -47 -222 -88 -442 -208
-583 -316 -31 -24 -62 -44 -69 -44 -23 0 -79 52 -100 93 -29 56 -28 151 2 230
24 63 103 188 143 225 l24 23 7 -33 7 -33 64 70 c57 62 65 67 65 45 0 -14 4
-31 9 -39 7 -11 13 -8 26 13 10 15 38 41 63 58 41 28 44 29 37 8 -4 -14 -1
-28 10 -40 15 -17 19 -16 81 26 61 41 84 52 84 39z m-620 -1060 c214 -57 356
-217 296 -333 -83 -159 -474 -215 -699 -100 -48 24 -114 84 -133 119 -33 64
-13 120 69 195 123 113 311 161 467 119z m-637 -85 c32 -31 -196 -270 -416
-436 -109 -82 -183 -124 -222 -124 -24 0 -25 2 -25 73 0 305 246 521 570 501
47 -3 89 -9 93 -14z m1282 -20 c217 -56 349 -220 371 -465 11 -119 -25 -122
-185 -15 -204 137 -481 408 -481 470 0 23 19 27 131 29 57 1 112 -6 164 -19z
m-202 -405 c178 -37 328 -179 391 -368 60 -179 30 -360 -79 -476 -59 -63 -127
-93 -227 -99 -92 -5 -160 9 -248 53 -87 44 -154 105 -212 194 -62 95 -88 179
-88 286 0 214 120 379 301 414 64 13 87 12 162 -4z m-883 -41 c143 -64 235
-243 215 -417 -39 -356 -359 -597 -646 -488 -281 107 -314 544 -60 783 155
146 337 191 491 122z m1586 -277 c108 -79 172 -202 181 -344 10 -142 -31 -276
-112 -370 -42 -50 -74 -55 -110 -19 -123 123 -185 651 -89 757 27 30 66 23
130 -24z m-2467 23 c86 -46 75 -422 -19 -673 -22 -60 -77 -127 -102 -127 -22
0 -93 80 -122 139 -95 186 -65 416 72 564 53 57 118 107 139 107 8 0 22 -4 32
-10z m1336 -604 c111 -30 200 -89 265 -175 55 -73 75 -138 75 -246 0 -80 -4
-97 -32 -158 -140 -295 -545 -357 -782 -120 -81 81 -113 154 -119 264 -7 133
36 238 133 328 48 44 144 96 203 110 58 14 202 12 257 -3z m1005 -141 c59 -31
100 -159 100 -315 0 -174 -39 -269 -165 -396 -109 -109 -200 -156 -319 -162
-50 -3 -98 0 -120 8 -121 40 -145 190 -65 401 43 112 98 191 213 305 150 149
271 203 356 159z m-2074 -124 c131 -61 259 -187 320 -315 65 -135 81 -293 37
-368 -31 -54 -74 -70 -174 -66 -122 6 -213 50 -319 156 -120 120 -175 259
-168 422 4 109 26 156 89 188 57 30 126 25 215 -17z m1154 -755 c149 -32 240
-88 240 -147 0 -57 -148 -177 -287 -234 -96 -39 -233 -46 -329 -17 -164 50
-319 181 -301 254 13 52 179 125 332 147 95 14 274 12 345 -3z"/>
</g>
</svg>
