<?xml version="1.0" standalone="no"?>
<!DOCTYPE svg PUBLIC "-//W3C//DTD SVG 20010904//EN"
 "http://www.w3.org/TR/2001/REC-SVG-20010904/DTD/svg10.dtd">
<svg version="1.0" xmlns="http://www.w3.org/2000/svg"
 width="600.000000pt" height="600.000000pt" viewBox="0 0 600.000000 600.000000"
 preserveAspectRatio="xMidYMid meet">

<g transform="translate(0.000000,600.000000) scale(0.100000,-0.100000)"
fill="#8D8F92" stroke="none">
<path d="M2271 5708 c-83 -32 -167 -121 -225 -238 -83 -169 -116 -350 -116
-637 0 -95 -2 -173 -5 -173 -3 0 -51 -7 -108 -15 -349 -53 -605 -159 -753
-311 -167 -174 -150 -393 50 -634 104 -124 305 -278 489 -375 42 -22 77 -46
77 -53 0 -7 -6 -26 -14 -41 -28 -54 -95 -261 -122 -378 -35 -152 -40 -362 -11
-458 43 -139 105 -217 215 -268 58 -27 79 -31 175 -35 126 -5 209 7 347 50
106 33 318 133 425 200 l69 44 60 -75 c129 -165 317 -340 444 -414 310 -182
547 -121 691 176 85 174 121 361 121 628 l0 165 133 23 c324 56 562 157 708
300 85 84 121 156 127 254 10 155 -69 303 -250 472 -88 81 -278 214 -381 267
-34 17 -72 37 -84 45 l-21 14 29 71 c41 100 87 247 112 358 17 76 21 129 21
265 1 153 -1 176 -22 234 -68 189 -193 273 -405 272 -200 0 -443 -84 -699
-242 -53 -32 -100 -59 -105 -59 -4 1 -28 28 -53 62 -62 84 -270 293 -355 356
-85 63 -220 134 -297 156 -79 23 -199 20 -267 -6z m227 -177 c162 -50 355
-204 537 -430 32 -40 54 -75 49 -80 -5 -4 -56 -46 -114 -93 -58 -47 -148 -126
-201 -176 l-95 -90 -160 10 c-87 5 -212 8 -276 6 l-117 -4 -7 45 c-10 65 3
321 21 421 37 210 109 350 200 391 51 24 88 24 163 0z m1644 -281 c155 -44
198 -274 113 -610 -28 -109 -103 -320 -114 -320 -4 0 -72 24 -152 54 -79 29
-195 68 -257 87 l-113 33 -73 142 c-41 77 -102 187 -136 244 -49 80 -59 105
-48 112 286 192 619 302 780 258z m-898 -451 c31 -52 136 -238 136 -243 0 -1
-62 11 -137 26 -76 15 -178 32 -228 39 -49 6 -92 13 -94 15 -9 8 259 234 274
230 5 -1 27 -31 49 -67z m-755 -326 c-8 -10 -46 -54 -84 -98 -39 -44 -99 -117
-135 -162 -40 -51 -67 -78 -71 -70 -9 16 -59 292 -59 323 l0 24 181 0 c171 0
181 -1 168 -17z m-535 -35 c22 -132 60 -329 79 -409 l24 -96 -88 -138 c-48
-76 -113 -184 -144 -241 -32 -57 -60 -104 -64 -104 -3 0 -53 27 -109 60 -287
165 -478 357 -513 516 -10 46 -10 60 6 101 56 146 312 270 695 336 14 2 44 5
67 6 40 1 42 -1 47 -31z m1056 -5 c152 -22 341 -59 433 -84 36 -9 42 -16 73
-85 61 -134 224 -589 224 -625 0 -33 -451 -568 -487 -577 -36 -9 -692 104
-726 125 -25 15 -169 381 -231 588 l-37 119 22 31 c107 147 289 365 403 483
l61 62 50 -6 c27 -3 124 -17 215 -31z m816 -197 c116 -39 234 -86 234 -93 0
-5 -99 -178 -146 -255 -16 -26 -32 -48 -36 -48 -3 0 -21 44 -39 98 -18 53 -52
147 -76 207 -40 103 -47 125 -40 125 2 0 48 -15 103 -34z m679 -324 c191 -127
345 -308 361 -424 24 -171 -263 -346 -686 -417 -63 -11 -115 -19 -116 -18 -1
1 -14 67 -28 147 -15 80 -40 199 -56 266 -17 67 -30 126 -30 132 0 6 36 66 80
133 44 67 108 171 141 231 l61 109 87 -46 c47 -26 131 -76 186 -113z m-2331
-357 c25 -72 61 -168 80 -215 19 -47 33 -86 31 -88 -3 -4 -253 80 -308 103
-20 8 -37 19 -37 23 0 9 155 278 173 300 5 7 11 11 13 9 2 -1 23 -61 48 -132z
m1636 -162 c0 -5 14 -73 30 -153 43 -211 47 -197 -52 -205 -46 -3 -129 -3
-185 2 l-102 8 115 135 c64 74 130 154 147 178 28 39 47 53 47 35z m-1822
-238 c67 -25 183 -63 259 -85 75 -22 137 -41 139 -43 1 -1 32 -60 69 -132 38
-71 99 -181 136 -243 l68 -113 -52 -33 c-309 -197 -641 -283 -794 -204 -39 20
-54 35 -78 83 -27 53 -30 70 -33 170 -4 116 10 221 49 365 25 91 98 280 108
280 4 0 62 -20 129 -45z m782 -209 c69 -14 163 -30 210 -36 47 -6 91 -13 98
-16 13 -4 -107 -119 -210 -200 l-58 -45 -33 53 c-44 70 -147 252 -147 261 0
10 1 10 140 -17z m867 -94 l258 -7 -1 -165 c-3 -345 -85 -597 -221 -677 -39
-22 -52 -25 -108 -21 -119 10 -258 92 -417 246 -83 80 -216 235 -226 261 -1 5
46 49 105 99 59 49 153 133 208 185 79 76 105 94 122 90 12 -3 138 -8 280 -11z"/>
<path d="M2893 4126 c-101 -33 -178 -100 -230 -198 -25 -48 -28 -62 -28 -158
0 -127 17 -171 96 -255 146 -155 383 -159 533 -9 183 183 126 493 -112 602
-69 31 -192 40 -259 18z"/>
<path d="M1135 1318 c-3 -13 -4 -250 -3 -528 l3 -505 68 -3 67 -3 0 206 0 205
108 0 107 0 130 -205 130 -205 79 0 c64 0 77 3 73 14 -3 8 -65 103 -136 210
-72 108 -131 198 -131 201 0 3 10 5 23 5 36 0 121 45 162 85 50 50 77 115 83
196 12 172 -94 309 -262 338 -34 6 -160 11 -279 11 -216 0 -217 0 -222 -22z
m510 -127 c116 -53 150 -204 68 -302 -50 -59 -88 -69 -275 -69 l-168 0 0 195
0 195 168 0 c140 0 173 -3 207 -19z"/>
<path d="M4597 1254 c-4 -4 -7 -52 -7 -106 l0 -98 -60 0 -60 0 0 -55 0 -55 59
0 60 0 3 -282 c3 -264 4 -285 24 -318 33 -57 77 -80 151 -80 62 0 143 28 143
49 0 9 -29 83 -35 90 -2 1 -14 -4 -27 -13 -35 -25 -83 -21 -107 10 -20 25 -21
39 -21 285 l0 258 78 3 77 3 0 50 0 50 -77 3 -77 3 -3 102 -3 102 -55 3 c-31
2 -59 0 -63 -4z"/>
<path d="M3185 1063 c-86 -8 -237 -80 -252 -120 -3 -7 7 -32 21 -54 l27 -40
37 32 c57 51 117 72 198 72 59 0 79 -4 117 -26 57 -34 77 -80 77 -183 l0 -75
-37 30 c-104 83 -272 91 -380 18 -130 -87 -139 -295 -17 -395 101 -83 276 -83
389 0 l40 29 3 -36 3 -35 60 0 59 0 0 298 c0 277 -2 300 -21 342 -26 58 -44
77 -100 105 -59 31 -146 45 -224 38z m117 -405 c20 -6 53 -24 72 -40 35 -29
36 -31 36 -104 0 -72 -1 -76 -32 -104 -85 -78 -245 -80 -319 -4 -29 30 -34 42
-37 97 -4 73 17 116 70 143 66 34 120 37 210 12z"/>
<path d="M4025 1059 c-209 -30 -347 -233 -315 -463 20 -139 98 -248 218 -304
45 -21 75 -27 147 -30 112 -5 182 18 252 83 l48 43 -34 36 c-19 20 -39 36 -44
36 -5 0 -27 -15 -48 -34 -101 -86 -273 -68 -353 37 -59 77 -76 213 -41 316 22
68 92 141 151 159 95 28 190 9 251 -50 l31 -30 30 20 c57 41 59 49 21 88 -42
44 -114 82 -171 89 -24 4 -52 8 -63 9 -11 2 -47 -1 -80 -5z"/>
<path d="M2253 1039 c-74 -29 -156 -106 -193 -183 -107 -217 -27 -468 178
-564 51 -24 68 -27 173 -27 113 0 117 1 190 37 41 21 83 46 94 57 17 20 17 22
-9 60 l-27 39 -50 -34 c-126 -84 -275 -83 -371 4 -45 40 -88 121 -88 165 l0
27 305 0 305 0 0 59 c0 112 -60 248 -133 304 -75 57 -116 71 -222 74 -83 3
-109 -1 -152 -18z m219 -91 c60 -18 123 -79 147 -144 38 -101 56 -94 -223 -94
-135 0 -247 3 -249 8 -9 15 21 102 48 142 59 85 170 120 277 88z"/>
</g>
</svg>
