<?xml version="1.0" standalone="no"?>
<!DOCTYPE svg PUBLIC "-//W3C//DTD SVG 20010904//EN"
 "http://www.w3.org/TR/2001/REC-SVG-20010904/DTD/svg10.dtd">
<svg version="1.0" xmlns="http://www.w3.org/2000/svg"
 width="1600.000000pt" height="1600.000000pt" viewBox="0 0 1600.000000 1600.000000"
 preserveAspectRatio="xMidYMid meet">

<g transform="translate(0.000000,1600.000000) scale(0.100000,-0.100000)"
fill="#8D8F92" stroke="none">
<path d="M1675 7573 c-386 -50 -697 -194 -961 -445 -431 -410 -606 -1017 -457
-1593 198 -766 916 -1281 1706 -1223 785 57 1421 674 1506 1460 7 60 11 422
11 953 l0 855 -887 -1 c-489 -1 -901 -4 -918 -6z"/>
<path d="M5718 7565 c-680 -97 -1221 -599 -1374 -1275 -44 -194 -46 -291 -42
-2515 l4 -2100 22 -114 c96 -499 397 -917 836 -1160 258 -143 618 -219 910
-192 756 71 1342 606 1484 1356 16 83 17 259 17 2330 0 2505 6 2285 -71 2535
-80 256 -196 450 -388 649 -241 248 -522 402 -866 472 -127 26 -399 34 -532
14z"/>
</g>
</svg>
