<svg id="svg" xmlns="http://www.w3.org/2000/svg" xmlns:xlink="http://www.w3.org/1999/xlink" width="400" height="400" viewBox="0, 0, 400,400" version="1.1"><g id="svgg"><path id="path0" d="M133.000 0.935 C 89.642 14.172,91.454 79.907,135.500 91.644 C 143.591 93.800,192.294 93.555,194.128 91.349 C 195.978 89.123,196.661 45.247,194.982 36.500 C 192.168 21.843,182.985 9.790,169.828 3.485 C 162.373 -0.088,141.162 -1.556,133.000 0.935 M237.000 1.061 C 237.000 1.543,236.325 1.678,235.500 1.362 C 234.675 1.045,234.000 1.241,234.000 1.798 C 234.000 2.355,231.863 4.052,229.250 5.571 C 226.637 7.090,222.516 9.945,220.092 11.916 C 217.667 13.887,215.417 15.500,215.092 15.500 C 214.766 15.500,214.499 16.175,214.499 17.000 C 214.498 17.825,213.973 18.500,213.332 18.500 C 212.691 18.500,211.829 18.837,211.417 19.250 C 211.004 19.662,211.218 20.000,211.892 20.000 C 212.566 20.000,212.835 20.457,212.490 21.016 C 212.144 21.575,211.413 21.755,210.864 21.416 C 210.315 21.077,209.985 21.407,210.129 22.150 C 210.518 24.149,208.983 28.108,208.044 27.527 C 205.262 25.808,202.899 156.820,205.632 161.201 C 206.078 161.916,206.553 163.208,206.688 164.073 C 207.105 166.743,208.869 170.587,208.949 169.000 C 208.990 168.175,210.172 169.525,211.576 172.000 C 212.979 174.475,216.109 178.525,218.530 181.000 C 220.951 183.475,222.914 185.939,222.891 186.475 C 222.869 187.011,223.396 187.632,224.064 187.855 C 224.851 188.117,224.997 187.774,224.479 186.880 C 224.007 186.065,224.052 185.841,224.590 186.333 C 225.090 186.792,225.502 187.692,225.505 188.333 C 225.507 188.975,226.407 189.509,227.505 189.520 C 230.307 189.548,237.000 192.218,237.000 193.308 C 237.000 193.806,237.698 193.946,238.552 193.618 C 239.406 193.291,239.849 193.435,239.538 193.938 C 239.227 194.441,241.342 195.116,244.236 195.438 C 248.730 195.939,251.996 195.835,262.000 194.878 C 262.825 194.799,264.175 194.196,265.000 193.539 C 265.825 192.881,269.030 191.136,272.121 189.661 C 279.170 186.298,285.976 180.360,290.130 173.949 C 291.894 171.227,293.759 169.000,294.275 169.000 C 294.792 169.000,294.946 168.302,294.618 167.448 C 294.229 166.434,294.425 166.144,295.181 166.612 C 295.955 167.090,296.128 166.775,295.701 165.664 C 295.350 164.749,295.442 164.000,295.906 164.000 C 297.755 164.000,298.031 155.252,298.031 96.715 C 298.031 37.761,297.593 28.000,294.943 28.000 C 293.696 28.000,290.283 20.597,290.794 19.000 C 291.058 18.175,290.922 17.828,290.492 18.229 C 290.061 18.629,286.889 16.319,283.443 13.095 C 279.996 9.871,274.662 6.003,271.588 4.499 C 268.515 2.996,266.000 1.351,266.000 0.846 C 266.000 0.323,259.749 -0.018,251.500 0.056 C 243.525 0.127,237.000 0.580,237.000 1.061 M35.510 102.175 C 22.356 104.684,9.937 114.286,3.852 126.652 L 0.500 133.465 0.500 148.983 L 0.500 164.500 3.846 170.911 C 10.339 183.353,22.469 192.293,36.500 194.978 C 40.715 195.784,59.905 196.033,101.000 195.813 L 159.500 195.500 165.500 193.103 C 189.584 183.480,201.704 157.120,193.365 132.500 C 190.540 124.158,183.773 114.404,181.700 115.685 C 181.145 116.028,180.987 115.831,181.348 115.246 C 183.052 112.489,169.389 104.615,159.131 102.440 C 151.280 100.776,44.052 100.546,35.510 102.175 M346.000 101.685 C 344.625 101.912,342.825 102.372,342.000 102.707 C 341.175 103.042,339.892 103.214,339.150 103.091 C 338.407 102.967,338.050 103.273,338.357 103.769 C 338.664 104.266,336.243 105.950,332.977 107.511 C 326.226 110.738,318.171 118.145,314.381 124.613 C 312.967 127.026,311.420 129.000,310.944 129.000 C 306.565 129.000,306.387 189.473,310.756 193.006 C 312.327 194.276,312.630 194.997,311.756 195.381 C 311.065 195.684,323.063 195.835,338.417 195.716 C 358.998 195.557,366.439 195.186,366.732 194.306 C 366.950 193.650,367.775 193.360,368.565 193.663 C 369.354 193.966,370.000 193.730,370.000 193.138 C 370.000 192.546,372.487 190.844,375.527 189.355 C 382.393 185.993,389.843 178.956,393.719 172.169 C 395.342 169.327,396.917 167.250,397.219 167.552 C 398.724 169.057,400.000 160.314,400.000 148.500 C 400.000 136.691,398.724 127.943,397.221 129.446 C 396.919 129.748,395.509 127.976,394.086 125.508 C 390.163 118.704,382.642 111.551,375.537 107.867 C 372.027 106.047,369.412 104.142,369.727 103.633 C 370.061 103.093,369.162 102.994,367.565 103.394 C 366.003 103.786,365.073 103.692,365.393 103.173 C 366.415 101.520,353.159 100.503,346.000 101.685 M32.919 205.809 C 20.056 209.214,10.020 217.335,3.645 229.500 C -1.220 238.781,-1.185 263.130,3.708 273.017 C 22.329 310.652,78.645 306.265,91.015 266.217 C 93.598 257.854,94.054 209.825,91.582 206.441 C 89.504 203.597,43.162 203.098,32.919 205.809 M136.000 205.593 C 118.659 210.199,107.239 222.178,102.484 240.751 C 99.696 251.641,100.762 362.347,103.731 370.249 C 111.431 390.740,123.960 399.246,147.289 399.821 L 162.078 400.185 169.569 396.627 C 183.218 390.146,192.530 377.792,194.933 362.981 C 196.717 351.989,196.316 247.967,194.460 240.093 C 188.342 214.136,162.111 198.656,136.000 205.593 M240.118 205.533 C 236.609 206.300,232.819 207.732,231.697 208.714 C 230.574 209.696,229.987 209.934,230.392 209.242 C 230.974 208.248,230.598 208.226,228.595 209.139 C 227.202 209.773,226.300 210.677,226.590 211.146 C 226.881 211.616,226.372 212.000,225.460 212.000 C 224.548 212.000,222.416 213.463,220.721 215.250 C 219.026 217.037,218.015 217.868,218.474 217.095 C 219.043 216.138,218.936 215.921,218.138 216.415 C 217.494 216.813,217.204 217.521,217.493 217.989 C 217.783 218.457,216.552 220.047,214.760 221.522 C 212.967 222.997,212.175 223.899,213.000 223.527 C 214.167 223.002,214.144 223.146,212.896 224.179 C 203.969 231.568,201.582 262.168,209.134 272.393 C 210.309 273.984,210.647 274.963,209.885 274.569 C 209.123 274.174,209.220 274.448,210.099 275.176 C 210.979 275.904,211.789 276.817,211.900 277.205 C 212.100 277.902,215.623 282.190,219.500 286.455 C 222.315 289.550,229.171 294.012,230.167 293.397 C 230.625 293.114,231.000 293.276,231.000 293.758 C 231.000 297.728,240.670 298.381,301.000 298.487 C 367.353 298.603,373.786 297.949,380.687 290.391 C 381.684 289.299,382.275 288.894,382.000 289.492 C 381.725 290.089,382.625 289.418,384.000 288.000 C 385.375 286.582,386.058 286.115,385.517 286.961 C 384.871 287.972,385.292 287.854,386.744 286.616 C 387.959 285.580,388.733 284.377,388.465 283.943 C 388.196 283.508,389.262 282.238,390.832 281.119 C 401.507 273.518,403.722 236.156,394.082 226.296 C 392.662 224.843,392.175 223.990,393.000 224.400 C 393.825 224.809,393.150 223.938,391.500 222.463 C 389.850 220.987,389.175 220.145,390.000 220.590 C 390.825 221.035,389.938 219.735,388.030 217.700 C 384.455 213.888,383.317 213.067,384.638 215.250 C 385.054 215.938,383.901 215.017,382.075 213.205 C 380.250 211.393,378.510 210.156,378.209 210.457 C 377.908 210.758,376.951 210.391,376.081 209.640 C 370.382 204.723,368.321 204.569,305.500 204.346 C 258.133 204.179,245.242 204.413,240.118 205.533 M205.927 308.587 C 205.283 309.364,205.125 310.000,205.578 310.000 C 206.030 310.000,205.860 310.540,205.200 311.200 C 202.322 314.078,203.876 362.701,207.094 370.500 C 207.775 372.150,208.370 373.775,208.416 374.112 C 208.700 376.186,217.461 388.249,219.745 389.710 C 221.260 390.679,222.950 391.960,223.500 392.556 C 232.243 402.031,264.093 403.088,275.716 394.289 C 277.742 392.755,279.051 392.175,278.625 393.000 C 278.200 393.825,278.592 393.600,279.496 392.500 C 280.401 391.400,281.500 390.593,281.938 390.706 C 282.376 390.819,283.807 389.708,285.117 388.236 C 287.015 386.105,287.093 385.838,285.500 386.922 C 284.400 387.671,285.300 386.589,287.500 384.518 C 289.700 382.448,290.825 381.067,290.000 381.451 C 289.060 381.888,289.153 381.613,290.250 380.714 C 291.212 379.925,292.000 378.515,292.000 377.581 C 292.000 376.646,292.450 376.160,293.000 376.500 C 293.550 376.840,294.056 376.641,294.125 376.059 C 294.304 374.542,294.528 373.837,295.814 370.737 C 299.826 361.067,299.122 342.916,294.368 333.500 C 291.559 327.934,290.472 326.518,284.024 320.017 C 280.488 316.452,277.988 314.202,278.470 315.017 C 278.951 315.833,278.149 315.330,276.686 313.900 C 270.244 307.601,210.471 303.113,205.927 308.587 M282.000 317.313 C 282.000 317.485,283.462 318.948,285.250 320.563 L 288.500 323.500 285.563 320.250 C 282.825 317.221,282.000 316.540,282.000 317.313 " stroke="none" fill="#8D8F92" fill-rule="evenodd"></path></g></svg>