<?xml version="1.0" standalone="no"?>
<!DOCTYPE svg PUBLIC "-//W3C//DTD SVG 20010904//EN"
 "http://www.w3.org/TR/2001/REC-SVG-20010904/DTD/svg10.dtd">
<svg version="1.0" xmlns="http://www.w3.org/2000/svg"
 width="1500.000000pt" height="664.000000pt" viewBox="0 0 1500.000000 664.000000"
 preserveAspectRatio="xMidYMid meet">

<g transform="translate(0.000000,664.000000) scale(0.100000,-0.100000)"
fill="#8D8F92" stroke="none">
<path d="M2993 5980 c-264 -28 -523 -102 -523 -150 0 -18 26 -22 480 -60 381
-33 501 -60 559 -125 75 -86 45 -195 -108 -392 -93 -120 -218 -237 -476 -445
-121 -97 -246 -203 -278 -235 -49 -50 -55 -61 -45 -75 12 -15 20 -14 96 8 161
47 425 190 621 336 53 40 152 126 220 193 419 408 481 694 183 844 -159 80
-491 126 -729 101z"/>
<path d="M3978 4785 c-105 -17 -213 -52 -316 -104 -179 -91 -224 -203 -151
-374 55 -130 150 -264 377 -530 311 -365 387 -507 321 -591 -26 -33 -59 -50
-136 -70 -100 -26 -190 -34 -598 -56 -397 -21 -495 -34 -495 -65 0 -8 22 -26
48 -39 43 -22 81 -27 328 -50 603 -55 729 -55 934 -1 159 43 261 110 312 207
18 35 23 59 22 123 0 150 -44 224 -370 610 -264 314 -306 369 -345 450 -34 70
-39 156 -13 193 42 61 156 82 559 102 121 6 258 17 305 25 47 8 88 15 91 15 4
0 9 8 12 19 3 14 -9 25 -58 49 -165 81 -581 125 -827 87z"/>
<path d="M2171 4295 c-205 -28 -432 -86 -480 -124 -67 -52 21 -69 379 -75 420
-7 698 -62 768 -151 74 -94 47 -249 -70 -408 -137 -185 -276 -318 -458 -439
-161 -107 -426 -228 -500 -228 -109 0 -67 153 144 525 139 243 173 313 191
387 8 34 13 64 11 66 -6 5 -87 -37 -123 -64 -33 -25 -257 -356 -523 -774 -143
-223 -260 -447 -260 -495 0 -60 77 -54 330 21 526 158 1015 437 1341 763 155
157 256 311 313 483 48 142 32 232 -54 319 -88 89 -222 145 -445 185 -125 22
-430 27 -564 9z"/>
<path d="M2827 1889 c-153 -22 -257 -146 -257 -303 0 -63 34 -139 83 -188 19
-19 107 -85 196 -147 186 -129 224 -161 257 -213 37 -58 32 -72 -33 -98 -54
-22 -74 -24 -283 -25 -124 -1 -235 -5 -248 -9 -39 -13 -55 -59 -47 -138 l7
-69 332 3 c371 3 368 3 449 77 95 88 127 258 72 375 -23 48 -65 88 -174 163
-199 138 -309 223 -334 262 -15 23 -27 44 -27 49 0 5 23 16 51 25 41 14 93 17
250 17 109 0 221 5 248 11 83 17 104 64 85 182 l-7 37 -281 -1 c-154 -1 -307
-5 -339 -10z"/>
<path d="M4220 1888 c-171 -13 -311 -77 -425 -192 -121 -122 -184 -280 -206
-517 -18 -188 13 -302 109 -398 96 -96 233 -144 412 -144 126 0 203 17 315 73
192 94 323 262 382 488 34 131 36 287 5 382 -74 229 -276 334 -592 308z m189
-194 c114 -33 186 -147 184 -289 -1 -87 -51 -286 -93 -372 -77 -157 -257 -239
-445 -204 -126 23 -193 81 -221 190 -14 55 -14 80 -5 173 13 118 48 252 85
326 26 51 94 120 145 146 87 45 252 59 350 30z"/>
<path d="M6223 1890 c-34 -14 -51 -49 -62 -132 -6 -42 -16 -98 -22 -125 -11
-52 -169 -913 -169 -925 0 -5 55 -8 123 -8 l123 0 108 591 c59 325 106 592
104 594 -10 8 -186 12 -205 5z"/>
<path d="M6680 1838 c0 -56 3 -68 26 -89 l26 -24 316 -5 c348 -6 363 -8 414
-68 44 -52 51 -91 45 -246 -4 -118 -9 -154 -31 -221 -52 -152 -115 -236 -216
-284 -53 -25 -62 -26 -227 -26 -94 0 -174 3 -178 6 -3 4 21 154 53 335 l58
329 -40 7 c-73 12 -150 9 -173 -7 -12 -8 -28 -34 -37 -57 -15 -40 -146 -734
-146 -773 0 -15 27 -16 358 -13 334 4 361 5 423 26 163 54 309 201 385 390 48
120 59 179 59 332 0 128 -3 152 -23 202 -46 113 -153 200 -282 227 -33 7 -204
14 -432 18 l-378 6 0 -65z"/>
<path d="M9955 1881 c-114 -33 -237 -111 -323 -205 -196 -215 -259 -554 -146
-792 33 -70 118 -162 181 -197 290 -157 708 32 856 389 79 190 84 425 13 576
-87 184 -363 293 -581 229z m291 -112 c56 -17 77 -31 124 -78 84 -84 104 -141
104 -301 -1 -145 -16 -215 -74 -335 -97 -201 -273 -316 -485 -317 -181 0 -295
73 -357 231 -28 71 -30 239 -4 346 81 339 396 545 692 454z"/>
<path d="M10911 1847 c-48 -234 -210 -1141 -206 -1148 10 -15 72 -10 89 7 19
18 21 26 41 159 24 152 54 271 79 307 17 26 31 34 66 40 128 19 193 1 226 -64
53 -105 240 -416 261 -435 27 -26 60 -29 88 -9 17 13 11 27 -118 251 -75 131
-137 241 -137 245 0 4 39 20 88 35 109 34 157 62 217 126 74 79 122 215 108
306 -14 89 -77 161 -163 187 -55 16 -246 32 -477 40 l-152 5 -10 -52z m490
-78 c111 -11 148 -26 183 -72 61 -82 -15 -261 -140 -329 -90 -49 -162 -61
-347 -61 -93 1 -171 3 -173 6 -3 3 12 98 32 212 26 144 44 215 57 231 18 23
23 24 152 24 73 0 179 -5 236 -11z"/>
<path d="M5046 1299 c-59 -325 -105 -593 -101 -597 4 -4 190 -8 415 -10 l408
-3 18 67 c20 75 14 95 -32 105 -16 4 -143 7 -281 8 -139 0 -253 4 -253 8 0 7
165 931 176 986 l6 27 -124 0 -124 0 -108 -591z"/>
<path d="M8068 1883 c-17 -4 -18 -39 -17 -566 1 -309 4 -573 8 -587 7 -23 11
-25 67 -24 101 1 103 4 258 281 157 279 203 353 219 353 8 0 34 -108 68 -280
32 -153 65 -296 75 -317 24 -49 54 -53 133 -18 45 21 62 34 72 59 7 17 114
256 236 531 239 535 247 557 188 563 -16 2 -37 -3 -46 -10 -9 -7 -99 -200
-199 -428 -236 -537 -261 -590 -275 -590 -13 0 -53 139 -110 375 -39 162 -63
212 -115 237 -38 18 -61 14 -88 -15 -11 -12 -82 -130 -157 -262 -151 -264
-187 -320 -209 -328 -14 -5 -16 54 -18 499 -3 487 -4 506 -22 520 -20 14 -36
16 -68 7z"/>
<path d="M12073 1878 c-5 -7 -56 -265 -112 -573 -57 -308 -105 -570 -108 -582
-4 -17 1 -22 26 -28 64 -14 81 8 101 125 29 172 75 386 84 392 22 15 42 7 61
-26 34 -59 434 -485 461 -492 24 -6 84 12 84 25 0 3 -110 128 -245 276 -134
149 -245 275 -245 282 0 6 73 74 163 149 387 329 442 380 454 419 l12 38 -49
-6 c-46 -6 -61 -17 -302 -223 -339 -290 -368 -311 -368 -264 0 11 16 112 35
226 19 113 35 216 35 229 0 38 -65 62 -87 33z"/>
<path d="M13173 1880 c-129 -30 -205 -228 -138 -361 10 -19 118 -135 241 -259
122 -124 228 -238 233 -253 27 -71 -2 -162 -61 -190 -25 -11 -90 -17 -267 -22
-231 -7 -235 -8 -259 -32 l-25 -25 26 -26 26 -26 238 1 c152 0 253 4 281 12
52 15 106 61 135 115 30 56 31 192 3 251 -12 24 -99 119 -218 238 -222 220
-248 258 -248 358 0 60 19 92 67 110 13 5 129 9 258 9 129 0 245 4 258 9 29
11 42 41 33 77 l-6 24 -273 -1 c-149 -1 -287 -4 -304 -9z"/>
</g>
</svg>
