<?xml version="1.0" standalone="no"?>
<!DOCTYPE svg PUBLIC "-//W3C//DTD SVG 20010904//EN"
 "http://www.w3.org/TR/2001/REC-SVG-20010904/DTD/svg10.dtd">
<svg version="1.0" xmlns="http://www.w3.org/2000/svg"
 width="450.000000pt" height="200.000000pt" viewBox="0 0 450.000000 200.000000"
 preserveAspectRatio="xMidYMid meet">

<g transform="translate(0.000000,200.000000) scale(0.100000,-0.100000)"
fill="#8D8F92" stroke="none">
<path d="M1115 1309 c-71 -10 -134 -18 -138 -18 -5 -1 28 -31 73 -67 45 -36
83 -64 85 -62 1 1 18 23 36 48 19 25 47 62 62 83 15 20 24 37 20 36 -4 -1 -66
-9 -138 -20z"/>
<path d="M820 1274 c-58 -7 -151 -19 -207 -26 l-102 -13 177 -212 c97 -116
179 -212 182 -212 4 -1 71 449 70 472 0 4 -3 7 -7 6 -5 -1 -55 -7 -113 -15z"/>
<path d="M1224 821 c-57 -35 -70 -124 -23 -167 11 -11 53 -35 92 -54 59 -29
73 -40 75 -61 6 -50 -75 -57 -155 -15 l-33 17 0 -39 c0 -36 2 -39 48 -55 88
-32 183 -15 219 40 21 31 20 96 -1 129 -11 15 -47 39 -90 59 -39 18 -78 40
-86 50 -13 15 -12 19 9 36 28 23 64 24 121 4 23 -8 44 -15 46 -15 2 0 4 15 4
33 0 31 -4 35 -39 45 -60 19 -151 15 -187 -7z"/>
<path d="M2770 640 l0 -200 139 0 139 0 4 30 5 30 -99 0 -98 0 0 55 0 55 90 0
90 0 0 35 0 35 -90 0 -90 0 0 45 0 45 95 0 95 0 0 35 0 35 -140 0 -140 0 0
-200z"/>
<path d="M1605 716 c-41 -18 -83 -69 -91 -111 -17 -90 64 -175 165 -175 73 0
151 78 151 152 0 105 -123 179 -225 134z m126 -75 c20 -20 29 -39 29 -61 0
-42 -47 -90 -89 -90 -78 0 -117 105 -58 156 39 33 81 31 118 -5z"/>
<path d="M1890 583 l0 -148 105 3 c104 3 105 4 105 28 0 23 -2 24 -70 24 l-70
0 0 120 0 120 -35 0 -35 0 0 -147z"/>
<path d="M2150 582 l0 -148 35 4 35 4 0 144 0 144 -35 0 -35 0 0 -148z"/>
<path d="M2290 586 l0 -146 88 0 c104 0 148 18 174 70 36 71 13 157 -51 194
-25 15 -59 21 -123 24 l-88 4 0 -146z m180 64 c62 -62 22 -160 -67 -160 l-43
0 0 90 0 90 45 0 c31 0 51 -6 65 -20z"/>
<path d="M3120 584 l0 -149 97 5 c106 6 131 15 158 56 23 36 24 119 2 161 -25
47 -68 65 -169 71 l-88 5 0 -149z m181 60 c17 -18 24 -37 24 -66 0 -53 -38
-88 -96 -88 l-39 0 0 90 0 90 43 0 c34 0 49 -6 68 -26z"/>
<path d="M3545 719 c-17 -4 -44 -22 -60 -39 -27 -29 -30 -38 -30 -100 0 -58 3
-72 24 -94 51 -54 145 -69 217 -35 27 13 29 19 32 77 l3 62 -56 0 c-51 0 -55
-2 -55 -24 0 -15 7 -26 20 -29 28 -7 25 -35 -4 -43 -55 -13 -116 30 -116 82 0
73 83 114 163 81 l37 -16 0 34 c0 31 -4 35 -37 44 -45 13 -96 13 -138 0z"/>
<path d="M3800 583 l0 -148 100 3 c98 3 100 4 100 28 0 23 -3 24 -65 24 l-65
0 0 35 0 35 60 0 c57 0 60 1 60 25 0 24 -3 25 -60 25 l-60 0 0 30 0 30 65 0
65 0 0 30 0 30 -100 0 -100 0 0 -147z"/>
</g>
</svg>
