<svg id="svg" xmlns="http://www.w3.org/2000/svg" xmlns:xlink="http://www.w3.org/1999/xlink" width="400" height="177.77777777777777" viewBox="0, 0, 400,177.77777777777777"><g id="svgg" fill="#8D8F92"><path id="path0" d="M53.801 40.103 C 54.165 41.269,55.809 45.572,57.454 49.667 C 59.099 53.762,60.447 57.562,60.450 58.112 C 60.453 58.661,61.005 60.165,61.677 61.453 C 62.794 63.594,62.392 66.167,61.004 65.762 C 59.822 65.417,46.477 66.849,45.554 67.419 C 44.983 67.772,50.377 74.865,58.843 84.895 C 66.679 94.181,74.047 102.910,75.215 104.293 L 77.338 106.809 80.225 105.076 C 81.812 104.123,85.111 102.611,87.556 101.717 C 90.000 100.823,92.245 99.737,92.544 99.303 C 92.843 98.870,93.243 98.590,93.433 98.682 C 93.622 98.774,95.178 98.242,96.889 97.499 C 98.600 96.756,101.400 95.559,103.111 94.838 C 104.822 94.118,108.574 92.431,111.449 91.089 L 116.677 88.650 114.239 86.769 C 112.898 85.735,110.186 83.489,108.213 81.778 C 106.240 80.067,104.385 78.719,104.091 78.784 C 99.723 79.738,100.397 76.279,106.100 68.481 C 109.345 64.042,112.000 60.105,112.000 59.732 C 112.000 59.358,106.500 59.760,99.778 60.625 C 93.056 61.491,85.356 62.419,82.667 62.687 C 79.978 62.956,76.844 63.377,75.703 63.623 C 73.394 64.122,73.636 63.216,76.732 59.778 C 77.722 58.678,78.262 57.728,77.933 57.667 C 77.603 57.606,77.003 57.506,76.600 57.444 C 75.915 57.341,74.491 56.124,67.102 49.333 C 63.830 46.326,57.470 41.066,54.867 39.215 C 53.265 38.075,53.187 38.140,53.801 40.103 M108.723 103.956 C 99.992 109.280,103.067 120.781,114.325 124.910 C 119.665 126.868,122.045 128.936,121.273 130.948 C 120.326 133.416,113.481 133.236,108.331 130.609 C 104.676 128.744,104.000 129.294,104.000 134.130 C 104.000 140.946,121.814 142.323,128.140 135.996 C 134.259 129.878,130.918 121.634,120.374 116.829 C 113.321 113.614,112.206 112.561,113.810 110.628 C 115.202 108.951,120.692 108.971,124.752 110.667 C 129.333 112.581,129.778 112.393,129.778 108.541 C 129.778 102.662,115.828 99.624,108.723 103.956 M246.187 102.864 C 246.167 103.245,246.155 111.556,246.159 121.333 L 246.167 139.111 259.084 139.357 L 272.000 139.603 272.000 136.024 L 272.000 132.444 263.556 132.444 L 255.111 132.444 255.111 128.479 L 255.111 124.514 262.889 124.257 L 270.667 124.000 270.667 120.535 L 270.667 117.069 262.889 117.256 L 255.111 117.443 255.111 113.422 L 255.111 109.400 263.333 109.144 L 271.556 108.889 271.556 105.778 L 271.556 102.667 258.889 102.420 C 251.922 102.284,246.206 102.484,246.187 102.864 M143.556 112.980 C 136.526 115.142,132.551 122.395,134.401 129.684 C 136.930 139.648,151.152 143.283,158.760 135.910 C 169.856 125.155,158.697 108.325,143.556 112.980 M316.259 112.829 C 299.768 118.139,303.427 139.733,320.817 139.733 C 329.635 139.733,331.062 138.537,331.372 130.880 L 331.633 124.444 326.261 124.444 L 320.889 124.444 320.889 127.556 C 320.889 130.116,321.217 130.667,322.741 130.667 C 323.837 130.667,324.434 131.120,324.204 131.778 C 322.696 136.090,313.778 131.275,313.778 126.149 C 313.778 119.780,318.620 118.000,329.111 120.511 C 332.766 121.386,332.803 115.520,329.153 113.857 C 325.956 112.401,319.250 111.866,316.259 112.829 M167.111 126.222 L 167.111 139.556 177.333 139.556 L 187.556 139.556 187.556 136.444 L 187.556 133.333 181.333 133.333 L 175.111 133.333 175.111 123.111 L 175.111 112.889 171.111 112.889 L 167.111 112.889 167.111 126.222 M190.222 126.222 L 190.222 139.556 194.222 139.556 L 198.222 139.556 198.222 126.222 L 198.222 112.889 194.222 112.889 L 190.222 112.889 190.222 126.222 M203.556 126.222 L 203.556 139.556 211.333 139.554 C 221.133 139.552,224.522 138.054,227.333 132.478 C 232.962 121.317,226.081 112.893,211.333 112.890 L 203.556 112.889 203.556 126.222 M276.444 126.267 L 276.444 139.644 284.891 139.487 C 297.601 139.250,302.564 135.525,302.564 126.222 C 302.564 116.847,297.255 112.889,284.681 112.889 L 276.444 112.889 276.444 126.267 M336.889 126.192 L 336.889 139.556 346.667 139.556 L 356.444 139.556 356.444 136.444 L 356.444 133.333 350.345 133.333 C 344.319 133.333,344.252 133.307,344.671 131.111 C 345.067 129.041,345.453 128.889,350.326 128.889 L 355.556 128.889 355.556 125.778 L 355.556 122.667 350.222 122.667 C 342.050 122.667,342.212 119.324,350.403 118.931 C 355.879 118.669,355.917 118.648,355.916 116.000 L 355.914 113.333 346.402 113.081 L 336.889 112.829 336.889 126.192 M216.212 119.155 C 224.302 121.402,222.573 133.333,214.158 133.333 L 210.667 133.333 210.667 126.370 C 210.667 117.614,210.666 117.615,216.212 119.155 M289.859 119.119 C 297.903 121.353,296.282 133.333,287.935 133.333 L 284.444 133.333 284.444 125.778 C 284.444 117.548,284.400 117.602,289.859 119.119 M153.374 121.293 C 157.783 125.702,154.659 133.333,148.444 133.333 C 146.713 133.333,144.890 132.527,143.515 131.152 C 142.140 129.776,141.333 127.954,141.333 126.222 C 141.333 124.490,142.140 122.668,143.515 121.293 C 144.890 119.918,146.713 119.111,148.444 119.111 C 150.176 119.111,151.998 119.918,153.374 121.293 " stroke="none" fill-rule="evenodd"></path></g></svg>