<svg id="svg" xmlns="http://www.w3.org/2000/svg" xmlns:xlink="http://www.w3.org/1999/xlink" width="400" height="231.77570093457945" viewBox="0, 0, 400,231.77570093457945" version="1.1"><g id="svgg"><path id="path0" d="M343.285 0.284 C 343.129 0.440,342.549 0.672,341.995 0.799 C 340.988 1.030,328.161 5.441,306.542 12.991 C 300.227 15.197,294.219 17.281,293.191 17.623 C 292.163 17.966,290.841 18.458,290.254 18.717 C 289.666 18.977,287.263 19.817,284.913 20.584 C 278.694 22.614,277.436 24.489,277.977 30.927 C 278.188 33.450,278.338 36.595,278.309 37.917 C 278.281 39.239,278.509 42.964,278.816 46.195 C 279.343 51.736,279.575 55.489,280.874 79.539 C 281.672 94.297,281.421 93.427,285.907 97.029 C 288.004 98.713,289.960 100.356,290.254 100.679 C 290.547 101.002,292.350 102.572,294.259 104.168 C 296.168 105.764,297.850 107.196,297.997 107.352 C 298.144 107.507,299.706 108.827,301.469 110.285 C 304.459 112.759,312.353 119.554,312.951 120.168 C 313.097 120.318,314.539 121.520,316.154 122.838 C 317.770 124.156,320.957 126.834,323.238 128.789 C 330.518 135.033,327.674 135.776,363.418 118.288 C 371.348 114.408,381.822 109.293,386.692 106.922 L 395.547 102.612 396.188 93.896 C 396.541 89.102,397.072 81.455,397.369 76.903 C 397.665 72.350,398.244 64.059,398.655 58.478 C 399.067 52.897,399.396 47.971,399.387 47.530 C 399.379 47.089,399.548 43.916,399.763 40.478 C 400.101 35.079,400.032 34.040,399.254 32.853 C 398.759 32.097,398.521 31.208,398.725 30.877 C 398.933 30.541,398.859 30.422,398.558 30.608 C 398.262 30.791,397.775 30.408,397.476 29.756 C 397.177 29.105,395.640 27.880,394.060 27.034 C 391.011 25.403,370.938 14.178,366.889 11.841 C 365.567 11.078,363.765 10.067,362.884 9.594 C 362.003 9.121,357.757 6.768,353.448 4.367 C 346.295 0.379,344.080 -0.511,343.285 0.284 M216.923 32.057 C 214.110 35.077,213.649 46.841,216.236 49.610 C 217.431 50.889,217.583 51.271,216.903 51.281 C 211.891 51.352,207.416 58.206,209.510 62.603 C 212.955 69.835,220.122 70.853,226.302 64.989 C 228.241 63.149,228.402 63.453,227.236 66.756 C 225.764 70.928,226.715 71.311,228.613 67.312 C 230.007 64.376,230.661 64.616,230.740 68.091 C 230.907 75.408,237.423 79.554,244.264 76.696 C 248.364 74.983,249.990 68.860,247.479 64.594 L 246.393 62.750 248.443 62.724 C 254.198 62.650,263.111 49.082,258.720 47.082 C 255.827 45.764,244.551 46.975,239.479 49.150 C 236.485 50.433,236.582 50.432,236.582 49.164 C 236.582 47.704,235.567 47.248,234.559 48.257 C 233.777 49.038,233.546 48.797,231.806 45.390 C 226.751 35.492,219.650 29.131,216.923 32.057 M15.467 75.224 C 6.186 77.214,1.005 85.860,2.721 96.494 C 3.888 103.733,7.716 107.573,17.284 111.103 C 25.186 114.018,27.337 115.418,28.616 118.479 C 30.840 123.803,27.869 128.412,22.201 128.428 C 16.669 128.444,15.097 126.936,14.555 121.095 L 14.271 118.024 7.858 118.024 L 1.445 118.024 1.790 122.518 C 2.629 133.433,7.732 137.787,20.179 138.207 C 34.947 138.706,42.691 132.250,42.717 119.421 C 42.737 109.831,38.976 106.103,22.650 99.529 C 16.221 96.940,13.896 92.713,16.047 87.520 C 18.652 81.231,28.304 84.680,28.304 91.900 L 28.304 93.458 34.446 93.458 L 40.587 93.458 40.587 90.264 C 40.587 79.197,29.078 72.306,15.467 75.224 M44.860 81.175 L 44.860 86.515 51.535 86.515 L 58.211 86.515 58.211 111.883 L 58.211 137.250 64.619 137.250 L 71.028 137.250 71.028 111.883 L 71.028 86.515 77.704 86.515 L 84.379 86.515 84.379 81.175 L 84.379 75.834 64.619 75.834 L 44.860 75.834 44.860 81.175 M89.186 106.542 L 89.186 137.250 95.060 137.250 L 100.935 137.250 101.001 113.885 C 101.038 101.035,101.250 91.482,101.472 92.657 C 101.693 93.832,102.168 96.115,102.526 97.730 C 103.833 103.635,104.253 105.512,104.672 107.343 C 104.907 108.371,105.359 110.414,105.677 111.883 C 106.191 114.260,107.098 118.250,108.407 123.899 C 109.170 127.189,109.892 130.495,110.503 133.493 C 111.287 137.341,111.247 137.318,116.695 137.138 L 121.409 136.983 122.059 134.846 C 122.417 133.672,123.225 130.187,123.855 127.103 C 124.486 124.019,125.234 120.474,125.518 119.226 C 126.178 116.328,126.969 112.768,127.595 109.880 C 127.866 108.632,128.453 106.048,128.900 104.139 C 129.347 102.230,130.001 99.346,130.354 97.730 C 130.707 96.115,131.180 94.072,131.404 93.191 C 131.629 92.310,131.835 101.862,131.861 114.419 L 131.909 137.250 137.784 137.250 L 143.658 137.250 143.658 106.542 L 143.658 75.834 134.323 75.834 C 125.065 75.834,124.985 75.844,124.759 77.036 C 124.633 77.697,124.180 79.813,123.753 81.738 C 123.326 83.663,121.578 92.254,119.868 100.830 C 118.159 109.405,116.624 116.422,116.458 116.422 C 116.291 116.422,115.505 113.117,114.710 109.079 C 113.915 105.040,112.775 99.332,112.176 96.395 C 111.578 93.458,110.869 89.973,110.602 88.652 C 109.163 81.533,108.768 79.661,108.324 77.837 L 107.836 75.834 98.511 75.834 L 89.186 75.834 89.186 106.542 M161.068 77.689 C 155.569 79.950,152.467 84.276,151.815 90.593 L 151.519 93.458 154.798 93.458 L 158.077 93.458 158.077 91.316 C 158.077 79.996,174.313 77.401,177.170 88.264 C 179.395 96.727,174.942 103.071,166.776 103.071 L 163.418 103.071 163.418 105.741 L 163.418 108.411 167.358 108.411 C 175.697 108.411,179.159 111.961,179.145 120.497 C 179.133 127.904,176.398 131.812,170.360 133.049 C 163.444 134.466,157.009 129.189,157.009 122.101 C 157.009 120.738,156.910 120.694,153.805 120.694 C 150.200 120.694,150.299 120.510,151.354 125.234 C 153.822 136.292,164.260 141.397,175.337 136.962 C 187.964 131.907,189.289 111.101,177.311 105.956 L 175.451 105.157 177.578 103.969 C 184.972 99.840,185.938 86.119,179.247 80.245 C 174.807 76.346,167.004 75.249,161.068 77.689 M204.005 77.075 C 196.953 79.513,192.771 85.371,192.785 92.790 L 192.790 95.594 195.666 95.594 L 198.542 95.594 198.922 92.523 C 199.856 84.981,203.188 81.522,209.500 81.543 C 215.922 81.565,219.098 85.300,219.178 92.924 C 219.255 100.228,217.850 102.466,207.806 111.048 C 196.100 121.050,192.256 127.149,192.256 135.720 L 192.256 137.250 209.346 137.250 L 226.435 137.250 226.435 134.579 L 226.435 131.909 212.624 131.909 L 198.813 131.909 199.093 130.441 C 199.909 126.150,203.069 122.365,212.016 114.960 C 223.469 105.482,225.367 102.360,225.367 93.001 C 225.367 80.775,215.211 73.203,204.005 77.075 M71.028 151.064 C 63.420 152.730,59.078 158.355,57.373 168.751 C 56.484 174.173,56.376 189.463,57.191 194.393 C 57.507 196.302,57.849 198.479,57.950 199.231 C 59.332 209.483,69.784 215.733,82.133 213.692 C 91.887 212.079,96.186 206.243,97.037 193.458 L 97.330 189.052 90.923 189.052 L 84.516 189.052 84.227 193.191 C 83.643 201.562,81.967 204.196,77.196 204.243 C 71.038 204.302,69.791 200.620,69.791 182.377 C 69.791 164.937,71.274 160.200,76.728 160.221 C 81.116 160.238,83.082 162.635,83.641 168.651 L 83.999 172.497 90.396 172.497 L 96.793 172.497 96.520 168.091 C 95.697 154.805,85.387 147.918,71.028 151.064 M145.794 182.377 L 145.794 213.084 151.669 213.084 L 157.543 213.084 157.543 210.876 L 157.543 208.668 158.620 210.037 C 163.679 216.468,175.138 215.138,179.037 207.667 C 184.472 197.253,182.803 173.565,176.245 168.047 C 171.962 164.444,163.607 164.730,159.546 168.620 L 158.077 170.026 158.077 160.848 L 158.077 151.669 151.936 151.669 L 145.794 151.669 145.794 182.377 M233.378 182.377 L 233.378 213.084 237.383 213.084 L 241.389 213.084 241.389 182.377 L 241.389 151.669 237.383 151.669 L 233.378 151.669 233.378 182.377 M251.001 182.441 L 251.001 213.213 262.617 212.981 C 283.736 212.557,289.475 205.839,289.441 181.575 C 289.408 157.172,284.188 151.669,261.075 151.669 L 251.001 151.669 251.001 182.441 M297.997 182.377 L 297.997 213.084 314.553 213.084 L 331.108 213.084 331.108 209.346 L 331.108 205.607 318.558 205.607 L 306.008 205.607 306.008 195.194 L 306.008 184.780 317.223 184.780 L 328.438 184.780 328.438 181.041 L 328.438 177.303 317.223 177.303 L 306.008 177.303 306.008 167.957 L 306.008 158.611 318.024 158.611 L 330.040 158.611 330.040 155.140 L 330.040 151.669 314.019 151.669 L 297.997 151.669 297.997 182.377 M273.119 159.714 C 276.742 161.417,278.749 164.420,280.131 170.207 C 281.011 173.890,281.169 189.333,280.360 192.523 C 277.536 203.652,274.703 206.142,264.861 206.142 L 259.546 206.142 259.546 182.377 L 259.546 158.611 265.159 158.611 C 269.718 158.611,271.213 158.819,273.119 159.714 M199.199 166.023 C 190.120 168.023,186.929 174.290,186.929 190.120 C 186.929 208.478,191.115 213.952,205.073 213.847 C 214.968 213.772,220.170 209.382,221.323 200.134 L 221.706 197.063 216.117 197.063 C 210.249 197.063,209.880 197.219,209.880 199.695 C 209.880 200.841,208.501 203.697,207.599 204.418 C 203.434 207.748,199.199 203.505,199.199 196.000 L 199.199 192.256 210.681 192.256 L 222.163 192.256 222.144 186.782 C 222.086 170.259,213.840 162.798,199.199 166.023 M103.605 186.443 L 103.605 206.264 104.985 208.800 C 108.483 215.226,120.857 215.929,125.546 209.967 L 126.569 208.668 126.569 210.876 L 126.569 213.084 132.710 213.084 L 138.852 213.084 138.852 189.853 L 138.852 166.622 132.710 166.622 L 126.569 166.622 126.569 182.281 C 126.569 200.372,126.226 202.466,123.045 203.795 C 120.443 204.882,118.681 204.711,117.199 203.229 L 115.888 201.918 115.888 184.270 L 115.888 166.622 109.746 166.622 L 103.605 166.622 103.605 186.443 M207.239 174.649 C 208.718 175.440,209.681 177.655,210.077 181.175 L 210.423 184.246 204.811 184.246 L 199.199 184.246 199.199 181.908 C 199.199 176.112,203.209 172.492,207.239 174.649 M167.122 176.200 C 170.795 179.874,170.779 199.376,167.099 203.071 C 160.843 209.352,155.512 194.956,158.846 180.782 C 160.036 175.721,164.288 173.367,167.122 176.200 " stroke="none" fill="#8D8F92" fill-rule="evenodd"></path></g></svg>