<?xml version="1.0" standalone="no"?>
<!DOCTYPE svg PUBLIC "-//W3C//DTD SVG 20010904//EN"
 "http://www.w3.org/TR/2001/REC-SVG-20010904/DTD/svg10.dtd">
<svg version="1.0" xmlns="http://www.w3.org/2000/svg"
 width="1440.000000pt" height="708.000000pt" viewBox="0 0 1440.000000 708.000000"
 preserveAspectRatio="xMidYMid meet">
    <g transform="translate(0.000000,708.000000) scale(0.100000,-0.100000)"
    fill="#8D8F92" stroke="none">
        <path d="M4960 5623 c-8 -3 -22 -11 -30 -18 -8 -7 -42 -16 -75 -19 -44 -5 -64
        -12 -74 -26 -9 -14 -25 -20 -50 -20 -24 0 -49 -9 -70 -24 -19 -14 -46 -28 -62
        -31 -16 -4 -29 -13 -29 -21 0 -8 -10 -14 -25 -14 -13 0 -29 -8 -34 -19 -6 -10
        -24 -24 -41 -31 -16 -7 -30 -16 -30 -21 0 -5 -11 -14 -25 -19 -14 -5 -25 -16
        -25 -25 0 -8 -8 -15 -18 -15 -11 0 -24 -11 -30 -25 -6 -14 -18 -25 -27 -25 -8
        0 -15 -7 -15 -15 0 -9 -11 -21 -25 -27 -14 -6 -25 -19 -25 -30 0 -10 -7 -18
        -15 -18 -9 0 -20 -11 -25 -25 -5 -14 -14 -25 -20 -25 -6 0 -18 -16 -26 -35 -8
        -20 -21 -38 -29 -42 -8 -3 -15 -11 -15 -19 0 -8 -9 -23 -19 -33 -11 -11 -25
        -38 -31 -60 -6 -24 -17 -41 -25 -41 -10 0 -15 -11 -15 -34 0 -18 -9 -45 -21
        -59 -11 -15 -23 -42 -26 -61 -3 -20 -14 -43 -24 -52 -11 -10 -19 -30 -19 -48
        0 -19 -8 -38 -20 -48 -12 -11 -22 -36 -26 -68 -5 -35 -13 -54 -25 -61 -14 -7
        -19 -21 -19 -49 0 -28 -5 -42 -19 -50 -12 -6 -22 -26 -26 -51 -4 -23 -16 -50
        -26 -60 -12 -12 -19 -33 -19 -57 0 -26 -6 -41 -19 -49 -10 -6 -22 -29 -26 -49
        -3 -21 -15 -49 -26 -62 -10 -14 -19 -39 -19 -57 0 -30 -20 -61 -32 -50 -3 3
        -8 -15 -10 -40 -3 -26 -13 -51 -22 -58 -9 -7 -19 -30 -23 -51 -3 -22 -14 -47
        -25 -58 -11 -11 -18 -32 -18 -58 0 -29 -5 -42 -20 -50 -13 -7 -22 -26 -26 -51
        -4 -22 -13 -43 -20 -46 -7 -2 -15 -18 -18 -34 -3 -16 -9 -42 -12 -59 -3 -16
        -12 -30 -19 -30 -8 0 -16 -17 -20 -42 -4 -24 -16 -51 -26 -61 -11 -10 -19 -31
        -19 -47 0 -17 -9 -39 -19 -49 -10 -10 -22 -38 -26 -62 -4 -24 -16 -52 -26 -62
        -11 -10 -19 -31 -19 -51 0 -19 -7 -39 -15 -46 -8 -7 -20 -31 -26 -54 -6 -22
        -17 -48 -25 -57 -7 -8 -17 -31 -20 -50 -4 -19 -15 -45 -26 -58 -10 -13 -18
        -32 -18 -43 0 -10 -9 -31 -21 -47 -11 -15 -23 -47 -26 -71 -3 -24 -14 -51 -25
        -62 -10 -10 -18 -31 -18 -47 0 -15 -8 -39 -19 -52 -10 -13 -24 -42 -31 -64 -7
        -22 -19 -44 -26 -48 -8 -4 -14 -24 -14 -45 0 -26 -6 -41 -19 -49 -12 -7 -21
        -29 -26 -60 -4 -27 -15 -56 -26 -66 -11 -11 -19 -31 -19 -52 0 -25 -5 -35 -20
        -40 -14 -5 -20 -15 -20 -38 0 -18 -12 -50 -25 -72 -14 -22 -25 -54 -25 -71 0
        -20 -7 -37 -20 -45 -10 -8 -20 -28 -22 -45 -2 -17 -11 -38 -20 -47 -9 -9 -19
        -36 -23 -59 -4 -24 -16 -51 -26 -61 -15 -14 -19 -32 -19 -88 0 -68 1 -70 29
        -80 16 -6 32 -17 35 -25 5 -12 230 -14 1628 -14 1603 0 1623 0 1653 20 17 11
        40 20 52 20 32 0 53 10 53 26 0 8 4 14 9 14 19 0 41 32 41 59 0 16 9 36 21 47
        18 16 20 27 17 73 -3 36 -10 56 -21 63 -10 5 -17 21 -17 39 0 19 -9 39 -25 55
        -14 14 -25 27 -25 30 0 3 -25 29 -56 57 -31 29 -99 94 -151 145 -52 50 -98 92
        -104 92 -5 0 -50 39 -99 88 -49 48 -116 112 -149 142 -33 30 -60 61 -60 68 -1
        6 -10 12 -21 12 -11 0 -20 7 -20 15 0 9 -11 20 -25 25 -14 5 -25 16 -25 24 0
        8 -9 18 -20 21 -11 3 -20 10 -20 14 0 8 -73 87 -77 83 -9 -7 -23 0 -23 13 0 8
        -4 15 -8 15 -4 0 -23 16 -42 36 -69 70 -85 84 -97 84 -7 0 -13 5 -13 10 0 6
        -11 15 -24 21 -13 6 -27 20 -29 30 -3 11 -12 19 -21 19 -9 0 -16 7 -16 15 0 9
        -11 20 -25 25 -14 5 -25 16 -25 25 0 8 -9 15 -19 15 -12 0 -21 9 -25 25 -4 14
        -12 25 -19 25 -7 0 -21 16 -31 35 -11 19 -23 35 -28 35 -4 0 -8 7 -8 15 0 8
        -11 25 -25 37 -14 12 -28 36 -31 55 -3 18 -12 33 -19 33 -7 0 -15 18 -19 40
        -3 21 -13 43 -22 48 -11 6 -18 28 -21 63 -4 39 -11 59 -26 70 -20 16 -20 26
        -20 298 0 274 0 282 21 296 15 12 22 31 27 80 5 42 12 65 20 65 14 0 25 22 25
        52 0 11 9 31 20 45 11 14 20 34 20 44 0 10 11 26 25 35 14 9 25 20 25 25 0 12
        62 102 78 112 6 4 12 14 12 21 0 8 9 16 20 19 11 3 20 12 20 21 0 9 7 16 15
        16 8 0 22 11 31 25 9 14 21 25 26 25 10 0 47 26 95 68 14 12 31 22 38 22 6 0
        20 8 31 18 11 10 34 22 53 25 18 4 44 16 58 27 14 11 41 20 59 20 20 0 42 8
        52 18 14 14 41 20 103 25 64 5 87 11 97 24 12 17 169 18 3210 20 1758 2 3207
        5 3220 8 15 4 22 13 22 30 0 13 9 33 20 43 12 11 24 37 27 58 3 22 12 43 19
        47 8 4 17 26 20 47 4 22 15 47 25 56 10 9 21 37 25 63 4 27 14 51 25 59 12 8
        19 25 19 48 0 20 8 42 19 53 10 10 22 36 25 57 4 22 15 47 24 58 27 29 23 108
        -7 140 l-24 26 -3651 -1 c-2008 0 -3658 -3 -3666 -6z"/>
        <path d="M5624 3915 c-9 -14 -20 -22 -25 -19 -12 7 -69 -53 -69 -73 0 -9 -7
        -21 -15 -27 -33 -24 -28 -216 6 -216 6 0 7 -4 4 -10 -3 -5 -1 -10 4 -10 6 0
        11 -7 11 -15 0 -16 112 -135 128 -135 6 0 14 -9 17 -20 3 -11 10 -20 14 -20 5
        0 38 -29 75 -65 36 -36 70 -65 75 -65 4 0 39 -31 77 -68 38 -37 77 -71 87 -75
        9 -3 17 -13 17 -22 0 -8 7 -15 15 -15 9 0 20 -11 25 -25 5 -14 16 -25 24 -25
        8 0 18 -9 21 -20 3 -11 14 -20 24 -20 10 0 23 -11 29 -25 6 -14 18 -25 27 -25
        8 0 15 -7 15 -16 0 -9 9 -18 20 -21 11 -3 20 -12 20 -19 0 -8 11 -19 25 -24
        14 -5 25 -16 25 -25 0 -8 5 -15 11 -15 6 0 44 -34 86 -75 41 -41 83 -75 94
        -75 10 0 19 -7 19 -15 0 -9 11 -20 25 -25 14 -5 25 -14 25 -21 0 -14 55 -69
        69 -69 6 0 11 -7 11 -15 0 -9 11 -20 25 -25 14 -5 25 -14 25 -20 0 -6 11 -16
        25 -22 14 -6 25 -20 25 -31 0 -10 8 -21 18 -24 11 -2 25 -20 32 -38 7 -19 19
        -36 27 -39 7 -3 13 -12 13 -20 0 -9 9 -20 20 -26 11 -6 20 -20 20 -30 0 -11 5
        -20 11 -20 5 0 7 -4 4 -10 -3 -5 -1 -10 5 -10 6 0 17 -15 25 -34 8 -18 21 -36
        30 -39 10 -5 15 -20 15 -51 0 -33 5 -48 19 -58 13 -9 21 -32 26 -76 5 -46 12
        -65 26 -73 18 -9 19 -23 19 -210 0 -186 -1 -202 -21 -228 -12 -16 -22 -50 -26
        -86 -4 -37 -13 -65 -25 -77 -11 -11 -18 -32 -18 -57 0 -31 -4 -41 -20 -46 -13
        -4 -20 -15 -20 -30 0 -13 -9 -32 -19 -42 -11 -10 -23 -31 -27 -48 -4 -16 -20
        -43 -36 -59 -16 -15 -37 -45 -48 -66 -11 -21 -26 -40 -35 -43 -8 -4 -15 -11
        -15 -18 0 -6 -20 -30 -45 -53 -25 -24 -45 -48 -45 -54 0 -7 -8 -12 -18 -12
        -10 0 -26 -9 -35 -21 -10 -11 -31 -25 -47 -31 -17 -5 -30 -16 -30 -24 0 -8 -7
        -14 -15 -14 -8 0 -19 -8 -24 -19 -6 -10 -24 -21 -40 -24 -16 -4 -38 -15 -48
        -25 -10 -10 -26 -22 -35 -25 -26 -9 -24 -69 3 -93 20 -18 48 -19 678 -22 361
        -1 666 0 679 3 12 3 22 12 22 20 0 10 10 15 31 15 37 0 69 16 69 34 0 8 9 16
        19 19 11 3 22 17 26 37 4 18 16 41 26 51 11 11 19 33 19 50 0 18 7 37 16 43 9
        7 20 34 25 61 5 27 18 58 29 70 11 12 20 33 20 48 0 15 9 36 20 47 11 11 20
        32 20 47 0 15 9 37 21 49 11 12 23 42 26 66 4 25 14 48 25 56 12 9 18 26 18
        50 0 26 6 41 19 49 12 8 22 29 26 57 4 25 16 53 26 62 12 11 19 31 19 56 0 27
        4 38 15 38 13 0 35 55 35 87 0 7 7 16 16 21 9 5 18 28 21 53 3 24 14 52 24 62
        11 10 19 29 19 43 0 27 15 60 37 82 7 7 13 26 13 41 0 15 9 38 20 51 11 13 20
        36 20 52 0 16 9 36 20 45 11 10 22 36 26 61 4 25 15 52 25 60 12 10 19 30 19
        52 0 24 6 39 20 47 10 7 22 29 26 50 4 21 15 50 25 65 11 14 19 40 19 57 0 19
        7 34 19 40 12 7 21 26 25 55 4 24 16 52 26 61 12 11 20 31 20 52 0 21 7 40 20
        50 11 10 20 30 20 46 0 16 11 42 25 59 14 16 25 42 25 56 0 15 9 38 20 52 11
        14 20 41 20 62 0 27 6 40 20 48 12 7 22 25 26 50 4 21 15 47 25 56 12 11 19
        31 19 54 0 24 7 43 20 55 11 10 23 35 26 56 4 21 15 46 25 55 11 9 19 30 19
        46 0 16 9 38 19 50 11 11 23 39 26 62 4 22 16 49 26 59 12 11 19 31 19 53 0
        21 6 37 14 40 8 3 20 28 26 55 7 27 19 53 29 58 13 8 17 28 19 98 1 48 -2 95
        -7 103 -9 13 -221 15 -1790 18 l-1780 2 -17 -25z"/>
        <path d="M10213 3933 c-7 -2 -13 -11 -13 -18 0 -8 -9 -17 -20 -20 -11 -3 -20
        -11 -20 -17 0 -5 -9 -17 -20 -26 -11 -10 -22 -32 -25 -51 -3 -19 -13 -39 -21
        -45 -8 -6 -17 -29 -21 -51 -3 -22 -12 -44 -19 -50 -7 -5 -18 -30 -24 -55 -7
        -24 -20 -55 -31 -68 -10 -14 -19 -38 -19 -55 0 -16 -7 -35 -16 -41 -8 -6 -20
        -32 -25 -56 -6 -25 -17 -52 -25 -61 -8 -9 -18 -34 -21 -54 -3 -21 -14 -46 -25
        -57 -10 -10 -18 -31 -18 -46 0 -15 -11 -43 -25 -62 -14 -19 -25 -46 -25 -62 0
        -17 -7 -31 -20 -38 -15 -8 -20 -21 -20 -53 0 -30 -5 -45 -19 -54 -11 -7 -21
        -29 -25 -56 -4 -25 -16 -53 -26 -62 -12 -11 -20 -31 -20 -49 0 -18 -8 -38 -19
        -48 -10 -8 -22 -33 -25 -54 -4 -21 -16 -49 -27 -62 -10 -14 -19 -40 -19 -58 0
        -23 -6 -37 -20 -44 -14 -7 -20 -21 -20 -44 0 -20 -8 -40 -19 -50 -11 -10 -23
        -35 -26 -57 -4 -22 -14 -46 -22 -54 -8 -9 -17 -35 -21 -58 -3 -24 -13 -47 -23
        -55 -10 -7 -21 -29 -25 -50 -3 -20 -13 -42 -22 -49 -8 -7 -17 -34 -20 -62 -3
        -37 -9 -50 -23 -54 -13 -3 -19 -14 -19 -32 0 -31 -28 -95 -41 -95 -5 0 -9 -16
        -9 -35 0 -23 -7 -41 -20 -52 -12 -11 -20 -30 -20 -49 0 -17 -9 -43 -21 -57
        -11 -15 -23 -43 -26 -63 -3 -21 -14 -45 -25 -56 -10 -10 -18 -32 -18 -53 0
        -24 -6 -37 -20 -45 -11 -6 -22 -26 -26 -48 -4 -20 -13 -45 -21 -54 -9 -9 -18
        -38 -21 -63 -3 -30 -11 -49 -22 -55 -11 -6 -21 -27 -25 -50 -4 -22 -14 -44
        -22 -48 -9 -5 -17 -29 -21 -58 -3 -30 -12 -54 -22 -61 -10 -7 -21 -29 -25 -50
        -4 -20 -15 -48 -26 -61 -10 -14 -19 -37 -19 -53 0 -16 -8 -36 -19 -46 -10 -10
        -21 -36 -24 -58 -4 -22 -13 -44 -20 -50 -18 -13 -28 -72 -19 -112 5 -21 20
        -41 47 -59 l40 -28 278 -4 c267 -4 280 -4 306 16 21 16 47 20 128 24 81 3 106
        7 122 22 11 10 42 21 68 24 28 3 55 12 66 23 10 11 29 19 43 19 14 0 42 11 62
        25 20 14 41 25 47 25 6 0 18 9 28 20 9 11 25 20 35 20 10 0 28 11 40 25 12 14
        29 25 37 25 8 0 15 4 15 9 0 5 16 18 36 30 19 12 32 26 29 31 -3 6 1 10 9 10
        22 0 144 125 152 154 3 13 14 26 25 29 11 3 19 14 19 26 0 12 6 21 14 21 8 0
        20 17 27 38 7 20 20 43 31 50 10 7 18 21 18 31 0 10 9 30 20 44 11 14 20 33
        20 43 0 10 9 28 21 40 11 12 23 40 26 63 3 22 14 48 24 57 11 10 19 30 19 48
        0 20 7 36 19 43 12 7 21 29 26 60 4 29 14 53 26 61 13 9 19 25 19 53 0 27 4
        39 14 39 16 0 26 21 26 54 0 12 11 37 25 56 16 21 25 47 25 70 0 24 6 39 20
        48 13 8 20 23 20 45 0 19 8 42 20 54 11 12 24 40 29 63 5 23 16 49 25 59 9 10
        16 32 16 49 0 20 7 35 19 41 11 6 21 26 25 49 3 21 15 49 26 62 12 14 20 37
        20 61 0 27 5 41 19 48 12 7 21 26 25 55 4 24 16 52 26 61 12 11 20 31 20 52 0
        20 6 36 14 39 8 3 20 28 26 56 7 27 18 52 26 55 7 3 16 27 20 54 4 28 14 55
        25 65 11 10 19 31 19 50 0 23 6 37 19 44 13 6 22 25 26 54 4 25 16 53 26 62
        13 12 19 31 19 59 0 34 4 44 19 48 14 3 21 17 26 51 4 25 11 46 15 46 11 0 30
        49 30 80 0 19 7 33 19 40 13 6 22 25 26 54 4 25 13 47 20 50 7 2 16 23 20 46
        4 23 13 44 20 47 8 2 19 28 25 57 6 29 19 60 30 69 17 14 20 29 20 94 0 43 -5
        85 -10 93 -8 13 -98 15 -697 17 -378 1 -694 -1 -700 -4z"/>
    </g>
</svg>
