<svg id="svg" xmlns="http://www.w3.org/2000/svg" xmlns:xlink="http://www.w3.org/1999/xlink" width="400" height="270.6666666666667" viewBox="0, 0, 400,270.6666666666667" version="1.1"><g id="svgg"><path id="path0" d="M210.488 3.133 C 207.286 4.710,204.367 6.330,204.000 6.733 C 202.747 8.110,166.703 28.000,165.461 28.000 C 164.780 28.000,164.022 28.489,163.778 29.086 C 163.203 30.488,127.371 50.667,125.454 50.667 C 124.654 50.667,124.000 51.228,124.000 51.914 C 124.000 52.600,121.900 53.920,119.333 54.848 L 114.667 56.536 114.708 71.268 L 114.749 86.000 127.893 93.507 L 141.037 101.014 152.686 94.507 C 159.094 90.928,164.560 88.000,164.835 88.000 C 165.109 88.000,165.333 106.752,165.333 129.672 L 165.333 171.344 178.133 179.034 L 190.932 186.725 204.133 179.059 L 217.333 171.393 217.333 157.180 L 217.333 142.968 229.000 136.336 L 240.667 129.705 241.042 115.004 L 241.418 100.303 230.822 94.091 C 217.167 86.085,217.604 86.798,217.099 71.714 L 216.667 58.796 222.667 62.323 C 225.967 64.264,236.978 70.534,247.136 76.257 L 265.606 86.663 278.803 79.191 L 292.000 71.719 292.000 57.513 C 292.000 43.295,290.834 40.117,285.333 39.334 C 284.251 39.180,278.058 35.670,277.333 34.800 C 276.967 34.360,272.167 31.649,266.667 28.775 C 261.167 25.901,256.367 23.201,256.000 22.775 C 255.633 22.349,251.433 19.933,246.667 17.407 C 241.900 14.881,237.207 12.031,236.238 11.074 C 235.269 10.117,233.870 9.333,233.129 9.333 C 232.388 9.333,228.301 7.293,224.046 4.799 L 216.309 0.265 210.488 3.133 M288.725 204.261 C 286.990 205.267,278.392 205.667,263.058 205.454 L 240.000 205.135 240.000 237.901 L 240.000 270.667 245.667 270.669 L 251.333 270.672 250.914 256.669 L 250.495 242.667 259.914 242.667 L 269.333 242.667 269.333 236.885 L 269.333 231.104 261.078 230.806 C 250.630 230.429,250.667 230.458,250.667 222.588 L 250.667 216.000 266.667 216.000 L 282.667 216.000 282.667 243.333 L 282.667 270.667 288.000 270.667 L 293.333 270.667 293.333 236.667 C 293.333 217.967,292.883 202.685,292.333 202.707 C 291.783 202.730,290.159 203.429,288.725 204.261 M0.000 210.667 L 0.000 216.000 9.333 216.000 L 18.667 216.000 18.667 243.333 L 18.667 270.667 24.000 270.667 L 29.333 270.667 29.333 243.333 L 29.333 216.000 38.667 216.000 L 48.000 216.000 48.000 210.667 L 48.000 205.333 24.000 205.333 L 0.000 205.333 0.000 210.667 M47.927 223.118 C 29.445 235.950,38.514 270.667,60.349 270.667 C 66.460 270.667,77.333 266.390,77.333 263.987 C 77.333 259.986,71.073 257.505,65.672 259.366 C 59.185 261.601,54.761 260.490,51.476 255.799 C 48.867 252.074,48.549 252.258,66.333 247.221 L 80.000 243.351 80.000 238.942 C 80.000 223.749,60.720 214.236,47.927 223.118 M84.304 244.910 L 84.667 269.820 89.333 269.823 L 94.000 269.825 94.667 252.444 C 95.411 233.042,96.364 230.667,103.401 230.667 C 111.159 230.667,112.000 232.762,112.000 252.095 C 112.000 262.610,112.520 269.385,113.333 269.467 C 114.067 269.540,116.167 269.600,118.000 269.600 C 123.518 269.600,124.000 269.416,124.000 267.306 C 124.000 265.605,124.848 265.712,129.280 267.973 C 143.504 275.229,161.301 269.816,161.363 258.215 L 161.392 252.667 163.840 258.055 C 174.550 281.634,205.333 272.231,205.333 245.380 C 205.333 213.623,164.547 211.146,161.683 242.729 C 160.997 250.296,160.851 250.571,158.956 247.867 C 157.856 246.295,152.497 242.978,147.048 240.495 C 139.582 237.092,137.250 235.408,137.582 233.657 C 138.171 230.550,146.577 229.862,151.684 232.503 C 155.346 234.397,160.000 230.792,160.000 226.062 C 160.000 221.703,141.583 218.746,134.046 221.895 C 119.550 227.951,123.357 242.216,141.667 250.451 C 157.426 257.540,150.770 265.621,134.526 259.121 C 129.059 256.934,128.970 256.945,126.529 260.121 C 124.072 263.316,124.059 263.266,124.022 250.667 C 123.948 225.179,113.534 213.376,98.309 221.525 C 96.172 222.668,95.334 222.668,94.953 221.525 C 94.673 220.686,92.081 220.000,89.193 220.000 L 83.941 220.000 84.304 244.910 M222.333 221.929 C 220.317 222.981,218.667 223.277,218.667 222.588 C 218.667 221.898,216.267 221.333,213.333 221.333 L 208.000 221.333 208.000 246.000 L 208.000 270.667 213.199 270.667 L 218.399 270.667 218.866 253.215 C 219.411 232.861,221.105 229.718,230.662 231.333 C 235.302 232.116,235.568 231.950,236.967 227.392 C 239.146 220.292,231.175 217.317,222.333 221.929 M309.699 222.791 C 300.147 227.519,295.808 238.517,297.926 252.636 C 301.258 274.858,331.345 277.770,339.410 256.651 C 347.935 234.330,329.297 213.090,309.699 222.791 M339.085 223.168 C 339.926 225.359,352.000 269.350,352.000 270.222 C 352.000 270.555,354.246 270.641,356.992 270.414 L 361.983 270.000 366.040 254.965 L 370.096 239.930 374.020 255.298 L 377.944 270.667 382.227 270.667 C 387.666 270.667,387.200 271.597,394.109 246.926 C 401.406 220.870,401.393 221.333,394.856 221.333 L 389.711 221.333 386.601 235.346 C 383.342 250.031,382.709 250.700,380.315 242.000 C 374.329 220.247,374.873 221.333,369.957 221.333 C 364.994 221.333,364.103 223.144,359.956 241.675 C 357.647 251.996,357.171 251.532,353.456 235.333 L 350.245 221.333 344.313 221.333 C 339.826 221.333,338.553 221.780,339.085 223.168 M67.470 234.022 C 69.158 236.579,68.750 236.850,59.153 239.539 L 49.060 242.366 49.881 238.183 C 51.392 230.489,63.280 227.677,67.470 234.022 M189.907 233.786 C 199.545 243.423,191.434 264.736,179.941 259.976 C 175.451 258.116,174.115 256.140,172.852 249.486 C 170.249 235.781,181.523 225.402,189.907 233.786 M324.985 232.706 C 331.730 237.430,331.772 252.378,325.056 258.029 C 316.112 265.555,306.046 255.501,308.646 241.639 C 310.341 232.605,318.485 228.153,324.985 232.706 " stroke="none" fill="#8D8F92" fill-rule="evenodd"></path></g></svg>