<?xml version="1.0" standalone="no"?>
<!DOCTYPE svg PUBLIC "-//W3C//DTD SVG 20010904//EN"
 "http://www.w3.org/TR/2001/REC-SVG-20010904/DTD/svg10.dtd">
<svg version="1.0" xmlns="http://www.w3.org/2000/svg"
 width="1318.000000pt" height="396.000000pt" viewBox="0 0 1318.000000 396.000000"
 preserveAspectRatio="xMidYMid meet">
    <g transform="translate(0.000000,396.000000) scale(0.100000,-0.100000)"
    fill="#8D8F92" stroke="none">
        <path d="M1286 3411 c-4 -6 -10 -9 -14 -7 -4 2 -6 -216 -4 -485 l3 -489 -359
        0 c-296 0 -362 -2 -371 -14 -7 -8 -8 -16 -2 -18 5 -1 11 -19 12 -38 2 -19 13
        -54 26 -76 12 -23 20 -44 18 -48 -3 -3 -2 -4 1 -2 7 6 94 -91 94 -105 0 -6 -6
        -7 -12 -3 -7 4 -9 3 -5 -1 12 -14 38 -15 30 -2 -4 7 1 6 10 -2 9 -7 14 -18 10
        -24 -3 -6 -1 -7 5 -3 16 9 85 -60 76 -76 -4 -7 -4 -10 1 -6 10 9 56 -42 49
        -54 -3 -4 -1 -8 4 -8 6 0 8 -10 4 -22 -3 -13 -1 -19 5 -15 10 7 29 -38 24 -57
        -1 -5 2 -12 6 -15 14 -10 46 -64 34 -57 -6 4 -11 3 -11 -3 0 -5 6 -14 14 -18
        18 -11 47 -69 38 -78 -4 -3 -2 -5 5 -3 6 1 23 -12 37 -31 14 -19 26 -32 26
        -27 0 4 10 0 22 -8 14 -10 44 -16 77 -16 62 0 105 22 146 76 21 27 32 33 48
        29 15 -4 18 -3 9 3 -24 16 15 35 76 36 46 1 56 -2 54 -14 -3 -12 -1 -12 9 -3
        9 10 18 8 41 -8 15 -11 26 -25 23 -30 -4 -5 -1 -9 5 -9 6 0 8 -4 5 -10 -3 -5
        1 -10 9 -10 15 0 51 -68 144 -270 38 -81 41 -96 22 -92 -8 2 -11 0 -7 -5 5 -4
        16 -8 25 -8 10 0 18 -9 20 -22 2 -13 8 -23 13 -23 5 0 9 -5 9 -11 0 -6 10 -24
        21 -41 18 -25 19 -32 8 -39 -11 -7 -10 -9 4 -9 9 0 17 -5 17 -11 0 -5 -4 -7
        -10 -4 -16 10 -11 -1 7 -16 15 -12 16 -12 8 1 -8 13 -6 13 8 2 9 -8 15 -19 14
        -25 -1 -7 3 -11 10 -10 7 2 17 -6 23 -17 6 -11 7 -20 3 -21 -4 0 3 -5 17 -10
        20 -8 22 -12 10 -19 -13 -9 -13 -10 0 -11 8 -1 19 -1 24 0 13 3 46 -31 40 -40
        -3 -5 -10 -6 -16 -3 -6 4 -8 2 -5 -4 4 -5 16 -8 27 -5 14 4 20 0 20 -11 0 -8
        6 -13 13 -10 7 2 22 -3 32 -13 11 -10 29 -20 40 -21 11 -2 33 -11 50 -20 22
        -12 57 -16 135 -16 154 -1 180 9 177 64 -1 21 -5 36 -10 33 -4 -2 -8 3 -8 11
        -2 23 -4 29 -15 51 -25 48 -8 281 18 244 7 -10 8 -8 3 7 -7 27 4 56 18 47 6
        -4 8 0 5 8 -6 15 35 93 44 84 2 -3 11 7 18 23 27 53 32 56 53 30 l19 -23 -6
        32 c-4 27 0 36 25 57 17 15 35 24 40 21 5 -4 6 2 2 11 -5 13 -3 16 10 11 9 -3
        19 -1 23 5 5 7 2 8 -6 3 -9 -6 -11 -4 -6 4 5 7 15 10 23 7 11 -4 13 -2 9 9 -3
        9 0 15 9 15 8 0 15 4 15 8 0 11 69 44 80 37 4 -3 11 2 14 11 3 8 10 12 16 9 5
        -3 10 -2 10 3 0 5 12 14 26 20 14 7 23 9 20 4 -2 -4 4 -8 14 -8 10 0 16 5 13
        12 -4 12 144 73 190 78 15 1 30 5 33 9 4 3 6 124 5 269 l-1 262 -25 13 c-21
        11 -48 45 -50 63 0 3 -8 16 -17 30 -41 60 -48 106 -48 301 0 119 -4 190 -10
        194 -6 4 -94 6 -195 5 -163 -1 -185 1 -185 15 0 9 -5 13 -10 10 -6 -4 -8 -11
        -5 -16 4 -5 -17 -9 -47 -9 -66 0 -79 -9 -84 -51 -2 -19 -9 -59 -15 -89 -6 -30
        -13 -68 -15 -85 -3 -16 -9 -47 -14 -68 -10 -46 -4 -50 71 -48 63 1 58 6 72
        -64 4 -18 11 37 8 58 0 4 4 7 10 7 8 0 9 -15 4 -46 -8 -56 -15 -75 -24 -70 -4
        3 -7 -3 -8 -12 -7 -80 -16 -129 -25 -140 -8 -9 -34 -12 -89 -11 -43 2 -80 1
        -83 -1 -4 -5 -47 -206 -66 -310 -6 -36 -13 -73 -15 -84 -10 -53 34 -84 123
        -88 39 -1 43 -3 38 -23 -3 -12 -8 -37 -11 -56 -22 -125 -32 -164 -44 -161 -8
        1 -10 -2 -5 -10 5 -7 9 -20 9 -29 1 -14 -16 -16 -137 -18 -76 -1 -143 1 -148
        4 -5 3 -49 7 -97 9 -58 2 -101 9 -125 20 -42 20 -75 61 -55 69 7 3 5 6 -5 6
        -9 1 -18 11 -20 24 -5 36 3 107 12 102 5 -3 6 3 4 12 -3 10 8 86 25 168 16 83
        37 191 45 240 9 50 18 99 20 111 4 20 1 20 -61 17 -86 -6 -117 2 -104 25 5 9
        11 37 15 62 3 25 13 72 21 105 9 33 17 66 17 73 1 6 8 12 15 12 8 0 11 -5 7
        -11 -5 -8 -1 -8 14 0 26 14 105 15 97 1 -11 -18 11 -10 30 10 20 22 66 228 69
        310 1 24 -1 25 -76 28 l-78 3 0 237 0 237 -297 -3 c-216 -2 -298 0 -303 9 -6
        8 -9 8 -14 0z"/>
        <path d="M2237 3272 c-14 -3 -26 -36 -33 -91 -8 -62 -26 -127 -40 -142 -12
        -13 -12 -19 -3 -25 8 -5 10 -3 4 6 -5 9 -4 11 3 6 7 -4 13 -17 13 -29 1 -17 2
        -18 6 -4 4 15 19 17 129 17 68 0 124 2 124 4 0 3 9 49 19 103 11 54 21 109 23
        123 l3 25 -116 5 c-64 3 -123 4 -132 2z"/>
        <path d="M2261 2932 c-93 -2 -104 -5 -108 -22 -3 -11 -10 -20 -15 -20 -5 0 -6
        -5 -3 -10 6 -10 -3 -66 -27 -170 -6 -25 -12 -58 -14 -73 -5 -38 -64 -347 -70
        -370 -3 -9 -10 -15 -15 -12 -5 4 -9 2 -9 -4 0 -5 5 -13 10 -16 6 -4 7 -12 1
        -22 -4 -9 -6 -25 -4 -37 4 -16 2 -18 -5 -7 -8 11 -9 5 -7 -21 3 -34 -5 -61
        -19 -59 -23 3 -30 0 -16 -8 8 -6 18 -7 24 -4 6 4 6 -1 2 -13 -5 -10 -9 -26
        -10 -34 -1 -8 -5 -22 -8 -30 -13 -31 -30 -149 -23 -159 4 -7 53 -11 128 -11
        141 0 150 5 155 80 2 38 27 177 97 535 7 39 16 90 20 115 4 25 12 50 17 57 5
        7 7 17 3 23 -4 6 -1 17 5 25 6 8 10 18 7 22 -8 13 32 206 43 213 13 8 -6 25
        -35 31 -11 2 -67 3 -124 1z"/>
        <path d="M3600 2911 c-20 -38 -61 -183 -56 -197 8 -20 29 -17 43 5 24 38 100
        64 204 69 53 2 109 2 123 -2 l26 -6 0 -426 c0 -253 -4 -433 -10 -443 -5 -10
        -22 -24 -39 -30 -16 -7 -31 -21 -34 -32 -5 -18 2 -19 183 -19 157 0 189 2 194
        15 3 10 -5 20 -23 29 -53 28 -52 14 -52 470 0 235 3 432 7 438 10 16 230 5
        274 -14 19 -9 46 -27 59 -42 26 -27 46 -33 56 -16 7 11 -18 89 -54 173 l-20
        47 -435 0 c-419 0 -436 -1 -446 -19z"/>
        <path d="M6958 2663 c-64 -21 -119 -71 -153 -137 -24 -47 -27 -63 -22 -109 7
        -74 38 -130 91 -166 40 -28 82 -42 314 -107 71 -20 92 -42 92 -99 0 -83 -74
        -123 -200 -111 -82 8 -148 40 -227 111 -41 37 -67 53 -78 49 -18 -7 -15 -31
        16 -124 10 -30 23 -74 29 -97 9 -37 15 -43 37 -43 14 0 31 8 38 17 12 17 15
        17 50 0 20 -10 70 -23 110 -29 86 -13 192 0 258 33 48 24 117 87 117 106 0 7
        4 13 9 13 14 0 30 112 22 160 -4 25 -19 64 -34 86 -46 74 -94 97 -298 143
        -145 34 -179 53 -179 102 0 45 37 78 97 88 104 16 205 -15 283 -86 41 -36 71
        -39 69 -6 0 10 -13 61 -28 113 -24 88 -28 95 -54 98 -19 2 -27 -1 -27 -12 0
        -20 -4 -20 -73 4 -69 24 -191 26 -259 3z"/>
        <path d="M4350 2649 c0 -13 10 -23 29 -30 19 -7 33 -21 40 -41 14 -40 15 -627
        1 -663 -6 -15 -22 -30 -40 -36 -19 -7 -30 -18 -30 -30 0 -19 11 -19 346 -17
        l347 3 38 99 c30 76 36 102 26 108 -16 10 -25 10 -32 -2 -4 -6 -11 -7 -17 -4
        -6 4 -8 2 -5 -3 10 -16 -57 -70 -100 -82 -21 -6 -102 -11 -179 -11 l-141 0 -7
        31 c-3 17 -6 78 -6 136 l0 104 137 -3 138 -3 20 -32 c13 -22 27 -32 40 -30 19
        2 20 9 20 122 0 117 -1 120 -22 123 -17 3 -26 -3 -33 -22 -14 -38 -47 -46
        -181 -46 l-119 0 0 96 c0 137 -3 134 136 134 145 0 192 -12 249 -62 73 -64 83
        -38 34 96 l-31 86 -329 0 c-325 0 -329 0 -329 -21z"/>
        <path d="M5090 2650 c0 -13 11 -25 33 -34 44 -19 78 -57 195 -224 l102 -144
        -34 -52 c-43 -68 -146 -209 -191 -263 -21 -25 -47 -44 -65 -48 -34 -7 -63 -32
        -55 -46 4 -5 80 -9 171 -9 150 0 164 2 164 18 0 9 -15 24 -33 32 -19 9 -31 22
        -31 32 2 19 130 224 147 235 6 4 8 0 4 -11 -4 -10 -3 -15 3 -11 10 6 98 -114
        131 -178 23 -43 16 -61 -26 -71 -16 -4 -25 -13 -25 -26 0 -19 8 -20 285 -20
        265 0 285 1 285 18 0 9 -14 25 -30 34 -35 20 -36 33 -7 113 l22 60 165 3 165
        2 24 -75 c25 -80 22 -97 -20 -110 -10 -4 -19 -15 -19 -26 0 -18 9 -19 180 -19
        165 0 180 1 180 18 -1 9 -15 26 -33 37 -39 24 -61 68 -128 245 -28 74 -83 222
        -123 328 -40 106 -77 197 -83 203 -5 5 -50 9 -102 7 l-92 -3 -45 -110 c-25
        -60 -86 -216 -135 -345 -91 -237 -127 -310 -154 -310 -12 0 -105 118 -105 133
        0 3 -11 18 -25 33 -25 27 -114 155 -134 193 -10 18 -4 32 40 98 68 101 95 134
        104 125 5 -4 5 -2 2 4 -13 23 73 113 127 134 16 6 26 17 26 30 0 19 -6 20
        -155 20 -147 0 -155 -1 -155 -19 0 -12 9 -23 23 -27 23 -7 37 -22 37 -40 0
        -10 -79 -137 -123 -198 -13 -18 -17 -13 -71 69 -32 49 -60 95 -63 102 -10 26
        7 61 33 67 17 5 24 12 22 24 -3 15 -24 17 -206 20 -196 2 -202 2 -202 -18z
        m1270 -315 c5 -11 11 -27 12 -35 2 -8 5 -17 8 -20 4 -3 16 -31 28 -62 l21 -58
        -125 0 c-116 0 -126 1 -119 18 4 9 33 84 63 165 l56 149 23 -69 c13 -37 27
        -77 33 -88z"/>
        <path d="M3857 1663 c-16 -15 -5 -34 27 -47 19 -8 39 -23 45 -34 7 -14 11
        -167 11 -470 0 -495 4 -466 -63 -491 -17 -7 -27 -18 -27 -31 0 -19 6 -20 195
        -20 190 0 195 1 195 21 0 13 -10 23 -30 31 -17 5 -35 19 -41 30 -11 20 -14
        904 -3 933 3 8 21 20 40 27 25 9 34 18 34 35 l0 23 -188 0 c-104 0 -192 -3
        -195 -7z"/>
        <path d="M5395 1416 c-27 -7 -61 -18 -75 -25 -40 -21 -100 -83 -116 -120 -18
        -43 -18 -152 0 -194 19 -48 91 -104 155 -124 31 -10 58 -20 61 -24 3 -3 12 -6
        20 -7 25 -2 144 -30 175 -42 50 -19 65 -39 65 -86 0 -34 -6 -51 -29 -76 -28
        -32 -32 -33 -118 -36 -120 -5 -178 17 -270 102 -97 90 -110 79 -72 -62 11 -42
        24 -94 30 -114 8 -30 15 -38 33 -38 13 0 30 10 38 21 14 21 14 21 48 3 52 -27
        64 -29 195 -29 100 0 127 4 166 21 109 50 163 132 162 245 -1 76 -18 123 -61
        165 -44 45 -102 68 -237 98 -66 15 -134 31 -151 37 -44 14 -61 51 -55 117 2
        20 81 52 131 52 88 0 251 -64 234 -92 -4 -6 -3 -8 3 -5 6 4 18 -2 28 -13 20
        -22 24 -23 44 -11 12 8 9 26 -19 113 -18 56 -37 108 -42 114 -12 16 -48 5 -48
        -13 0 -17 -1 -16 -90 16 -62 23 -131 25 -205 7z"/>
        <path d="M12177 1419 c-59 -14 -110 -44 -154 -92 -83 -90 -85 -215 -4 -300 47
        -50 109 -77 265 -118 153 -39 181 -58 180 -116 -2 -76 -57 -113 -168 -113
        -107 0 -168 25 -254 105 -58 54 -72 62 -85 52 -15 -11 -14 -23 16 -137 30
        -119 33 -125 59 -128 18 -2 30 3 37 16 10 18 12 18 83 -6 64 -21 85 -24 178
        -19 150 6 233 48 283 141 32 61 32 194 -1 252 -36 62 -100 98 -233 129 -188
        44 -217 54 -234 77 -32 47 -10 101 52 124 86 33 234 -3 314 -76 45 -42 69 -45
        69 -10 0 11 -12 62 -27 114 -22 81 -30 95 -49 99 -16 3 -28 -2 -36 -15 -13
        -19 -14 -19 -63 3 -55 24 -163 33 -228 18z"/>
        <path d="M4308 1412 c-24 -5 -23 -39 2 -47 11 -3 29 -18 40 -32 19 -25 20 -39
        20 -339 0 -172 -4 -324 -9 -337 -6 -14 -23 -29 -40 -35 -21 -8 -31 -18 -31
        -31 0 -20 5 -21 144 -21 80 0 147 4 150 9 9 14 -4 41 -20 41 -7 0 -26 11 -41
        24 l-28 24 -2 259 -3 258 38 -44 c33 -40 271 -313 374 -431 115 -131 134 -149
        156 -150 l22 0 0 370 c0 398 1 410 52 436 66 34 22 52 -124 50 -118 -2 -154
        -12 -126 -35 7 -6 26 -21 41 -33 l28 -23 -3 -184 -3 -184 -95 109 c-52 60
        -144 164 -204 232 l-110 123 -105 -2 c-58 -2 -114 -5 -123 -7z"/>
        <path d="M5893 1402 c-11 -9 -18 -22 -16 -27 2 -6 -8 -48 -22 -95 -30 -99 -29
        -96 -9 -104 11 -4 29 8 56 39 59 67 95 80 206 76 l22 -1 0 -313 c0 -339 0
        -341 -55 -355 -20 -6 -31 -16 -33 -30 -3 -22 -3 -22 188 -22 191 0 191 0 188
        22 -2 15 -13 24 -34 30 -59 15 -59 13 -62 346 -2 208 0 308 8 316 16 16 126 8
        168 -13 20 -10 52 -37 70 -60 28 -34 36 -39 52 -31 16 8 17 15 9 42 -5 18 -13
        42 -18 53 -5 11 -17 45 -27 75 -9 30 -22 58 -28 62 -5 4 -153 7 -327 7 -285 0
        -319 -1 -336 -17z"/>
        <path d="M6635 1412 c-14 -15 -3 -42 20 -48 54 -13 55 -21 55 -372 0 -192 -4
        -331 -10 -342 -5 -10 -23 -23 -40 -28 -20 -8 -30 -18 -30 -31 0 -20 5 -21 180
        -21 l180 0 0 25 c0 18 -5 25 -18 25 -11 0 -27 9 -38 21 -16 18 -20 40 -22 146
        l-4 126 67 -5 c44 -4 76 -12 92 -24 14 -11 47 -62 73 -113 54 -104 105 -164
        165 -192 75 -35 255 -18 255 24 0 8 -12 18 -27 22 -57 13 -98 52 -153 144 -61
        103 -97 143 -149 171 -27 14 -31 19 -16 20 37 1 122 48 148 82 60 78 55 206
        -10 279 -43 48 -103 75 -191 88 -70 10 -517 13 -527 3z m505 -140 c41 -22 55
        -63 46 -136 -10 -85 -47 -107 -182 -109 l-94 -2 0 117 c0 64 3 123 6 132 9 25
        177 23 224 -2z"/>
        <path d="M7488 1412 c-20 -2 -28 -9 -28 -23 0 -10 6 -19 14 -19 8 0 24 -9 37
        -19 24 -19 24 -20 29 -303 6 -323 7 -329 95 -406 72 -63 124 -77 295 -77 139
        0 147 1 203 28 31 16 68 43 82 61 50 65 55 99 56 370 1 138 4 264 8 281 4 19
        18 37 38 50 22 13 32 27 30 40 -2 19 -10 20 -139 21 -138 0 -138 0 -138 -23 0
        -13 5 -23 10 -23 6 0 22 -11 35 -25 l25 -24 0 -268 c0 -300 -4 -319 -68 -357
        -47 -27 -179 -28 -246 -2 -39 15 -51 26 -67 60 -17 37 -19 68 -19 299 0 159 4
        266 10 278 6 10 24 26 40 34 31 16 39 39 18 48 -15 5 -280 5 -320 -1z"/>
        <path d="M8385 1412 c-14 -14 -3 -40 20 -46 53 -13 55 -26 56 -367 0 -184 -4
        -325 -10 -341 -6 -15 -22 -30 -40 -36 -21 -8 -31 -18 -31 -31 0 -20 5 -21 140
        -21 l140 0 0 25 c0 18 -5 25 -20 25 -44 0 -49 29 -52 307 -2 144 -2 261 -2
        260 1 -1 14 -31 29 -67 14 -36 39 -90 55 -120 55 -108 180 -411 174 -422 -4
        -7 -3 -8 4 -4 7 4 12 2 12 -3 0 -6 10 -11 23 -11 15 0 26 10 36 33 8 17 28 61
        43 97 16 36 56 128 88 205 32 77 71 167 88 200 16 33 32 67 35 75 3 8 6 -97 6
        -235 1 -281 -2 -295 -67 -321 -1 -1 -4 -11 -7 -23 -4 -21 -2 -21 176 -21 174
        0 179 1 179 21 0 13 -10 23 -30 31 -17 5 -35 18 -40 28 -13 25 -13 640 0 675
        6 16 23 32 40 38 22 9 30 17 28 32 -3 19 -10 20 -152 20 -122 0 -150 -3 -157
        -15 -18 -33 -52 -115 -51 -122 1 -5 -2 -8 -8 -8 -6 0 -9 -3 -8 -7 1 -5 -9 -30
        -21 -58 -12 -27 -36 -84 -54 -125 -17 -41 -34 -77 -39 -78 -4 -2 -6 -7 -3 -12
        5 -8 -34 -104 -40 -98 -2 2 -47 104 -100 228 -109 252 -123 282 -139 292 -12
        9 -292 8 -301 0z"/>
        <path d="M9505 1403 c-9 -25 -6 -29 30 -42 53 -19 57 -46 53 -396 -3 -278 -4
        -305 -22 -323 -10 -12 -28 -22 -40 -24 -13 -2 -22 -11 -24 -25 l-3 -23 349 0
        349 0 37 95 c21 53 35 102 32 110 -9 24 -34 17 -58 -15 -42 -58 -96 -74 -256
        -78 -103 -3 -146 -1 -157 8 -12 10 -15 40 -15 142 l0 130 131 -3 c140 -4 139
        -4 175 -65 6 -11 16 -15 27 -11 15 5 17 23 17 127 0 118 0 120 -22 120 -15 0
        -29 -11 -40 -30 l-17 -30 -136 0 -135 0 0 105 c0 91 2 107 18 113 28 12 244 6
        286 -8 21 -7 56 -28 77 -47 39 -35 69 -39 69 -8 0 32 -62 175 -80 185 -12 6
        -136 10 -329 9 -258 -2 -311 -5 -316 -16z"/>
        <path d="M10278 1402 c-9 -10 -2 -22 33 -52 l44 -38 0 -325 c0 -305 -1 -326
        -19 -346 -11 -12 -27 -21 -36 -21 -19 0 -34 -26 -24 -41 3 -5 70 -9 150 -9
        137 0 144 1 144 20 0 13 -12 25 -34 34 -51 21 -57 55 -54 322 l3 227 170 -193
        c94 -106 187 -214 208 -239 110 -130 161 -181 183 -181 l24 0 0 380 0 379 25
        26 c14 14 30 25 35 25 15 0 12 37 -2 42 -25 8 -204 8 -233 0 -39 -11 -45 -37
        -10 -46 45 -11 55 -54 55 -243 l0 -168 -53 55 c-66 71 -124 136 -161 180 -38
        47 -133 155 -173 197 l-33 34 -115 -3 c-83 -1 -119 -6 -127 -16z"/>
        <path d="M11202 1407 c-6 -6 -22 -48 -36 -92 -39 -122 -40 -131 -21 -139 12
        -4 29 7 57 39 22 25 53 52 69 60 29 15 138 23 158 11 14 -9 15 -583 1 -621 -7
        -17 -24 -32 -50 -42 -27 -11 -40 -22 -40 -35 0 -17 12 -18 191 -18 190 0 190
        0 187 22 -2 15 -13 24 -34 30 -60 15 -59 12 -59 352 l0 311 55 3 c92 5 118 -4
        177 -65 46 -47 57 -53 68 -42 11 12 8 31 -17 114 -16 55 -34 105 -39 112 -15
        17 -653 18 -667 0z"/>
    </g>
</svg>
