<?xml version="1.0" standalone="no"?>
<!DOCTYPE svg PUBLIC "-//W3C//DTD SVG 20010904//EN"
 "http://www.w3.org/TR/2001/REC-SVG-20010904/DTD/svg10.dtd">
<svg version="1.0" xmlns="http://www.w3.org/2000/svg"
 width="700.000000pt" height="700.000000pt" viewBox="0 0 700.000000 700.000000"
 preserveAspectRatio="xMidYMid meet">

<g transform="translate(0.000000,700.000000) scale(0.100000,-0.100000)"
fill="#8D8F92" stroke="none">
<path d="M1730 5616 c-177 -50 -324 -196 -377 -377 -14 -48 -16 -237 -21
-1719 -3 -1274 -1 -1684 8 -1748 34 -233 208 -413 443 -457 118 -22 3306 -22
3424 0 208 39 366 183 430 390 17 57 18 133 14 1775 -3 1632 -4 1718 -22 1775
-41 134 -142 256 -260 316 -125 63 -9 59 -1884 58 -1339 -1 -1720 -4 -1755
-13z m1352 -568 c25 -16 60 -45 77 -65 64 -78 61 0 61 -1392 0 -831 -4 -1279
-10 -1303 -18 -63 -70 -129 -130 -162 l-55 -31 -449 -3 c-496 -3 -517 -1 -589
58 -20 17 -49 53 -65 78 l-27 47 -3 1295 c-2 1189 -1 1299 14 1339 23 60 79
119 139 148 l50 23 470 -2 470 -3 47 -27z m1863 8 c60 -28 116 -87 139 -147
15 -40 16 -113 14 -794 -3 -719 -4 -752 -22 -789 -27 -53 -80 -104 -135 -130
-45 -20 -58 -21 -501 -21 -362 0 -463 3 -494 14 -49 17 -121 82 -149 136 -22
40 -22 43 -25 780 -2 529 0 751 8 780 24 82 89 153 167 181 30 10 139 13 493
13 l455 1 50 -24z"/>
</g>
</svg>
