<?xml version="1.0" standalone="no"?>
<!DOCTYPE svg PUBLIC "-//W3C//DTD SVG 20010904//EN"
 "http://www.w3.org/TR/2001/REC-SVG-20010904/DTD/svg10.dtd">
<svg version="1.0" xmlns="http://www.w3.org/2000/svg"
 width="767.000000pt" height="767.000000pt" viewBox="0 0 767.000000 767.000000"
 preserveAspectRatio="xMidYMid meet">

<g transform="translate(0.000000,767.000000) scale(0.100000,-0.100000)"
fill="#8D8F92" stroke="none">
<path d="M2230 7249 c-1202 -230 -2195 -421 -2207 -424 l-23 -5 0 -2983 0
-2983 318 -61 c174 -34 1166 -224 2205 -423 1038 -200 1890 -361 1892 -358 3
3 4 1726 3 3830 l-3 3825 -2185 -418z m-1080 -1932 c0 -2 76 -469 169 -1038
118 -724 171 -1072 176 -1161 4 -71 11 -128 15 -128 4 0 10 39 14 87 3 48 20
147 36 219 16 72 115 531 220 1020 105 489 196 910 201 937 l11 47 279 0 279
0 5 -22 c26 -111 395 -2110 395 -2142 1 -58 16 -26 23 49 4 33 81 515 172
1072 91 557 165 1017 165 1023 0 7 88 10 266 10 l266 0 -5 -22 c-3 -13 -139
-675 -302 -1473 -163 -797 -299 -1453 -302 -1458 -6 -9 -573 -9 -573 1 0 4
-88 437 -196 962 -108 525 -203 1016 -213 1090 l-17 135 -7 -83 c-4 -46 -18
-133 -32 -195 -13 -62 -105 -510 -205 -997 -99 -487 -183 -893 -186 -902 -5
-17 -28 -18 -304 -18 -164 0 -301 3 -303 8 -6 8 -617 2955 -617 2972 0 7 93
10 285 10 157 0 285 -1 285 -3z"/>
<path d="M4720 6350 l0 -440 1035 0 1035 0 0 -305 0 -305 -1035 0 -1035 0 0
-290 0 -290 1035 0 1035 0 0 -295 0 -295 -1035 0 -1035 0 0 -295 0 -295 1035
0 1035 0 0 -295 0 -295 -1035 0 -1035 0 0 -290 0 -290 1035 0 1035 0 0 -295 0
-295 -1035 0 -1035 0 0 -440 0 -440 1383 2 1382 3 41 22 c23 12 58 41 78 65
72 83 66 -151 64 2878 l-3 2735 -22 41 c-27 50 -75 97 -122 121 -34 17 -111
18 -1418 21 l-1383 2 0 -440z"/>
</g>
</svg>
