<?xml version="1.0" standalone="no"?>
<!DOCTYPE svg PUBLIC "-//W3C//DTD SVG 20010904//EN"
 "http://www.w3.org/TR/2001/REC-SVG-20010904/DTD/svg10.dtd">
<svg version="1.0" xmlns="http://www.w3.org/2000/svg"
 width="512.000000pt" height="512.000000pt" viewBox="0 0 512.000000 512.000000"
 preserveAspectRatio="xMidYMid meet">

<g transform="translate(0.000000,512.000000) scale(0.100000,-0.100000)"
fill="#444444" stroke="none">
<path d="M2395 4194 c-204 -32 -387 -163 -480 -345 -46 -90 -65 -169 -72 -303
-7 -134 5 -197 47 -241 24 -26 30 -43 39 -121 19 -158 69 -268 172 -379 l59
-63 0 -75 c0 -57 -4 -80 -17 -96 -10 -11 -121 -66 -248 -122 -263 -116 -324
-153 -376 -229 -75 -109 -73 -93 -77 -680 -2 -353 0 -537 7 -561 19 -62 101
-75 130 -20 7 13 11 191 11 535 0 284 4 516 8 516 12 0 207 -201 223 -230 11
-20 15 -108 19 -418 l5 -394 29 -25 c31 -27 66 -25 99 4 16 15 17 48 17 414 0
502 13 456 -183 656 -139 142 -141 144 -121 163 18 19 457 220 479 220 5 0 79
-69 162 -152 l152 -153 3 -563 3 -564 28 -24 c15 -13 37 -24 47 -24 10 0 32
11 47 24 l28 24 3 564 3 563 152 153 c83 83 157 152 162 152 22 0 461 -201
479 -220 20 -19 18 -21 -121 -163 -196 -200 -183 -154 -183 -656 0 -366 1
-399 18 -414 32 -29 67 -31 98 -4 l29 25 5 394 c4 310 8 398 19 418 16 29 211
230 223 230 4 0 8 -232 8 -516 0 -344 4 -522 11 -535 29 -55 111 -42 130 20 7
24 9 208 7 561 -4 587 -2 571 -77 680 -52 76 -113 113 -376 229 -126 56 -238
111 -247 122 -14 16 -18 39 -18 96 l0 75 63 68 c70 76 128 180 152 275 9 33
18 121 22 195 5 116 9 137 25 148 36 26 52 73 51 152 -4 229 -142 446 -349
549 -109 54 -156 63 -334 66 -91 2 -178 1 -195 -1z m399 -173 c188 -67 305
-219 331 -427 l7 -52 -88 -12 c-105 -15 -315 -8 -390 13 -83 23 -175 69 -244
121 -41 31 -75 49 -92 49 -40 0 -68 -29 -68 -71 0 -30 8 -43 51 -83 60 -55
203 -129 309 -160 60 -17 110 -22 255 -26 l180 -4 -1 -104 c-3 -160 -44 -265
-144 -365 -97 -97 -202 -140 -340 -140 -138 0 -243 43 -340 140 -84 84 -131
185 -145 313 -6 57 -6 57 26 75 17 9 53 34 80 55 42 32 49 42 49 72 0 43 -29
75 -67 75 -16 0 -54 -17 -87 -40 -90 -61 -90 -61 -83 78 3 64 13 142 22 172
45 149 172 277 320 323 78 25 90 26 250 22 122 -2 161 -6 209 -24z m-402
-1391 c49 -14 103 -20 168 -20 65 0 119 6 168 20 39 11 74 20 77 20 3 0 5 -17
5 -39 0 -21 6 -54 14 -73 l15 -34 -140 -140 -139 -139 -139 139 -140 140 15
34 c8 19 14 52 14 73 0 22 2 39 5 39 3 0 38 -9 77 -20z"/>
<path d="M733 3790 c-95 -20 -178 -87 -222 -180 -21 -45 -26 -71 -26 -140 l-1
-85 -75 -75 c-130 -131 -169 -240 -169 -470 0 -229 39 -339 167 -469 l73 -73
0 -92 c0 -67 -4 -98 -16 -114 -8 -12 -86 -58 -172 -102 -175 -88 -220 -125
-261 -210 l-26 -55 -3 -365 c-2 -201 0 -375 3 -387 3 -13 19 -30 36 -39 26
-13 36 -13 60 -3 17 6 34 20 39 30 6 10 10 151 10 336 l0 317 71 -69 c39 -39
77 -84 85 -102 11 -24 14 -85 14 -242 0 -135 4 -219 11 -235 23 -51 103 -55
128 -7 7 12 11 105 11 245 0 296 -1 298 -153 454 -67 67 -107 116 -101 121 5
4 80 44 166 88 l157 80 90 -91 91 -91 0 -387 c0 -266 4 -395 11 -412 23 -51
103 -55 128 -7 7 13 11 155 11 413 l0 393 91 91 91 92 74 -35 c67 -32 75 -34
101 -21 15 7 32 25 37 39 16 47 1 73 -66 110 -34 19 -68 45 -75 59 -7 14 -13
61 -13 109 l0 83 69 68 c50 50 81 92 109 149 56 112 65 163 60 365 -4 161 -6
175 -33 244 -35 87 -110 190 -170 233 l-43 31 5 73 c7 90 -13 155 -67 224 -67
85 -200 133 -307 111z m152 -170 c39 -24 75 -88 75 -133 l0 -35 -41 9 c-56 13
-140 15 -221 5 l-68 -8 0 27 c0 60 57 136 116 155 39 12 101 3 139 -20z m25
-312 c49 -15 120 -53 152 -81 79 -73 138 -196 138 -292 0 -48 -2 -49 -103 -61
-120 -14 -268 42 -370 141 -74 72 -103 74 -178 10 -51 -43 -148 -99 -157 -91
-2 3 1 29 8 60 49 237 284 381 510 314z m-220 -459 c106 -79 202 -115 335
-125 44 -3 100 -1 125 4 24 6 46 9 49 6 9 -8 -21 -115 -45 -161 -71 -134 -206
-214 -359 -214 -209 1 -373 150 -400 362 l-7 55 54 17 c30 9 83 35 118 56 36
22 67 40 70 41 3 0 30 -18 60 -41z m45 -638 c61 -6 163 0 201 13 20 6 22 2 27
-71 l5 -78 -84 -85 -84 -85 -87 87 -88 88 3 75 c3 73 5 76 25 69 12 -4 49 -10
82 -13z"/>
<path d="M4015 3630 c-191 -32 -343 -168 -389 -346 -18 -70 -22 -294 -6 -324
5 -10 23 -23 40 -28 30 -11 30 -12 30 -84 1 -129 38 -230 119 -320 l43 -48 -4
-70 c-3 -66 -5 -70 -46 -108 -50 -46 -55 -80 -17 -117 28 -29 48 -31 89 -10
l30 16 93 -93 93 -93 0 -513 c0 -343 4 -520 11 -533 25 -48 105 -44 128 7 8
18 11 176 11 532 l0 507 90 90 91 91 218 -110 219 -110 -76 -81 c-41 -44 -86
-104 -101 -135 l-26 -55 -3 -357 c-2 -246 1 -364 8 -378 26 -49 105 -45 129 6
7 17 11 131 11 355 0 260 3 336 14 362 8 18 46 63 85 102 l71 69 0 -437 c0
-262 4 -446 10 -456 5 -10 22 -24 39 -30 24 -10 34 -10 60 3 17 9 33 26 36 39
3 12 5 225 3 472 l-3 450 -27 50 c-48 91 -86 119 -340 246 -136 68 -243 128
-252 141 -11 15 -16 44 -16 86 0 60 2 66 40 110 76 86 120 209 120 337 0 58 2
65 19 65 11 0 29 12 41 28 21 26 22 34 17 162 -3 80 -12 155 -21 184 -45 140
-161 258 -304 307 -65 23 -290 34 -377 19z m370 -179 c112 -56 173 -152 182
-292 l6 -79 -30 0 c-104 0 -318 56 -452 119 -95 45 -106 44 -173 -13 -21 -19
-66 -48 -98 -65 l-60 -32 0 65 c0 160 107 293 262 326 24 5 101 8 171 6 120
-3 132 -6 192 -35z m-100 -479 c50 -12 115 -25 145 -29 l55 -8 -1 -86 c0 -69
-5 -95 -26 -141 -53 -115 -168 -190 -293 -189 -103 1 -185 38 -249 113 -55 64
-76 131 -76 243 l0 93 33 11 c17 7 56 28 86 49 l54 38 91 -36 c50 -20 132 -46
181 -58z m-175 -601 c54 -6 125 -1 186 14 30 7 32 6 36 -29 4 -33 -1 -41 -84
-123 l-88 -88 -86 87 c-85 84 -86 87 -80 123 7 34 9 36 34 30 15 -4 52 -10 82
-14z"/>
</g>
</svg>
