<?xml version="1.0" standalone="no"?>
<!DOCTYPE svg PUBLIC "-//W3C//DTD SVG 20010904//EN"
 "http://www.w3.org/TR/2001/REC-SVG-20010904/DTD/svg10.dtd">
<svg version="1.0" xmlns="http://www.w3.org/2000/svg"
 width="512.000000pt" height="512.000000pt" viewBox="0 0 512.000000 512.000000"
 preserveAspectRatio="xMidYMid meet">

<g transform="translate(0.000000,512.000000) scale(0.100000,-0.100000)"
fill="#545454" stroke="none">
<path d="M1455 5114 c-90 -13 -199 -38 -265 -61 -214 -73 -419 -219 -554 -396
-166 -218 -239 -433 -251 -747 -6 -138 -5 -159 12 -190 16 -30 28 -39 80 -55
1 0 11 -46 22 -102 56 -274 180 -503 378 -700 l103 -102 0 -298 0 -298 -422
-99 c-233 -54 -439 -105 -458 -115 -19 -9 -40 -27 -47 -41 -10 -20 -12 -224
-10 -943 l2 -919 28 -24 28 -24 1470 0 c1567 0 1515 -2 1533 45 11 31 7 1855
-5 1877 -6 11 -25 25 -42 32 -18 7 -222 57 -454 112 l-423 98 0 301 0 300 90
88 c227 221 363 493 403 807 11 82 15 95 32 98 11 2 30 13 43 25 20 19 22 29
22 137 0 317 -117 609 -332 831 -171 178 -381 293 -623 344 -77 16 -299 28
-360 19z m340 -189 c337 -70 638 -337 750 -665 30 -89 55 -215 55 -281 l0 -49
-162 0 c-220 0 -290 22 -390 123 -67 67 -104 142 -119 237 -13 92 -27 121 -62
138 -24 12 -45 9 -172 -22 -372 -91 -741 -244 -1044 -431 -49 -30 -91 -55 -93
-55 -10 0 14 203 32 269 61 219 194 417 371 551 135 102 305 173 475 200 81
12 262 5 359 -15z m13 -828 c22 -52 91 -145 144 -191 114 -100 236 -143 432
-153 l128 -6 -7 -61 c-29 -262 -157 -519 -353 -710 -81 -79 -128 -113 -224
-162 -244 -123 -556 -105 -783 47 -265 178 -458 502 -493 833 l-8 76 70 44
c282 174 594 310 921 401 l120 33 21 -62 c12 -33 26 -74 32 -89z m-512 -1492
c205 -65 462 -53 651 30 28 13 54 21 57 17 3 -3 6 -89 6 -191 l0 -186 -215
-108 -215 -107 -215 107 -215 108 0 193 0 192 38 -16 c20 -9 69 -27 108 -39z
m-24 -656 c-46 -15 -92 -31 -103 -34 -18 -6 -19 -1 -19 79 l0 86 103 -51 102
-52 -83 -28z m738 47 c0 -40 -3 -75 -6 -78 -6 -7 -194 53 -194 62 0 9 184 98
193 93 4 -2 7 -37 7 -77z m-1030 -916 l0 -910 -385 0 -385 0 0 819 0 819 173
41 c94 23 264 63 377 90 113 27 208 50 213 50 4 1 7 -408 7 -909z m1580 820
c190 -44 353 -83 363 -86 16 -5 17 -53 17 -825 l0 -819 -380 0 -380 0 0 911
c0 862 1 910 18 905 9 -3 172 -42 362 -86z m-1214 -467 c-58 -214 -106 -399
-106 -411 0 -27 254 -538 283 -569 24 -27 72 -30 105 -7 24 17 292 542 292
572 0 9 -49 196 -109 415 -59 219 -103 396 -97 394 6 -2 75 -25 154 -51 l142
-48 -2 -776 -3 -777 -427 -3 -428 -2 0 779 0 779 148 50 c81 27 149 48 150 46
2 -1 -44 -177 -102 -391z m318 -105 l79 -292 -83 -166 -82 -165 -83 164 -82
165 24 85 c13 47 49 179 80 294 31 114 59 207 62 207 3 0 41 -131 85 -292z"/>
<path d="M840 3730 c-29 -29 -32 -50 -28 -253 4 -256 -30 -232 337 -232 l289
0 26 24 c22 21 26 33 26 83 l0 58 85 0 85 0 0 -40 c0 -62 22 -105 60 -119 51
-17 531 -15 575 3 50 21 57 58 53 268 -3 171 -4 177 -27 202 l-24 26 -292 0
-292 0 -22 -24 c-17 -18 -24 -41 -28 -85 l-6 -62 -81 3 -81 3 -5 61 c-9 108 6
104 -337 104 -278 0 -294 -1 -313 -20z m480 -235 l0 -85 -170 0 -170 0 0 85 0
85 170 0 170 0 0 -85z m858 3 l-3 -83 -170 0 -170 0 -3 83 -3 82 176 0 176 0
-3 -82z"/>
<path d="M3630 5035 l0 -85 -85 0 -85 0 0 -85 0 -85 85 0 85 0 0 -85 0 -85 85
0 85 0 0 85 0 85 85 0 85 0 0 85 0 85 -85 0 -85 0 0 85 0 85 -85 0 -85 0 0
-85z m170 -170 l0 -85 -85 0 -85 0 0 85 0 85 85 0 85 0 0 -85z"/>
<path d="M4570 4605 l0 -85 -90 0 -91 0 3 -82 3 -83 85 0 85 0 3 82 3 82 82 3
82 3 3 83 3 82 -86 0 -85 0 0 -85z"/>
<path d="M4740 4435 l0 -85 -85 0 -85 0 0 -85 0 -85 85 0 85 0 0 85 0 85 85 0
85 0 0 85 0 85 -85 0 -85 0 0 -85z"/>
<path d="M3837 4085 c-52 -18 -69 -35 -144 -142 l-64 -92 -95 44 c-129 60
-164 69 -215 54 -82 -25 -110 -85 -124 -267 -8 -95 7 -85 -159 -101 -119 -11
-143 -21 -184 -82 -35 -50 -27 -110 32 -239 47 -102 48 -105 28 -118 -90 -59
-186 -138 -202 -165 -11 -17 -20 -49 -20 -70 0 -69 22 -102 116 -169 48 -35
95 -70 106 -78 19 -15 18 -18 -31 -125 -59 -128 -65 -181 -28 -235 37 -56 74
-71 205 -82 64 -6 120 -13 123 -17 4 -3 12 -59 18 -125 12 -124 23 -156 65
-195 l26 -24 0 -519 0 -519 25 -24 c16 -16 35 -25 57 -25 29 0 57 25 270 237
l238 237 238 -237 c219 -217 242 -237 273 -237 38 1 60 14 77 47 9 16 12 164
12 535 l0 514 30 29 c36 34 47 67 55 165 3 41 8 91 11 111 l5 37 97 7 c140 10
176 21 216 66 62 68 59 105 -19 274 l-43 92 102 71 c113 80 140 114 140 182
-1 70 -24 102 -134 180 -55 39 -100 75 -100 81 0 5 21 55 46 110 58 126 63
160 32 219 -33 64 -67 80 -208 94 -66 7 -123 15 -126 19 -3 3 -12 60 -18 125
-14 134 -31 174 -86 206 -56 33 -110 26 -232 -32 -98 -46 -108 -49 -121 -34
-7 10 -42 56 -76 105 -80 112 -133 140 -214 112z m121 -275 c107 -149 151
-160 322 -81 58 27 106 48 108 46 1 -1 7 -53 13 -116 12 -118 23 -153 62 -190
33 -31 55 -37 179 -50 62 -6 114 -12 116 -13 1 -2 -20 -51 -48 -110 -80 -170
-68 -215 85 -322 52 -37 95 -70 95 -73 0 -3 -42 -35 -92 -71 -109 -77 -129
-103 -135 -167 -3 -41 3 -63 46 -157 28 -60 50 -110 48 -111 -1 -1 -55 -7
-120 -13 -187 -16 -217 -46 -236 -236 -6 -60 -11 -113 -11 -117 0 -4 -47 15
-105 42 -176 82 -223 70 -332 -85 -34 -49 -64 -90 -67 -93 -2 -2 -37 41 -76
97 -106 150 -153 162 -321 85 -54 -25 -102 -45 -107 -45 -4 0 -13 54 -19 120
-9 106 -14 124 -37 155 -40 52 -77 66 -203 78 -62 5 -113 13 -113 17 0 4 21
52 46 106 51 108 59 167 30 222 -9 17 -60 61 -116 102 l-101 72 78 55 c98 69
121 91 140 127 27 53 20 104 -32 214 -26 56 -46 104 -44 107 3 2 56 9 119 15
185 18 222 56 235 245 4 55 9 103 11 107 2 3 48 -14 102 -39 184 -87 229 -73
352 109 25 37 48 66 52 65 4 -1 38 -45 76 -97z m-258 -1961 c88 -123 114 -141
193 -136 69 4 90 22 179 147 34 47 62 86 63 88 1 2 41 -15 89 -37 l86 -40 0
-408 0 -407 -198 197 c-178 177 -202 197 -232 197 -29 0 -53 -20 -226 -192
l-194 -192 0 405 0 404 78 37 c42 20 80 37 84 37 3 1 38 -44 78 -100z"/>
<path d="M3740 3656 c-195 -41 -368 -151 -476 -301 -235 -330 -181 -782 124
-1038 346 -291 863 -224 1123 146 168 240 183 554 38 817 -29 52 -70 103 -133
165 -76 76 -106 98 -186 137 -52 26 -122 54 -155 63 -85 22 -255 28 -335 11z
m265 -171 c270 -57 475 -309 475 -585 0 -265 -192 -510 -451 -576 -76 -19
-205 -21 -280 -4 -213 49 -389 222 -444 435 -19 75 -19 223 0 295 81 306 392
500 700 435z"/>
</g>
</svg>
