<?xml version="1.0" standalone="no"?>
<!DOCTYPE svg PUBLIC "-//W3C//DTD SVG 20010904//EN"
 "http://www.w3.org/TR/2001/REC-SVG-20010904/DTD/svg10.dtd">
<svg version="1.0" xmlns="http://www.w3.org/2000/svg"
 width="512.000000pt" height="512.000000pt" viewBox="0 0 512.000000 512.000000"
 preserveAspectRatio="xMidYMid meet">

<g transform="translate(0.000000,512.000000) scale(0.100000,-0.100000)"
fill="#444444" stroke="none">
<path d="M423 4697 c-368 -367 -423 -426 -423 -452 0 -26 87 -117 703 -732
661 -662 704 -703 737 -703 32 0 51 16 217 182 l183 183 192 -192 192 -192
-67 -70 c-84 -87 -89 -116 -27 -176 l40 -39 -70 -72 c-103 -105 -103 -105 63
-271 166 -166 166 -166 271 -63 l72 70 39 -40 c60 -62 89 -57 176 27 l70 67
192 -192 192 -192 -183 -183 c-166 -166 -182 -185 -182 -217 0 -33 41 -76 703
-737 615 -616 706 -703 732 -703 26 0 85 55 452 423 368 367 423 426 423 452
0 26 -87 117 -703 732 -661 662 -704 703 -737 703 -32 0 -51 -16 -217 -182
l-183 -183 -192 192 -192 192 67 70 c105 109 114 89 -181 384 -294 294 -275
285 -383 180 l-70 -67 -192 192 -192 192 183 183 c166 166 182 185 182 217 0
33 -41 76 -703 737 -615 616 -706 703 -732 703 -26 0 -85 -55 -452 -423z m632
63 l170 -170 -148 -147 -147 -148 -175 175 -175 175 142 142 c79 79 147 143
153 143 6 0 87 -77 180 -170z m-378 -717 l-147 -148 -170 170 c-93 93 -170
174 -170 180 0 5 64 74 142 152 l143 143 175 -175 175 -175 -148 -147z m825
270 c93 -92 168 -172 168 -178 0 -6 -64 -74 -143 -153 l-142 -142 -175 175
-175 175 145 145 c80 80 147 145 150 145 3 0 80 -75 172 -167z m-395 -405
l173 -173 -142 -142 c-79 -79 -147 -143 -153 -143 -6 0 -87 76 -180 170 l-170
170 145 145 c80 80 147 145 150 145 3 0 82 -78 177 -172z m858 -58 l170 -170
-148 -147 -147 -148 -175 175 -175 175 142 142 c79 79 147 143 153 143 6 0 87
-77 180 -170z m-378 -717 l-147 -148 -170 170 c-93 93 -170 174 -170 180 0 5
64 74 142 152 l143 143 175 -175 175 -175 -148 -147z m1146 -745 l-118 -118
-172 172 -173 173 117 117 118 118 172 -172 173 -173 -117 -117z m-396 -50
c29 -29 53 -57 53 -62 0 -5 -12 -23 -27 -38 l-27 -28 -63 62 -63 62 27 28 c15
15 31 28 37 28 6 0 34 -23 63 -52z m1515 -375 c93 -92 168 -172 168 -178 0 -6
-64 -74 -143 -153 l-142 -142 -175 175 -175 175 145 145 c80 80 147 145 150
145 3 0 80 -75 172 -167z m-395 -405 l173 -173 -142 -142 c-79 -79 -147 -143
-153 -143 -6 0 -87 76 -180 170 l-170 170 145 145 c80 80 147 145 150 145 3 0
82 -78 177 -172z m858 -58 l170 -170 -148 -147 -147 -148 -175 175 -175 175
142 142 c79 79 147 143 153 143 6 0 87 -77 180 -170z m-378 -717 l-147 -148
-170 170 c-93 93 -170 174 -170 180 0 5 64 74 142 152 l143 143 175 -175 175
-175 -148 -147z m825 270 c93 -92 168 -172 168 -178 0 -6 -64 -74 -143 -153
l-142 -142 -175 175 -175 175 145 145 c80 80 147 145 150 145 3 0 80 -75 172
-167z m-395 -405 l173 -173 -142 -142 c-79 -79 -147 -143 -153 -143 -6 0 -87
76 -180 170 l-170 170 145 145 c80 80 147 145 150 145 3 0 82 -78 177 -172z"/>
<path d="M3944 4928 c-22 -10 -44 -47 -44 -72 0 -7 9 -25 20 -39 17 -22 30
-26 102 -32 121 -11 221 -39 328 -92 81 -40 109 -62 195 -148 86 -86 108 -114
148 -195 53 -107 81 -207 92 -328 6 -72 10 -85 32 -102 29 -23 42 -24 77 -9
43 20 51 57 37 172 -53 437 -381 778 -811 843 -110 16 -147 17 -176 2z"/>
<path d="M3954 4610 c-26 -10 -54 -48 -54 -72 0 -9 10 -28 23 -43 18 -21 36
-27 98 -35 99 -12 176 -41 247 -95 110 -83 174 -198 192 -344 8 -62 14 -80 35
-98 33 -29 57 -29 92 1 26 22 28 29 25 88 -11 270 -217 521 -477 582 -81 19
-156 26 -181 16z"/>
<path d="M3921 4264 c-24 -31 -26 -43 -9 -79 8 -17 24 -29 52 -36 94 -26 106
-32 135 -64 19 -22 33 -54 41 -89 6 -31 18 -63 26 -71 27 -26 63 -29 92 -8 22
16 28 29 30 70 9 152 -139 303 -298 303 -41 0 -52 -4 -69 -26z"/>
<path d="M2762 4116 c-28 -29 -72 -86 -97 -125 -285 -441 -160 -1032 281
-1323 359 -237 852 -200 1164 89 84 78 83 96 -13 191 -60 59 -78 72 -105 72
-73 0 -95 -74 -40 -136 l32 -37 -34 -29 c-48 -41 -201 -113 -285 -134 -51 -13
-106 -18 -200 -18 -111 1 -143 5 -220 28 -309 93 -519 335 -572 658 -29 177 6
362 99 525 75 131 19 167 503 -317 405 -405 426 -424 461 -424 26 0 42 7 55
23 30 37 24 70 -21 116 l-40 41 105 262 c60 150 105 276 105 295 0 42 -26 67
-68 67 -18 0 -150 -47 -294 -105 l-263 -105 -220 220 c-258 258 -250 254 -333
166z m965 -398 c-3 -7 -29 -73 -58 -145 -29 -73 -55 -133 -58 -133 -14 0 -175
173 -166 177 64 27 272 111 279 112 4 1 6 -5 3 -11z"/>
</g>
</svg>
