<?xml version="1.0" standalone="no"?>
<!DOCTYPE svg PUBLIC "-//W3C//DTD SVG 20010904//EN"
 "http://www.w3.org/TR/2001/REC-SVG-20010904/DTD/svg10.dtd">
<svg version="1.0" xmlns="http://www.w3.org/2000/svg"
 width="512.000000pt" height="512.000000pt" viewBox="0 0 512.000000 512.000000"
 preserveAspectRatio="xMidYMid meet">

<g transform="translate(0.000000,512.000000) scale(0.100000,-0.100000)"
fill="#545454" stroke="none">
<path d="M1685 4950 c-90 -14 -220 -57 -310 -102 -254 -127 -443 -350 -528
-623 -41 -131 -47 -211 -47 -636 0 -331 -2 -399 -14 -399 -7 0 -45 -16 -83
-35 -86 -43 -144 -103 -186 -193 l-32 -67 -6 -315 -5 -315 -157 -1010 c-86
-555 -157 -1018 -157 -1028 0 -10 11 -29 25 -42 l24 -25 1311 0 1311 0 24 25
25 24 1 483 0 483 89 -177 c49 -97 98 -182 109 -188 13 -6 153 -10 393 -10
l373 0 -3 -55 c-10 -148 53 -309 162 -418 222 -222 570 -222 792 1 199 198
216 520 41 742 l-36 44 29 12 c16 7 33 21 39 33 7 12 11 115 11 286 l0 266
-25 24 c-22 23 -32 25 -120 25 l-95 0 0 80 0 80 55 0 c46 0 60 4 80 25 33 32
33 78 0 110 l-24 25 -351 0 -351 0 -24 -25 c-33 -32 -33 -78 0 -110 20 -21 34
-25 80 -25 l55 0 0 -112 c-1 -110 -1 -114 -30 -148 -17 -19 -30 -40 -30 -47 0
-10 -49 -13 -228 -13 l-227 0 -220 367 -220 367 -5 280 -5 281 -32 67 c-42 90
-100 150 -186 193 -38 19 -76 35 -83 35 -12 0 -14 69 -14 403 0 436 -7 516
-55 657 -116 342 -385 589 -740 681 -92 23 -304 34 -400 19z m310 -165 c387
-68 685 -395 721 -789 l7 -74 -68 34 c-37 19 -77 34 -89 34 -12 0 -29 6 -38
13 -9 6 -83 114 -166 238 -83 124 -158 229 -167 233 -9 3 -25 6 -36 6 -10 0
-232 -106 -492 -237 -346 -173 -489 -240 -536 -250 -36 -7 -89 -26 -118 -42
l-53 -29 0 33 c0 64 31 210 61 284 105 264 330 463 599 531 132 33 243 38 375
15z m238 -640 l97 -145 -392 1 -393 0 285 144 c157 79 290 144 296 144 6 1 54
-64 107 -144z m167 -510 c0 -204 0 -205 -22 -210 -48 -10 -331 -56 -333 -53
-1 2 -17 31 -34 65 -17 34 -40 67 -50 73 -11 5 -65 10 -121 10 -56 0 -110 -5
-121 -10 -10 -6 -33 -39 -50 -73 -17 -34 -33 -63 -34 -65 -2 -3 -285 43 -332
53 -23 5 -23 6 -23 210 l0 205 560 0 560 0 0 -205z m-1280 -35 c0 -254 1 -252
-83 -167 -104 104 -104 230 0 335 84 84 83 86 83 -168z m1523 168 c54 -54 77
-105 77 -168 0 -63 -23 -114 -77 -167 -84 -85 -83 -87 -83 167 0 254 -1 252
83 168z m-738 -478 c22 -44 45 -75 60 -82 20 -9 64 -5 217 21 106 17 199 31
206 31 11 0 12 -12 7 -52 -42 -309 -329 -525 -637 -480 -155 22 -319 130 -394
257 -57 97 -103 275 -72 275 7 0 100 -14 206 -31 153 -26 197 -30 217 -21 15
7 38 38 60 82 32 63 38 70 65 70 27 0 33 -7 65 -70z m-799 -82 c17 -4 23 -16
28 -57 24 -178 170 -390 334 -486 l52 -30 0 -117 0 -118 -440 0 -440 0 0 216
c0 257 5 279 75 349 51 52 102 75 164 75 21 0 41 9 56 25 23 22 25 32 25 118
l0 94 63 -32 c34 -17 72 -34 83 -37z m1643 -149 c13 -10 37 -19 53 -19 61 0
112 -24 163 -75 70 -70 75 -92 75 -349 l0 -216 -440 0 -440 0 0 118 0 117 52
30 c161 94 298 288 332 473 l11 63 58 24 c32 13 68 30 80 38 l22 15 5 -100 c4
-90 7 -102 29 -119z m-909 -494 c47 0 102 3 123 7 l37 7 0 -120 0 -119 -77
-155 c-43 -85 -80 -155 -83 -155 -3 0 -40 70 -83 155 l-77 155 0 119 0 120 38
-7 c20 -4 75 -7 122 -7z m-693 -425 l133 -100 0 -113 0 -114 240 -319 240
-319 0 -427 0 -428 -400 0 -400 0 0 615 0 616 -25 24 c-15 16 -36 25 -55 25
-19 0 -40 -9 -55 -25 l-25 -24 0 -616 0 -615 -234 0 c-218 0 -234 1 -230 18 2
9 67 431 144 937 77 506 143 930 145 943 5 22 6 22 197 22 l191 0 134 -100z
m508 -110 l105 -211 -2 -186 -3 -187 -157 211 -158 210 0 116 c0 63 -3 122 -6
131 -3 9 -37 39 -75 67 -38 28 -69 53 -69 55 0 2 58 4 130 4 l130 0 105 -210z
m735 206 c0 -2 -31 -27 -69 -55 -38 -28 -72 -58 -75 -67 -3 -9 -6 -68 -6 -131
l0 -116 -157 -210 -158 -211 -3 187 -2 186 105 211 105 210 130 0 c72 0 130
-2 130 -4z m919 -387 c129 -214 242 -394 252 -400 10 -5 130 -9 267 -9 l250 0
4 -72 c2 -49 10 -86 25 -114 l21 -41 -62 -46 c-62 -45 -133 -127 -157 -179
l-12 -28 -364 0 -363 0 -155 310 c-91 182 -163 313 -174 320 -33 17 -71 11
-96 -15 l-25 -24 0 -616 0 -615 -400 0 -400 0 0 428 0 427 240 319 240 319 0
113 0 114 133 100 132 100 205 0 205 0 234 -391z m1171 -9 l0 -80 -80 0 -80 0
0 80 0 80 80 0 80 0 0 -80z m240 -400 l0 -160 -215 0 c-216 0 -216 0 -240 25
-24 23 -25 31 -25 135 0 104 1 112 25 135 24 25 24 25 240 25 l215 0 0 -160z
m-156 -358 c91 -42 149 -100 194 -190 35 -72 37 -81 37 -172 0 -91 -2 -100
-37 -172 -45 -91 -103 -147 -196 -191 -61 -29 -76 -32 -162 -32 -86 0 -101 3
-162 32 -93 44 -151 100 -196 191 -35 72 -37 81 -37 171 0 87 3 102 32 163 40
85 97 147 172 186 78 42 122 52 213 48 61 -3 92 -11 142 -34z"/>
<path d="M4000 3187 c-49 -16 -133 -102 -148 -153 -28 -94 -8 -169 63 -239 51
-52 102 -75 165 -75 124 0 240 116 240 240 0 63 -23 114 -75 165 -70 71 -152
91 -245 62z m135 -172 c16 -15 25 -36 25 -55 0 -19 -9 -40 -25 -55 -15 -16
-36 -25 -55 -25 -19 0 -40 9 -55 25 -16 15 -25 36 -25 55 0 19 9 40 25 55 15
16 36 25 55 25 19 0 40 -9 55 -25z"/>
<path d="M4665 3175 c-16 -15 -25 -36 -25 -55 0 -19 9 -40 25 -55 15 -16 36
-25 55 -25 19 0 40 9 55 25 16 15 25 36 25 55 0 19 -9 40 -25 55 -15 16 -36
25 -55 25 -19 0 -40 -9 -55 -25z"/>
<path d="M4640 2707 c-49 -16 -133 -102 -148 -153 -28 -94 -8 -169 63 -239 70
-71 145 -91 239 -63 55 16 138 99 154 154 28 94 8 169 -63 239 -70 71 -152 91
-245 62z m135 -172 c50 -49 15 -135 -55 -135 -41 0 -80 39 -80 80 0 41 39 80
80 80 19 0 40 -9 55 -25z"/>
<path d="M4025 2375 c-50 -49 -15 -135 55 -135 41 0 80 39 80 80 0 41 -39 80
-80 80 -19 0 -40 -9 -55 -25z"/>
</g>
</svg>
