<?xml version="1.0" standalone="no"?>
<!DOCTYPE svg PUBLIC "-//W3C//DTD SVG 20010904//EN"
 "http://www.w3.org/TR/2001/REC-SVG-20010904/DTD/svg10.dtd">
<svg version="1.0" xmlns="http://www.w3.org/2000/svg"
 width="3840.000000pt" height="2060.000000pt" viewBox="0 0 3840.000000 2060.000000"
 preserveAspectRatio="xMidYMid meet">
    <g transform="translate(0.000000,2060.000000) scale(0.100000,-0.100000)"
    fill="#FFFFFF" stroke="none">
        <path d="M5340 15959 c-1269 -66 -2441 -484 -3425 -1224 -360 -271 -640 -529
        -963 -888 -123 -138 -402 -504 -402 -529 0 -5 33 13 73 40 465 314 1170 699
        1662 907 743 316 1436 498 2165 572 219 22 807 25 1005 5 698 -70 1275 -233
        1855 -523 220 -110 411 -222 586 -345 119 -83 325 -247 377 -302 l39 -39
        -1134 -925 c-623 -508 -1139 -927 -1145 -931 -7 -5 -68 6 -135 23 -382 96
        -767 43 -1108 -152 -479 -275 -754 -784 -738 -1366 l3 -120 -855 -697 c-470
        -384 -1230 -1004 -1688 -1377 l-833 -680 17 -26 c9 -15 54 -76 99 -137 270
        -360 641 -745 1025 -1066 576 -481 1228 -859 1915 -1111 927 -340 1971 -447
        2963 -303 1310 190 2443 845 3254 1881 213 272 463 681 539 883 l10 24 -28
        -19 c-216 -141 -309 -200 -478 -301 -1085 -650 -2138 -1020 -3200 -1125 -206
        -20 -821 -17 -1025 5 -651 72 -1212 236 -1765 517 -266 135 -466 258 -680 418
        -174 130 -368 299 -359 314 9 15 1944 1658 1952 1658 5 0 37 -12 73 -26 102
        -42 276 -82 413 -95 360 -35 752 82 1038 310 177 140 306 300 408 506 112 225
        154 403 154 655 0 109 -6 183 -19 250 -10 52 -18 107 -19 121 -1 23 208 205
        1689 1464 930 791 1691 1439 1693 1440 7 6 -49 105 -118 210 -455 689 -1177
        1272 -2027 1636 -822 352 -1852 520 -2863 468z"/>
        <path d="M17586 13170 c-160 -29 -278 -147 -333 -335 -17 -57 -18 -193 -21
        -2377 l-2 -2318 415 0 415 0 0 1811 c0 1152 3 1809 10 1807 5 -1 689 -691
        1520 -1533 831 -841 1629 -1647 1773 -1791 252 -251 265 -263 351 -305 l89
        -44 126 0 c118 0 130 2 184 28 75 37 148 111 186 189 64 131 61 -26 61 2531
        l0 2327 -415 0 -415 0 0 -1817 0 -1816 -1767 1764 c-1212 1210 -1788 1778
        -1832 1807 -34 23 -86 49 -115 57 -64 20 -166 27 -230 15z"/>
        <path d="M11227 13113 c-4 -3 -7 -1124 -7 -2490 l0 -2483 2215 0 2215 0 0 435
        0 435 -1780 0 -1780 0 0 1615 0 1615 1778 2 1777 3 0 435 0 435 -2206 3
        c-1213 1 -2209 -1 -2212 -5z"/>
        <path d="M24107 13113 c-4 -3 -7 -1124 -7 -2490 l0 -2483 435 0 435 0 0 2490
        0 2490 -428 0 c-236 0 -432 -3 -435 -7z"/>
        <path d="M26447 13113 c-4 -3 -7 -201 -7 -440 l0 -433 940 0 940 0 0 -2050 0
        -2050 435 0 435 0 0 2050 0 2050 940 0 940 0 -2 438 -3 437 -2306 3 c-1268 1
        -2309 -1 -2312 -5z"/>
        <path d="M32497 13113 c-4 -3 -7 -1128 -7 -2500 l0 -2493 440 0 440 0 -2 2498
        -3 2497 -431 3 c-237 1 -434 -1 -437 -5z"/>
        <path d="M36477 13113 c-4 -3 -7 -467 -7 -1030 l0 -1023 -1242 -2 -1243 -3 -3
        -387 -2 -388 1245 0 1245 0 0 -1080 0 -1080 435 0 435 0 0 2500 0 2500 -428 0
        c-236 0 -432 -3 -435 -7z"/>
        <path d="M12717 11033 c-4 -3 -7 -170 -7 -370 l0 -363 1375 0 1375 0 0 370 0
        370 -1368 0 c-753 0 -1372 -3 -1375 -7z"/>
        <path d="M15251 6773 c-24 -24 -142 -212 -307 -488 -147 -247 -341 -573 -430
        -722 l-163 -273 148 0 147 0 338 575 c186 316 341 575 345 575 5 -1 319 -526
        329 -552 2 -4 -100 -8 -226 -8 l-230 0 -61 -105 -60 -105 354 0 353 0 112
        -190 112 -190 154 0 c85 0 154 2 154 4 0 16 -878 1467 -901 1489 -24 22 -38
        27 -80 27 -44 0 -54 -4 -88 -37z"/>
        <path d="M30431 6773 c-24 -24 -142 -212 -307 -488 -147 -247 -341 -573 -430
        -722 l-163 -273 148 0 147 0 338 575 c186 316 341 575 345 575 5 -1 319 -526
        329 -552 2 -4 -100 -8 -226 -8 l-230 0 -61 -105 -60 -105 354 0 353 0 112
        -190 112 -190 154 0 c85 0 154 2 154 4 0 16 -878 1467 -901 1489 -24 22 -38
        27 -80 27 -44 0 -54 -4 -88 -37z"/>
        <path d="M17210 6040 l0 -750 670 0 670 0 0 130 0 130 -540 0 -540 0 0 490 0
        490 535 0 535 0 0 130 0 130 -665 0 -665 0 0 -750z"/>
        <path d="M19500 6040 l0 -750 130 0 130 0 0 620 0 621 463 -3 c452 -3 463 -3
        502 -25 47 -25 85 -64 111 -113 15 -28 19 -57 19 -150 0 -106 -2 -119 -27
        -167 -15 -28 -43 -64 -62 -78 -67 -51 -100 -55 -473 -55 l-343 0 0 -115 0
        -115 283 -1 282 0 189 -210 188 -209 181 0 181 0 -29 33 c-16 17 -117 120
        -223 228 l-194 196 56 28 c206 104 302 376 230 653 -21 78 -60 149 -117 210
        -58 60 -106 91 -193 124 -58 22 -65 23 -671 26 l-613 3 0 -751z"/>
        <path d="M22621 6779 c-149 -30 -263 -90 -366 -194 -131 -131 -191 -273 -202
        -477 -14 -269 79 -500 263 -652 75 -62 178 -115 274 -142 56 -16 105 -19 365
        -19 257 0 309 3 365 18 90 24 193 75 269 132 296 225 371 722 156 1044 -84
        127 -204 216 -363 269 -76 26 -82 26 -397 28 -176 2 -340 -2 -364 -7z m671
        -270 c197 -66 318 -241 318 -459 0 -145 -41 -256 -130 -354 -59 -64 -161 -120
        -249 -136 -73 -14 -487 -13 -553 1 -86 18 -172 65 -231 128 -95 99 -137 209
        -137 356 0 228 118 402 318 466 49 15 94 18 330 18 250 1 278 -1 334 -20z"/>
        <path d="M25087 6775 c-131 -36 -235 -123 -278 -233 -33 -82 -33 -252 -1 -334
        43 -108 117 -181 233 -230 53 -22 66 -23 504 -28 l451 -5 49 -25 c38 -19 56
        -36 73 -70 26 -51 30 -133 8 -183 -17 -43 -76 -93 -123 -106 -25 -7 -245 -11
        -620 -11 l-583 0 0 -130 0 -130 583 0 c353 0 608 4 647 11 74 11 169 53 218
        94 104 88 155 248 132 419 -25 184 -119 290 -291 331 -51 12 -143 15 -464 15
        -220 0 -418 5 -439 10 -45 10 -81 34 -110 74 -17 22 -21 42 -21 106 0 85 12
        112 69 154 27 21 39 21 607 24 l579 2 0 130 0 130 -587 -1 c-454 -1 -599 -4
        -636 -14z"/>
        <path d="M27340 6040 l0 -750 130 0 130 0 0 620 0 620 433 0 c481 0 489 -1
        564 -65 108 -92 119 -299 22 -409 -22 -24 -61 -55 -87 -68 -46 -23 -54 -23
        -394 -26 l-348 -3 0 -125 0 -124 338 0 c374 0 430 7 541 61 83 41 167 125 208
        209 90 184 79 434 -25 596 -57 88 -127 141 -248 186 -58 22 -66 23 -661 26
        l-603 3 0 -751z"/>
        <path d="M32731 6779 c-147 -29 -262 -90 -366 -194 -131 -131 -191 -273 -202
        -477 -14 -269 79 -500 263 -652 73 -60 176 -114 269 -142 53 -15 118 -18 528
        -21 l467 -4 0 130 0 131 -425 0 c-270 0 -443 4 -477 11 -86 18 -172 65 -231
        128 -95 99 -137 209 -137 356 0 142 41 255 128 347 55 59 111 94 193 119 56
        17 98 19 505 19 l444 0 0 130 0 130 -457 -1 c-252 -1 -478 -5 -502 -10z"/>
        <path d="M34630 6040 l0 -750 670 0 670 0 0 130 0 130 -540 0 -540 0 0 490 0
        490 535 0 535 0 0 130 0 130 -665 0 -665 0 0 -750z"/>
        <path d="M17660 6055 l0 -105 415 0 415 0 0 105 0 105 -415 0 -415 0 0 -105z"/>
        <path d="M35080 6055 l0 -105 415 0 415 0 0 105 0 105 -415 0 -415 0 0 -105z"/>
        <path d="M9929 5933 l-225 -3 -34 -35 -34 -35 2390 0 2390 0 39 40 39 40
        -2169 -2 c-1194 -2 -2272 -4 -2396 -5z"/>
        <path d="M36180 5900 l0 -40 580 0 580 0 0 40 0 40 -580 0 -580 0 0 -40z"/>
    </g>
</svg>
